<svg id="img23" xmlns="http://www.w3.org/2000/svg" xmlns:xlink="http://www.w3.org/1999/xlink" width="295" height="242.958" viewBox="0 0 295 242.958">
  <defs>
    <clipPath id="clip-path">
      <rect id="Rectángulo_401905" data-name="Rectángulo 401905" width="295" height="242.958" fill="none"/>
    </clipPath>
    <clipPath id="clip-path-6">
      <rect id="Rectángulo_401893" data-name="Rectángulo 401893" width="30.879" height="28.99" fill="none"/>
    </clipPath>
    <clipPath id="clip-path-8">
      <rect id="Rectángulo_401896" data-name="Rectángulo 401896" width="71.702" height="25.69" fill="none"/>
    </clipPath>
    <clipPath id="clip-path-9">
      <rect id="Rectángulo_401897" data-name="Rectángulo 401897" width="22.029" height="22.03" fill="none"/>
    </clipPath>
  </defs>
  <g id="Grupo_1100122" data-name="Grupo 1100122" clip-path="url(#clip-path)">
    <g id="Grupo_1100104" data-name="Grupo 1100104">
      <g id="Grupo_1100103" data-name="Grupo 1100103" clip-path="url(#clip-path)">
        <path id="Trazado_875063" data-name="Trazado 875063" d="M126.084,5.909a16.685,16.685,0,0,1,4.064-1.767l.838-4.023,6.8-.119.979,3.991a16.674,16.674,0,0,1,4.125,1.623l3.435-2.252,4.891,4.723L149.084,11.6a16.647,16.647,0,0,1,1.766,4.066l4.023.837.12,6.8L151,24.276a16.65,16.65,0,0,1-1.623,4.125l2.252,3.436-4.722,4.891L143.4,34.6a16.656,16.656,0,0,1-4.066,1.766l-.838,4.024-6.8.119-.979-3.991a16.683,16.683,0,0,1-4.125-1.623l-3.435,2.252-4.891-4.723,2.13-3.512a16.648,16.648,0,0,1-1.767-4.066l-4.023-.837-.12-6.8,3.991-.979a16.669,16.669,0,0,1,1.623-4.124l-2.252-3.436,4.722-4.891Zm3.623,9.056a7.294,7.294,0,1,0,10.313-.182,7.294,7.294,0,0,0-10.313.182" transform="translate(-47)" fill="#ffe2b7"/>
        <path id="Trazado_875064" data-name="Trazado 875064" d="M239.974,84.033a14.566,14.566,0,0,1,3.544-1.54l.73-3.508,5.927-.1.853,3.48a14.555,14.555,0,0,1,3.6,1.415l3-1.964,4.265,4.118-1.857,3.062a14.514,14.514,0,0,1,1.54,3.545l3.508.73.1,5.927-3.48.854a14.535,14.535,0,0,1-1.415,3.6l1.963,3-4.117,4.265-3.063-1.857a14.491,14.491,0,0,1-3.544,1.54l-.73,3.509-5.927.1-.853-3.48a14.532,14.532,0,0,1-3.6-1.415l-3,1.964-4.265-4.117,1.857-3.062a14.5,14.5,0,0,1-1.54-3.544l-3.508-.73-.1-5.927,3.48-.854a14.52,14.52,0,0,1,1.415-3.6l-1.964-3,4.117-4.265Zm3.16,7.9a6.359,6.359,0,1,0,8.992-.158,6.359,6.359,0,0,0-8.992.158" transform="translate(-94.365 -32.383)" fill="#fecab2"/>
        <path id="Trazado_875065" data-name="Trazado 875065" d="M29.735,230.9a18.224,18.224,0,0,1,4.446-1.932l.916-4.4,7.437-.13L43.6,228.8a18.207,18.207,0,0,1,4.512,1.775l3.758-2.463,5.351,5.166-2.33,3.842a18.22,18.22,0,0,1,1.932,4.448l4.4.915.13,7.437-4.366,1.07a18.244,18.244,0,0,1-1.775,4.511l2.463,3.759-5.166,5.351-3.842-2.33a18.241,18.241,0,0,1-4.448,1.932l-.916,4.4-7.436.131L34.8,264.38a18.237,18.237,0,0,1-4.512-1.775l-3.758,2.463L21.183,259.9l2.33-3.842a18.206,18.206,0,0,1-1.932-4.447l-4.4-.916-.13-7.436,4.366-1.07a18.258,18.258,0,0,1,1.775-4.512l-2.463-3.758,5.166-5.351Zm3.964,9.907a7.979,7.979,0,1,0,11.281-.2,7.979,7.979,0,0,0-11.281.2" transform="translate(-6.999 -92.137)" fill="#ffe2b7"/>
        <path id="Trazado_875066" data-name="Trazado 875066" d="M420.468,281.99a10.135,10.135,0,0,1,2.481-1.078l.51-2.455,4.149-.073.6,2.436a10.15,10.15,0,0,1,2.517.99l2.1-1.375,2.984,2.882-1.3,2.143a10.148,10.148,0,0,1,1.078,2.481l2.455.511.073,4.148-2.436.6a10.153,10.153,0,0,1-.99,2.516l1.374,2.1-2.881,2.984-2.143-1.3a10.172,10.172,0,0,1-2.481,1.078l-.511,2.455-4.148.073-.6-2.436a10.172,10.172,0,0,1-2.517-.99l-2.1,1.374-2.984-2.881,1.3-2.143a10.147,10.147,0,0,1-1.078-2.481l-2.455-.511-.073-4.148,2.436-.6a10.152,10.152,0,0,1,.99-2.516l-1.374-2.1,2.881-2.984Zm2.211,5.526a4.451,4.451,0,1,0,6.293-.111,4.451,4.451,0,0,0-6.293.111" transform="translate(-169.709 -114.285)" fill="#f5f5f5"/>
        <path id="Trazado_875067" data-name="Trazado 875067" d="M399.125,92.368a8.387,8.387,0,0,1,2.047-.89l.421-2.027,3.424-.06.493,2.011a8.386,8.386,0,0,1,2.078.817l1.73-1.134,2.464,2.379-1.073,1.769a8.406,8.406,0,0,1,.89,2.048l2.027.421.06,3.424-2.011.493a8.407,8.407,0,0,1-.817,2.077l1.134,1.731-2.379,2.464-1.77-1.073a8.367,8.367,0,0,1-2.048.89l-.421,2.027-3.424.06-.493-2.01a8.385,8.385,0,0,1-2.077-.818L397.65,108.1l-2.464-2.379,1.073-1.769a8.4,8.4,0,0,1-.89-2.048l-2.026-.422-.06-3.424,2.01-.493a8.386,8.386,0,0,1,.818-2.077l-1.134-1.731,2.379-2.463Zm1.825,4.561a3.674,3.674,0,1,0,5.194-.091,3.673,3.673,0,0,0-5.194.091" transform="translate(-161.454 -36.698)" fill="#feebcf"/>
        <path id="Trazado_875068" data-name="Trazado 875068" d="M218.4,42.764a8.388,8.388,0,0,1,2.047-.89l.421-2.027,3.424-.06.493,2.011a8.41,8.41,0,0,1,2.078.817l1.731-1.134,2.463,2.379-1.073,1.769a8.369,8.369,0,0,1,.89,2.048l2.027.421.06,3.424-2.011.493a8.407,8.407,0,0,1-.817,2.077l1.134,1.731-2.379,2.464-1.77-1.073a8.368,8.368,0,0,1-2.048.89l-.421,2.027-3.424.06-.493-2.01a8.385,8.385,0,0,1-2.077-.818L216.923,58.5l-2.464-2.379,1.073-1.769a8.4,8.4,0,0,1-.89-2.048l-2.026-.421-.06-3.424,2.01-.493a8.394,8.394,0,0,1,.818-2.077l-1.134-1.73,2.379-2.464Zm1.825,4.561a3.674,3.674,0,1,0,5.194-.091,3.674,3.674,0,0,0-5.194.091" transform="translate(-87.26 -16.334)" fill="#ffe9df"/>
        <path id="Trazado_875069" data-name="Trazado 875069" d="M238.595,171.712a8.388,8.388,0,0,1,2.047-.89l.421-2.027,3.424-.06.493,2.011a8.388,8.388,0,0,1,2.078.817l1.73-1.134,2.464,2.379-1.073,1.768a8.383,8.383,0,0,1,.89,2.048l2.027.421.06,3.424-2.011.493a8.385,8.385,0,0,1-.818,2.077l1.135,1.731-2.379,2.464-1.77-1.073a8.367,8.367,0,0,1-2.048.89l-.421,2.027-3.424.06-.493-2.01a8.386,8.386,0,0,1-2.077-.818l-1.731,1.134-2.464-2.379,1.073-1.769a8.4,8.4,0,0,1-.89-2.048l-2.026-.422-.06-3.424,2.01-.493a8.385,8.385,0,0,1,.818-2.077l-1.134-1.731,2.378-2.463Zm1.825,4.561a3.674,3.674,0,1,0,5.194-.091,3.674,3.674,0,0,0-5.194.091" transform="translate(-95.552 -69.27)" fill="#f5f5f5"/>
        <path id="Trazado_875070" data-name="Trazado 875070" d="M6.442,117.3a7.291,7.291,0,0,1,1.778-.773l.367-1.76,2.974-.052.428,1.746a7.288,7.288,0,0,1,1.8.71l1.5-.985,2.14,2.066-.931,1.537a7.313,7.313,0,0,1,.773,1.778l1.76.367.052,2.974-1.746.429a7.315,7.315,0,0,1-.71,1.8l.985,1.5-2.066,2.14-1.537-.931a7.3,7.3,0,0,1-1.778.773l-.367,1.76-2.974.052-.428-1.746a7.288,7.288,0,0,1-1.8-.71l-1.5.986L3.022,128.9l.931-1.537a7.267,7.267,0,0,1-.773-1.778l-1.76-.367-.052-2.974,1.746-.429a7.294,7.294,0,0,1,.71-1.8l-.986-1.5,2.066-2.14Zm1.586,3.962a3.191,3.191,0,1,0,4.512-.08,3.19,3.19,0,0,0-4.512.08" transform="translate(-0.562 -47.092)" fill="#fecab2"/>
      </g>
    </g>
    <g id="Grupo_1100106" data-name="Grupo 1100106">
      <g id="Grupo_1100105" data-name="Grupo 1100105" clip-path="url(#clip-path)">
        <path id="Trazado_875071" data-name="Trazado 875071" d="M403.9,48.934l6.961-.915a22.42,22.42,0,1,0-4.616-6.574l-.008-.01Z" transform="translate(-165.813 -3.974)" fill="#fff"/>
        <path id="Trazado_875072" data-name="Trazado 875072" d="M403.9,48.84s.06-.171.166-.5l.464-1.438,1.774-5.545-.12.024.008.009a.07.07,0,0,0,.1.01.072.072,0,0,0,.019-.084,22.379,22.379,0,0,1-1.969-10.85,21.916,21.916,0,0,1,.507-3.414,25.164,25.164,0,0,1,1.139-3.51,22.23,22.23,0,0,1,42.558,5.223,22.639,22.639,0,0,1-.881,10.193,21.9,21.9,0,0,1-4.943,8.271,22.323,22.323,0,0,1-15.2,6.968l-.955.026a6,6,0,0,1-.938-.017l-1.829-.134a31.1,31.1,0,0,1-3.4-.695,22.317,22.317,0,0,1-9.488-5.5.066.066,0,0,0-.055-.019l-5.15.719-1.339.191c-.3.044-.463.071-.463.071s.143-.012.438-.047l1.323-.159,5.209-.643-.055-.019a22.3,22.3,0,0,0,9.524,5.608,30.866,30.866,0,0,0,3.432.717l1.846.144a6.128,6.128,0,0,0,.948.02l.965-.022a22.532,22.532,0,0,0,15.4-7.009,22.165,22.165,0,0,0,5.022-8.373,22.921,22.921,0,0,0,.9-10.333,22.391,22.391,0,0,0-4.112-10.05A10.018,10.018,0,0,0,443.9,17.6l-.881-1.035-.969-.944a9.25,9.25,0,0,0-1-.9l-1.046-.837c-.341-.289-.736-.5-1.1-.75-.375-.236-.733-.5-1.119-.709l-1.171-.607a22.2,22.2,0,0,0-9.885-2.369,22.594,22.594,0,0,0-16.613,7.174,22.372,22.372,0,0,0-4.352,6.828,25.267,25.267,0,0,0-1.136,3.552,22.055,22.055,0,0,0-.5,3.45,22.382,22.382,0,0,0,2.053,10.923l.117-.074-.008-.009a.069.069,0,0,0-.1-.01.071.071,0,0,0-.022.034l-1.707,5.619-.429,1.427c-.095.318-.136.473-.136.473" transform="translate(-165.813 -3.88)" fill="#263238"/>
        <path id="Trazado_875073" data-name="Trazado 875073" d="M427.631,34.313H445.1l.028,5.849h-.835q-.411-3.139-2.351-4.247a7.243,7.243,0,0,0-3.257-.667v15.28a2.95,2.95,0,0,0,.559,2.126,3.591,3.591,0,0,0,2.33.525v.736H431.229v-.736a3.41,3.41,0,0,0,2.259-.532,2.957,2.957,0,0,0,.559-2.119V35.248a7.427,7.427,0,0,0-3.257.667q-2.082,1.137-2.351,4.247H427.6Z" transform="translate(-175.543 -14.086)" fill="#263238"/>
      </g>
    </g>
    <g id="Grupo_1100108" data-name="Grupo 1100108">
      <g id="Grupo_1100107" data-name="Grupo 1100107" clip-path="url(#clip-path)">
        <path id="Trazado_875074" data-name="Trazado 875074" d="M50.289,64.354l-7.351.371a23.511,23.511,0,1,1,3.517-7.652l.007-.012Z" transform="translate(-0.105 -11.4)" fill="#fff"/>
        <path id="Trazado_875075" data-name="Trazado 875075" d="M50.184,64.264s-.095-.165-.265-.48l-.75-1.395-2.877-5.384.129,0-.006.011a.073.073,0,0,1-.1.029.075.075,0,0,1-.035-.083A23.464,23.464,0,0,0,46.261,45.4a22.9,22.9,0,0,0-1.168-3.425,26.362,26.362,0,0,0-1.837-3.405A23.306,23.306,0,0,0,.353,52,23.73,23.73,0,0,0,3.186,62.343a22.96,22.96,0,0,0,6.66,7.6,23.4,23.4,0,0,0,16.992,4.316l.99-.154a6.259,6.259,0,0,0,.965-.194l1.86-.484a32.366,32.366,0,0,0,3.378-1.36A23.388,23.388,0,0,0,42.776,64.6a.069.069,0,0,1,.054-.029l5.447-.232,1.417-.056c.32-.012.492-.014.492-.014s-.15.014-.46.034l-1.4.085-5.492.321.053-.029a23.374,23.374,0,0,1-8.763,7.581,32.5,32.5,0,0,1-3.4,1.388l-1.877.5a6.388,6.388,0,0,1-.974.2l-1,.159a23.617,23.617,0,0,1-17.2-4.32,23.237,23.237,0,0,1-6.761-7.686A24.025,24.025,0,0,1,.026,52.009,23.474,23.474,0,0,1,2.368,40.868,10.5,10.5,0,0,1,3.034,39.6l.712-1.234.821-1.157A9.782,9.782,0,0,1,5.429,36.1l.92-1.06c.3-.363.666-.653.993-.982.342-.314.663-.651,1.02-.943l1.093-.846a23.281,23.281,0,0,1,9.748-4.31,23.694,23.694,0,0,1,18.488,4.262,23.465,23.465,0,0,1,5.777,6.22,26.51,26.51,0,0,1,1.843,3.448,23.153,23.153,0,0,1,1.164,3.464A23.475,23.475,0,0,1,46.422,57l-.135-.054.006-.011a.073.073,0,0,1,.1-.029.075.075,0,0,1,.03.031l2.821,5.473.711,1.391c.158.311.23.463.23.463" transform="translate(0 -11.31)" fill="#263238"/>
        <path id="Trazado_875076" data-name="Trazado 875076" d="M43.846,59.031a6.746,6.746,0,0,0-1.76-3.648,6.481,6.481,0,0,0-3.394-2.05,5.23,5.23,0,0,0-5.734,2.737A5.223,5.223,0,0,0,27.3,53.63a6.474,6.474,0,0,0-3.359,2.106,6.742,6.742,0,0,0-1.7,3.675A8.2,8.2,0,0,0,23.3,64.45a11.614,11.614,0,0,0,4.03,3.714c2.626,1.553,6.082,3.495,6.082,3.495s2.89-2.2,5.49-3.793a11.611,11.611,0,0,0,3.968-3.779,8.2,8.2,0,0,0,.979-5.056" transform="translate(-9.109 -21.85)" fill="#ffb937"/>
      </g>
    </g>
    <g id="Grupo_1100113" data-name="Grupo 1100113">
      <g id="Grupo_1100112" data-name="Grupo 1100112" clip-path="url(#clip-path)">
        <path id="Trazado_875077" data-name="Trazado 875077" d="M305.843,38.168a4.949,4.949,0,0,1-2.356-9.562,5.149,5.149,0,0,1,4.251-8.8,6.162,6.162,0,0,1,9.151-5.3,6.928,6.928,0,0,1,8.523-.4,4.928,4.928,0,0,1,4.576,8.238" transform="translate(-123.246 -5.266)" fill="#263238"/>
        <path id="Trazado_875078" data-name="Trazado 875078" d="M329.468,23.224l-1.087.031A21,21,0,0,0,308,43.15c-.531,10.165-.987,21.4-.766,26.84.458,11.262,11.775,12.695,11.775,12.695l-.569,13.561,25.012-.218,3.335-50.558c.678-11.726-5.581-21.894-17.321-22.247" transform="translate(-126.106 -9.534)" fill="#ae7461"/>
        <path id="Trazado_875079" data-name="Trazado 875079" d="M327.078,120.773a27.335,27.335,0,0,0,14.639-4.738s-3.39,8.184-14.66,7.487Z" transform="translate(-134.266 -47.636)" fill="#6f4439"/>
        <path id="Trazado_875080" data-name="Trazado 875080" d="M316.147,76.166a1.608,1.608,0,0,0,1.6,1.579,1.539,1.539,0,0,0,1.617-1.5,1.609,1.609,0,0,0-1.6-1.58,1.54,1.54,0,0,0-1.618,1.5" transform="translate(-129.787 -30.653)" fill="#263238"/>
        <path id="Trazado_875081" data-name="Trazado 875081" d="M312.93,65.02c.205.2,1.4-.732,3.13-.777,1.729-.069,3.025.786,3.206.569.09-.1-.124-.47-.689-.857A4.419,4.419,0,0,0,316,63.24a4.241,4.241,0,0,0-2.484.881c-.521.423-.69.808-.589.9" transform="translate(-128.455 -25.961)" fill="#263238"/>
        <path id="Trazado_875082" data-name="Trazado 875082" d="M341.89,75.451a1.609,1.609,0,0,0,1.6,1.579,1.539,1.539,0,0,0,1.617-1.5,1.61,1.61,0,0,0-1.6-1.58,1.54,1.54,0,0,0-1.619,1.5" transform="translate(-140.355 -30.359)" fill="#263238"/>
        <path id="Trazado_875083" data-name="Trazado 875083" d="M341.813,64.75c.206.2,1.4-.732,3.131-.776,1.728-.069,3.024.786,3.206.568.09-.1-.123-.47-.69-.857a4.406,4.406,0,0,0-2.574-.714,4.236,4.236,0,0,0-2.484.88c-.519.423-.69.808-.589.9" transform="translate(-140.313 -25.851)" fill="#263238"/>
        <path id="Trazado_875084" data-name="Trazado 875084" d="M328.693,78.012a11.41,11.41,0,0,0-2.826-.428c-.443-.033-.864-.109-.947-.409a2.257,2.257,0,0,1,.258-1.319q.578-1.622,1.212-3.4c1.681-4.844,2.883-8.822,2.687-8.888s-1.716,3.807-3.4,8.651q-.606,1.791-1.157,3.422a2.564,2.564,0,0,0-.18,1.741,1.111,1.111,0,0,0,.745.626,2.981,2.981,0,0,0,.754.083,11.336,11.336,0,0,0,2.85-.076" transform="translate(-133.112 -26.095)" fill="#263238"/>
        <path id="Trazado_875085" data-name="Trazado 875085" d="M338.948,53.4c.241.433,1.711-.085,3.536-.2,1.822-.153,3.371.149,3.525-.312.066-.219-.27-.6-.938-.937a5.485,5.485,0,0,0-2.757-.5,5.293,5.293,0,0,0-2.623.886c-.595.424-.852.852-.744,1.058" transform="translate(-139.138 -21.118)" fill="#263238"/>
        <path id="Trazado_875086" data-name="Trazado 875086" d="M312.424,52.833c.376.383,1.793-.066,3.511-.134,1.715-.118,3.181.174,3.5-.246.141-.2-.1-.591-.746-.946a5.588,5.588,0,0,0-2.873-.563,5.494,5.494,0,0,0-2.779.869c-.6.421-.784.832-.617,1.019" transform="translate(-128.235 -20.91)" fill="#263238"/>
        <path id="Trazado_875087" data-name="Trazado 875087" d="M310.14,37.024s2.772-7.139,6.127-8.882c4.062-2.11,5.963,2.36,9.857,1.152s7.771-3.231,11.868-.311c4.484,3.2,2.493,5.585,2.906,10.575,1.673,20.235,5.536,25.861,6.319,16.285.086-1.049,2.964-1.963,3.27-6.393.4-5.746.419-12.708-.975-16.738-1.175-3.4-3.2-5.709-6.774-8.22-5.648-3.964-13.248-3.838-18.393-3.173s-14.924,6.883-14.2,15.7" transform="translate(-127.306 -8.606)" fill="#263238"/>
        <path id="Trazado_875088" data-name="Trazado 875088" d="M371.765,77.53a3.059,3.059,0,0,1,3.219-3.04c2.106.14,4.478,1.267,4.462,5.613-.028,7.709-7.762,6.09-7.774,5.869-.009-.15.053-5.216.093-8.442" transform="translate(-152.581 -30.577)" fill="#ae7461"/>
        <path id="Trazado_875089" data-name="Trazado 875089" d="M374.53,84.819c.034-.024.134.095.361.2a1.34,1.34,0,0,0,1,.024c.815-.3,1.506-1.586,1.549-2.975a4.433,4.433,0,0,0-.37-1.924,1.549,1.549,0,0,0-1.006-1.035.683.683,0,0,0-.794.365c-.1.216-.056.37-.1.383-.022.019-.165-.13-.1-.448a.858.858,0,0,1,.305-.482,1.014,1.014,0,0,1,.743-.194,1.888,1.888,0,0,1,1.4,1.2,4.565,4.565,0,0,1,.458,2.15c-.055,1.553-.856,3-1.971,3.322a1.439,1.439,0,0,1-1.228-.208c-.238-.192-.278-.364-.251-.378" transform="translate(-153.752 -32.319)" fill="#6f4439"/>
        <path id="Trazado_875090" data-name="Trazado 875090" d="M349.364,38.844a7.317,7.317,0,0,1-3.22,1.6,2.513,2.513,0,0,1-2.837-1.688c-.107-.533.007-1.159-.357-1.563-.434-.483-1.206-.306-1.85-.219-2.232.3-4.919-2.1-5.551-4.261a2.01,2.01,0,0,1-2.67.633,7.211,7.211,0,0,1-1.9-1.6A3.171,3.171,0,0,0,328.3,30.5a7.608,7.608,0,0,1-1.665.416c-1.014-.061-1.541-1.231-1.722-2.231S324.574,26.516,323.7,26c-.808-.483-1.829-.162-2.756,0s-2.136-.021-2.4-.925a1.83,1.83,0,0,1,.305-1.406,4.99,4.99,0,0,1,5.835-2.055,6.763,6.763,0,0,1,12.385-1.662A6.864,6.864,0,0,1,348.11,22.14a4.975,4.975,0,0,1,5.812,7.075,4.727,4.727,0,0,1,2.705,3.688c.074,1.593-1.435,3.226-2.985,2.85a2.755,2.755,0,0,1-4.686,2.882" transform="translate(-130.753 -6.81)" fill="#263238"/>
        <path id="Trazado_875091" data-name="Trazado 875091" d="M328.131,28.981a.387.387,0,0,0,.005.141c.014.093.022.232.061.41A4.841,4.841,0,0,0,328.8,31a5.523,5.523,0,0,0,1.76,1.773,5.132,5.132,0,0,0,3.18.81l-.135-.167a2.788,2.788,0,0,0,.215,2.122,7.969,7.969,0,0,0,1.372,1.857,5.74,5.74,0,0,0,.887.859,2.7,2.7,0,0,0,1.233.419,2.813,2.813,0,0,0,2.454-.958l-.291-.074a5.781,5.781,0,0,0,2.564,3.928,4.215,4.215,0,0,0,2.552.757,7.619,7.619,0,0,0,2.477-.618l-.208-.085a6.067,6.067,0,0,0,1.89,2.325,3.231,3.231,0,0,0,2.7.655,4.245,4.245,0,0,0,3.173-3.412l-.173.086a3.971,3.971,0,0,0,2.658.314,4.312,4.312,0,0,0,1.822-.875,3.726,3.726,0,0,0,.834-.966,1.8,1.8,0,0,0,.184-.4,4.629,4.629,0,0,1-1.1,1.268,4.275,4.275,0,0,1-1.78.794,3.8,3.8,0,0,1-2.509-.339l-.147-.078-.026.164a4,4,0,0,1-3,3.164,2.936,2.936,0,0,1-2.455-.622,5.794,5.794,0,0,1-1.777-2.208l-.065-.141-.144.056a7.344,7.344,0,0,1-2.369.588,3.882,3.882,0,0,1-2.357-.706,5.469,5.469,0,0,1-2.424-3.7l-.058-.363-.232.289a2.5,2.5,0,0,1-2.167.845A2.393,2.393,0,0,1,336.246,38a5.613,5.613,0,0,1-.836-.806,7.79,7.79,0,0,1-1.34-1.776,2.53,2.53,0,0,1-.222-1.92l.058-.186-.193.019a4.957,4.957,0,0,1-3.046-.73,5.476,5.476,0,0,1-1.746-1.675,5.951,5.951,0,0,1-.789-1.942" transform="translate(-134.706 -11.897)" fill="#455a64"/>
        <path id="Trazado_875092" data-name="Trazado 875092" d="M332.714,94.8c.035-.288,1.941.054,3.589-1.332s1.807-3.451,2.076-3.417c.125-.005.288.519.156,1.381a4.826,4.826,0,0,1-1.626,2.873,4.2,4.2,0,0,1-2.987.994c-.811-.072-1.243-.37-1.208-.5" transform="translate(-136.587 -36.967)" fill="#263238"/>
        <path id="Trazado_875093" data-name="Trazado 875093" d="M399.848,135.593a30.14,30.14,0,0,1,12.616,5.445c5.758,4.453,20.405,33.054,20.405,33.054l-31.526,6.37Z" transform="translate(-164.149 -55.665)" fill="#ffb937"/>
        <path id="Trazado_875094" data-name="Trazado 875094" d="M351.319,239l56.5-130.819,30.879,11.931-58.46,131.556A15.784,15.784,0,0,1,351.319,239" transform="translate(-143.694 -44.413)" fill="#7d3a1b"/>
        <path id="Trazado_875095" data-name="Trazado 875095" d="M459.265,182.1a6.432,6.432,0,0,1,2.717.669,31.859,31.859,0,0,0,3.39,1.32l5.454,2.521a2.688,2.688,0,0,1-2.012,4.531c.6.676,1.082.833,1.228,1.723a2.872,2.872,0,0,1-.724,2.5,2.057,2.057,0,0,1-2.482.326,3.34,3.34,0,0,1-2.73,4.912,3.5,3.5,0,0,1-1.235-.125,1.37,1.37,0,0,1-.444-.163.577.577,0,0,1-.14-.166c-.177-.288-.3-.6-.5-.88-.074-.1-.153-.207-.236-.307a6.3,6.3,0,0,0-1.308-1.168,5.669,5.669,0,0,1-.7-.451,3.049,3.049,0,0,1-.306-.443,8.31,8.31,0,0,0-2.8-1.987,6.555,6.555,0,0,1-2.847-2.4,2.418,2.418,0,0,1,.766-3.282,1.647,1.647,0,0,1-.931-1.97,2.38,2.38,0,0,1,1.695-1.551,4.426,4.426,0,0,1,2.37.11,1.818,1.818,0,0,1-.605-2.45,2.8,2.8,0,0,1,2.379-1.276" transform="translate(-186.081 -74.756)" fill="#ae7461"/>
        <path id="Trazado_875096" data-name="Trazado 875096" d="M464.125,213.443a2.7,2.7,0,0,1-1.692,1.488,4.416,4.416,0,0,1-2.9-.918c.367-1.031.612-1.531.979-2.562.077-.218.222-.353.2-.582-.054-.606-1.119-1.135-1.514-1.6a2.069,2.069,0,0,1,.352-2.819,2.775,2.775,0,0,1,2.98-.2,4.29,4.29,0,0,1,1.947,2.4,5.994,5.994,0,0,1-.358,4.789" transform="translate(-188.349 -84.534)" fill="#ae7461"/>
        <path id="Trazado_875097" data-name="Trazado 875097" d="M467.874,200.8c.093-.179-2.687-1.8-6.208-3.622s-6.451-3.153-6.544-2.974,2.686,1.8,6.208,3.622,6.451,3.153,6.543,2.974" transform="translate(-186.84 -79.719)" fill="#6f4439"/>
        <path id="Trazado_875098" data-name="Trazado 875098" d="M471.817,193.693c.1-.162-2.293-1.866-5.563-3.41s-6.1-2.331-6.162-2.147,2.627,1.273,5.85,2.806,5.764,2.929,5.875,2.75" transform="translate(-188.88 -77.224)" fill="#6f4439"/>
        <path id="Trazado_875099" data-name="Trazado 875099" d="M476.338,186.842c.1-.177-1.957-1.48-4.7-2.641s-5-1.955-5.076-1.781c-.089.192,2.064,1.3,4.786,2.452s4.889,2.144,4.988,1.971" transform="translate(-191.537 -74.879)" fill="#6f4439"/>
        <path id="Trazado_875100" data-name="Trazado 875100" d="M465.588,211.738c.072.049.434-.343.516-1.157a4.043,4.043,0,0,0-1-2.874,8.116,8.116,0,0,0-2.309-1.917c-.814-.373-1.363.055-1.271.126.041.09.483-.057,1.025.328a14.5,14.5,0,0,1,1.988,1.922,4.388,4.388,0,0,1,1.052,2.409c.058.682-.1,1.115,0,1.162" transform="translate(-189.465 -84.421)" fill="#6f4439"/>
        <path id="Trazado_875101" data-name="Trazado 875101" d="M478.943,108.235l-4.05-26.226a3.257,3.257,0,0,0-5.186-2.1L448.064,96.3Z" transform="translate(-183.943 -32.533)" fill="#ffb937"/>
        <path id="Trazado_875102" data-name="Trazado 875102" d="M359.74,351.9h0a15.784,15.784,0,0,0,19.81-6.8l-28.744-12.642c-.009.028-.022.056-.032.084l-.038.119a15.784,15.784,0,0,0,9,19.242" transform="translate(-143.695 -136.482)" fill="#263238"/>
        <g id="Grupo_1100111" data-name="Grupo 1100111" transform="translate(264.121 46.713)" opacity="0.5">
          <g id="Grupo_1100110" data-name="Grupo 1100110">
            <g id="Grupo_1100109" data-name="Grupo 1100109" clip-path="url(#clip-path-6)">
              <path id="Trazado_875103" data-name="Trazado 875103" d="M478.943,108.235l-4.05-26.226a3.257,3.257,0,0,0-5.186-2.1L448.064,96.3Z" transform="translate(-448.064 -79.245)" fill="#fff"/>
            </g>
          </g>
        </g>
        <path id="Trazado_875104" data-name="Trazado 875104" d="M488.917,84.507l-.525-3.323a2.956,2.956,0,0,0-4.766-1.847L481.2,81.279Z" transform="translate(-197.545 -32.302)" fill="#ffb937"/>
        <path id="Trazado_875105" data-name="Trazado 875105" d="M354.393,171.946l-1.009-38.653-18.189-3.55c-3.927,7.77-15.946,11.395-25.324,1.959L290.7,134.416s-2.921,34.974-1.888,61.554l-3.362,36.913c17.511,11.466,40.052,16.271,58.28,12.99,8.4-1.6-.253-.26,7.318-4.175Z" transform="translate(-117.186 -53.263)" fill="#ffb937"/>
        <path id="Trazado_875106" data-name="Trazado 875106" d="M273.96,137.67s-9.434,1.984-16.8,14.073a142.784,142.784,0,0,1-13.152,18.67L271.223,183.2Z" transform="translate(-100.173 -56.517)" fill="#ffb937"/>
        <path id="Trazado_875107" data-name="Trazado 875107" d="M291.131,167.712c.085,0,.153,3.158.153,7.053s-.068,7.054-.153,7.054-.153-3.158-.153-7.054.068-7.053.153-7.053" transform="translate(-119.455 -68.851)" fill="#263238"/>
        <path id="Trazado_875108" data-name="Trazado 875108" d="M402.3,174.332c.085,0,.153,4.89.153,10.92s-.068,10.921-.153,10.921-.153-4.888-.153-10.921.068-10.92.153-10.92" transform="translate(-165.092 -71.568)" fill="#263238"/>
      </g>
    </g>
    <g id="Grupo_1100121" data-name="Grupo 1100121">
      <g id="Grupo_1100120" data-name="Grupo 1100120" clip-path="url(#clip-path)">
        <path id="Trazado_875109" data-name="Trazado 875109" d="M186.24,194.052l4.692,14.783V198.368L202.1,197.09s5.191,33.677-.64,40.521c-3.416,4.01-8.226,2.9-11.317,1.026-9.12-5.544-18.511-20.373-18.511-20.373l-.927-16.009Z" transform="translate(-70.079 -79.664)" fill="#ffc09d"/>
        <path id="Trazado_875110" data-name="Trazado 875110" d="M109.327,68.266c-7.572,14.884-7.863,33.02-1.765,48.566a6.367,6.367,0,0,0,2.158,3.209c1.469.948,3.4.608,5.078.131,4.944-1.4,9.589-3.7,14.471-5.308s10.218-2.508,15.142-1.037Z" transform="translate(-42.403 -28.025)" fill="#263238"/>
        <path id="Trazado_875111" data-name="Trazado 875111" d="M180.453,106.915c-1.256-3.458-5.432-4.617-8.487-6.667-4.637-3.113-6.943-8.74-7.977-14.229s-1.4-12.378-2.772-17.794-4.247-14.821-9.373-17.038L114.13,55.355c-5.589,8.285-9.594,16.681-7.351,26.421,1.4,6.1,6.286,18.814,6,25.524-.368,8.562-7.671,11.909-1.9,18.241,3.512,3.852,30.542-1.251,35.6,0s11.5-1.783,11.749-6.99a8.446,8.446,0,0,0,15.1-2.344c4.373-.806,8.638-5.114,7.12-9.294" transform="translate(-43.575 -21.014)" fill="#263238"/>
        <path id="Trazado_875112" data-name="Trazado 875112" d="M118.931,48.326a26.672,26.672,0,0,1,22.119-6.579c4.636.73,6.382,2.025,9.554,3.5a14.811,14.811,0,0,1,7.358,6.954c1.775,3.76,3.1,7.855,2.838,12a35.664,35.664,0,0,1-2.689,11.531,47,47,0,0,1-8.646,12.67l-7.246-.376c-5.93-.828-11.941-1.677-17.45-4.024s-10.549-6.41-12.747-11.98c-3.053-7.738.612-18.266,6.908-23.7" transform="translate(-45.539 -16.998)" fill="#263238"/>
        <path id="Trazado_875113" data-name="Trazado 875113" d="M132.307,53.627l15.217-3.174,3.642,1.08c8.36,1.489,12.519,11.72,11.392,18.5-1.252,7.538-3.078,16.69-5.242,22.029-4.351,10.735-14.034,10-14.034,10s-.842,5.978-1.424,9.737l-21.512-5.374,7.532-49.642a4.024,4.024,0,0,1,4.428-3.164" transform="translate(-49.406 -20.712)" fill="#ffc09d"/>
        <path id="Trazado_875114" data-name="Trazado 875114" d="M155.382,110.506a2.408,2.408,0,0,1,1.077-1.322,2.464,2.464,0,0,1,2.973.345,3.3,3.3,0,0,1,.7,3.267,3,3,0,0,1-2.328.858,3.645,3.645,0,0,1-.4-.057,2.693,2.693,0,0,1-1.665-1.02,2.4,2.4,0,0,1-.36-2.072" transform="translate(-63.749 -44.681)" fill="#ff9b6c"/>
        <path id="Trazado_875115" data-name="Trazado 875115" d="M178.349,96.865a1.467,1.467,0,0,1-1.712,1.123,1.4,1.4,0,0,1-1.175-1.63,1.468,1.468,0,0,1,1.711-1.124,1.4,1.4,0,0,1,1.177,1.631" transform="translate(-72.022 -39.087)" fill="#263238"/>
        <path id="Trazado_875116" data-name="Trazado 875116" d="M182.594,87.737c-.221.146-1.118-.907-2.658-1.259-1.532-.374-2.844.156-2.967-.071-.063-.1.2-.4.77-.641a4.034,4.034,0,0,1,2.429-.174,3.871,3.871,0,0,1,2.061,1.235c.388.473.472.847.365.91" transform="translate(-72.647 -35.093)" fill="#263238"/>
        <path id="Trazado_875117" data-name="Trazado 875117" d="M165.981,97.977a10.445,10.445,0,0,1,2.6.128c.4.05.792.058.921-.195a2.051,2.051,0,0,0,.007-1.224q-.224-1.554-.469-3.26c-.626-4.631-.984-8.4-.8-8.427s.847,3.711,1.474,8.343c.145,1.14.285,2.226.416,3.266a2.334,2.334,0,0,1-.153,1.589,1.014,1.014,0,0,1-.779.425,2.766,2.766,0,0,1-.689-.062,10.253,10.253,0,0,1-2.533-.583" transform="translate(-68.14 -34.894)" fill="#263238"/>
        <path id="Trazado_875118" data-name="Trazado 875118" d="M149.538,132.823a29.1,29.1,0,0,1-14-7.438s2.188,8.646,13.584,10.187Z" transform="translate(-55.64 -51.474)" fill="#ff9b6c"/>
        <path id="Trazado_875119" data-name="Trazado 875119" d="M157.521,107.041c.253.043-.13,1.714,1.025,3.23s2.974,1.744,2.933,1.98c0,.11-.471.233-1.227.08a4.269,4.269,0,0,1-2.47-1.559,3.717,3.717,0,0,1-.753-2.683c.1-.713.38-1.083.492-1.047" transform="translate(-64.453 -43.943)" fill="#263238"/>
        <path id="Trazado_875120" data-name="Trazado 875120" d="M183.232,78.492c-.345.315-1.465-.208-2.868-.413-1.4-.249-2.627-.106-2.851-.514-.1-.2.139-.528.7-.8a4.487,4.487,0,0,1,4.608.747c.448.431.562.819.408.975" transform="translate(-72.866 -31.38)" fill="#263238"/>
        <path id="Trazado_875121" data-name="Trazado 875121" d="M151.621,91.676A1.467,1.467,0,0,0,152.73,93.4a1.4,1.4,0,0,0,1.735-1.013,1.467,1.467,0,0,0-1.108-1.721,1.4,1.4,0,0,0-1.737,1.013" transform="translate(-62.231 -37.201)" fill="#263238"/>
        <path id="Trazado_875122" data-name="Trazado 875122" d="M151.031,81.339c.143.222,1.389-.375,2.939-.073,1.553.28,2.536,1.3,2.742,1.139.1-.068-.018-.442-.444-.9a4.032,4.032,0,0,0-2.15-1.144,3.873,3.873,0,0,0-2.385.292c-.546.275-.774.583-.7.684" transform="translate(-61.997 -32.962)" fill="#263238"/>
        <path id="Trazado_875123" data-name="Trazado 875123" d="M154.081,73.125c.238.411,1.5.276,2.946.535,1.449.215,2.611.748,2.962.433.157-.155.034-.545-.434-.98a4.516,4.516,0,0,0-2.279-1.037,4.463,4.463,0,0,0-2.481.256c-.578.263-.815.594-.713.792" transform="translate(-63.245 -29.562)" fill="#263238"/>
        <path id="Trazado_875124" data-name="Trazado 875124" d="M124.684,91.133c.19-.831-.316-3.009-1.106-3.328-2.11-.848-6.1-1.586-7.42,3.965-1.81,7.588,6.182,7.84,6.247,7.625.051-.168,1.623-5.395,2.279-8.263" transform="translate(-47.576 -35.807)" fill="#ffc09d"/>
        <path id="Trazado_875125" data-name="Trazado 875125" d="M122.532,97.882c-.028-.032-.154.061-.4.11a1.361,1.361,0,0,1-.993-.216c-.732-.485-1.1-1.919-.813-3.3a4.483,4.483,0,0,1,.821-1.8,1.57,1.57,0,0,1,1.236-.777.692.692,0,0,1,.694.548c.051.236-.034.377,0,.4.016.024.193-.088.207-.416a.871.871,0,0,0-.186-.548,1.026,1.026,0,0,0-.685-.367,1.909,1.909,0,0,0-1.661.847,4.619,4.619,0,0,0-.963,2.006c-.317,1.54.125,3.158,1.147,3.737a1.457,1.457,0,0,0,1.257.087c.28-.131.36-.291.337-.311" transform="translate(-49.137 -37.564)" fill="#ff9b6c"/>
        <path id="Trazado_875126" data-name="Trazado 875126" d="M127.155,71.523l1.6,2.361C138.572,67.3,158.537,50,157.409,51.04a24.865,24.865,0,0,0-11.795-3.4c-6.443-.026-18.858,1.035-19.964,8.447s1.5,15.438,1.5,15.438" transform="translate(-51.471 -19.556)" fill="#263238"/>
        <path id="Trazado_875127" data-name="Trazado 875127" d="M139.559,143.946l-22.044-8H111.6l14.682,16.223,6.225,5.442,7.568-.411,3.26-3.65Z" transform="translate(-45.815 -55.81)" fill="#ffc09d"/>
        <path id="Trazado_875128" data-name="Trazado 875128" d="M68.61,205.982l.736,16.9c10.007,7.372,28.367,12.418,44.983,12.062,1-.022,2.459-14.82,7.355-25.374l6.558-8.972a39.815,39.815,0,0,0,5.986-11.829c.856-2.8,1.3-4.967,1.3-4.967s10.4-.831,13.854-5.5c0,0-4.386-15.016-5.414-18.423-1.751-5.807-9.463-10.2-9.463-10.2l-12.785-6.46s-.949,4.841-9.2,3.3a17.542,17.542,0,0,1-13.347-11.2s-19.5-.124-23.1.447Z" transform="translate(-28.166 -55.548)" fill="#455a64"/>
        <path id="Trazado_875129" data-name="Trazado 875129" d="M180.071,177.2c-.081.022.285,1.459.718,3.806a60.922,60.922,0,0,1,.586,18.555c-.285,2.37-.56,3.826-.477,3.843a4.07,4.07,0,0,0,.3-1c.164-.651.353-1.605.542-2.792a50.718,50.718,0,0,0-.589-18.679c-.264-1.172-.512-2.112-.717-2.752a4.041,4.041,0,0,0-.361-.981" transform="translate(-73.92 -72.748)" fill="#263238"/>
        <path id="Trazado_875130" data-name="Trazado 875130" d="M121.728,226.639a3.092,3.092,0,0,0,.912-.1,6.927,6.927,0,0,0,1.049-.239,11.559,11.559,0,0,0,1.36-.436,17.518,17.518,0,0,0,3.328-1.662,18.781,18.781,0,0,0,6.22-6.577,17.462,17.462,0,0,0,1.474-3.415,11.687,11.687,0,0,0,.359-1.382,6.913,6.913,0,0,0,.18-1.062,3.083,3.083,0,0,0,.051-.915c-.1-.016-.247,1.284-.938,3.243a19.391,19.391,0,0,1-1.54,3.293,19.764,19.764,0,0,1-6.068,6.416,19.375,19.375,0,0,1-3.2,1.721c-1.918.8-3.207,1.017-3.186,1.118" transform="translate(-49.973 -86.559)" fill="#263238"/>
        <path id="Trazado_875131" data-name="Trazado 875131" d="M74.082,136.442l-7.894-.356-21.671,5.885,4.725,15.7,18.838,3.718Z" transform="translate(-18.275 -55.867)" fill="#455a64"/>
        <path id="Trazado_875132" data-name="Trazado 875132" d="M78.444,154.288c.085,0,.276,3.5.427,7.821s.2,7.83.12,7.833-.276-3.5-.427-7.822-.2-7.829-.12-7.832" transform="translate(-32.187 -63.34)" fill="#263238"/>
        <rect id="Rectángulo_401895" data-name="Rectángulo 401895" width="212.162" height="128.422" transform="translate(33.781 114.395)" fill="#fef7eb"/>
        <path id="Trazado_875133" data-name="Trazado 875133" d="M269.362,322.378c0-.968-.047-49.765-.12-128.422l.12.12-212.145.034H57.2l.153-.153c0,45.5-.008,88.916-.011,128.422l-.142-.142,212.162.142L57.2,322.52h-.142v-.142c0-39.506-.008-82.92-.011-128.422V193.8h.17l212.145.034h.12v.12c-.073,78.657-.118,127.454-.12,128.422" transform="translate(-23.419 -79.561)" fill="#263238"/>
        <path id="Trazado_875134" data-name="Trazado 875134" d="M144.773,224.9h-43.7a1.236,1.236,0,0,1-1.237-1.237V222.7a1.236,1.236,0,0,1,1.237-1.237h43.7a1.237,1.237,0,0,1,1.237,1.237v.957a1.237,1.237,0,0,1-1.237,1.237" transform="translate(-40.984 -90.918)" fill="#6a4d23" opacity="0.26"/>
        <path id="Trazado_875135" data-name="Trazado 875135" d="M144.773,247.192h-43.7a1.236,1.236,0,0,1-1.237-1.237V245a1.236,1.236,0,0,1,1.237-1.237h43.7A1.237,1.237,0,0,1,146.009,245v.957a1.237,1.237,0,0,1-1.237,1.237" transform="translate(-40.984 -100.071)" fill="#6a4d23" opacity="0.26"/>
        <path id="Trazado_875136" data-name="Trazado 875136" d="M117.353,235.647H101.069a1.236,1.236,0,0,1-1.237-1.236v-.957a1.236,1.236,0,0,1,1.237-1.236h16.284a1.237,1.237,0,0,1,1.237,1.236v.957a1.237,1.237,0,0,1-1.237,1.236" transform="translate(-40.984 -95.332)" fill="#6a4d23" opacity="0.26"/>
        <path id="Trazado_875137" data-name="Trazado 875137" d="M159.807,235.647H137.689a1.236,1.236,0,0,1-1.236-1.236v-.957a1.236,1.236,0,0,1,1.236-1.236h22.118a1.236,1.236,0,0,1,1.237,1.236v.957a1.236,1.236,0,0,1-1.237,1.236" transform="translate(-56.018 -95.332)" fill="#e0e0e0"/>
        <g id="Grupo_1100116" data-name="Grupo 1100116" transform="translate(85.694 130.189)" opacity="0.3">
          <g id="Grupo_1100115" data-name="Grupo 1100115">
            <g id="Grupo_1100114" data-name="Grupo 1100114" clip-path="url(#clip-path-8)">
              <path id="Trazado_875138" data-name="Trazado 875138" d="M213.51,246.547H148.94a3.567,3.567,0,0,1-3.566-3.566V224.423a3.567,3.567,0,0,1,3.566-3.566h64.57a3.567,3.567,0,0,1,3.566,3.566V242.98a3.567,3.567,0,0,1-3.566,3.566" transform="translate(-145.375 -220.857)"/>
            </g>
          </g>
        </g>
        <path id="Trazado_875139" data-name="Trazado 875139" d="M209.48,242.517H144.91a3.566,3.566,0,0,1-3.566-3.566V220.393a3.567,3.567,0,0,1,3.566-3.566h64.57a3.567,3.567,0,0,1,3.566,3.566V238.95a3.566,3.566,0,0,1-3.566,3.566" transform="translate(-58.026 -89.014)" fill="#ebebeb"/>
        <path id="Trazado_875140" data-name="Trazado 875140" d="M209.332,242.369c0-.013.166-.011.482-.058a3.424,3.424,0,0,0,1.32-.485,3.537,3.537,0,0,0,1.448-1.721,8.911,8.911,0,0,0,.233-3.115c-.01-2.392-.022-5.311-.036-8.7q-.008-2.544-.017-5.43c-.01-.954.012-1.964-.025-2.95a3.406,3.406,0,0,0-2.92-3.04,15.607,15.607,0,0,0-1.633-.035l-3.422.006-7.262.012-16.022.02-36.712.017a3.357,3.357,0,0,0-3.284,2.653,16.675,16.675,0,0,0-.074,2.354q0,1.2,0,2.387,0,4.758,0,9.367,0,2.3,0,4.564a4.03,4.03,0,0,0,.361,2.1,3.363,3.363,0,0,0,1.45,1.471,3.891,3.891,0,0,0,2.045.382l2.179,0,4.284,0,29.984.046,20.214.067,5.5.04,1.429.021c.322.007.487.022.487.022s-.165.015-.487.022l-1.429.021-5.5.04-20.214.067-29.984.046-4.284,0-2.179,0a4.308,4.308,0,0,1-2.233-.424A3.775,3.775,0,0,1,141.4,240.5a4.457,4.457,0,0,1-.407-2.281q0-2.26,0-4.564,0-4.606,0-9.367,0-1.189,0-2.387v-1.2a5.806,5.806,0,0,1,.084-1.243,3.779,3.779,0,0,1,3.7-2.99l36.712.016,16.022.019,7.262.012,3.422.007a15.709,15.709,0,0,1,1.676.045,3.7,3.7,0,0,1,3.161,3.318c.034,1.042,0,2.011.011,2.978q-.009,2.883-.017,5.43c-.014,3.387-.027,6.306-.037,8.7a8.913,8.913,0,0,1-.282,3.163,3.6,3.6,0,0,1-1.521,1.747,3.334,3.334,0,0,1-1.358.454,2.56,2.56,0,0,1-.488.015" transform="translate(-57.878 -88.865)" fill="#263238"/>
        <path id="Trazado_875141" data-name="Trazado 875141" d="M163.324,242.438H147.435a3.07,3.07,0,0,1-3.07-3.07V223.479a3.07,3.07,0,0,1,3.07-3.071h15.889a3.07,3.07,0,0,1,3.07,3.071v15.889a3.07,3.07,0,0,1-3.07,3.07" transform="translate(-59.266 -90.484)" fill="#ffb937"/>
        <path id="Trazado_875142" data-name="Trazado 875142" d="M202.487,242.438H186.161a2.852,2.852,0,0,1-2.852-2.851V223.26a2.852,2.852,0,0,1,2.852-2.852h16.326a2.852,2.852,0,0,1,2.852,2.852v16.326a2.852,2.852,0,0,1-2.852,2.852" transform="translate(-75.254 -90.484)" fill="#ffb937"/>
        <g id="Grupo_1100119" data-name="Grupo 1100119" transform="translate(108.055 129.924)" opacity="0.5">
          <g id="Grupo_1100118" data-name="Grupo 1100118">
            <g id="Grupo_1100117" data-name="Grupo 1100117" clip-path="url(#clip-path-9)">
              <path id="Trazado_875143" data-name="Trazado 875143" d="M202.487,242.438H186.161a2.852,2.852,0,0,1-2.852-2.851V223.26a2.852,2.852,0,0,1,2.852-2.852h16.326a2.852,2.852,0,0,1,2.852,2.852v16.326a2.852,2.852,0,0,1-2.852,2.852" transform="translate(-183.309 -220.408)" fill="#fff"/>
            </g>
          </g>
        </g>
        <path id="Trazado_875144" data-name="Trazado 875144" d="M241.677,242.438H225.248a2.8,2.8,0,0,1-2.8-2.8V223.209a2.8,2.8,0,0,1,2.8-2.8h16.429a2.8,2.8,0,0,1,2.8,2.8v16.429a2.8,2.8,0,0,1-2.8,2.8" transform="translate(-91.321 -90.484)" fill="#7d3a1b"/>
        <path id="Trazado_875145" data-name="Trazado 875145" d="M128.118,301.553a7.989,7.989,0,0,1,1.551,4.995A7.38,7.38,0,0,1,126.408,313q-3.262,2.258-9.511,2.258H100.384V283.329h15.6q5.839,0,8.964,2.235a7.077,7.077,0,0,1,3.125,6.067,7.673,7.673,0,0,1-4.242,7.025,8.425,8.425,0,0,1,4.288,2.9m-20.39-12.658v7.526h7.344a7.418,7.418,0,0,0,4.151-.958,3.2,3.2,0,0,0,1.414-2.828,3.141,3.141,0,0,0-1.414-2.806,7.563,7.563,0,0,0-4.151-.935Zm13.023,19.843a3.282,3.282,0,0,0,1.483-2.965q0-3.969-5.885-3.969h-8.621V309.7h8.621a8.193,8.193,0,0,0,4.4-.958" transform="translate(-41.21 -116.315)" fill="#ffb937"/>
        <path id="Trazado_875146" data-name="Trazado 875146" d="M179.927,315.26l-6.158-8.9h-6.8v8.9h-7.39V283.329H173.4a17.744,17.744,0,0,1,7.367,1.414,10.951,10.951,0,0,1,4.812,4.014,11.062,11.062,0,0,1,1.688,6.158A10.4,10.4,0,0,1,180.7,305l7.161,10.264Zm-1.87-24.473a7.763,7.763,0,0,0-5.063-1.437h-6.021v11.13h6.021a7.673,7.673,0,0,0,5.063-1.46,5.756,5.756,0,0,0,0-8.234" transform="translate(-65.513 -116.315)" fill="#ffb937"/>
        <path id="Trazado_875147" data-name="Trazado 875147" d="M234.564,308.418H219.739l-2.828,6.842h-7.572l14.232-31.931h7.3l14.278,31.931h-7.755Zm-2.326-5.611-5.064-12.224-5.064,12.224Z" transform="translate(-85.94 -116.315)" fill="#ffb937"/>
        <path id="Trazado_875148" data-name="Trazado 875148" d="M305.019,283.329V315.26h-6.067l-15.92-19.387V315.26h-7.3V283.329h6.112l15.874,19.387V283.329Z" transform="translate(-113.196 -116.315)" fill="#ffb937"/>
        <path id="Trazado_875149" data-name="Trazado 875149" d="M338.26,283.329h14.506a20.391,20.391,0,0,1,9.192,1.984,14.868,14.868,0,0,1,6.2,5.588,17.028,17.028,0,0,1,0,16.786,14.86,14.86,0,0,1-6.2,5.588,20.391,20.391,0,0,1-9.192,1.984H338.26ZM352.4,309.193a10.731,10.731,0,0,0,7.64-2.669,10.593,10.593,0,0,0,0-14.46,10.733,10.733,0,0,0-7.64-2.669H345.65v19.8Z" transform="translate(-138.865 -116.315)" fill="#ffb937"/>
        <path id="Trazado_875150" data-name="Trazado 875150" d="M271.612,321.933c0-.719-.035-18.335-.1-49.674l.1.095-176.9.058H94.7l.153-.153c0,17.118,0,33.791,0,49.674l-.15-.15,126.4.068,50.508.081-50.4.081L94.7,322.083h-.15v-.15c0-15.883,0-32.557,0-49.674v-.154h.164l176.9.058h.1v.1c-.06,31.339-.094,48.956-.1,49.674" transform="translate(-38.814 -111.707)" fill="#263238"/>
        <rect id="Rectángulo_401898" data-name="Rectángulo 401898" width="2.983" height="2.983" transform="translate(54.095 158.973)" fill="#263238"/>
        <rect id="Rectángulo_401899" data-name="Rectángulo 401899" width="2.983" height="2.983" transform="translate(231.688 184.979)" fill="#263238"/>
        <rect id="Rectángulo_401900" data-name="Rectángulo 401900" width="2.983" height="2.983" transform="translate(54.095 184.979)" fill="#263238"/>
        <rect id="Rectángulo_401901" data-name="Rectángulo 401901" width="2.983" height="2.983" transform="translate(231.306 158.973)" fill="#263238"/>
        <rect id="Rectángulo_401902" data-name="Rectángulo 401902" width="2.983" height="2.983" transform="translate(54.095 208.336)" fill="#263238"/>
        <rect id="Rectángulo_401903" data-name="Rectángulo 401903" width="2.983" height="2.983" transform="translate(231.306 208.336)" fill="#263238"/>
        <path id="Trazado_875151" data-name="Trazado 875151" d="M272.18,337.962c0,.085-39.453.153-88.108.153-48.673,0-88.117-.068-88.117-.153s39.444-.153,88.117-.153c48.656,0,88.108.068,88.108.153" transform="translate(-39.392 -138.68)" fill="#263238"/>
        <path id="Trazado_875152" data-name="Trazado 875152" d="M275.372,371.2H128.778a1.236,1.236,0,0,1-1.237-1.237v-.957a1.237,1.237,0,0,1,1.237-1.237H275.372a1.236,1.236,0,0,1,1.236,1.237v.957a1.236,1.236,0,0,1-1.236,1.237" transform="translate(-52.359 -150.98)" fill="#6a4d23" opacity="0.26"/>
        <path id="Trazado_875153" data-name="Trazado 875153" d="M145.062,381.951H128.778a1.236,1.236,0,0,1-1.237-1.237v-.957a1.236,1.236,0,0,1,1.237-1.237h16.284a1.236,1.236,0,0,1,1.236,1.237v.957a1.236,1.236,0,0,1-1.236,1.237" transform="translate(-52.359 -155.394)" fill="#6a4d23" opacity="0.26"/>
        <path id="Trazado_875154" data-name="Trazado 875154" d="M276.367,381.951H165.4a1.237,1.237,0,0,1-1.237-1.237v-.957a1.236,1.236,0,0,1,1.237-1.237H276.367a1.236,1.236,0,0,1,1.237,1.237v.957a1.237,1.237,0,0,1-1.237,1.237" transform="translate(-67.393 -155.394)" fill="#6a4d23" opacity="0.26"/>
        <path id="Trazado_875155" data-name="Trazado 875155" d="M339.272,224.9H290.2a1.236,1.236,0,0,1-1.236-1.237V222.7a1.236,1.236,0,0,1,1.236-1.237h49.074a1.236,1.236,0,0,1,1.237,1.237v.957a1.236,1.236,0,0,1-1.237,1.237" transform="translate(-118.627 -90.918)" fill="#6a4d23" opacity="0.26"/>
        <path id="Trazado_875156" data-name="Trazado 875156" d="M339.272,247.192H290.2a1.236,1.236,0,0,1-1.236-1.237V245a1.236,1.236,0,0,1,1.236-1.237h49.074A1.236,1.236,0,0,1,340.509,245v.957a1.236,1.236,0,0,1-1.237,1.237" transform="translate(-118.627 -100.071)" fill="#6a4d23" opacity="0.26"/>
        <path id="Trazado_875157" data-name="Trazado 875157" d="M308.664,235.647H290.2a1.236,1.236,0,0,1-1.237-1.236v-.957a1.236,1.236,0,0,1,1.237-1.236h18.465a1.236,1.236,0,0,1,1.237,1.236v.957a1.236,1.236,0,0,1-1.237,1.236" transform="translate(-118.627 -95.332)" fill="#6a4d23" opacity="0.26"/>
        <path id="Trazado_875158" data-name="Trazado 875158" d="M356.054,235.647H331.077a1.236,1.236,0,0,1-1.236-1.236v-.957a1.236,1.236,0,0,1,1.236-1.236h24.977a1.236,1.236,0,0,1,1.237,1.236v.957a1.236,1.236,0,0,1-1.237,1.236" transform="translate(-135.409 -95.332)" fill="#6a4d23" opacity="0.26"/>
        <path id="Trazado_875159" data-name="Trazado 875159" d="M335.221,261.345a46.437,46.437,0,0,1,0-7.539,46.428,46.428,0,0,1,0,7.539" transform="translate(-137.555 -104.195)" fill="#e0e0e0"/>
        <path id="Trazado_875160" data-name="Trazado 875160" d="M335.648,265.6a1.056,1.056,0,1,1-1.053-.98,1.018,1.018,0,0,1,1.053.98" transform="translate(-136.928 -108.635)" fill="#e0e0e0"/>
        <path id="Trazado_875161" data-name="Trazado 875161" d="M105.88,366.948l.953,1.932a1.107,1.107,0,0,0,.832.6l2.132.31a1.105,1.105,0,0,1,.612,1.885l-1.543,1.5a1.1,1.1,0,0,0-.318.978l.364,2.124a1.105,1.105,0,0,1-1.6,1.165l-1.907-1a1.1,1.1,0,0,0-1.029,0l-1.907,1a1.105,1.105,0,0,1-1.6-1.165l.364-2.124a1.105,1.105,0,0,0-.318-.978l-1.543-1.5a1.105,1.105,0,0,1,.612-1.885l2.132-.31a1.1,1.1,0,0,0,.832-.6l.953-1.932a1.105,1.105,0,0,1,1.982,0" transform="translate(-40.656 -150.389)" fill="#6a4d23" opacity="0.26"/>
        <path id="Trazado_875162" data-name="Trazado 875162" d="M107.271,183.29a14.578,14.578,0,0,1,8.045,5.81c2.769,4.176,4.541,6.188,7.551,8.1s7.067,3.036,6.2,4.761-8.31-.453-8.31-.453,4.212,13.685,2.517,14.641a2.173,2.173,0,0,1-2.7-1.457c-1.25-3.362-2.934-7.99-2.934-7.99s-3.017,8.057-5.269,8.936a2.338,2.338,0,0,1-3.139-.951,2.5,2.5,0,0,1-2.946-.194,2.813,2.813,0,0,1-.642-2.378A2.28,2.28,0,0,1,104,209.27c.328-2.333,2.22-9.234,2.22-9.234s-3.43-5.317-3.75-5.174-7.2-.641-7.2-.641l3.874-12.674Z" transform="translate(-39.114 -74.53)" fill="#ffc09d"/>
        <path id="Trazado_875163" data-name="Trazado 875163" d="M67.513,181.321,70.786,169.5l-37.848-8.135-4.367-13.7s-15.915,5.543-20.379,10.2c-6.479,6.762-1.528,15.2,2.755,16.528s56.566,6.917,56.566,6.917" transform="translate(-2.082 -60.624)" fill="#ffc09d"/>
        <path id="Trazado_875164" data-name="Trazado 875164" d="M27.171,166.784a2.329,2.329,0,0,1,.61-.044c.393-.009.961,0,1.663.022a47.554,47.554,0,0,1,5.462.533,40.379,40.379,0,0,1,5.357,1.2c.673.2,1.211.387,1.577.531a2.35,2.35,0,0,1,.559.249c-.016.046-.842-.217-2.2-.57s-3.239-.777-5.347-1.109-4.031-.513-5.427-.619a22.15,22.15,0,0,1-2.261-.2" transform="translate(-11.154 -68.45)" fill="#ff9b6c"/>
        <path id="Trazado_875165" data-name="Trazado 875165" d="M124.277,219.747a8.012,8.012,0,0,1-.49,1.68,36.008,36.008,0,0,1-1.664,3.88,35.227,35.227,0,0,1-2.1,3.666,7.953,7.953,0,0,1-1.049,1.4,13.121,13.121,0,0,1,.865-1.516c.548-.925,1.274-2.22,2.005-3.688s1.326-2.828,1.736-3.822a12.908,12.908,0,0,1,.693-1.6" transform="translate(-48.843 -90.212)" fill="#ff9b6c"/>
        <path id="Trazado_875166" data-name="Trazado 875166" d="M117,216.522a6.64,6.64,0,0,1-.266,1.6,23.451,23.451,0,0,1-3.066,7.172,6.642,6.642,0,0,1-.973,1.3,11.612,11.612,0,0,1,.787-1.411,32.069,32.069,0,0,0,3.042-7.115,11.57,11.57,0,0,1,.476-1.543" transform="translate(-46.264 -88.888)" fill="#ff9b6c"/>
        <path id="Trazado_875167" data-name="Trazado 875167" d="M136.709,208.766a10.971,10.971,0,0,1,1.24,4.535,53.27,53.27,0,0,1-1.24-4.535" transform="translate(-56.118 -85.704)" fill="#ff9b6c"/>
        <path id="Trazado_875168" data-name="Trazado 875168" d="M226.51,197.3a5.55,5.55,0,0,0,.561-2.346,27.6,27.6,0,0,1,.328-3.119l.223-5.175a2.316,2.316,0,0,0-4.266-.249c-.281-.725-.211-1.158-.835-1.623a2.476,2.476,0,0,0-2.2-.433,1.773,1.773,0,0,0-1.231,1.773,2.917,2.917,0,0,0-5.234,1.147,1.182,1.182,0,0,0-.051.4.482.482,0,0,0,.072.173c.15.25.341.468.476.73.051.1.1.2.141.3a5.463,5.463,0,0,1,.378,1.464,4.913,4.913,0,0,0,.07.712,2.686,2.686,0,0,0,.219.41,7.166,7.166,0,0,1,.415,2.932,5.648,5.648,0,0,0,.71,3.128,2.085,2.085,0,0,0,2.817.71,1.42,1.42,0,0,0,1.142,1.492,2.051,2.051,0,0,0,1.858-.685,3.816,3.816,0,0,0,.852-1.859,1.567,1.567,0,0,0,1.639,1.432,2.414,2.414,0,0,0,1.917-1.318" transform="translate(-87.77 -75.639)" fill="#ffc09d"/>
        <path id="Trazado_875169" data-name="Trazado 875169" d="M207.472,188.556a2.326,2.326,0,0,0-1.809.709,3.81,3.81,0,0,0-.441,2.582c.935.126,1.416.136,2.351.262.2.027.357-.031.525.075.443.281.427,1.306.625,1.791a1.784,1.784,0,0,0,2.3.844,2.393,2.393,0,0,0,1.332-2.2,3.7,3.7,0,0,0-1.071-2.44,5.165,5.165,0,0,0-3.811-1.619" transform="translate(-84.232 -77.407)" fill="#ffc09d"/>
        <path id="Trazado_875170" data-name="Trazado 875170" d="M222.558,186.972c.174,0,.318,2.77.322,6.188s-.134,6.189-.308,6.189-.318-2.77-.322-6.188.133-6.188.307-6.188" transform="translate(-91.24 -76.757)" fill="#ff9b6c"/>
        <path id="Trazado_875171" data-name="Trazado 875171" d="M229.734,187.59c.166-.017.523,2.495.414,5.609s-.625,5.6-.79,5.57.063-2.516.161-5.591.035-5.574.215-5.588" transform="translate(-94.132 -77.011)" fill="#ff9b6c"/>
        <path id="Trazado_875172" data-name="Trazado 875172" d="M236.723,188.187c.177-.009.36,2.084.167,4.643a18.236,18.236,0,0,1-.641,4.593c-.183-.008-.177-2.094.013-4.636a25.692,25.692,0,0,1,.46-4.6" transform="translate(-96.932 -77.256)" fill="#ff9b6c"/>
        <path id="Trazado_875173" data-name="Trazado 875173" d="M211.373,189.107c-.009-.074.435-.2,1.091.062a3.483,3.483,0,0,1,1.807,1.9,6.991,6.991,0,0,1,.556,2.526c-.036.771-.581,1.023-.6.925-.052-.068.235-.348.154-.915a12.479,12.479,0,0,0-.687-2.283,3.782,3.782,0,0,0-1.43-1.758c-.5-.314-.894-.363-.891-.459" transform="translate(-86.774 -77.595)" fill="#ff9b6c"/>
      </g>
    </g>
  </g>
</svg>
