<svg xmlns="http://www.w3.org/2000/svg" xmlns:xlink="http://www.w3.org/1999/xlink" width="400" height="420" viewBox="0 0 400 420">
  <defs>
    <clipPath id="clip-path">
      <rect id="Rectángulo_402336" data-name="Rectángulo 402336" width="370.46" height="418.3" fill="none"/>
    </clipPath>
    <clipPath id="clip-path-4">
      <rect id="Rectángulo_402318" data-name="Rectángulo 402318" width="101.612" height="73.657" fill="none"/>
    </clipPath>
    <clipPath id="clip-path-5">
      <rect id="Rectángulo_402319" data-name="Rectángulo 402319" width="102.174" height="76.395" fill="none"/>
    </clipPath>
    <clipPath id="clip-path-6">
      <rect id="Rectángulo_402320" data-name="Rectángulo 402320" width="14.341" height="20.073" fill="none"/>
    </clipPath>
    <clipPath id="clip-path-8">
      <rect id="Rectángulo_402322" data-name="Rectángulo 402322" width="37.634" height="20.417" fill="none"/>
    </clipPath>
    <clipPath id="clip-path-9">
      <rect id="Rectángulo_402323" data-name="Rectángulo 402323" width="20.885" height="17.995" fill="none"/>
    </clipPath>
    <clipPath id="clip-path-10">
      <rect id="Rectángulo_402324" data-name="Rectángulo 402324" width="2.743" height="2.762" fill="none"/>
    </clipPath>
    <clipPath id="clip-path-11">
      <rect id="Rectángulo_402325" data-name="Rectángulo 402325" width="29.689" height="14.886" fill="none"/>
    </clipPath>
    <clipPath id="clip-path-12">
      <rect id="Rectángulo_402326" data-name="Rectángulo 402326" width="23.897" height="28.491" fill="none"/>
    </clipPath>
    <clipPath id="clip-path-13">
      <rect id="Rectángulo_402327" data-name="Rectángulo 402327" width="6.626" height="41.14" fill="none"/>
    </clipPath>
    <clipPath id="clip-path-14">
      <rect id="Rectángulo_402328" data-name="Rectángulo 402328" width="33.771" height="22.75" fill="none"/>
    </clipPath>
    <clipPath id="clip-path-15">
      <rect id="Rectángulo_402329" data-name="Rectángulo 402329" width="7.448" height="19.732" fill="none"/>
    </clipPath>
    <clipPath id="clip-path-18">
      <rect id="Rectángulo_402332" data-name="Rectángulo 402332" width="108.693" height="74.73" fill="none"/>
    </clipPath>
    <clipPath id="clip-path-19">
      <rect id="Rectángulo_402333" data-name="Rectángulo 402333" width="74.553" height="108.187" fill="none"/>
    </clipPath>
    <clipPath id="clip-path-20">
      <rect id="Rectángulo_402334" data-name="Rectángulo 402334" width="67.871" height="100.518" fill="none"/>
    </clipPath>
  </defs>
  <g id="img2" transform="translate(-285 -1192)">
    <rect id="Rectángulo_402279" data-name="Rectángulo 402279" width="400" height="420" transform="translate(285 1192)" fill="none"/>
    <g id="Grupo_1100925" data-name="Grupo 1100925" transform="translate(300 1193.7)">
      <g id="Grupo_1100924" data-name="Grupo 1100924" clip-path="url(#clip-path)">
        <g id="Grupo_1100873" data-name="Grupo 1100873">
          <g id="Grupo_1100872" data-name="Grupo 1100872" clip-path="url(#clip-path)">
            <path id="Trazado_888647" data-name="Trazado 888647" d="M82,334.233c-1.781-1.882-4.428-2.594-6.86-3.49a36.817,36.817,0,0,1-16.87-56.455l-.367-1.894c-.832-8.8-11.466-15.116-19.594-11.631s-10.885,15.541-5.08,22.212c-9.539.788-15.842,11.66-14.5,21.136s8.279,17.255,16,22.912a75.736,75.736,0,0,0,43.98,14.527,6.079,6.079,0,0,0,3.122-.563c2.24-1.3,1.948-4.872.167-6.754" transform="translate(-1.973 -27.625)" fill="#ffe9df"/>
            <path id="Trazado_888648" data-name="Trazado 888648" d="M383.061,296.69a11.507,11.507,0,0,0,.276-11.89c-2.224-3.536-7.108-5.326-10.9-3.579a7.983,7.983,0,0,0-13.549-8.442c-2.54,3.923-1.2,9.186.985,13.318s5.171,8.013,5.89,12.631c.735,4.716-1.075,9.544-3.9,13.4s-6.589,6.885-10.312,9.872l-.71.684a25.619,25.619,0,0,0,20.512-1.763c3.5-1.938,6.748-5.146,6.978-9.143.129-2.232-.7-4.469-.366-6.68.5-3.272,3.357-5.585,5.094-8.4" transform="translate(-37.308 -28.63)" fill="#ffe9df"/>
            <path id="Trazado_888649" data-name="Trazado 888649" d="M164.624,460.044c-3.475-.432-6.965-1.954-9.009-4.8-1.308-1.819-1.937-4.037-3.076-5.967s-3.109-3.676-5.34-3.458c-3.454.337-5.782,5.112-9.15,4.271-2.023-.5-2.986-2.884-3-4.969s.6-4.165.335-6.235c-.728-5.815-8.2-8.675-13.77-6.856s-14.036,8.539-17.667,13.139c3.818,6.351,11.658,8.819,18.846,10.621q18.1,4.539,36.508,7.7A26.957,26.957,0,0,0,168,464c2.881-.452,5.745-1.983,7.076-4.579a38.339,38.339,0,0,1-10.449.623" transform="translate(-11.054 -45.884)" fill="#ffe9df"/>
            <path id="Trazado_888650" data-name="Trazado 888650" d="M318.886,409.432c-.886-4.968-5.842-9.344-10.757-8.2,4.077-3.359,4.1-10.116.878-14.3s-8.822-5.992-14.1-5.835-10.349,2.013-15.252,3.98c2.4-3.062-1.113-7.828-5-8.084s-7.352,2.215-10.5,4.5-6.786,4.612-10.632,4.013l3.615,1.441c8.621,1.306,17.315,3.322,24.781,7.827s13.613,11.846,14.9,20.471-3.249,18.278-11.431,21.294a34.7,34.7,0,0,0,29.036-13.107c3.1-3.984,5.346-9.033,4.46-14" transform="translate(-26.959 -40.087)" fill="#ffe9df"/>
            <path id="Trazado_888651" data-name="Trazado 888651" d="M9.6,267.12a74.642,74.642,0,0,1-.232-8.324,74.642,74.642,0,0,1,.232-8.324,74.643,74.643,0,0,1,.232,8.324A74.643,74.643,0,0,1,9.6,267.12" transform="translate(-0.996 -26.635)" fill="#e0e0e0"/>
            <path id="Trazado_888652" data-name="Trazado 888652" d="M17.21,259.759a79.738,79.738,0,0,1-8.6.232A79.759,79.759,0,0,1,0,259.759a79.783,79.783,0,0,1,8.606-.232,79.762,79.762,0,0,1,8.6.232" transform="translate(0 -27.598)" fill="#e0e0e0"/>
            <path id="Trazado_888653" data-name="Trazado 888653" d="M381.083,362.856a74.648,74.648,0,0,1-.232-8.324,74.647,74.647,0,0,1,.232-8.324,74.638,74.638,0,0,1,.232,8.324,74.639,74.639,0,0,1-.232,8.324" transform="translate(-40.499 -36.815)" fill="#e0e0e0"/>
            <path id="Trazado_888654" data-name="Trazado 888654" d="M388.692,355.5a79.763,79.763,0,0,1-8.6.232,79.783,79.783,0,0,1-8.606-.232,79.768,79.768,0,0,1,8.606-.232,79.748,79.748,0,0,1,8.6.232" transform="translate(-39.503 -37.778)" fill="#e0e0e0"/>
            <path id="Trazado_888655" data-name="Trazado 888655" d="M324.575,43.215a74.634,74.634,0,0,1-.232-8.324,74.634,74.634,0,0,1,.232-8.324,74.639,74.639,0,0,1,.232,8.324,74.639,74.639,0,0,1-.232,8.324" transform="translate(-34.49 -2.825)" fill="#e0e0e0"/>
            <path id="Trazado_888656" data-name="Trazado 888656" d="M332.184,35.854a79.751,79.751,0,0,1-8.6.232,79.772,79.772,0,0,1-8.606-.232,79.772,79.772,0,0,1,8.606-.232,79.751,79.751,0,0,1,8.6.232" transform="translate(-33.494 -3.788)" fill="#e0e0e0"/>
            <path id="Trazado_888657" data-name="Trazado 888657" d="M24.823,180.991a5.086,5.086,0,1,1-5.087-5.087,5.087,5.087,0,0,1,5.087,5.087" transform="translate(-1.558 -18.705)" fill="#ffe2b7"/>
            <path id="Trazado_888658" data-name="Trazado 888658" d="M246.24,423.386a5.086,5.086,0,1,1-5.087-5.087,5.087,5.087,0,0,1,5.087,5.087" transform="translate(-25.103 -44.481)" fill="#ffe2b7"/>
            <path id="Trazado_888659" data-name="Trazado 888659" d="M299.2,315.823a5.086,5.086,0,1,1-5.087-5.087,5.087,5.087,0,0,1,5.087,5.087" transform="translate(-30.735 -33.043)" fill="#ffe2b7"/>
            <path id="Trazado_888660" data-name="Trazado 888660" d="M130.1,32.4a5.086,5.086,0,1,1-5.087-5.087A5.087,5.087,0,0,1,130.1,32.4" transform="translate(-12.753 -2.905)" fill="#ffe2b7"/>
            <path id="Trazado_888661" data-name="Trazado 888661" d="M157.668,369.416a2.543,2.543,0,1,1-2.543-2.543,2.543,2.543,0,0,1,2.543,2.543" transform="translate(-16.225 -39.013)" fill="#ffe2b7"/>
            <path id="Trazado_888662" data-name="Trazado 888662" d="M89,355.22a2.543,2.543,0,1,1-2.543-2.543A2.543,2.543,0,0,1,89,355.22" transform="translate(-8.923 -37.503)" fill="#ffe2b7"/>
            <path id="Trazado_888663" data-name="Trazado 888663" d="M159.155,38.4a2.543,2.543,0,1,1-2.543-2.543,2.543,2.543,0,0,1,2.543,2.543" transform="translate(-16.383 -3.813)" fill="#ffe2b7"/>
            <path id="Trazado_888664" data-name="Trazado 888664" d="M284.519,192.381a2.543,2.543,0,1,1-2.543-2.543,2.543,2.543,0,0,1,2.543,2.543" transform="translate(-29.714 -20.187)" fill="#ffe2b7"/>
            <path id="Trazado_888665" data-name="Trazado 888665" d="M11.587,30.166S5.924,33.09,13.859,44.954A165.275,165.275,0,0,0,27,62.54s1.49,2.8-.924,3.542-7.949.524-8.691,3.673c-.769,3.266,1.854,5.952,6.772,8s15.529,6.923,16.487,7.367c.94.437,1.98,1.7.418,2.469s-13.632,3.493-12,9.143,16.273,9.1,17.865,9.506,2.034,1.01,2.008,1.861-4.168,1.383-7.568,2.3-7.185,2.571-5.969,5.752,10.343,9.086,30.763,8.676l9.449-.809,4.182-8.559C87.623,96.6,85.457,85.943,82.94,83.65s-5.441.626-7.534,3.458-4.1,6.5-4.9,6.209-1.2-.917-1-2.549,2.333-16.519-2.331-20.1-11.6,6.661-12.891,7.834-2.082-.256-2.146-1.29C52.073,76.154,51.4,64.5,51.3,59.17s-1.652-8.749-4.974-9.224c-3.2-.458-5.015,4.778-6.592,6.752s-3.635-.433-3.635-.433a165.236,165.236,0,0,0-11.579-18.65C16.365,25.9,11.476,30.233,11.476,30.233" transform="translate(-1.024 -3.132)" fill="#fecab2"/>
            <path id="Trazado_888666" data-name="Trazado 888666" d="M77.434,127.523c-5.951-8.629-16.271-24.144-25.2-37.418S35.215,64.829,29.308,56.171L22.3,45.924l-1.9-2.788c-.21-.313-.372-.555-.489-.728s-.158-.255-.158-.255.066.078.183.237.292.408.512.712L22.4,45.859c1.69,2.4,4.11,5.879,7.084,10.194,5.951,8.629,14.072,20.618,23,33.888S71.7,118.746,77.606,127.4" transform="translate(-2.1 -4.482)" fill="#e0e0e0"/>
            <path id="Trazado_888667" data-name="Trazado 888667" d="M26.955,75.25a3.086,3.086,0,0,1,.678.105c.433.084,1.055.225,1.821.407,1.534.365,3.637.923,5.949,1.581l5.91,1.707,1.794.506a2.987,2.987,0,0,1,.651.212,3.066,3.066,0,0,1-.678-.1c-.433-.086-1.055-.226-1.82-.416-1.53-.381-3.626-.966-5.937-1.625L29.4,75.964l-1.8-.5a3.114,3.114,0,0,1-.651-.217" transform="translate(-2.866 -8.001)" fill="#e0e0e0"/>
            <path id="Trazado_888668" data-name="Trazado 888668" d="M46.4,77.222c-.08-.019.881-4.408,2.144-9.8s2.352-9.755,2.432-9.736-.881,4.408-2.145,9.8-2.351,9.754-2.431,9.736" transform="translate(-4.933 -6.134)" fill="#e0e0e0"/>
            <path id="Trazado_888669" data-name="Trazado 888669" d="M60.712,101.164a3.252,3.252,0,0,1,.314-.626l.935-1.658c.787-1.4,1.866-3.34,2.978-5.522s2.059-4.19,2.729-5.65l.8-1.729a3.212,3.212,0,0,1,.324-.621,3.192,3.192,0,0,1-.218.666c-.158.422-.4,1.027-.71,1.769-.623,1.483-1.538,3.512-2.659,5.7s-2.225,4.117-3.06,5.493c-.42.686-.766,1.238-1.016,1.611a3.217,3.217,0,0,1-.412.567" transform="translate(-6.456 -9.077)" fill="#e0e0e0"/>
            <path id="Trazado_888670" data-name="Trazado 888670" d="M42.27,103a2.7,2.7,0,0,1,.644-.065l1.759-.068c1.484-.045,3.536-.086,5.8-.113s4.319-.036,5.8-.027l1.76.026a2.71,2.71,0,0,1,.646.05,2.809,2.809,0,0,1-.644.064l-1.759.068c-1.484.045-3.536.086-5.8.113s-4.318.035-5.8.026l-1.759-.026A2.731,2.731,0,0,1,42.27,103" transform="translate(-4.495 -10.923)" fill="#e0e0e0"/>
            <path id="Trazado_888671" data-name="Trazado 888671" d="M52.27,125.321a4.477,4.477,0,0,1,.825-.075l2.254-.1c1.9-.067,4.532-.14,7.436-.2s5.534-.1,7.439-.117l2.255,0a4.359,4.359,0,0,1,.828.039,4.474,4.474,0,0,1-.825.075l-2.253.1c-1.9.067-4.533.14-7.437.2s-5.534.1-7.438.117l-2.256,0a4.457,4.457,0,0,1-.828-.039" transform="translate(-5.558 -13.274)" fill="#e0e0e0"/>
            <path id="Trazado_888672" data-name="Trazado 888672" d="M75.243,122.307a5.051,5.051,0,0,1,.377-.8l1.109-2.145c.935-1.811,2.216-4.319,3.552-7.126s2.487-5.378,3.3-7.246l.97-2.212a5.081,5.081,0,0,1,.386-.8,4.964,4.964,0,0,1-.281.842c-.2.535-.5,1.3-.884,2.249-.769,1.89-1.887,4.48-3.23,7.291s-2.651,5.309-3.634,7.1c-.494.893-.9,1.611-1.193,2.1a5.134,5.134,0,0,1-.477.748" transform="translate(-8.001 -10.844)" fill="#e0e0e0"/>
            <path id="Trazado_888673" data-name="Trazado 888673" d="M354.009,212.282c-10.074-8.786-11.024-23.181-9.224-35.835.3-2.112.308-4.373,1.517-6.124s3.7-2.769,5.5-1.67c1.494.911,1.983,2.816,2.7,4.425a12.465,12.465,0,0,0,4.46,5.284c1.274.846,2.9,1.455,4.31.863,1.937-.811,2.425-3.315,2.639-5.425q.6-5.9,1.2-11.8a19.756,19.756,0,0,1,1.311-6.194,6.579,6.579,0,0,1,4.587-3.979c2.067-.345,4.422,1.079,4.623,3.189a19.552,19.552,0,0,1-.223,2.631,2.231,2.231,0,0,0,1.072,2.228,2.564,2.564,0,0,0,2.42-.718,28.172,28.172,0,0,0,5.852-7.056,39.145,39.145,0,0,1,5.54-7.335,11.469,11.469,0,0,1,8.193-3.5c3.038.155,6.055,2.365,6.5,5.411s-1.614,5.885-3.761,8.087a47.344,47.344,0,0,1-10.806,8.285,3.894,3.894,0,0,0-1.829,1.586c-.609,1.356.572,2.9,1.91,3.508,1.516.693,3.239.713,4.862,1.084s3.326,1.288,3.781,2.909c.631,2.248-1.415,4.313-3.348,5.6a40.545,40.545,0,0,1-12.675,5.6,13.668,13.668,0,0,0-4.667,1.677c-1.368.955-2.327,2.769-1.732,4.335s2.484,2.253,4.142,2.126a28.27,28.27,0,0,0,4.817-1.269c3.016-.781,6.736-.178,8.323,2.526a6.713,6.713,0,0,1,.074,5.977,15.468,15.468,0,0,1-3.759,4.866,40.768,40.768,0,0,1-18.622,10.3c-6.972,1.607-13.269,1.566-19.686-1.6" transform="translate(-36.586 -15.021)" fill="#fecab2"/>
            <path id="Trazado_888674" data-name="Trazado 888674" d="M359.823,204.935a189.951,189.951,0,0,1,9.692-19.533l2.8-4.989c.924-1.635,1.84-3.257,2.835-4.789a94.966,94.966,0,0,1,6.216-8.47c2.107-2.6,4.2-4.988,6.177-7.207s3.865-4.248,5.662-6.025a75.32,75.32,0,0,1,9.095-7.75c1.141-.828,2.048-1.441,2.668-1.848l.708-.459a1.405,1.405,0,0,1,.248-.144,1.667,1.667,0,0,1-.227.178l-.685.491c-.605.429-1.5,1.062-2.624,1.907a79.629,79.629,0,0,0-8.99,7.824c-1.779,1.786-3.648,3.822-5.615,6.045s-4.046,4.621-6.14,7.219a96,96,0,0,0-6.173,8.451c-.987,1.524-1.893,3.132-2.818,4.772s-1.855,3.3-2.8,4.988a194.649,194.649,0,0,0-9.7,19.48" transform="translate(-38.263 -15.283)" fill="#e0e0e0"/>
            <path id="Trazado_888675" data-name="Trazado 888675" d="M377.032,176.617a4.324,4.324,0,0,1-.109-.921c-.048-.6-.088-1.457-.124-2.523-.072-2.132-.071-5.079-.056-8.328s-.027-6.189-.131-8.313c-.049-1.063-.1-1.922-.139-2.516a4.248,4.248,0,0,1-.019-.928,4.239,4.239,0,0,1,.17.912c.088.59.178,1.45.262,2.513.176,2.128.26,5.078.247,8.332-.022,3.206-.042,6.106-.057,8.323,0,1,0,1.845,0,2.522a4.171,4.171,0,0,1-.043.928" transform="translate(-40.03 -16.279)" fill="#e0e0e0"/>
            <path id="Trazado_888676" data-name="Trazado 888676" d="M404.757,176.979a5.862,5.862,0,0,1-1.095.013c-.7-.013-1.718-.037-2.975-.027-2.511,0-5.981.122-9.8.424s-7.27.736-9.754,1.117c-1.245.181-2.248.356-2.941.472a5.827,5.827,0,0,1-1.086.146,5.886,5.886,0,0,1,1.056-.3c.686-.162,1.685-.378,2.927-.6,2.481-.453,5.935-.925,9.77-1.236a96.273,96.273,0,0,1,9.836-.309c1.26.026,2.278.092,2.979.153a5.743,5.743,0,0,1,1.087.14" transform="translate(-40.1 -18.786)" fill="#e0e0e0"/>
            <path id="Trazado_888677" data-name="Trazado 888677" d="M359.076,207.406a1.393,1.393,0,0,1-.15-.35c-.1-.279-.215-.619-.358-1.031-.307-.9-.717-2.2-1.2-3.828-.973-3.247-2.176-7.773-3.436-12.786s-2.421-9.547-3.324-12.809l-1.082-3.862c-.115-.421-.211-.768-.289-1.053a1.386,1.386,0,0,1-.075-.374,1.452,1.452,0,0,1,.15.351l.357,1.029c.307.9.718,2.206,1.2,3.828.973,3.247,2.176,7.774,3.437,12.788s2.42,9.545,3.324,12.808c.445,1.585.811,2.891,1.082,3.86l.289,1.053a1.439,1.439,0,0,1,.075.375" transform="translate(-37.129 -18.217)" fill="#e0e0e0"/>
            <path id="Trazado_888678" data-name="Trazado 888678" d="M397.531,203.053a1.5,1.5,0,0,1-.374.109l-1.084.238-3.992.835c-3.371.705-8.015,1.733-13.146,2.875s-9.791,2.129-13.177,2.764c-1.693.318-3.066.562-4.018.711l-1.1.165a1.442,1.442,0,0,1-.388.03,1.5,1.5,0,0,1,.374-.109l1.084-.238,3.992-.834c3.371-.705,8.016-1.733,13.148-2.876s9.788-2.129,13.175-2.764c1.694-.318,3.065-.562,4.018-.711l1.1-.165a1.435,1.435,0,0,1,.387-.03" transform="translate(-38.309 -21.592)" fill="#e0e0e0"/>
            <path id="Trazado_888679" data-name="Trazado 888679" d="M268.322,46.27c1.623-9.309,6.059-22.916,11.375-30.728S293.21,1.522,302.57.224s19.686,3.093,23.9,11.55c2.261,4.533,2.676,9.748,4.324,14.538s5.261,9.576,10.313,9.963c4.47.342,8.779-2.88,13.18-2.023,5.73,1.115,7.943,8.179,7.976,14.016s-.8,12.319,2.788,16.924c2.936,3.769,7.963,5.067,12.016,7.594,8.766,5.467,12.518,16.76,11.629,27.052s-5.628,19.822-10.663,28.842A225.369,225.369,0,0,0,361.01,85.886c-4.065-7.788-11.484-14.417-18.055-20.25-10.087-8.957-32.231-13.232-45.62-14.878s-15.755-2.006-29.014-4.488" transform="translate(-28.533 0)" fill="#ffe9df"/>
          </g>
        </g>
        <g id="Grupo_1100884" data-name="Grupo 1100884">
          <g id="Grupo_1100883" data-name="Grupo 1100883" clip-path="url(#clip-path)">
            <path id="Trazado_888680" data-name="Trazado 888680" d="M157.007,64.047C123.873,66.454,87.7,70.84,61.18,81.023L69.555,137.7s51.411-18.4,93.237-17.12Z" transform="translate(-6.506 -6.811)" fill="#ffb937"/>
            <g id="Grupo_1100876" data-name="Grupo 1100876" transform="translate(54.674 57.236)" opacity="0.8">
              <g id="Grupo_1100875" data-name="Grupo 1100875">
                <g id="Grupo_1100874" data-name="Grupo 1100874" clip-path="url(#clip-path-4)">
                  <path id="Trazado_888681" data-name="Trazado 888681" d="M157.007,64.047C123.873,66.454,87.7,70.84,61.18,81.023L69.555,137.7s51.411-18.4,93.237-17.12Z" transform="translate(-61.18 -64.047)" fill="#fff"/>
                </g>
              </g>
            </g>
            <path id="Trazado_888682" data-name="Trazado 888682" d="M155.59,115.5a1.762,1.762,0,0,1-.318.06l-.941.13-3.616.451c-1.571.186-3.493.416-5.717.744s-4.764.636-7.555,1.1c-11.177,1.728-26.563,4.581-43.276,8.9-5.811,1.5-11.409,3.046-16.534,4.653l-.255.08-.036-.262c-1.791-13-3.525-24.2-4.854-32.149l-1.6-9.3q-.28-1.6-.436-2.486l-.1-.643a.954.954,0,0,1-.022-.221.959.959,0,0,1,.061.214c.037.164.083.373.142.635q.181.885.508,2.473c.431,2.16,1.027,5.315,1.728,9.282,1.408,7.937,3.2,19.138,5.019,32.136l-.29-.182c5.139-1.623,10.737-3.176,16.556-4.677a421.967,421.967,0,0,1,43.344-8.778c2.8-.443,5.341-.738,7.569-1.033s4.155-.507,5.73-.665l3.627-.366.944-.083a1.675,1.675,0,0,1,.324-.013" transform="translate(-7.478 -9.204)" fill="#ffb937"/>
            <path id="Trazado_888683" data-name="Trazado 888683" d="M157.133,102.376c-.023.006-.125-.395-.382-1.128a12,12,0,0,0-1.705-2.93,14.9,14.9,0,0,0-4.022-3.523,15.744,15.744,0,0,0-1.432-.761,13.113,13.113,0,0,0-1.619-.585,8.9,8.9,0,0,0-3.685-.358,7.756,7.756,0,0,0-3.753,1.476,12.569,12.569,0,0,0-3,3.264c-1.743,2.58-2.877,5.724-4.212,8.989a11.282,11.282,0,0,1-3.117,4.469,5.924,5.924,0,0,1-2.587,1.239,5.179,5.179,0,0,1-2.911-.336c-3.774-1.5-5.453-5.843-9.265-7.164a7.468,7.468,0,0,0-5.659.463,7.138,7.138,0,0,0-2.241,1.73,11.4,11.4,0,0,0-1.494,2.4c-.852,1.679-1.492,3.546-2.932,4.863a4.342,4.342,0,0,1-2.57,1.159,5.025,5.025,0,0,1-2.69-.578,9.638,9.638,0,0,1-3.7-3.636,31.307,31.307,0,0,1-1.958-4.463,21.247,21.247,0,0,0-1.938-4.033,8.066,8.066,0,0,0-2.963-2.75,7.671,7.671,0,0,0-6.795-.2,11.508,11.508,0,0,0-4.313,3.11,8.383,8.383,0,0,0-1.618,2.956c-.228.744-.26,1.159-.293,1.154a5.239,5.239,0,0,1,.2-1.18,8.128,8.128,0,0,1,1.567-3.046A11.558,11.558,0,0,1,80.4,99.745a7.936,7.936,0,0,1,7.049.146,8.392,8.392,0,0,1,3.11,2.841,21.556,21.556,0,0,1,2,4.093,31.469,31.469,0,0,0,1.949,4.392,9.259,9.259,0,0,0,3.543,3.465,4.6,4.6,0,0,0,2.458.525,3.9,3.9,0,0,0,2.312-1.055c1.322-1.2,1.967-3.027,2.82-4.734a11.791,11.791,0,0,1,1.556-2.5,7.57,7.57,0,0,1,2.382-1.844,7.918,7.918,0,0,1,6.013-.491c2.032.668,3.485,2.234,4.835,3.643a13.4,13.4,0,0,0,4.454,3.54,4.725,4.725,0,0,0,2.659.315,5.485,5.485,0,0,0,2.391-1.143,10.874,10.874,0,0,0,3-4.294c1.331-3.223,2.5-6.417,4.283-9.032a12.9,12.9,0,0,1,3.113-3.34,8.074,8.074,0,0,1,3.928-1.512,9.182,9.182,0,0,1,3.805.4,13.458,13.458,0,0,1,1.651.616,16.1,16.1,0,0,1,1.45.793,14.861,14.861,0,0,1,4.031,3.635,11.444,11.444,0,0,1,1.65,3.009c.132.37.181.669.235.862a1.416,1.416,0,0,1,.058.3" transform="translate(-7.898 -9.858)" fill="#ffb937"/>
            <path id="Trazado_888684" data-name="Trazado 888684" d="M68.5,95.186c.024.126-.408.315-.963.42s-1.026.089-1.05-.037.407-.315.963-.42,1.026-.089,1.05.037" transform="translate(-7.07 -10.111)" fill="#ffb937"/>
            <path id="Trazado_888685" data-name="Trazado 888685" d="M70.186,106.777c.055.116-.271.382-.726.594s-.868.289-.922.172.271-.382.726-.594.868-.289.922-.172" transform="translate(-7.288 -11.349)" fill="#ffb937"/>
            <path id="Trazado_888686" data-name="Trazado 888686" d="M72.235,119.431c.042.122-.292.349-.747.508s-.858.189-.9.068.292-.349.747-.508.859-.189.9-.069" transform="translate(-7.506 -12.692)" fill="#ffb937"/>
            <path id="Trazado_888687" data-name="Trazado 888687" d="M74.672,131.874c.038.122-.34.351-.845.509s-.946.189-.985.065.34-.35.845-.509.946-.188.985-.065" transform="translate(-7.746 -14.015)" fill="#ffb937"/>
            <path id="Trazado_888688" data-name="Trazado 888688" d="M144.807,71.849a4.514,4.514,0,0,1,1.082-.244c.711-.123,1.755-.279,3.082-.466,2.655-.373,6.441-.864,10.956-1.42l.211-.027.02.213c.351,3.805.756,8.188,1.186,12.833l.018.193.02.224-.223.028L146.346,85l-.2.024-.021-.2c-.416-3.885-.762-7.128-1.012-9.464q-.158-1.627-.253-2.612a6.079,6.079,0,0,1-.055-.9,7.863,7.863,0,0,1,.162.954c.09.661.211,1.542.36,2.635.293,2.306.7,5.507,1.188,9.341l-.219-.172,14.8-1.887-.2.252-.018-.193c-.41-4.647-.8-9.031-1.134-12.837l.23.187-15.169,1.72" transform="translate(-15.398 -7.411)" fill="#ffb937"/>
            <path id="Trazado_888689" data-name="Trazado 888689" d="M158.86,74.609c0,.138-2.551.137-5.66.472s-5.6.854-5.634.72a20.01,20.01,0,0,1,5.585-1.183,19.994,19.994,0,0,1,5.709-.009" transform="translate(-15.692 -7.915)" fill="#ffb937"/>
            <path id="Trazado_888690" data-name="Trazado 888690" d="M159.124,78.33c0,.135-2.374.226-5.282.511s-5.257.642-5.283.509a20.576,20.576,0,0,1,5.239-.973,20.559,20.559,0,0,1,5.327-.047" transform="translate(-15.797 -8.316)" fill="#ffb937"/>
            <path id="Trazado_888691" data-name="Trazado 888691" d="M155.688,81.584a10.289,10.289,0,0,1-3.014.617,10.313,10.313,0,0,1-3.073.155,20.327,20.327,0,0,1,6.088-.771" transform="translate(-15.908 -8.669)" fill="#ffb937"/>
            <path id="Trazado_888692" data-name="Trazado 888692" d="M336.967,80.554c-32.442-9.887-59.809-18.329-96.557-18.1l-5.617,57.757c38.168,3.378,50.924,5.877,86.17,18.632Z" transform="translate(-24.967 -6.641)" fill="#ffb937"/>
            <g id="Grupo_1100879" data-name="Grupo 1100879" transform="translate(209.826 55.812)" opacity="0.8">
              <g id="Grupo_1100878" data-name="Grupo 1100878">
                <g id="Grupo_1100877" data-name="Grupo 1100877" clip-path="url(#clip-path-5)">
                  <path id="Trazado_888693" data-name="Trazado 888693" d="M336.967,80.554c-32.442-9.887-59.809-18.329-96.557-18.1l-5.617,57.757c38.168,3.378,50.924,5.877,86.17,18.632Z" transform="translate(-234.793 -62.453)" fill="#fff"/>
                </g>
              </g>
            </g>
            <path id="Trazado_888694" data-name="Trazado 888694" d="M265.192,92.352,266.623,80.1a14.368,14.368,0,0,0-10,2.767,15.065,15.065,0,0,0-6.148,12.117c-.012.59,0,1.193.051,1.812l0,.044h0l14.313-1.609Z" transform="translate(-26.634 -8.508)" fill="#ffb937"/>
            <path id="Trazado_888695" data-name="Trazado 888695" d="M281.881,90.385a13.863,13.863,0,0,0-10.2-9.718c-.144-.033-.289-.065-.436-.095-.092-.019-.183-.04-.277-.057q-.41-.075-.835-.129l-.038-.006h0l-.035-.005v0l-1.432,12.254-.336,2.88,13.511,4.931.017.006a15.614,15.614,0,0,0,.7-3.137,16.814,16.814,0,0,0-.642-6.927" transform="translate(-28.53 -8.547)" fill="#ffb937"/>
            <g id="Grupo_1100882" data-name="Grupo 1100882" transform="translate(239.765 71.827)" opacity="0.3">
              <g id="Grupo_1100881" data-name="Grupo 1100881">
                <g id="Grupo_1100880" data-name="Grupo 1100880" clip-path="url(#clip-path-6)">
                  <path id="Trazado_888696" data-name="Trazado 888696" d="M281.881,90.385a13.863,13.863,0,0,0-10.2-9.718c-.144-.033-.289-.065-.436-.095-.092-.019-.183-.04-.277-.057q-.41-.075-.835-.129l-.038-.006h0l-.035-.005v0l-1.432,12.254-.336,2.88,13.511,4.931.017.006a15.614,15.614,0,0,0,.7-3.137,16.814,16.814,0,0,0-.642-6.927" transform="translate(-268.295 -80.374)"/>
                </g>
              </g>
            </g>
            <path id="Trazado_888697" data-name="Trazado 888697" d="M265.468,98.853l-14.313,1.609c.6,6.931,5.655,12.679,12.451,13.516,6.83.84,13.162-3.557,15.391-10.19l-13.511-4.931" transform="translate(-26.707 -10.512)" fill="#ffb937"/>
            <path id="Trazado_888698" data-name="Trazado 888698" d="M331.157,93.9a7.476,7.476,0,0,1-1.264-.51c-.8-.361-1.958-.867-3.4-1.47a101.919,101.919,0,0,0-23.431-6.685c-1.543-.248-2.8-.432-3.664-.545a7.83,7.83,0,0,1-1.343-.232,7.441,7.441,0,0,1,1.363.052c.875.059,2.138.192,3.693.4a86.315,86.315,0,0,1,23.513,6.708c1.431.643,2.574,1.2,3.349,1.609a7.85,7.85,0,0,1,1.185.674" transform="translate(-31.695 -8.98)" fill="#ffb937"/>
            <path id="Trazado_888699" data-name="Trazado 888699" d="M330.057,100.648a7.477,7.477,0,0,1-1.264-.51c-.8-.361-1.958-.867-3.4-1.47a101.92,101.92,0,0,0-23.431-6.685c-1.543-.248-2.8-.432-3.664-.545a7.831,7.831,0,0,1-1.343-.232,7.653,7.653,0,0,1,1.363.052c.875.059,2.138.192,3.693.4a86.315,86.315,0,0,1,23.513,6.708c1.431.643,2.574,1.2,3.349,1.609a7.847,7.847,0,0,1,1.185.674" transform="translate(-31.578 -9.697)" fill="#ffb937"/>
            <path id="Trazado_888700" data-name="Trazado 888700" d="M328.958,107.395a7.645,7.645,0,0,1-1.264-.511c-.8-.361-1.958-.867-3.4-1.47a101.92,101.92,0,0,0-23.431-6.685c-1.543-.248-2.8-.432-3.664-.545a7.832,7.832,0,0,1-1.343-.232,7.546,7.546,0,0,1,1.363.052c.875.059,2.138.192,3.693.4a86.315,86.315,0,0,1,23.513,6.708c1.431.643,2.574,1.2,3.349,1.609a7.7,7.7,0,0,1,1.185.675" transform="translate(-31.461 -10.414)" fill="#ffb937"/>
            <path id="Trazado_888701" data-name="Trazado 888701" d="M326.876,114.141a7.272,7.272,0,0,1-1.224-.509c-.771-.36-1.9-.865-3.292-1.467a96.643,96.643,0,0,0-22.735-6.687c-1.5-.25-2.719-.433-3.562-.547a7.29,7.29,0,0,1-1.306-.232,7.2,7.2,0,0,1,1.325.053c.852.059,2.08.192,3.592.4a81.9,81.9,0,0,1,22.82,6.712c1.384.643,2.491,1.194,3.239,1.605a7.257,7.257,0,0,1,1.144.672" transform="translate(-31.344 -11.132)" fill="#ffb937"/>
            <path id="Trazado_888702" data-name="Trazado 888702" d="M322.487,119.667a5.875,5.875,0,0,1-1.105-.44l-2.954-1.314a72.156,72.156,0,0,0-20.4-5.82l-3.2-.442a5.812,5.812,0,0,1-1.171-.21,5.83,5.83,0,0,1,1.189.029c.763.045,1.866.147,3.226.3a61.886,61.886,0,0,1,20.492,5.846c1.235.59,2.225,1.085,2.9,1.45a5.784,5.784,0,0,1,1.026.6" transform="translate(-31.227 -11.849)" fill="#ffb937"/>
            <path id="Trazado_888703" data-name="Trazado 888703" d="M307.909,121.063a14.309,14.309,0,0,1-2.308-.478c-1.414-.329-3.373-.752-5.554-1.126s-4.17-.65-5.609-.854a12.773,12.773,0,0,1-2.324-.4,11.126,11.126,0,0,1,2.361.076c1.452.122,3.457.34,5.651.723a50.506,50.506,0,0,1,5.558,1.266,10.174,10.174,0,0,1,2.225.8" transform="translate(-31.063 -12.566)" fill="#ffb937"/>
            <path id="Trazado_888704" data-name="Trazado 888704" d="M246.745,70.1s.246-.02.745-.038l2.233-.074c1.973-.048,4.824-.017,8.473.189a134.858,134.858,0,0,1,29.76,5.327l.164.049-.03.173c-2.235,12.8-4.894,28.021-7.737,44.306-.115.66-.231,1.317-.344,1.963l-.044.249-.246-.064a196.1,196.1,0,0,0-19.871-4.1c-6.4-.982-12.524-1.678-18.211-2.039l-.219-.013.025-.214c1.564-13.661,2.875-25.107,3.8-33.158.468-3.983.836-7.126,1.091-9.295.129-1.052.228-1.867.3-2.44.035-.261.062-.464.082-.619a1.2,1.2,0,0,1,.035-.2,1.807,1.807,0,0,1-.012.226c-.015.162-.034.373-.059.643-.059.583-.143,1.412-.251,2.482-.231,2.181-.564,5.342-.988,9.349-.87,8.028-2.107,19.44-3.584,33.061l-.193-.228c5.714.346,11.84,1.03,18.259,2.005a193.886,193.886,0,0,1,19.921,4.094l-.289.184c.113-.646.229-1.3.344-1.963l7.8-44.293.134.223a138,138,0,0,0-29.651-5.473c-3.63-.241-6.507-.307-8.435-.3l-2.22,0c-.507,0-.781-.012-.781-.012" transform="translate(-25.672 -7.44)" fill="#ffb937"/>
          </g>
        </g>
        <path id="Trazado_888705" data-name="Trazado 888705" d="M207.6,200.595l31.635,7,4.835-7-.781-9.021-4.807-4.391H221.908l-15.473,13.934" transform="translate(-21.952 -19.905)" fill="#ffb937"/>
        <g id="Grupo_1100910" data-name="Grupo 1100910">
          <g id="Grupo_1100909" data-name="Grupo 1100909" clip-path="url(#clip-path)">
            <g id="Grupo_1100887" data-name="Grupo 1100887" transform="translate(184.483 167.277)" opacity="0.3">
              <g id="Grupo_1100886" data-name="Grupo 1100886">
                <g id="Grupo_1100885" data-name="Grupo 1100885" clip-path="url(#clip-path-8)">
                  <path id="Trazado_888706" data-name="Trazado 888706" d="M207.6,200.595l31.635,7,4.835-7-.781-9.021-4.807-4.391H221.908l-15.473,13.934" transform="translate(-206.435 -187.182)"/>
                </g>
              </g>
            </g>
            <path id="Trazado_888707" data-name="Trazado 888707" d="M260.72,127.975l39.932-5.377,6.285-1.773s14.393-3.162,15.737-3.642c1.553-.554,2.194.061,2.359.647.257.914-.618,1.937-1.935,2.454-.456.179-7.757,2.708-7.757,2.708a18.255,18.255,0,0,1,2.466.711c1.745.593,3.422,2.845,4.261,5.468s.842,3.433-.163,3.807a1.363,1.363,0,0,1-1.16-.161,2.7,2.7,0,0,1-1.2-1.5c-1.4-4.184-4.02-4.514-4.02-4.514l-.822.231s2.7,1.887,2.655,4.168a2.6,2.6,0,0,1-.21.979,3.452,3.452,0,0,1-3.85,4.542c-.575-.1-1.2-.44-1.28-1.017a1.842,1.842,0,0,1,.185-.894,2.766,2.766,0,0,0,.143-.467l-2.4.327s-5.418.448-7.754.909l-37.4,11.263a9.683,9.683,0,1,1-4.085-18.869" transform="translate(-26.832 -12.438)" fill="#ffbe9d"/>
            <path id="Trazado_888708" data-name="Trazado 888708" d="M307.438,124.155a2.011,2.011,0,0,0,1.721,1.593c.821.172,1.677.061,2.509.172,2.487.336,4.422,2.6,6.923,2.814.349.03.788-.042.892-.376.1-.31-.172-.6-.415-.818l-6.231-5.507" transform="translate(-32.692 -12.977)" fill="#ffbe9d"/>
            <path id="Trazado_888709" data-name="Trazado 888709" d="M312.835,122.032a3.361,3.361,0,0,1,.735.526c.453.362,1.1.9,1.887,1.567l2.759,2.37.793.691c.235.238.647.444.723,1.015a.7.7,0,0,1-.427.66,1.444,1.444,0,0,1-.672.111,5.477,5.477,0,0,1-1.2-.239,31.9,31.9,0,0,1-4-2.026,6.244,6.244,0,0,0-1.778-.591c-.578-.088-1.146-.07-1.671-.107a2.928,2.928,0,0,1-2.275-.983c-.37-.506-.291-.887-.275-.874a2.431,2.431,0,0,0,.416.755,2.835,2.835,0,0,0,2.149.767,17.088,17.088,0,0,1,1.71.053,6.46,6.46,0,0,1,1.911.584,37.076,37.076,0,0,0,3.951,1.969,5.115,5.115,0,0,0,1.086.22c.344.024.641-.1.609-.283,0-.206-.289-.458-.558-.693l-.783-.7-2.691-2.447c-.761-.7-1.373-1.275-1.787-1.68a3.317,3.317,0,0,1-.613-.665" transform="translate(-32.69 -12.976)" fill="#eb996e"/>
            <path id="Trazado_888710" data-name="Trazado 888710" d="M322.047,128.1a3.424,3.424,0,0,1,1.571-.021,2.646,2.646,0,0,1,1.367.939,6.788,6.788,0,0,1,.983,1.866,10.732,10.732,0,0,0,.91,1.991,3.481,3.481,0,0,0,1.307,1.257,1.359,1.359,0,0,0,1.222.028c.26-.139.358-.271.35-.279-.017-.024-.143.074-.4.169a1.283,1.283,0,0,1-1.077-.111,3.45,3.45,0,0,1-1.166-1.214,11.936,11.936,0,0,1-.863-1.952,6.587,6.587,0,0,0-1.051-1.935,2.773,2.773,0,0,0-1.534-.97,2.465,2.465,0,0,0-1.22.038c-.277.085-.409.177-.4.193" transform="translate(-34.246 -13.592)" fill="#eb996e"/>
            <path id="Trazado_888711" data-name="Trazado 888711" d="M330.913,120.446a8.6,8.6,0,0,0-1.455.493l-3.47,1.275-3.49,1.224a8.76,8.76,0,0,0-1.436.544,6.9,6.9,0,0,0,1.5-.338c.914-.256,2.164-.653,3.528-1.142s2.58-.979,3.448-1.364a6.805,6.805,0,0,0,1.374-.693" transform="translate(-34.141 -12.808)" fill="#eb996e"/>
            <path id="Trazado_888712" data-name="Trazado 888712" d="M320.626,130.629c-.016.017.108.139.315.365a1.426,1.426,0,0,1,.451,1.1.766.766,0,0,1-.471.592,4.107,4.107,0,0,1-.965.266,1.722,1.722,0,0,0-1.079.577,1.469,1.469,0,0,0-.181,1.314,1.667,1.667,0,0,0,.9.963,2.082,2.082,0,0,0,1.2.178,6.735,6.735,0,0,0,1.852-.691,4,4,0,0,0,1.067-.8.893.893,0,0,0,.248-.422c-.024-.013-.112.134-.333.338a4.718,4.718,0,0,1-1.081.687,7.246,7.246,0,0,1-1.8.6,1.647,1.647,0,0,1-1.767-.959,1.181,1.181,0,0,1,.132-1.039,1.472,1.472,0,0,1,.9-.481,4.056,4.056,0,0,0,1.021-.316.989.989,0,0,0,.568-.792,1.489,1.489,0,0,0-.582-1.208c-.239-.206-.386-.294-.4-.28" transform="translate(-33.881 -13.891)" fill="#eb996e"/>
            <path id="Trazado_888713" data-name="Trazado 888713" d="M319.808,135.984c0-.014-.172,0-.4.187a1.335,1.335,0,0,0-.447,1.11,1.781,1.781,0,0,0,1.059,1.418,2.914,2.914,0,0,0,2.168.031,3.527,3.527,0,0,0,1.721-1.313,3.363,3.363,0,0,0,.58-1.669,3.185,3.185,0,0,0-.129-1.177c-.086-.266-.168-.4-.185-.392a5.561,5.561,0,0,1,.1,1.548,3.328,3.328,0,0,1-.6,1.528,3.368,3.368,0,0,1-1.594,1.187,2.71,2.71,0,0,1-1.949,0,1.58,1.58,0,0,1-.96-1.185,1.268,1.268,0,0,1,.314-1c.178-.193.325-.248.315-.273" transform="translate(-33.918 -14.268)" fill="#eb996e"/>
            <path id="Trazado_888714" data-name="Trazado 888714" d="M312.218,131.967c.027-.007-.013-.288-.256-.692a2.9,2.9,0,0,0-1.456-1.189l.016.27a8.576,8.576,0,0,0,.912-.506,6.6,6.6,0,0,0,2.5-2.58,16.72,16.72,0,0,1-2.669,2.322c-.3.19-.6.357-.877.5l-.311.158.326.112a3.038,3.038,0,0,1,1.4,1.018c.27.349.371.6.408.587" transform="translate(-32.974 -13.533)" fill="#eb996e"/>
            <path id="Trazado_888715" data-name="Trazado 888715" d="M326.325,127.752c-.058-.056-.481.41-.526,1.147s.3,1.256.367,1.207c.08-.038-.112-.546-.063-1.187s.3-1.118.222-1.167" transform="translate(-34.644 -13.585)" fill="#eb996e"/>
            <path id="Trazado_888716" data-name="Trazado 888716" d="M114.46,141.613s-5.833-9.453-6.865-10.255-10.266-4.182-11.055-3.934-11.979,2.16-10.694,3.488,9.088-.114,9.088-.114l1.047.524s-6.741,1.074-8.16,1.895c-1.307.755-.859,2.354.376,2.226s7.091-1.261,7.44-1.021-6.372,1.58-7.095,2.007c-.973.576-1.071,2.306.157,2.221.724-.05,7.062-1.685,7.062-1.685a54.008,54.008,0,0,0-5.488,2.375c-.759.72-.157,1.814.931,1.574.747-.164,4.3-1.857,5.3-2.075,0,0,.935.25,1.784,2.142.4.883,2.2,6.391,5.5,6.319,2.921-.063,5.79,2.345,5.79,2.345Z" transform="translate(-9.118 -13.549)" fill="#ffbe9d"/>
            <path id="Trazado_888717" data-name="Trazado 888717" d="M85.883,131.3a5.162,5.162,0,0,0,2.039.564,12.067,12.067,0,0,0,2.306.1c.855-.095,1.789-.227,2.772-.363l2.088-.3-.126-.012a30.27,30.27,0,0,0,4.825,1.514,29.9,29.9,0,0,0-4.654-1.987l-.055-.021-.071.01-2.071.279-2.741.4a14.824,14.824,0,0,1-2.234.018c-1.274-.088-2.056-.273-2.077-.194" transform="translate(-9.133 -13.908)" fill="#eb996e"/>
            <path id="Trazado_888718" data-name="Trazado 888718" d="M111.437,141.333a2.23,2.23,0,0,1-2.6,0c-.8-.48-1.409-1.216-2.17-1.752-2.275-1.6-5.554-1.223-7.75-2.932-.307-.239-.609-.629-.441-.979.156-.324.6-.361.954-.353l9.216.223" transform="translate(-10.467 -14.389)" fill="#ffbe9d"/>
            <path id="Trazado_888719" data-name="Trazado 888719" d="M108.616,135.505a3.708,3.708,0,0,0-.995-.126c-.641-.047-1.568-.1-2.716-.149l-4.03-.154-1.164-.037a1.83,1.83,0,0,0-1.354.282.777.777,0,0,0-.15.859,1.608,1.608,0,0,0,.463.6,6.066,6.066,0,0,0,1.156.713,35.329,35.329,0,0,0,4.776,1.365,6.924,6.924,0,0,1,1.891.861c.536.364.984.807,1.44,1.173a3.244,3.244,0,0,0,2.591.917c.682-.131.9-.5.882-.5a2.7,2.7,0,0,1-.908.3,3.146,3.146,0,0,1-2.325-1c-.424-.37-.859-.833-1.429-1.247a7.153,7.153,0,0,0-1.995-.965,41.09,41.09,0,0,1-4.7-1.379,5.554,5.554,0,0,1-1.048-.64c-.3-.239-.445-.565-.282-.691.157-.164.581-.155.975-.141l1.165.019,4.032.041c1.148,0,2.078,0,2.72-.018a3.67,3.67,0,0,0,1-.079" transform="translate(-10.436 -14.359)" fill="#eb996e"/>
            <path id="Trazado_888720" data-name="Trazado 888720" d="M167.6,377.529l-2.13,23.443-7.032,18.056a2.412,2.412,0,0,0,3.7,2.8c3.96-3.016,18.47-14.184,18.53-15.908.069-2,3.889-24.58,3.889-24.58Z" transform="translate(-16.83 -40.146)" fill="#ffb937"/>
            <g id="Grupo_1100890" data-name="Grupo 1100890" transform="translate(143.134 364.195)" opacity="0.6">
              <g id="Grupo_1100889" data-name="Grupo 1100889">
                <g id="Grupo_1100888" data-name="Grupo 1100888" clip-path="url(#clip-path-9)">
                  <path id="Trazado_888721" data-name="Trazado 888721" d="M160.166,425.4l20.885-17.865-.113.991a3.629,3.629,0,0,1-1.122,2.241c-1.684,1.576-6.429,5.826-17.4,14.264a2.412,2.412,0,0,1-2.247.369" transform="translate(-160.166 -407.531)" fill="#fff"/>
                </g>
              </g>
            </g>
            <g id="Grupo_1100893" data-name="Grupo 1100893" transform="translate(159.342 355.946)" opacity="0.6">
              <g id="Grupo_1100892" data-name="Grupo 1100892">
                <g id="Grupo_1100891" data-name="Grupo 1100891" clip-path="url(#clip-path-10)">
                  <path id="Trazado_888722" data-name="Trazado 888722" d="M179.04,398.457a1.46,1.46,0,0,0-.613,1.848,1.4,1.4,0,0,0,1.827.624,1.539,1.539,0,0,0,.639-1.961,1.455,1.455,0,0,0-1.972-.438" transform="translate(-178.302 -398.3)" fill="#fff"/>
                </g>
              </g>
            </g>
            <path id="Trazado_888723" data-name="Trazado 888723" d="M166.919,416.4c-.139.049-.527-1.236-1.844-2.053a7.342,7.342,0,0,0-2.634-.822c-.014-.06.3-.208.859-.223a3.844,3.844,0,0,1,3.463,2.223c.218.512.215.862.155.874" transform="translate(-17.274 -43.95)" fill="#263238"/>
            <path id="Trazado_888724" data-name="Trazado 888724" d="M164.687,419.819c-.122.089-.786-.758-1.957-1.241a19.521,19.521,0,0,0-2.25-.555,2.671,2.671,0,0,1,2.453.08c1.332.559,1.883,1.668,1.754,1.717" transform="translate(-17.065 -44.427)" fill="#263238"/>
            <path id="Trazado_888725" data-name="Trazado 888725" d="M170.688,412.266a24,24,0,0,0-2.891-2.121,24.059,24.059,0,0,0-3.377-1.2,6.593,6.593,0,0,1,6.268,3.324" transform="translate(-17.484 -43.477)" fill="#263238"/>
            <path id="Trazado_888726" data-name="Trazado 888726" d="M172.1,404.591c-.079.133-1.309-.554-2.983-.806-1.671-.275-3.054,0-3.088-.152a5.987,5.987,0,0,1,6.071.958" transform="translate(-17.655 -42.874)" fill="#263238"/>
            <path id="Trazado_888727" data-name="Trazado 888727" d="M172.973,396.9a11.79,11.79,0,0,0-3.083-.922,11.808,11.808,0,0,0-3.19.425c-.032-.053.256-.317.831-.567a5.259,5.259,0,0,1,4.711.373c.528.338.772.644.731.692" transform="translate(-17.726 -42.051)" fill="#263238"/>
            <path id="Trazado_888728" data-name="Trazado 888728" d="M170.081,394.071a2.045,2.045,0,0,1,.069-.888,6.185,6.185,0,0,1,.968-2.237,2.738,2.738,0,0,1,1.316-1.168.97.97,0,0,1,1.062.338,1.578,1.578,0,0,1,.249,1.1,3.408,3.408,0,0,1-3.326,2.8,3.954,3.954,0,0,1-3.625-2.5,1.369,1.369,0,0,1,.065-1.141.951.951,0,0,1,1.046-.387,3.365,3.365,0,0,1,1.45.977,6.9,6.9,0,0,1,1.389,2,2.093,2.093,0,0,1,.267.85,11,11,0,0,0-1.91-2.585,3.161,3.161,0,0,0-1.284-.82.507.507,0,0,0-.571.208.942.942,0,0,0,0,.752,3.531,3.531,0,0,0,3.168,2.127,2.959,2.959,0,0,0,2.857-2.332,1.141,1.141,0,0,0-.141-.774.523.523,0,0,0-.583-.195,2.481,2.481,0,0,0-1.134.968,9.146,9.146,0,0,0-1.332,2.912" transform="translate(-17.727 -41.443)" fill="#263238"/>
            <path id="Trazado_888729" data-name="Trazado 888729" d="M189.824,372.544l17.543-138.922-5.61-32.294-33.086,1.754-4.12,166.9a2.549,2.549,0,0,0,2.06,2.569l19.268,2.971a3.447,3.447,0,0,0,3.945-2.974" transform="translate(-17.498 -21.409)" fill="#263238"/>
            <path id="Trazado_888730" data-name="Trazado 888730" d="M210.233,237.441l31.908,31.579L196.23,280.186l3.268,23.164,62.143-8.458A19.556,19.556,0,0,0,275.167,264.5l-48.411-71.066-21.631,7.05Z" transform="translate(-20.867 -20.57)" fill="#263238"/>
            <path id="Trazado_888731" data-name="Trazado 888731" d="M209.924,233.684a36.386,36.386,0,0,1,1.762,8.038,36.551,36.551,0,0,1-1.762-8.038" transform="translate(-22.32 -24.85)" fill="#455a64"/>
            <path id="Trazado_888732" data-name="Trazado 888732" d="M203.119,287.337s.255-.095.758-.254l2.235-.693,8.562-2.6,31.157-9.371-.08.3-38.3-40.79.4-.13c-.759,6.408-1.551,13.1-2.358,19.929-3.95,33.089-7.661,63.025-10.534,84.67-1.425,10.824-2.683,19.569-3.6,25.605-.51,3.011-.847,5.357-1.195,6.93q-.251,1.162-.385,1.788c-.088.4-.146.6-.146.6s.026-.21.1-.616.191-1.017.339-1.8c.317-1.573.625-3.927,1.108-6.938.862-6.043,2.069-14.793,3.452-25.621,2.79-21.653,6.45-51.595,10.4-84.682.81-6.826,1.6-13.518,2.365-19.927l.058-.491.338.36,38.231,40.857.2.214-.281.083-31.2,9.219-8.59,2.51-2.249.643c-.508.143-.774.2-.774.2" transform="translate(-20.164 -24.803)" fill="#455a64"/>
            <path id="Trazado_888733" data-name="Trazado 888733" d="M193.168,374.319c-.128-.016,3.517-29.5,8.139-65.849s8.474-65.812,8.6-65.8-3.516,29.5-8.139,65.855-8.473,65.806-8.6,65.79" transform="translate(-20.541 -25.806)" fill="#455a64"/>
            <path id="Trazado_888734" data-name="Trazado 888734" d="M206.1,217.234a10.344,10.344,0,0,1,.74,2.154c.391,1.349.877,3.228,1.333,5.322s.8,4.006,1,5.4a10.36,10.36,0,0,1,.224,2.265,11.759,11.759,0,0,1-.548-2.207c-.324-1.534-.71-3.349-1.134-5.355-.449-2-.854-3.811-1.2-5.34a11.793,11.793,0,0,1-.421-2.235" transform="translate(-21.915 -23.1)" fill="#455a64"/>
            <path id="Trazado_888735" data-name="Trazado 888735" d="M208.3,214.159c-.05-.027.448-.435,1.3-.139a1.507,1.507,0,0,1,.968,1.143,1.657,1.657,0,0,1-.723,1.692,1.609,1.609,0,0,1-1.834-.181,1.411,1.411,0,0,1,.183-2.24c.208-.116.344-.114.351-.088.043.06-.487.248-.629.963a1.036,1.036,0,0,0,.368,1.036,1.214,1.214,0,0,0,1.319.113,1.266,1.266,0,0,0,.542-1.224,1.2,1.2,0,0,0-.677-.911,2.478,2.478,0,0,0-1.164-.162" transform="translate(-22.069 -22.747)" fill="#455a64"/>
            <path id="Trazado_888736" data-name="Trazado 888736" d="M257.009,283.418c-.1.105-1.893-1.549-4.478-3.038-2.575-1.509-4.9-2.248-4.858-2.385a17.7,17.7,0,0,1,9.336,5.424" transform="translate(-26.337 -29.56)" fill="#455a64"/>
            <path id="Trazado_888737" data-name="Trazado 888737" d="M178.767,94.647l-18.32,8.844,7.9,55.118-3.1,24.74a9.67,9.67,0,0,0,3.231,8.481l29.586-.584,20.72-11.392,9.516-1.608-3.9-18.83,1.745-26.714L247.8,144.265a7.543,7.543,0,0,0,5.442.649l39.7-10.267-2.063-15.3-35.942,4.063L227.566,99.227l-20.372-4.58-3.634-6H182.715l-1.458,1.094a4.363,4.363,0,0,0-1.506,2.065Z" transform="translate(-17.062 -9.426)" fill="#ffb937"/>
            <path id="Trazado_888738" data-name="Trazado 888738" d="M154.75,105.257a21.972,21.972,0,0,0-8.249,10.761c-2.094,6.5-6.819,32.8-6.819,32.8L118.868,135.9l-12,12.609,27.748,24.469a14.105,14.105,0,0,0,23.306-8.671l3.406-24.939Z" transform="translate(-11.365 -11.193)" fill="#ffb937"/>
            <path id="Trazado_888739" data-name="Trazado 888739" d="M228.305,193.212l-1.29-1.9-13.7,2.532-2.522,5.837Z" transform="translate(-22.416 -20.344)" fill="#ffbe9d"/>
            <path id="Trazado_888740" data-name="Trazado 888740" d="M169.426,199.062c12.24,4.926,25.311,3.114,36.97-3.063,3.519-1.864,6.783-4.186,10.317-6.022s7.457-3.2,11.43-2.918,7.982,2.473,9.571,6.124,0,8.625-3.74,9.988l1.324,1.183a11.87,11.87,0,0,0,5.421-15.4c-2.057-4.171-6.378-6.656-9.544-10.061-4.656-5.007-5.141-14.7-5.171-22.239" transform="translate(-18.016 -16.659)" fill="#ffb937"/>
            <path id="Trazado_888741" data-name="Trazado 888741" d="M197.5,106.016a4.288,4.288,0,0,1-.9.052,3.426,3.426,0,0,0-2.17,1,5.079,5.079,0,0,0-1.081,3.5,11.623,11.623,0,0,0,.993,4.687l.345.769-.675-.5a36.3,36.3,0,0,1-4.616-4.081,34.006,34.006,0,0,1-7.1-10.865,24.212,24.212,0,0,1-1.151-3.777,8.589,8.589,0,0,1-.206-1.433,41.608,41.608,0,0,0,1.662,5.087,35.833,35.833,0,0,0,7.128,10.667,37.839,37.839,0,0,0,4.542,4.052l-.33.269a10.684,10.684,0,0,1-.763-2.506,11,11,0,0,1-.2-2.373,5.283,5.283,0,0,1,1.258-3.678,3.454,3.454,0,0,1,2.356-.955,4.234,4.234,0,0,1,.911.093" transform="translate(-19.241 -10.141)" fill="#263238"/>
            <path id="Trazado_888742" data-name="Trazado 888742" d="M200.7,105.566c1.508-.65,3.741.31,4.824,1.544.716.815,1.118,1.947,2.061,2.483s3.922.951,4.789.29c0,0,.529-2.545.807-3.6a79.949,79.949,0,0,0,2.037-12.227c-2.885-1.4-2.089-3.236-7.274-2.884a13.232,13.232,0,0,1,.181,7.311" transform="translate(-21.343 -9.69)" fill="#ffb937"/>
            <path id="Trazado_888743" data-name="Trazado 888743" d="M208.129,98.46c-.048-.013.189-.691.3-1.96a14.458,14.458,0,0,0-.644-5.3l-.067-.214.218-.013a8.946,8.946,0,0,1,3.826.345,5.843,5.843,0,0,1,1.766,1.273,7.141,7.141,0,0,0,1.79,1.24l.14.065-.016.157c-.231,2.171-.5,4.54-.905,6.985-.269,1.6-.591,3.147-.965,4.625s-.668,2.893-.985,4.237l-.021.088-.059.038a2.851,2.851,0,0,1-1.531.373,9.421,9.421,0,0,1-2.772-.383,2.847,2.847,0,0,1-1.174-.64,12.261,12.261,0,0,1-1.377-1.889,4.832,4.832,0,0,0-1.408-1.28,5.008,5.008,0,0,0-2.572-.8,5.609,5.609,0,0,0-.969.137,1.975,1.975,0,0,1,.963-.273,4.9,4.9,0,0,1,2.71.719,4.988,4.988,0,0,1,1.524,1.316,12.817,12.817,0,0,0,1.368,1.81,4.387,4.387,0,0,0,2.326.8,8.558,8.558,0,0,0,1.368.073,2.547,2.547,0,0,0,1.285-.3l-.08.126c.3-1.35.594-2.794.961-4.261s.68-3,.948-4.591c.408-2.429.679-4.789.924-6.955l.123.223a7.469,7.469,0,0,1-1.884-1.324,5.509,5.509,0,0,0-1.636-1.215,8.777,8.777,0,0,0-3.646-.372l.151-.227a13.814,13.814,0,0,1,.509,5.426,9.008,9.008,0,0,1-.306,1.456,2.04,2.04,0,0,1-.186.484" transform="translate(-21.343 -9.669)" fill="#263238"/>
            <path id="Trazado_888744" data-name="Trazado 888744" d="M238.529,184.74c-.037,0,.04-.357-.008-1.026a6.231,6.231,0,0,0-.882-2.755,9.157,9.157,0,0,0-3.286-3.174,13.865,13.865,0,0,0-5.859-1.609c-2.273-.208-4.788-.085-7.5-.268a28.082,28.082,0,0,1-8.455-1.792,17.428,17.428,0,0,1-7.625-5.694,13.278,13.278,0,0,1-2.192-4.593,17.65,17.65,0,0,1-.5-5.207,90.313,90.313,0,0,1,1.442-10.139,76.46,76.46,0,0,0,.892-9.442,78.34,78.34,0,0,0-1.175-16.006,79.268,79.268,0,0,0-2.636-10.513c-.383-1.223-.728-2.157-.952-2.794-.1-.3-.185-.539-.25-.727a1.118,1.118,0,0,1-.07-.254,1.064,1.064,0,0,1,.115.237c.075.184.172.418.291.71.254.627.627,1.552,1.037,2.769a73.311,73.311,0,0,1,2.788,10.512,76.909,76.909,0,0,1,1.281,16.078,75.4,75.4,0,0,1-.87,9.5,91.353,91.353,0,0,0-1.427,10.086,14.487,14.487,0,0,0,2.6,9.512,17.047,17.047,0,0,0,7.417,5.567,27.862,27.862,0,0,0,8.322,1.806c2.676.2,5.2.094,7.5.324a14.037,14.037,0,0,1,5.963,1.712,9.277,9.277,0,0,1,3.311,3.308,6.107,6.107,0,0,1,.817,2.841,3.685,3.685,0,0,1-.041.771,1.161,1.161,0,0,1-.044.259" transform="translate(-21.212 -11.564)" fill="#263238"/>
            <path id="Trazado_888745" data-name="Trazado 888745" d="M224.171,175.541a9.026,9.026,0,0,1-1.032,1.067c-.34.338-.765.739-1.286,1.175s-1.09.962-1.777,1.474a48.7,48.7,0,0,1-4.945,3.419,50.194,50.194,0,0,1-13.547,5.673,48.678,48.678,0,0,1-5.905,1.124c-.846.131-1.62.172-2.3.233s-1.261.086-1.739.091a8.961,8.961,0,0,1-1.485-.013,9.052,9.052,0,0,1,1.475-.167c.475-.033,1.055-.08,1.726-.17s1.438-.149,2.275-.3a54.7,54.7,0,0,0,5.842-1.214,53.363,53.363,0,0,0,13.437-5.626A54.484,54.484,0,0,0,219.875,179c.7-.492,1.279-.993,1.81-1.411s.976-.8,1.332-1.111a9.09,9.09,0,0,1,1.154-.933" transform="translate(-20.221 -18.667)" fill="#263238"/>
            <path id="Trazado_888746" data-name="Trazado 888746" d="M218.168,142.694a1.987,1.987,0,0,1-.078.492c-.082.369-.186.83-.312,1.393a21,21,0,0,1-.591,2.182c-.269.839-.529,1.812-.953,2.84q-.3.78-.625,1.628c-.222.565-.5,1.13-.769,1.727-.513,1.2-1.195,2.423-1.886,3.72a51.536,51.536,0,0,1-12.225,14.575c-1.157.906-2.24,1.79-3.336,2.5-.542.365-1.048.743-1.566,1.059l-1.5.9c-.938.6-1.851,1.021-2.631,1.433a21.144,21.144,0,0,1-2.046.961l-1.318.55a2.008,2.008,0,0,1-.471.163,2.019,2.019,0,0,1,.434-.248l1.279-.628c.56-.259,1.24-.589,2-1.028s1.66-.873,2.582-1.483l1.468-.918c.508-.322,1.006-.7,1.54-1.072,1.079-.722,2.144-1.611,3.284-2.518a53.286,53.286,0,0,0,12.126-14.457c.7-1.282,1.385-2.484,1.908-3.672.271-.589.56-1.146.789-1.7s.441-1.093.648-1.606c.441-1.013.721-1.973,1.012-2.8s.506-1.553.664-2.15c.16-.554.29-1.006.4-1.369a2.025,2.025,0,0,1,.169-.471" transform="translate(-19.978 -15.174)" fill="#263238"/>
            <path id="Trazado_888747" data-name="Trazado 888747" d="M178.964,207.691a5.4,5.4,0,0,1-1.631-1.214A12.415,12.415,0,0,1,173.6,197.6a5.392,5.392,0,0,1,.272-2.013c.079.01-.012.777.056,2.005a13.981,13.981,0,0,0,3.637,8.654c.83.907,1.442,1.38,1.4,1.443" transform="translate(-18.461 -20.799)" fill="#263238"/>
            <path id="Trazado_888748" data-name="Trazado 888748" d="M178.816,201.342c.133.035-.114,1.182.015,2.593.112,1.411.549,2.5.424,2.558a5.317,5.317,0,0,1-.439-5.15" transform="translate(-18.965 -21.41)" fill="#263238"/>
            <path id="Trazado_888749" data-name="Trazado 888749" d="M168.079,160.584a1.508,1.508,0,0,1-.108-.419c-.061-.332-.133-.732-.222-1.215-.189-1.13-.442-2.642-.75-4.477-.629-3.781-1.518-9-2.589-14.747s-2.124-10.938-2.9-14.692c-.374-1.823-.684-3.325-.913-4.447-.092-.483-.169-.883-.232-1.214a1.579,1.579,0,0,1-.05-.43,1.5,1.5,0,0,1,.142.409c.086.325.19.719.316,1.194.267,1.038.629,2.548,1.059,4.416.859,3.738,1.962,8.922,3.036,14.677s1.911,10.987,2.457,14.782c.273,1.9.479,3.437.6,4.5.054.488.1.893.134,1.228a1.52,1.52,0,0,1,.016.433" transform="translate(-17.047 -12.648)" fill="#263238"/>
            <path id="Trazado_888750" data-name="Trazado 888750" d="M233,160.374a1.587,1.587,0,0,1-.045-.442c-.011-.344-.023-.762-.038-1.269-.027-1.1-.031-2.7-.017-4.668.038-3.941.209-9.387.665-15.385s1.06-11.413,1.525-15.325c.241-1.9.439-3.465.586-4.629.074-.5.135-.915.185-1.256a1.62,1.62,0,0,1,.1-.434,1.619,1.619,0,0,1,0,.445c-.027.343-.059.76-.1,1.265-.111,1.168-.259,2.737-.44,4.644-.382,3.92-.936,9.332-1.388,15.324s-.679,11.422-.8,15.358c-.054,1.913-.1,3.489-.13,4.661-.02.506-.036.925-.049,1.268a1.626,1.626,0,0,1-.049.442" transform="translate(-24.765 -12.438)" fill="#263238"/>
            <path id="Trazado_888751" data-name="Trazado 888751" d="M152.04,166.614c-.157.07-1.335-3.188-3.613-6.727A51.24,51.24,0,0,0,143.585,154a8.4,8.4,0,0,1,1.751,1.426,24.133,24.133,0,0,1,3.481,4.2,29.08,29.08,0,0,1,2.51,4.84,9.257,9.257,0,0,1,.713,2.141" transform="translate(-15.268 -16.376)" fill="#263238"/>
            <path id="Trazado_888752" data-name="Trazado 888752" d="M153.577,162.73a16.726,16.726,0,0,1-1-1.74,13.989,13.989,0,0,0-3.089-3.616,19.71,19.71,0,0,0-4.089-2.492,11.6,11.6,0,0,1-1.811-.879,7.024,7.024,0,0,1,1.942.577,15.965,15.965,0,0,1,4.254,2.434,12.165,12.165,0,0,1,3.082,3.816,5.951,5.951,0,0,1,.714,1.9" transform="translate(-15.269 -16.375)" fill="#263238"/>
            <path id="Trazado_888753" data-name="Trazado 888753" d="M163.225,138.32a1.333,1.333,0,0,1-.186.4,4.09,4.09,0,0,1-.819.954,5.44,5.44,0,0,1-4.382,1.181,8.477,8.477,0,0,1-5.5-3.889,18.437,18.437,0,0,1-1.814-3.61c-.249-.653-.5-1.31-.713-2.013a5.488,5.488,0,0,1-.251-2.245,3.059,3.059,0,0,1,1.089-2.029,2.574,2.574,0,0,1,2.206-.394,4.308,4.308,0,0,1,2.941,2.788,4.192,4.192,0,0,1-.365,3.654,4.551,4.551,0,0,1-2.551,1.954,4.077,4.077,0,0,1-2.647-.125,4.54,4.54,0,0,1-1.652-1.122,3.827,3.827,0,0,1-.7-1.049,1.223,1.223,0,0,1-.133-.416,6.158,6.158,0,0,0,.959,1.34,4.513,4.513,0,0,0,1.614,1,3.843,3.843,0,0,0,2.459.055,4.24,4.24,0,0,0,2.317-1.84,3.808,3.808,0,0,0,.291-3.31,3.9,3.9,0,0,0-2.643-2.489,2.122,2.122,0,0,0-1.819.317,2.615,2.615,0,0,0-.91,1.724,9.251,9.251,0,0,0,.929,4.031,18.412,18.412,0,0,0,1.745,3.537,8.219,8.219,0,0,0,5.2,3.8,5.35,5.35,0,0,0,4.211-1,6.568,6.568,0,0,0,1.12-1.211" transform="translate(-15.711 -13.461)" fill="#fafafa"/>
            <path id="Trazado_888754" data-name="Trazado 888754" d="M200.017,151.041a1.73,1.73,0,0,1-.243.212l-.747.577a19.794,19.794,0,0,1-3.077,1.934,9.463,9.463,0,0,1-2.5.833,6.536,6.536,0,0,1-3.136-.2,11.053,11.053,0,0,1-5.661-4.985,18.188,18.188,0,0,1,.165-18.989,9.819,9.819,0,0,1,4.206-3.932,5.518,5.518,0,0,1,3.013-.382,4.162,4.162,0,0,1,2.7,1.529,4.387,4.387,0,0,1,.84,3.042,7.006,7.006,0,0,1-.968,3.041,9.9,9.9,0,0,1-4.97,4.03,12.766,12.766,0,0,1-6.377.659,13.119,13.119,0,0,1-5.753-2.383,19.665,19.665,0,0,1-6.759-9.474,11.385,11.385,0,0,1-.821-5.425,5.453,5.453,0,0,1,1.04-2.469,3.833,3.833,0,0,1,2.182-1.422,4.782,4.782,0,0,1,4.5,1.555,5.123,5.123,0,0,1,1.087,4.284,6.8,6.8,0,0,1-1.834,3.609,8.736,8.736,0,0,1-3.022,1.979,13.764,13.764,0,0,1-5.677.858,32.946,32.946,0,0,1-3.612-.367l-.932-.15a1.605,1.605,0,0,1-.315-.068,1.64,1.64,0,0,1,.322.021l.937.1c.823.088,2.038.243,3.606.28a13.769,13.769,0,0,0,5.573-.919,8.49,8.49,0,0,0,2.908-1.944,6.511,6.511,0,0,0,1.722-3.456,4.8,4.8,0,0,0-1.03-3.993,4.419,4.419,0,0,0-4.146-1.417,4.13,4.13,0,0,0-2.906,3.579,11.018,11.018,0,0,0,.822,5.217,19.282,19.282,0,0,0,6.619,9.247,12.672,12.672,0,0,0,5.555,2.295,12.319,12.319,0,0,0,6.143-.634,9.461,9.461,0,0,0,4.737-3.829,6.559,6.559,0,0,0,.908-2.838,3.934,3.934,0,0,0-.743-2.732,3.709,3.709,0,0,0-2.411-1.363,5.076,5.076,0,0,0-2.769.347,9.42,9.42,0,0,0-4.02,3.757,17.52,17.52,0,0,0-2.725,9.919,17.708,17.708,0,0,0,2.481,8.665,10.823,10.823,0,0,0,5.461,4.909,7.387,7.387,0,0,0,5.484-.546,21.621,21.621,0,0,0,3.1-1.846l.773-.539a1.683,1.683,0,0,1,.272-.173" transform="translate(-17.37 -12.456)" fill="#fafafa"/>
            <path id="Trazado_888755" data-name="Trazado 888755" d="M174.676,98.965a2.666,2.666,0,0,1-.284.8,12.678,12.678,0,0,1-1.147,2.011A14.724,14.724,0,0,1,160,108.1a12.7,12.7,0,0,1-2.284-.374,2.672,2.672,0,0,1-.8-.282c.02-.084,1.181.258,3.1.327a15.354,15.354,0,0,0,12.963-6.185c1.155-1.536,1.619-2.655,1.7-2.618" transform="translate(-16.686 -10.524)" fill="#fafafa"/>
            <path id="Trazado_888756" data-name="Trazado 888756" d="M191.064,103.213a5.723,5.723,0,0,0-4.152,3.525c-.055-.008-.072-.356.1-.882a4.184,4.184,0,0,1,3.161-2.684c.549-.088.888-.015.887.04" transform="translate(-19.872 -10.967)" fill="#fafafa"/>
            <path id="Trazado_888757" data-name="Trazado 888757" d="M212.1,108.15a2.047,2.047,0,0,1-.759-.349,6.191,6.191,0,0,1-1.68-1.546,6.071,6.071,0,0,1-1.239-3.169,3.023,3.023,0,0,1,.549-2.007,2.074,2.074,0,0,1,2.071-.875,2.3,2.3,0,0,1,1.625,1.561,2.151,2.151,0,0,1-.409,2.055,2.892,2.892,0,0,1-3.238.858,3.632,3.632,0,0,1-1.767-1.462,1.7,1.7,0,0,1-.333-.769c.037-.017.157.255.481.664a3.721,3.721,0,0,0,1.727,1.256,2.563,2.563,0,0,0,2.794-.815,1.721,1.721,0,0,0,.311-1.648,1.865,1.865,0,0,0-1.29-1.248,1.63,1.63,0,0,0-1.608.7,2.613,2.613,0,0,0-.484,1.712,5.974,5.974,0,0,0,1.078,3,9.321,9.321,0,0,0,2.172,2.088" transform="translate(-22.003 -10.651)" fill="#fafafa"/>
            <path id="Trazado_888758" data-name="Trazado 888758" d="M215.928,97.076a8.253,8.253,0,0,0-6.5-2.667c-.012-.054.387-.214,1.077-.267a6.062,6.062,0,0,1,4.841,1.987c.454.522.626.918.579.947" transform="translate(-22.27 -10.009)" fill="#fafafa"/>
            <path id="Trazado_888759" data-name="Trazado 888759" d="M240.17,108.2a.686.686,0,0,1-.176.11l-.538.281a23.228,23.228,0,0,1-2.147.912,25.871,25.871,0,0,1-8.418,1.582,11.939,11.939,0,0,1-2.858-.276,6.227,6.227,0,0,1-2.819-1.374,4.181,4.181,0,0,1-1.382-3.059,5.151,5.151,0,0,1,1.189-3.361,6.908,6.908,0,0,1,7.115-1.828,8.289,8.289,0,0,1,5.7,5.523,8.151,8.151,0,0,1-1.7,7.745,12.487,12.487,0,0,1-6.618,3.561,37.955,37.955,0,0,1-6.778.685,37.451,37.451,0,0,0-5.851.571,11.863,11.863,0,0,0-7.2,4.107,8.607,8.607,0,0,0-1.372,2.776.676.676,0,0,1,.029-.206,5.745,5.745,0,0,1,.142-.592,7.165,7.165,0,0,1,1.055-2.087,11.885,11.885,0,0,1,7.279-4.321,36.724,36.724,0,0,1,5.9-.634,38.176,38.176,0,0,0,6.7-.718,12.1,12.1,0,0,0,6.374-3.445,7.7,7.7,0,0,0,1.6-7.311,7.848,7.848,0,0,0-5.381-5.217,6.489,6.489,0,0,0-6.663,1.666,4.745,4.745,0,0,0-1.107,3.079,3.787,3.787,0,0,0,1.233,2.783,5.9,5.9,0,0,0,2.641,1.307,11.737,11.737,0,0,0,2.772.3,26.8,26.8,0,0,0,8.361-1.424c.954-.323,1.678-.622,2.169-.828a5.852,5.852,0,0,1,.752-.3" transform="translate(-21.939 -10.728)" fill="#fafafa"/>
            <path id="Trazado_888760" data-name="Trazado 888760" d="M217.775,147.642c-.075.034-.388-.749-1.2-1.8a9.193,9.193,0,0,0-9.133-3.433c-1.3.25-2.054.634-2.088.559a4.882,4.882,0,0,1,2.015-.881,8.839,8.839,0,0,1,9.47,3.559,4.867,4.867,0,0,1,.937,1.99" transform="translate(-21.837 -15.081)" fill="#fafafa"/>
            <path id="Trazado_888761" data-name="Trazado 888761" d="M229.445,155.894a4.38,4.38,0,0,1-1.223,1.806,7.487,7.487,0,0,1-9.8.777,4.381,4.381,0,0,1-1.492-1.59c.063-.056.576.609,1.678,1.319A7.616,7.616,0,0,0,228,157.46c.976-.875,1.378-1.612,1.449-1.567" transform="translate(-23.068 -16.577)" fill="#fafafa"/>
            <path id="Trazado_888762" data-name="Trazado 888762" d="M232.864,135.862c-.039.067-.577-.258-1.527-.509a6.544,6.544,0,0,0-6.845,2.189c-.628.756-.878,1.333-.948,1.3a3.111,3.111,0,0,1,.687-1.5,6.263,6.263,0,0,1,7.2-2.3,3.1,3.1,0,0,1,1.431.824" transform="translate(-23.77 -14.322)" fill="#fafafa"/>
            <path id="Trazado_888763" data-name="Trazado 888763" d="M268.255,126.624a3.645,3.645,0,0,1,.164.663,4.805,4.805,0,0,1,.112.822,6.552,6.552,0,0,1,.031,1.134A11.338,11.338,0,0,1,266,135.9a11.783,11.783,0,0,1-3.853,3.176,11.935,11.935,0,0,1-5.583,1.282,15.016,15.016,0,0,1-11.479-5.681,8.984,8.984,0,0,1-1.618-3.1,5.868,5.868,0,0,1,.058-3.41,4.345,4.345,0,0,1,2.091-2.551,4.816,4.816,0,0,1,3.142-.372,5.34,5.34,0,0,1,2.657,1.409,6.118,6.118,0,0,1,1.458,2.424,8.12,8.12,0,0,1-.04,4.987,9.485,9.485,0,0,1-2.109,3.541,9.667,9.667,0,0,1-2.46,1.9,9.169,9.169,0,0,1-1.824.727,3.579,3.579,0,0,1-.671.126,13.3,13.3,0,0,0,2.408-1.011,9.644,9.644,0,0,0,4.343-5.383,7.833,7.833,0,0,0-.012-4.766,5.741,5.741,0,0,0-1.381-2.255,4.932,4.932,0,0,0-2.454-1.28,4.393,4.393,0,0,0-2.852.346,3.9,3.9,0,0,0-1.863,2.3,5.419,5.419,0,0,0-.044,3.145,8.558,8.558,0,0,0,1.539,2.934,14.667,14.667,0,0,0,11.115,5.537,11.379,11.379,0,0,0,9.175-4.236,11.391,11.391,0,0,0,2.636-6.462,16.5,16.5,0,0,0-.126-2.61" transform="translate(-25.866 -13.307)" fill="#fafafa"/>
            <path id="Trazado_888764" data-name="Trazado 888764" d="M278.737,145.25a2.384,2.384,0,0,1-.543-.613,6.435,6.435,0,0,1-.977-2.022,8.28,8.28,0,0,1-.135-3.329,30.426,30.426,0,0,1,.907-3.946,27.968,27.968,0,0,1,3.2-6.6c.5-.791.927-1.416,1.23-1.844a2.809,2.809,0,0,1,.51-.637,22.6,22.6,0,0,1-1.458,2.651,32.872,32.872,0,0,0-3.035,6.562,35.2,35.2,0,0,0-.928,3.871,8.447,8.447,0,0,0,.029,3.187,11.947,11.947,0,0,0,1.2,2.716" transform="translate(-29.453 -13.426)" fill="#fafafa"/>
            <path id="Trazado_888765" data-name="Trazado 888765" d="M297.451,124.5a2,2,0,0,1,.27.64,11.432,11.432,0,0,1,.451,1.836,16.477,16.477,0,0,1-2.636,11.947,11.555,11.555,0,0,1-1.182,1.476c-.309.322-.491.488-.515.466-.063-.055.592-.789,1.421-2.122a18.152,18.152,0,0,0,2.587-11.72c-.19-1.559-.475-2.5-.4-2.524" transform="translate(-31.246 -13.239)" fill="#fafafa"/>
            <path id="Trazado_888766" data-name="Trazado 888766" d="M229.8,170.912a1.591,1.591,0,0,1-.391-.2,10.285,10.285,0,0,0-1.091-.594,12.805,12.805,0,0,0-4.356-1.221,13.274,13.274,0,0,0-6.562,1.052,11.267,11.267,0,0,0-3.277,2.172,6.743,6.743,0,0,0-1.29,1.6,3.226,3.226,0,0,0-.45,1.962,2.337,2.337,0,0,0,.954,1.678,1.909,1.909,0,0,0,1.821.084,3.2,3.2,0,0,0,1.658-3.139,6.346,6.346,0,0,0-3.314-5.374,6.529,6.529,0,0,0-4.376-.579,13.37,13.37,0,0,0-1.59.515,1.443,1.443,0,0,1,.37-.239,5.861,5.861,0,0,1,1.178-.453,6.541,6.541,0,0,1,4.569.464,6.655,6.655,0,0,1,3.592,5.66,4.633,4.633,0,0,1-.379,2.017,3.034,3.034,0,0,1-1.523,1.546,2.362,2.362,0,0,1-2.258-.113,2.788,2.788,0,0,1-1.164-2.01,3.682,3.682,0,0,1,.507-2.244,7.229,7.229,0,0,1,1.381-1.7,11.566,11.566,0,0,1,3.419-2.233A13.339,13.339,0,0,1,224,168.57a12.145,12.145,0,0,1,4.4,1.387,7.311,7.311,0,0,1,1.059.677,1.555,1.555,0,0,1,.339.278" transform="translate(-22.069 -17.86)" fill="#fafafa"/>
            <path id="Trazado_888767" data-name="Trazado 888767" d="M235.761,179.536a5.922,5.922,0,0,1-1.081,2.051c-.7,1.063-1.362,1.865-1.469,1.794a5.922,5.922,0,0,1,1.081-2.052c.7-1.062,1.362-1.864,1.469-1.794" transform="translate(-24.798 -19.091)" fill="#fafafa"/>
            <path id="Trazado_888768" data-name="Trazado 888768" d="M248.158,193.477c-.072.02-.2-.319-.508-.78a4.64,4.64,0,0,0-3.633-2.023c-.556-.021-.91.052-.931-.02-.018-.049.314-.242.92-.309a4.08,4.08,0,0,1,3.929,2.188c.264.55.274.935.223.945" transform="translate(-25.849 -20.239)" fill="#fafafa"/>
            <path id="Trazado_888769" data-name="Trazado 888769" d="M205.974,188.753c.032.066-1.075.616-2.8,1.6a24.172,24.172,0,0,0-6.079,4.7,12.94,12.94,0,0,0-3.218,6.829,15.8,15.8,0,0,0,.05,3.186,2.617,2.617,0,0,1-.256-.836,8.48,8.48,0,0,1-.122-2.384,12.53,12.53,0,0,1,3.2-7.1,21.892,21.892,0,0,1,6.268-4.677c.889-.462,1.625-.8,2.139-1.019a3.049,3.049,0,0,1,.82-.293" transform="translate(-20.579 -20.071)" fill="#fafafa"/>
            <path id="Trazado_888770" data-name="Trazado 888770" d="M221.941,192.607c-.029.035-.5-.294-.974-1.074a5.97,5.97,0,0,1,.557-6.673c.6-.692,1.115-.938,1.138-.9.05.065-.384.4-.878,1.1a6.413,6.413,0,0,0-.526,6.317c.37.77.744,1.173.684,1.23" transform="translate(-23.416 -19.562)" fill="#fafafa"/>
            <path id="Trazado_888771" data-name="Trazado 888771" d="M195.817,175.23c-.021.016-.158-.2-.512-.517a3.713,3.713,0,0,0-1.861-.827,4.646,4.646,0,0,0-3.117.651,9.476,9.476,0,0,0-2.959,3.123c-.883,1.357-1.632,2.993-2.761,4.583a9.744,9.744,0,0,1-4.928,3.683,9.132,9.132,0,0,1-6.764-.393,9.676,9.676,0,0,1-4.974-5.3,5.767,5.767,0,0,1-.153-3.77,5.283,5.283,0,0,1,2.317-2.842,5.441,5.441,0,0,1,3.453-.791,5.7,5.7,0,0,1,3.067,1.459,7.506,7.506,0,0,1,2.425,5.618,9.281,9.281,0,0,1-1.668,5.1,10.357,10.357,0,0,1-3.231,3.038,12.837,12.837,0,0,1-3.07,1.335,13.618,13.618,0,0,1-2.065.437c-.239.035-.423.047-.546.057a.581.581,0,0,1-.188,0,5.436,5.436,0,0,1,.719-.15,16.859,16.859,0,0,0,2.027-.517,13.137,13.137,0,0,0,2.986-1.383,10.207,10.207,0,0,0,3.1-3,8.981,8.981,0,0,0,1.556-4.921,7.125,7.125,0,0,0-2.325-5.3,5.271,5.271,0,0,0-2.834-1.338,5,5,0,0,0-3.163.738,4.842,4.842,0,0,0-2.115,2.6,5.321,5.321,0,0,0,.151,3.468,9.256,9.256,0,0,0,4.729,5.047,8.717,8.717,0,0,0,6.438.4,9.379,9.379,0,0,0,4.749-3.5c1.113-1.536,1.882-3.165,2.8-4.535a9.64,9.64,0,0,1,3.1-3.169,4.8,4.8,0,0,1,3.279-.6,3.666,3.666,0,0,1,1.895.937,2.238,2.238,0,0,1,.449.586" transform="translate(-17.816 -18.375)" fill="#fafafa"/>
            <path id="Trazado_888772" data-name="Trazado 888772" d="M199.034,189.771a4.33,4.33,0,0,1-1.441-1.139,9.842,9.842,0,0,1-2.474-8.294,4.332,4.332,0,0,1,.583-1.744c.076.026-.139.691-.256,1.79a10.928,10.928,0,0,0,2.394,8.03c.7.854,1.245,1.293,1.195,1.357" transform="translate(-20.734 -18.991)" fill="#fafafa"/>
            <path id="Trazado_888773" data-name="Trazado 888773" d="M199.434,166.79c-.024.046-.63-.3-1.8-.758a21.423,21.423,0,0,0-12.871-.963,17.358,17.358,0,0,0-4.288,1.607,2.857,2.857,0,0,0-1.419,1.7,1.615,1.615,0,0,0,.925,1.8.965.965,0,0,0,.942-.284,2.351,2.351,0,0,0,.534-1,8.271,8.271,0,0,0,.206-2.374,10.746,10.746,0,0,0-1.144-4.387A10.248,10.248,0,0,0,178,158.885a10.033,10.033,0,0,0-3.113-1.789,10.856,10.856,0,0,0-5.18-.516c-1.232.2-1.88.467-1.9.422a2.071,2.071,0,0,1,.462-.209,9.148,9.148,0,0,1,1.4-.391,10.6,10.6,0,0,1,5.318.383,10.23,10.23,0,0,1,3.253,1.805,10.538,10.538,0,0,1,2.657,3.344,11.074,11.074,0,0,1,1.216,4.561,8.59,8.59,0,0,1-.215,2.523,2.8,2.8,0,0,1-.652,1.2,1.434,1.434,0,0,1-1.394.4,1.766,1.766,0,0,1-1.061-.962,2.248,2.248,0,0,1-.194-1.373,3.283,3.283,0,0,1,1.637-2,17.43,17.43,0,0,1,4.425-1.634,21.19,21.19,0,0,1,7.915-.289,19.945,19.945,0,0,1,5.126,1.5,12.45,12.45,0,0,1,1.3.655,2.033,2.033,0,0,1,.429.27" transform="translate(-17.845 -16.613)" fill="#fafafa"/>
            <path id="Trazado_888774" data-name="Trazado 888774" d="M124.334,168.124c-.029-.038.555-.432,1.436-1.324a12.456,12.456,0,0,0,2.809-4.433,9.713,9.713,0,0,0-.225-7.562,9.552,9.552,0,0,0-2.853-3.521,8.034,8.034,0,0,0-4.5-1.689,5.187,5.187,0,0,0-2.365.494,2.985,2.985,0,0,0-1.572,1.594,2.3,2.3,0,0,0,.32,2.074,3.38,3.38,0,0,0,1.7,1.258,4.616,4.616,0,0,0,3.869-.657,6.553,6.553,0,0,0,2.346-2.663,13.451,13.451,0,0,0,1.119-5.133c.025-.587.046-1.067.062-1.449a2.121,2.121,0,0,1,.044-.508,2.082,2.082,0,0,1,.05.507c.015.332.031.823.025,1.457a12.921,12.921,0,0,1-1,5.269,6.826,6.826,0,0,1-2.433,2.844,5,5,0,0,1-4.21.743,3.789,3.789,0,0,1-1.93-1.416,2.746,2.746,0,0,1-.385-2.475,3.432,3.432,0,0,1,1.8-1.861,5.624,5.624,0,0,1,2.581-.543,8.448,8.448,0,0,1,4.763,1.792,9.923,9.923,0,0,1,2.963,3.7,9.34,9.34,0,0,1,.882,4.2,10.848,10.848,0,0,1-.736,3.66,12.061,12.061,0,0,1-2.99,4.448,9.14,9.14,0,0,1-1.13.927,2.116,2.116,0,0,1-.433.268" transform="translate(-12.387 -15.377)" fill="#fafafa"/>
            <path id="Trazado_888775" data-name="Trazado 888775" d="M145.492,183.028a3.732,3.732,0,0,1-.7-.743,14.6,14.6,0,0,1-1.53-2.325,16.5,16.5,0,0,1,1.153-17.489,14.569,14.569,0,0,1,1.821-2.1,3.727,3.727,0,0,1,.791-.644c.066.065-1.05,1.01-2.341,2.935a16.976,16.976,0,0,0-1.131,17.152c1.028,2.078,2.011,3.162,1.937,3.218" transform="translate(-15.025 -16.985)" fill="#fafafa"/>
            <path id="Trazado_888776" data-name="Trazado 888776" d="M163.233,162.5c-.085.03-.455-1.344-1.563-3.316a18.361,18.361,0,0,0-14.124-9.341c-2.248-.248-3.658-.051-3.664-.141a3.623,3.623,0,0,1,.98-.168,15.525,15.525,0,0,1,2.715-.019,17.693,17.693,0,0,1,14.383,9.512,15.578,15.578,0,0,1,1.046,2.506,3.633,3.633,0,0,1,.228.968" transform="translate(-15.3 -15.894)" fill="#fafafa"/>
            <g id="Grupo_1100896" data-name="Grupo 1100896" transform="translate(171.736 159.63)" opacity="0.3">
              <g id="Grupo_1100895" data-name="Grupo 1100895">
                <g id="Grupo_1100894" data-name="Grupo 1100894" clip-path="url(#clip-path-11)">
                  <path id="Trazado_888777" data-name="Trazado 888777" d="M192.788,190.614c-.852.365-.773,1.727-.058,2.315a3.824,3.824,0,0,0,2.654.567,34.493,34.493,0,0,0,26.477-14.871c-8.08,6.628-18.677,9.131-28.869,11.442" transform="translate(-192.171 -178.625)"/>
                </g>
              </g>
            </g>
            <g id="Grupo_1100899" data-name="Grupo 1100899" transform="translate(170.335 134.01)" opacity="0.3">
              <g id="Grupo_1100898" data-name="Grupo 1100898">
                <g id="Grupo_1100897" data-name="Grupo 1100897" clip-path="url(#clip-path-12)">
                  <path id="Trazado_888778" data-name="Trazado 888778" d="M191.027,178.447c-.88-1.349-.288-3.241.849-4.383a14.741,14.741,0,0,1,4.131-2.458,26.109,26.109,0,0,0,12.042-12.365c1.623-3.519,2.856-7.838,6.451-9.284a34.9,34.9,0,0,1-22.975,27.4" transform="translate(-190.603 -149.956)"/>
                </g>
              </g>
            </g>
            <g id="Grupo_1100902" data-name="Grupo 1100902" transform="translate(142.332 116.166)" opacity="0.3">
              <g id="Grupo_1100901" data-name="Grupo 1100901">
                <g id="Grupo_1100900" data-name="Grupo 1100900" clip-path="url(#clip-path-13)">
                  <path id="Trazado_888779" data-name="Trazado 888779" d="M162.323,129.989a90.779,90.779,0,0,1-2.056,29.208,24.985,24.985,0,0,0-1,6.155,8.179,8.179,0,0,0,2.971,5.778c1.485-3.416,1.512-6.713,2.137-10.4.563-3.32,1.507-11.064,1.508-11.178.131-6.78-1.469-12.585-4.072-18.689" transform="translate(-159.268 -129.989)"/>
                </g>
              </g>
            </g>
            <g id="Grupo_1100905" data-name="Grupo 1100905" transform="translate(161.74 86.676)" opacity="0.3">
              <g id="Grupo_1100904" data-name="Grupo 1100904">
                <g id="Grupo_1100903" data-name="Grupo 1100903" clip-path="url(#clip-path-14)">
                  <path id="Trazado_888780" data-name="Trazado 888780" d="M181.478,97.142a35.613,35.613,0,0,0,10.114,18.979c1.977,1.925,4.433,3.705,7.191,3.617A16.828,16.828,0,0,1,197.4,109.2a43.6,43.6,0,0,0,7.36,4,14.634,14.634,0,0,0,8.223.934q.858-7.425,1.718-14.851a2.743,2.743,0,0,0-.155-1.659.949.949,0,0,0-1.416-.339,1.361,1.361,0,0,0-.278.651c-1.008,4.341-1.567,8.223-2.575,12.561-.722.717-2.949.422-4.415-.12-1.277-.47-1.767-1.527-2.612-2.593s-.7-.88-1.948-1.412c-2.3-.977-6.727-.2-7.691,1.871s-.234,4.792.408,6.822A30.957,30.957,0,0,1,180.986,96.99" transform="translate(-180.986 -96.99)"/>
                </g>
              </g>
            </g>
            <g id="Grupo_1100908" data-name="Grupo 1100908" transform="translate(209.081 107.788)" opacity="0.3">
              <g id="Grupo_1100907" data-name="Grupo 1100907">
                <g id="Grupo_1100906" data-name="Grupo 1100906" clip-path="url(#clip-path-15)">
                  <path id="Trazado_888781" data-name="Trazado 888781" d="M235.842,120.614c-.18.359,5.565,19.732,5.565,19.732l-7.448-4.244Z" transform="translate(-233.96 -120.614)"/>
                </g>
              </g>
            </g>
            <path id="Trazado_888782" data-name="Trazado 888782" d="M184.3,55.805V86.652a7.48,7.48,0,0,0,1.758,4.817,22.588,22.588,0,0,0,6.194,5.131l6.223,3.5,5.147-4.594a7.487,7.487,0,0,0,2.492-5.289c.088-2.248.088-4.511.088-4.511s8.72-.626,9.539-9.225c.385-4.049.508-12.341.529-19.984a16.728,16.728,0,0,0-15.351-16.71l-.246-.021A15.985,15.985,0,0,0,184.3,55.805" transform="translate(-19.598 -4.229)" fill="#ffbe9d"/>
            <path id="Trazado_888783" data-name="Trazado 888783" d="M207.508,90.671a20.863,20.863,0,0,1-10.934-4.241s2.257,6.525,10.911,6.46Z" transform="translate(-20.903 -9.191)" fill="#eb996e"/>
            <path id="Trazado_888784" data-name="Trazado 888784" d="M216.934,64.532a1.234,1.234,0,0,1-1.288,1.142,1.179,1.179,0,0,1-1.175-1.214,1.233,1.233,0,0,1,1.286-1.143,1.18,1.18,0,0,1,1.177,1.214" transform="translate(-22.806 -6.733)" fill="#263238"/>
            <path id="Trazado_888785" data-name="Trazado 888785" d="M217.039,62.2c-.165.147-1.04-.618-2.363-.725-1.321-.125-2.348.475-2.477.3-.065-.078.114-.355.562-.627a3.389,3.389,0,0,1,2-.44,3.251,3.251,0,0,1,1.864.777c.381.346.5.647.414.712" transform="translate(-22.563 -6.454)" fill="#263238"/>
            <path id="Trazado_888786" data-name="Trazado 888786" d="M202.972,63.831a1.234,1.234,0,0,1-1.288,1.143,1.181,1.181,0,0,1-1.176-1.214,1.235,1.235,0,0,1,1.288-1.143,1.181,1.181,0,0,1,1.176,1.214" transform="translate(-21.322 -6.659)" fill="#263238"/>
            <path id="Trazado_888787" data-name="Trazado 888787" d="M202.466,61.267c-.166.147-1.041-.618-2.364-.725-1.32-.124-2.347.475-2.477.3-.064-.077.113-.354.563-.626a3.388,3.388,0,0,1,2-.44,3.254,3.254,0,0,1,1.865.777c.38.345.494.647.414.712" transform="translate(-21.014 -6.355)" fill="#263238"/>
            <path id="Trazado_888788" data-name="Trazado 888788" d="M207.507,71.551a8.748,8.748,0,0,1,2.181-.21c.34-.007.666-.047.742-.273a1.727,1.727,0,0,0-.142-1.02q-.375-1.265-.786-2.655a44.291,44.291,0,0,1-1.686-6.913,44.579,44.579,0,0,1,2.239,6.761c.259.931.508,1.818.743,2.667a1.959,1.959,0,0,1,.066,1.34.852.852,0,0,1-.6.448,2.27,2.27,0,0,1-.581.032,8.6,8.6,0,0,1-2.178-.177" transform="translate(-22.066 -6.431)" fill="#263238"/>
            <path id="Trazado_888789" data-name="Trazado 888789" d="M203.032,73.532c.216.005.1,1.441,1.245,2.562s2.686,1.089,2.681,1.291c.013.091-.365.25-1.012.214a3.589,3.589,0,0,1-2.245-1,3.129,3.129,0,0,1-.952-2.141c0-.6.185-.946.282-.93" transform="translate(-21.56 -7.819)" fill="#263238"/>
            <path id="Trazado_888790" data-name="Trazado 888790" d="M203.182,55.532c-.16.349-1.467.069-3.034.128-1.569.027-2.858.378-3.038.038-.079-.163.167-.483.7-.789a5.276,5.276,0,0,1,4.625-.126c.551.276.814.583.744.749" transform="translate(-20.959 -5.775)" fill="#263238"/>
            <path id="Trazado_888791" data-name="Trazado 888791" d="M216.893,57.858c-.257.282-1.143-.106-2.238-.212-1.09-.143-2.04.035-2.228-.3-.081-.16.09-.449.519-.7a3.255,3.255,0,0,1,3.6.41c.362.34.463.66.349.8" transform="translate(-22.587 -5.985)" fill="#263238"/>
            <path id="Trazado_888792" data-name="Trazado 888792" d="M194.269,47.338l-.05.033a6.8,6.8,0,0,0-2.879,4.171c-.013.06-.027.117-.038.172-.54,2.427-.686,4.93-1.249,7.352s-.459,4.273-2.886,4.819a3.231,3.231,0,0,1-3.378-1.373,2.1,2.1,0,0,1-.213-1.15c.031-5.966-1.168-8.283-.644-14.482a5.244,5.244,0,0,1,2.521-4.074c1.374-.822,3.039-1.656,4.425-.854s3.03,3.658,4.055,4.895" transform="translate(-19.439 -4.426)" fill="#263238"/>
            <path id="Trazado_888793" data-name="Trazado 888793" d="M186.465,62.288c-.141-.075-5.769-2.238-6.069,3.662s5.686,4.984,5.705,4.815.364-8.477.364-8.477" transform="translate(-19.182 -6.576)" fill="#ffbe9d"/>
            <path id="Trazado_888794" data-name="Trazado 888794" d="M184.59,68.661c-.025-.02-.106.067-.284.138a1.027,1.027,0,0,1-.769-.023,2.546,2.546,0,0,1-1.061-2.341,3.391,3.391,0,0,1,.362-1.458,1.19,1.19,0,0,1,.813-.75.524.524,0,0,1,.592.313c.071.169.028.285.058.3s.131-.093.1-.339a.66.66,0,0,0-.214-.382.775.775,0,0,0-.56-.179,1.446,1.446,0,0,0-1.121.861,3.5,3.5,0,0,0-.44,1.626,2.672,2.672,0,0,0,1.37,2.624,1.1,1.1,0,0,0,.948-.108c.19-.137.228-.267.208-.279" transform="translate(-19.36 -6.799)" fill="#eb996e"/>
            <path id="Trazado_888795" data-name="Trazado 888795" d="M190.362,42.235c-1.254-2.475,3-5.526,5.976-6.2s6.689,1.057,9.5,2.256c1.774.756,3.521,1.75,5.448,1.83a13.054,13.054,0,0,0,3.81-.643,9.552,9.552,0,0,1,3.826-.432,3.561,3.561,0,0,1,2.935,2.221,2.232,2.232,0,0,1-1.736,2.881,2.9,2.9,0,1,1,.328,5.419c.889-.565,2.085.589,1.9,1.626a3.057,3.057,0,0,1-2.2,2.061c-2.543.875-5.376.294-7.845-.771s-4.715-2.593-7.157-3.719-6.524-3.123-9.125-2.441c-1.916.5-3.4,2.636-4.407,2.055a3.61,3.61,0,0,1-1.643-2.8,10.483,10.483,0,0,1,.393-3.341" transform="translate(-20.198 -3.816)" fill="#263238"/>
            <path id="Trazado_888796" data-name="Trazado 888796" d="M221.05,44.239c-.046-.033-.34.41-1.029,1.045a8.144,8.144,0,0,1-3.444,1.835,7.485,7.485,0,0,1-5.593-.692c-1.928-1.062-3.492-3-5.323-4.853a12.251,12.251,0,0,0-6.352-3.724,6.8,6.8,0,0,0-5.788,1.483,5.156,5.156,0,0,0-1.651,3.694,3.991,3.991,0,0,0,.164,1.1c.087.24.144.359.163.353a9.47,9.47,0,0,1-.1-1.449,5.083,5.083,0,0,1,1.7-3.4,6.454,6.454,0,0,1,5.415-1.26,11.95,11.95,0,0,1,6.036,3.609c1.8,1.812,3.411,3.8,5.475,4.91a8.031,8.031,0,0,0,9.456-1.45,5.516,5.516,0,0,0,.69-.867c.135-.214.2-.331.18-.341" transform="translate(-20.403 -4.012)" fill="#455a64"/>
            <path id="Trazado_888797" data-name="Trazado 888797" d="M185.408,60.118c.02.022.267-.14.528-.589a3.974,3.974,0,0,0,.47-2.109c.026-1.907-1.482-4.081-1.478-6.718a5.932,5.932,0,0,1,.942-3.458,4.52,4.52,0,0,1,2.343-1.71,3.858,3.858,0,0,1,1.988-.1c.467.114.711.246.737.2.016-.023-.191-.225-.672-.417a3.673,3.673,0,0,0-2.163-.076,4.759,4.759,0,0,0-2.672,1.8,6.259,6.259,0,0,0-1.087,3.777,10.768,10.768,0,0,0,.828,3.8,11.208,11.208,0,0,1,.822,2.931,4.546,4.546,0,0,1-.586,2.675" transform="translate(-19.603 -4.786)" fill="#455a64"/>
          </g>
        </g>
        <g id="Grupo_1100912" data-name="Grupo 1100912">
          <g id="Grupo_1100911" data-name="Grupo 1100911" clip-path="url(#clip-path)">
            <path id="Trazado_888798" data-name="Trazado 888798" d="M197.328,252.627s-.45.02-1.33.034l-3.9.055c-3.43.055-8.488.186-14.994.5-6.5.339-14.459.912-23.652,1.961-4.593.552-9.5,1.183-14.676,2.043-5.18.828-10.63,1.859-16.307,3.151s-11.581,2.834-17.62,4.8a117.88,117.88,0,0,0-18.273,7.539,59.709,59.709,0,0,0-8.763,5.6,28.022,28.022,0,0,0-7.174,7.849c-.217.4-.452.783-.658,1.184l-.506,1.261-.254.631c-.07.215-.11.44-.167.66l-.319,1.327A13.331,13.331,0,0,0,69,296.68c.875,3.624,3.265,6.744,6.005,9.372,5.6,5.258,12.741,8.919,20.146,11.988a165.219,165.219,0,0,0,23.473,7.425,308.8,308.8,0,0,0,51.239,7.545,406.9,406.9,0,0,0,51.841.2,326.179,326.179,0,0,0,47.861-6.245,202.613,202.613,0,0,0,21.7-5.853,108.026,108.026,0,0,0,19.4-8.45,53.107,53.107,0,0,0,8.178-5.826,23.661,23.661,0,0,0,5.921-7.538l.44-1.091a5.761,5.761,0,0,0,.378-1.1l.273-1.13c.041-.189.1-.374.127-.564l.046-.576a11.291,11.291,0,0,0-.336-4.508,16.016,16.016,0,0,0-1.89-4.035,24.741,24.741,0,0,0-2.767-3.4,41.712,41.712,0,0,0-6.542-5.391,69.216,69.216,0,0,0-6.933-4.134,120.2,120.2,0,0,0-13.518-6.017,203.222,203.222,0,0,0-22.661-6.987c-6.319-1.58-11.281-2.574-14.649-3.219-1.681-.335-2.971-.551-3.835-.716s-1.306-.253-1.306-.253,1.783.262,5.158.877,8.344,1.581,14.675,3.135a200.756,200.756,0,0,1,22.71,6.92,119.868,119.868,0,0,1,13.564,6,69.333,69.333,0,0,1,6.971,4.137,42.075,42.075,0,0,1,6.6,5.422,25.123,25.123,0,0,1,2.812,3.442,16.327,16.327,0,0,1,1.938,4.124,11.62,11.62,0,0,1,.355,4.642l-.047.591c-.027.195-.087.385-.129.579l-.278,1.159a5.941,5.941,0,0,1-.385,1.13l-.448,1.116a24,24,0,0,1-6,7.665A53.46,53.46,0,0,1,310.86,313a108.2,108.2,0,0,1-19.461,8.5,202.572,202.572,0,0,1-21.742,5.885,325.713,325.713,0,0,1-47.923,6.282,406.167,406.167,0,0,1-51.9-.195,308.545,308.545,0,0,1-51.315-7.567,165.469,165.469,0,0,1-23.534-7.457c-7.432-3.088-14.606-6.762-20.274-12.09-2.772-2.663-5.214-5.842-6.115-9.577a13.744,13.744,0,0,1-.27-5.626l.329-1.366c.059-.226.1-.458.173-.679l.261-.648.52-1.293c.211-.411.45-.807.674-1.211A28.379,28.379,0,0,1,77.566,278a59.953,59.953,0,0,1,8.828-5.625,117.964,117.964,0,0,1,18.342-7.54c6.055-1.966,11.973-3.5,17.659-4.784s11.145-2.306,16.332-3.122c5.182-.85,10.1-1.469,14.694-2.009,9.2-1.026,17.163-1.573,23.672-1.883,6.51-.292,11.571-.393,15-.418l3.9-.008c.879,0,1.33.013,1.33.013" transform="translate(-7.248 -26.863)" fill="#ffb937"/>
            <path id="Trazado_888799" data-name="Trazado 888799" d="M121.975,176.088s-.508.114-1.5.312-2.479.477-4.416.893c-3.875.806-9.585,2.049-16.838,4.031a172.664,172.664,0,0,0-25.8,9.119c-2.425,1.114-4.9,2.333-7.381,3.741a69.193,69.193,0,0,0-7.408,4.752,40.739,40.739,0,0,0-6.838,6.285,21.54,21.54,0,0,0-4.636,8.5,15.611,15.611,0,0,0,.735,10.008,25.868,25.868,0,0,0,6.187,8.652c5.289,5.074,12,8.917,19.147,12.224,14.393,6.54,30.832,10.926,48.277,14.2a405.308,405.308,0,0,0,55.386,6.109,477.276,477.276,0,0,0,59.825-1.066,346.342,346.342,0,0,0,59.026-9.618A176.966,176.966,0,0,0,322.626,245a91.944,91.944,0,0,0,12.146-6.484A46.255,46.255,0,0,0,345,229.885c2.85-3.332,4.952-7.421,5.073-11.729a10.134,10.134,0,0,0-.055-1.6,10.509,10.509,0,0,0-.169-1.583l-.349-1.552a10.656,10.656,0,0,0-.509-1.5,22.375,22.375,0,0,0-3.066-5.48,42.054,42.054,0,0,0-9.065-8.374A82.267,82.267,0,0,0,326.487,192a146.716,146.716,0,0,0-21.254-8.342c-7-2.19-13.83-3.926-20.391-5.379a392.9,392.9,0,0,0-63.1-8.049c-7.51-.39-13.351-.407-17.309-.507l-4.5-.1c-1.014-.024-1.534-.049-1.534-.049s.52-.007,1.534,0l4.5.052c3.96.071,9.8.058,17.316.42a388.434,388.434,0,0,1,63.163,7.908c6.57,1.444,13.412,3.173,20.427,5.358a146.743,146.743,0,0,1,21.318,8.34,82.568,82.568,0,0,1,10.434,6.086,42.386,42.386,0,0,1,9.162,8.452,22.8,22.8,0,0,1,3.13,5.582,11.047,11.047,0,0,1,.521,1.535l.358,1.591a10.848,10.848,0,0,1,.176,1.626,10.59,10.59,0,0,1,.058,1.641,16.643,16.643,0,0,1-1.55,6.393,23.739,23.739,0,0,1-3.615,5.6,46.657,46.657,0,0,1-10.324,8.723,92.431,92.431,0,0,1-12.2,6.522,177.232,177.232,0,0,1-26.95,9.265,346.2,346.2,0,0,1-59.105,9.641,476.465,476.465,0,0,1-59.883,1.058,404.732,404.732,0,0,1-55.444-6.143c-17.467-3.291-33.927-7.7-48.36-14.271-7.164-3.326-13.9-7.19-19.236-12.316a26.219,26.219,0,0,1-6.256-8.78,15.951,15.951,0,0,1-.735-10.22,21.843,21.843,0,0,1,4.717-8.621,41,41,0,0,1,6.9-6.321,69.635,69.635,0,0,1,7.448-4.757c2.489-1.407,4.977-2.625,7.408-3.735a171.682,171.682,0,0,1,25.857-9.057c7.267-1.957,12.986-3.171,16.868-3.948s5.937-1.113,5.937-1.113" transform="translate(-4.926 -18.032)" fill="#ffb937"/>
            <path id="Trazado_888800" data-name="Trazado 888800" d="M158.43,327.413l-4.458.7c-2.921.469-7.223,1.208-12.711,2.409a161.792,161.792,0,0,0-19.689,5.551,91.738,91.738,0,0,0-11.706,5.086,51.126,51.126,0,0,0-5.94,3.632,30.934,30.934,0,0,0-5.461,4.862,17.745,17.745,0,0,0-2.156,3.109,12.273,12.273,0,0,0-1.332,3.614c-.051.322-.127.641-.157.966l-.057.983c.005.657.083,1.317.142,1.978a19.837,19.837,0,0,0,.513,1.938l.378.939.19.471.251.444a22.1,22.1,0,0,0,5.369,6.319,44.235,44.235,0,0,0,7.2,4.832,95.123,95.123,0,0,0,16.85,7.034,175.071,175.071,0,0,0,18.786,4.8,279.988,279.988,0,0,0,41.335,4.94,336.641,336.641,0,0,0,44.7-.777,238.21,238.21,0,0,0,44.027-7.588,110.957,110.957,0,0,0,19.836-7.558,49.559,49.559,0,0,0,8.629-5.574c.682-.507,1.255-1.133,1.884-1.693s1.137-1.234,1.708-1.845a16.445,16.445,0,0,0,2.542-4.249,11.4,11.4,0,0,0-.394-9.424,22.625,22.625,0,0,0-6.156-7.166,62.823,62.823,0,0,0-15.973-8.742,134.669,134.669,0,0,0-16.259-5.207c-5.307-1.371-10.462-2.449-15.408-3.317a305,305,0,0,0-47.337-4.331l-17.451-.1s6.214-.079,17.453-.013a302.11,302.11,0,0,1,47.369,4.245c4.952.864,10.112,1.937,15.427,3.3a134.977,134.977,0,0,1,16.291,5.2,62.991,62.991,0,0,1,16.041,8.766,22.862,22.862,0,0,1,6.228,7.247,11.652,11.652,0,0,1,.407,9.628,16.709,16.709,0,0,1-2.58,4.319c-.576.618-1.105,1.287-1.726,1.866s-1.213,1.2-1.9,1.708a49.824,49.824,0,0,1-8.675,5.609,111.12,111.12,0,0,1-19.883,7.585,238.128,238.128,0,0,1-44.078,7.6,336.436,336.436,0,0,1-44.736.773,279.672,279.672,0,0,1-41.372-4.962,175.051,175.051,0,0,1-18.81-4.82,95.372,95.372,0,0,1-16.887-7.065,44.43,44.43,0,0,1-7.232-4.863,22.3,22.3,0,0,1-5.416-6.391l-.254-.45-.192-.479-.383-.955a19.724,19.724,0,0,1-.52-1.973c-.061-.673-.139-1.347-.143-2.016l.06-1c.031-.331.109-.656.161-.984a12.5,12.5,0,0,1,1.357-3.67,17.961,17.961,0,0,1,2.184-3.14,31.048,31.048,0,0,1,5.5-4.887,51.131,51.131,0,0,1,5.966-3.635,91.559,91.559,0,0,1,11.736-5.076,160.546,160.546,0,0,1,19.719-5.51c5.5-1.185,9.8-1.908,12.726-2.358s4.467-.648,4.467-.648" transform="translate(-10.055 -34.498)" fill="#ffb937"/>
            <path id="Trazado_888801" data-name="Trazado 888801" d="M278.754,416.384a9.183,9.183,0,0,0-.743-3.256c-.831-2.049-3.048-4.6-6.543-6.9-7.023-4.622-18.76-8.5-33.537-10.877a204.222,204.222,0,0,0-24.381-2.387,234.075,234.075,0,0,0-28.11.517c-4.938.391-9.987.961-15.107,1.775a144.325,144.325,0,0,0-15.518,3.273c-2.6.7-5.2,1.511-7.769,2.456a62.52,62.52,0,0,0-7.583,3.306,30.679,30.679,0,0,0-6.874,4.757,9.092,9.092,0,0,0-.008,14.665,30.649,30.649,0,0,0,6.872,4.761,62.516,62.516,0,0,0,7.585,3.307c2.572.945,5.17,1.756,7.771,2.458a144.177,144.177,0,0,0,15.521,3.273c5.122.815,10.172,1.384,15.11,1.776a234.1,234.1,0,0,0,28.114.517,204.27,204.27,0,0,0,24.383-2.388c14.776-2.374,26.511-6.256,33.534-10.878,3.494-2.3,5.712-4.851,6.542-6.9a9.177,9.177,0,0,0,.743-3.255c-.01.135-.026.362-.06.854a4.646,4.646,0,0,1-.185,1.036,6.781,6.781,0,0,1-.463,1.381c-.823,2.063-3.04,4.627-6.536,6.946-7.026,4.651-18.769,8.554-33.554,10.946a203.679,203.679,0,0,1-24.4,2.413,234,234,0,0,1-28.136-.5c-4.942-.389-9.995-.957-15.123-1.77a144.228,144.228,0,0,1-15.54-3.274c-2.606-.7-5.209-1.513-7.787-2.46a62.537,62.537,0,0,1-7.606-3.316,30.808,30.808,0,0,1-6.918-4.791,13.564,13.564,0,0,1-2.634-3.347,8.03,8.03,0,0,1,.007-8.243,13.539,13.539,0,0,1,2.637-3.343,30.824,30.824,0,0,1,6.915-4.787,62.823,62.823,0,0,1,7.607-3.315c2.576-.946,5.178-1.757,7.784-2.458A144.125,144.125,0,0,1,170.3,395.08c5.126-.813,10.18-1.382,15.12-1.77a233.936,233.936,0,0,1,28.132-.5,203.708,203.708,0,0,1,24.4,2.412c14.786,2.391,26.53,6.3,33.556,10.946,3.5,2.318,5.714,4.883,6.537,6.946a6.807,6.807,0,0,1,.464,1.381,4.662,4.662,0,0,1,.185,1.037c.034.491.05.719.06.853" transform="translate(-13.684 -41.748)" fill="#ffb937"/>
            <path id="Trazado_888802" data-name="Trazado 888802" d="M75,263.774a2.853,2.853,0,1,1-2.853-2.853A2.853,2.853,0,0,1,75,263.774" transform="translate(-7.368 -27.746)" fill="#ffb937"/>
            <path id="Trazado_888803" data-name="Trazado 888803" d="M363.732,265.938a2.853,2.853,0,1,1-2.853-2.853,2.853,2.853,0,0,1,2.853,2.853" transform="translate(-38.072 -27.976)" fill="#ffb937"/>
            <path id="Trazado_888804" data-name="Trazado 888804" d="M233.514,383.578a2.853,2.853,0,1,1-2.854-2.853,2.854,2.854,0,0,1,2.854,2.853" transform="translate(-24.225 -40.486)" fill="#ffb937"/>
            <path id="Trazado_888805" data-name="Trazado 888805" d="M136.9,301.7a1.426,1.426,0,1,1-1.426-1.426A1.426,1.426,0,0,1,136.9,301.7" transform="translate(-14.255 -31.931)" fill="#ffb937"/>
            <path id="Trazado_888806" data-name="Trazado 888806" d="M335.416,340.389a1.427,1.427,0,1,1-1.426-1.426,1.426,1.426,0,0,1,1.426,1.426" transform="translate(-35.364 -36.045)" fill="#ffb937"/>
            <path id="Trazado_888807" data-name="Trazado 888807" d="M209.4,414.219a1.427,1.427,0,1,1-1.426-1.426,1.426,1.426,0,0,1,1.426,1.426" transform="translate(-21.964 -43.896)" fill="#ffb937"/>
            <path id="Trazado_888808" data-name="Trazado 888808" d="M127.048,134.831a.717.717,0,1,1-.717-.717.717.717,0,0,1,.717.717" transform="translate(-13.358 -14.261)" fill="#ffb937"/>
          </g>
        </g>
        <g id="Grupo_1100923" data-name="Grupo 1100923">
          <g id="Grupo_1100922" data-name="Grupo 1100922" clip-path="url(#clip-path)">
            <path id="Trazado_888809" data-name="Trazado 888809" d="M257.407,249.613c-34.648,9.173-68.044,8.477-104.443,0l-4.25-66.535c37.612,7.323,75.371,6.4,108.693-1.574Z" transform="translate(-15.814 -19.301)" fill="#ffb937"/>
            <g id="Grupo_1100915" data-name="Grupo 1100915" transform="translate(132.9 162.203)" opacity="0.8">
              <g id="Grupo_1100914" data-name="Grupo 1100914">
                <g id="Grupo_1100913" data-name="Grupo 1100913" clip-path="url(#clip-path-18)">
                  <path id="Trazado_888810" data-name="Trazado 888810" d="M257.407,249.613c-34.648,9.173-68.044,8.477-104.443,0l-4.25-66.535c37.612,7.323,75.371,6.4,108.693-1.574Z" transform="translate(-148.714 -181.504)" fill="#fff"/>
                </g>
              </g>
            </g>
            <path id="Trazado_888811" data-name="Trazado 888811" d="M253.358,246.4a.95.95,0,0,1-.216.109l-.654.278c-.581.23-1.424.607-2.541,1.005a95.5,95.5,0,0,1-9.589,3.009,125.332,125.332,0,0,1-32.872,3.751,191.822,191.822,0,0,1-32.94-3.525c-4.167-.792-7.521-1.523-9.831-2.06-1.156-.262-2.049-.487-2.655-.636l-.688-.179a.934.934,0,0,1-.231-.077,1,1,0,0,1,.241.03l.7.133,2.673.551c2.321.483,5.683,1.164,9.853,1.912a202.4,202.4,0,0,0,32.886,3.383,129.451,129.451,0,0,0,32.786-3.6c4.106-1.03,7.375-2.071,9.609-2.861,1.125-.372,1.977-.72,2.567-.922l.671-.234a1,1,0,0,1,.234-.065" transform="translate(-17.135 -26.201)" fill="#ffb937"/>
            <path id="Trazado_888812" data-name="Trazado 888812" d="M205.781,246.481a22.774,22.774,0,0,1-13.341-.446V222.352a33.5,33.5,0,0,1,13.341,0Z" transform="translate(-20.464 -23.573)" fill="#ffb937"/>
            <path id="Trazado_888813" data-name="Trazado 888813" d="M229.735,243.546a.865.865,0,0,1-.018-.182c-.006-.139-.013-.308-.022-.516q-.019-.723-.054-1.977c-.035-1.75-.084-4.24-.147-7.354-.094-6.284-.227-15.079-.38-25.275l.178.215a35.775,35.775,0,0,0-13.806.011l.189-.231c0,.148,0,.309.006.47.141,14,.269,26.636.36,35.662l-.13-.156a31.152,31.152,0,0,0,5.814.708,21.4,21.4,0,0,0,4.391-.357,21.738,21.738,0,0,0,2.694-.708l.675-.236a1.5,1.5,0,0,1,.248-.074,1.039,1.039,0,0,1-.213.106l-.678.29a18.784,18.784,0,0,1-2.69.8,20.892,20.892,0,0,1-4.43.44,30.805,30.805,0,0,1-5.877-.647l-.128-.025,0-.131c-.127-9.026-.3-21.666-.5-35.662,0-.161,0-.322-.006-.47l0-.195.192-.037a35.978,35.978,0,0,1,13.981.011l.177.037v.179c.077,10.243.143,19.079.19,25.393.008,3.1.015,5.577.02,7.318q-.007,1.232-.01,1.942c0,.2-.008.361-.011.5a.537.537,0,0,1-.014.161" transform="translate(-22.885 -22.047)" fill="#ffb937"/>
            <path id="Trazado_888814" data-name="Trazado 888814" d="M252.819,240.212c-3.572,1.933-8.273,2.189-13.341,1.9V203a28.5,28.5,0,0,1,13.341,0Z" transform="translate(-25.466 -21.502)" fill="#ffb937"/>
            <path id="Trazado_888815" data-name="Trazado 888815" d="M182.1,245.38a9.6,9.6,0,0,1-.046-1c-.013-.689-.03-1.6-.053-2.735-.025-2.381-.061-5.675-.1-9.6l.13.188a29.873,29.873,0,0,0-12.843-2.132l-.024,0,.211-.231c-.012,4.88-.022,9.452-.032,13.341l-.122-.185a24.947,24.947,0,0,0,5.15,1.47c1.577.284,2.969.448,4.116.561l2.67.226a9.421,9.421,0,0,1,.946.1,6.888,6.888,0,0,1-.951.022c-.62-.013-1.529-.038-2.685-.116s-2.557-.212-4.154-.471a24.525,24.525,0,0,1-5.248-1.424l-.123-.051v-.135c-.01-3.888-.021-8.46-.032-13.341v-.216l.211-.015.025,0a29.61,29.61,0,0,1,13.028,2.218l.132.05v.139c-.043,3.983-.079,7.323-.1,9.736q-.034,1.67-.053,2.688a6.835,6.835,0,0,1-.046.917" transform="translate(-17.961 -24.41)" fill="#ffb937"/>
            <path id="Trazado_888816" data-name="Trazado 888816" d="M188.576,208.412a13.316,13.316,0,0,1-2.609.161c-1.614.026-3.845-.007-6.3-.151s-4.679-.374-6.279-.59a13.385,13.385,0,0,1-2.573-.465,16,16,0,0,1,2.609.138c1.6.131,3.82.307,6.271.452s4.67.228,6.28.287a15.969,15.969,0,0,1,2.606.168" transform="translate(-18.164 -22.048)" fill="#ffb937"/>
            <path id="Trazado_888817" data-name="Trazado 888817" d="M186.613,211.649a11.135,11.135,0,0,1-2.29-.011c-1.413-.066-3.363-.189-5.514-.354s-4.1-.34-5.5-.491a11.128,11.128,0,0,1-2.265-.339,11.316,11.316,0,0,1,2.3.011c1.412.066,3.359.189,5.508.354s4.091.34,5.5.49a11.286,11.286,0,0,1,2.272.34" transform="translate(-18.188 -22.375)" fill="#ffb937"/>
            <path id="Trazado_888818" data-name="Trazado 888818" d="M190.966,214.5a7.869,7.869,0,0,1,.011-.83q.033-.857.091-2.3c.1-2.02.23-4.862.394-8.352l.171.18a191.163,191.163,0,0,1-24.69-1.369c-.233.195.315-.265.258-.216v.021l0,.024,0,.047-.005.095-.011.189-.022.377-.044.752q-.043.749-.087,1.49-.087,1.481-.172,2.922c-.114,1.92-.225,3.779-.332,5.559l-.194-.231c7.139.879,13.308,1.252,17.682,1.421l5.117.155,1.347.042a4.131,4.131,0,0,1,.491.032,2.8,2.8,0,0,1-.452.033c-.3.012-.787.033-1.386.039-1.192.018-2.934.02-5.125-.027-4.381-.092-10.567-.407-17.726-1.257l-.206-.024.012-.207c.1-1.78.206-3.64.314-5.559q.082-1.441.167-2.923.043-.74.086-1.49l.044-.752.021-.377.011-.189.005-.094,0-.047,0-.024v-.021c-.056.046.493-.414.262-.219a209.33,209.33,0,0,0,24.633,1.492h.182l-.013.18c-.242,3.528-.439,6.4-.579,8.441q-.11,1.424-.174,2.264a5.888,5.888,0,0,1-.081.763" transform="translate(-17.66 -21.407)" fill="#ffb937"/>
            <path id="Trazado_888819" data-name="Trazado 888819" d="M196.968,221.085a10.655,10.655,0,0,1-1.719-2.385,8.467,8.467,0,0,1-1.324-2.633,10.686,10.686,0,0,1,1.719,2.385,8.491,8.491,0,0,1,1.324,2.633" transform="translate(-20.62 -22.976)" fill="#ffb937"/>
            <path id="Trazado_888820" data-name="Trazado 888820" d="M35.334,124.731l11.327,68.521s17.286,32.37,63.226,39.667l-7.413-61.167s-42.482-13.138-67.14-47.021" transform="translate(-3.757 -13.264)" fill="#ffb937"/>
            <g id="Grupo_1100918" data-name="Grupo 1100918" transform="translate(31.576 111.467)" opacity="0.8">
              <g id="Grupo_1100917" data-name="Grupo 1100917">
                <g id="Grupo_1100916" data-name="Grupo 1100916" clip-path="url(#clip-path-19)">
                  <path id="Trazado_888821" data-name="Trazado 888821" d="M35.334,124.731l11.327,68.521s17.286,32.37,63.226,39.667l-7.413-61.167s-42.482-13.138-67.14-47.021" transform="translate(-35.334 -124.731)" fill="#fff"/>
                </g>
              </g>
            </g>
            <path id="Trazado_888822" data-name="Trazado 888822" d="M104.666,230.235a1.38,1.38,0,0,1-.292-.068l-.845-.245-3.239-.987c-1.4-.45-3.142-.91-5.078-1.7l-3.127-1.19c-1.11-.416-2.282-.856-3.468-1.427-2.391-1.1-5.047-2.221-7.747-3.739-2.766-1.391-5.571-3.15-8.5-5.019A85.431,85.431,0,0,1,55.3,201.066a51.008,51.008,0,0,1-6.158-8.591l-.015-.029-.006-.038c-2.067-13.353-3.882-25.084-5.187-33.511-.627-4.181-1.131-7.539-1.484-9.885-.162-1.137-.288-2.027-.378-2.663-.037-.284-.065-.512-.088-.69a.987.987,0,0,1-.016-.237,1,1,0,0,1,.057.23c.033.177.076.4.129.685l.457,2.65c.384,2.341.935,5.693,1.619,9.864,1.344,8.42,3.215,20.143,5.343,33.486l-.021-.067a51.132,51.132,0,0,0,6.1,8.492A86.075,86.075,0,0,0,72.6,215.5c2.913,1.87,5.7,3.635,8.449,5.036,2.681,1.528,5.322,2.667,7.7,3.778,1.178.58,2.344,1.029,3.446,1.454l3.107,1.222c1.922.812,3.655,1.3,5.044,1.772l3.208,1.069.832.29a1.367,1.367,0,0,1,.279.113" transform="translate(-4.462 -15.464)" fill="#ffb937"/>
            <path id="Trazado_888823" data-name="Trazado 888823" d="M101.1,212.153a.885.885,0,0,1-.157.143l-.486.391-1.91,1.488L91.333,219.7l-.113.087-.085-.117L82.31,207.463l.27.045-6.765,4.818-.226.161-.1-.26L66.771,188.57l-1.252-3.4.426.024-5.51,10.938-.239.475-.174-.5L48.514,162.919l.244-.014-1.693,7.137q-.3,1.2-.464,1.88l-.127.481a.631.631,0,0,1-.055.16.582.582,0,0,1,.021-.168l.094-.488q.143-.684.4-1.895c.37-1.685.9-4.1,1.576-7.164l.095-.433.148.42c2.685,7.6,6.824,19.325,11.694,33.116l-.413-.027,5.5-10.945.24-.478.185.5q.622,1.689,1.253,3.406c3.106,8.467,6.054,16.5,8.683,23.67l-.322-.1,6.786-4.789.158-.112.112.157,8.737,12.27-.2-.03,7.293-5.423,1.954-1.429.509-.36a.851.851,0,0,1,.181-.112" transform="translate(-4.936 -17.271)" fill="#ffb937"/>
            <path id="Trazado_888824" data-name="Trazado 888824" d="M103.128,180.075a4.042,4.042,0,0,1-.964-.215c-.612-.165-1.491-.434-2.567-.791a88,88,0,0,1-16.136-7.286c-.979-.572-1.761-1.053-2.29-1.4a3.972,3.972,0,0,1-.8-.581,4.125,4.125,0,0,1,.891.425L83.62,171.5c1.994,1.068,4.774,2.492,7.917,3.913s6.049,2.56,8.169,3.349l2.514.929a4.066,4.066,0,0,1,.908.388" transform="translate(-8.546 -18.056)" fill="#ffb937"/>
            <path id="Trazado_888825" data-name="Trazado 888825" d="M106.164,183.864a9.507,9.507,0,0,1-2.219-.392,51.707,51.707,0,0,1-10.221-3.655,9.526,9.526,0,0,1-1.964-1.1,12.456,12.456,0,0,1,2.1.8c1.278.532,3.05,1.248,5.036,1.959s3.81,1.279,5.136,1.679a12.51,12.51,0,0,1,2.133.71" transform="translate(-9.758 -19.003)" fill="#ffb937"/>
            <path id="Trazado_888826" data-name="Trazado 888826" d="M87.437,212.719c0,.567-.345,1.027-.769,1.027s-.77-.46-.77-1.027.345-1.027.77-1.027.769.459.769,1.027" transform="translate(-9.134 -22.511)" fill="#ffb937"/>
            <path id="Trazado_888827" data-name="Trazado 888827" d="M68.632,188.48c0,.567-.345,1.027-.77,1.027s-.769-.46-.769-1.027.345-1.027.769-1.027.77.46.77,1.027" transform="translate(-7.134 -19.933)" fill="#ffb937"/>
            <path id="Trazado_888828" data-name="Trazado 888828" d="M49.642,163.186c0,.567-.345,1.027-.77,1.027s-.769-.46-.769-1.027.345-1.027.769-1.027.77.46.77,1.027" transform="translate(-5.115 -17.244)" fill="#ffb937"/>
            <path id="Trazado_888829" data-name="Trazado 888829" d="M362.593,138.391l-5.676,69.614s-16.568,29.771-62.2,30.9l5.639-70.09s39.8-1.615,62.233-30.428" transform="translate(-31.34 -14.716)" fill="#ffb937"/>
            <path id="Trazado_888830" data-name="Trazado 888830" d="M366.891,132.768c-1.488-4.819-5.092-11.686-13.674-13.115l-10.144,93.638s19.043-3.8,19.554-14.24c.044-.9,3.854-47.44,4.807-58.963a18.891,18.891,0,0,0-.543-7.319" transform="translate(-36.482 -12.724)" fill="#ffb937"/>
            <g id="Grupo_1100921" data-name="Grupo 1100921" transform="translate(263.382 123.675)" opacity="0.8">
              <g id="Grupo_1100920" data-name="Grupo 1100920">
                <g id="Grupo_1100919" data-name="Grupo 1100919" clip-path="url(#clip-path-20)">
                  <path id="Trazado_888831" data-name="Trazado 888831" d="M362.593,138.391l-5.676,69.614s-16.568,29.771-62.2,30.9l5.639-70.09s39.8-1.615,62.233-30.428" transform="translate(-294.722 -138.391)" fill="#fff"/>
                </g>
              </g>
            </g>
            <path id="Trazado_888832" data-name="Trazado 888832" d="M362.629,158.249a41.287,41.287,0,0,0-7.272,22.513c-.046,2.309.089,4.7-.788,6.837s-3.172,3.92-5.4,3.309c-2.327-.638-3.368-3.389-5.408-4.678a6.028,6.028,0,0,0-6.121.13,10.25,10.25,0,0,0-4.021,4.89c-1.66,3.817-1.768,8.122-2.989,12.1s-4.219,7.988-8.377,8.17c-1.518.066-3.021-.394-4.539-.349-3.212.1-6,2.482-7.5,5.325s-1.946,6.1-2.372,9.289c0,0,24.322,2.317,51.629-29.924Z" transform="translate(-32.736 -16.828)" fill="#ffb937"/>
            <path id="Trazado_888833" data-name="Trazado 888833" d="M325.649,205.316c0,.863-.427,1.564-.954,1.564s-.954-.7-.954-1.564.427-1.564.954-1.564.954.7.954,1.564" transform="translate(-34.426 -21.667)" fill="#ffb937"/>
            <path id="Trazado_888834" data-name="Trazado 888834" d="M338.47,172.928c0,.863-.427,1.564-.954,1.564s-.954-.7-.954-1.564.427-1.564.954-1.564.954.7.954,1.564" transform="translate(-35.789 -18.223)" fill="#ffb937"/>
            <path id="Trazado_888835" data-name="Trazado 888835" d="M362.2,162.008a2.149,2.149,0,0,1-.157.4c-.13.284-.3.658-.514,1.128-.48,1.015-1.155,2.447-2.005,4.252-1.768,3.683-4.266,8.885-7.254,15.108l-.1.2-.193-.122-17.207-10.887.34-.109-.715,1.76-11.111,27.2-.076.185-.174-.1c-4.29-2.414-7.791-4.352-10.223-5.674-1.218-.659-2.167-1.166-2.819-1.5l-.744-.364a1.187,1.187,0,0,1-.26-.115,21.08,21.08,0,0,1,3.915,1.8c2.464,1.271,5.99,3.163,10.3,5.54l-.25.088,11.008-27.246.715-1.76.105-.258.235.149L352.2,182.633l-.29.082c3.049-6.193,5.6-11.369,7.4-15.034.894-1.785,1.6-3.2,2.106-4.2l.569-1.1a2.184,2.184,0,0,1,.214-.368" transform="translate(-32.858 -17.228)" fill="#ffb937"/>
          </g>
        </g>
      </g>
    </g>
  </g>
</svg>
