<svg xmlns="http://www.w3.org/2000/svg" xmlns:xlink="http://www.w3.org/1999/xlink" width="295" height="351" viewBox="0 0 295 351">
  <defs>
    <clipPath id="clip-path">
      <rect id="Rectángulo_402312" data-name="Rectángulo 402312" width="120.543" height="131.107" fill="none"/>
    </clipPath>
    <clipPath id="clip-path-2">
      <rect id="Rectángulo_402316" data-name="Rectángulo 402316" width="71.815" height="94.637" fill="none"/>
    </clipPath>
    <clipPath id="clip-path-3">
      <rect id="Rectángulo_402315" data-name="Rectángulo 402315" width="71.815" height="94.637" fill="#ffce73"/>
    </clipPath>
    <clipPath id="clip-path-4">
      <rect id="Rectángulo_402313" data-name="Rectángulo 402313" width="13.612" height="44.759" fill="none"/>
    </clipPath>
    <clipPath id="clip-path-5">
      <rect id="Rectángulo_402314" data-name="Rectángulo 402314" width="8.493" height="5.435" fill="none"/>
    </clipPath>
    <clipPath id="clip-path-6">
      <rect id="Rectángulo_402264" data-name="Rectángulo 402264" width="295" height="351" transform="translate(180 8609)" fill="#ffb937" stroke="#707070" stroke-width="1"/>
    </clipPath>
    <clipPath id="clip-path-7">
      <rect id="Rectángulo_402311" data-name="Rectángulo 402311" width="249.063" height="745.06" fill="none"/>
    </clipPath>
    <clipPath id="clip-path-9">
      <rect id="Rectángulo_402307" data-name="Rectángulo 402307" width="40.332" height="42.132" fill="none"/>
    </clipPath>
    <clipPath id="clip-path-10">
      <rect id="Rectángulo_402308" data-name="Rectángulo 402308" width="13.626" height="37.012" fill="none"/>
    </clipPath>
    <clipPath id="clip-path-11">
      <rect id="Rectángulo_402309" data-name="Rectángulo 402309" width="34.25" height="50.705" fill="none"/>
    </clipPath>
  </defs>
  <g id="img17" transform="translate(-180 -8609)">
    <rect id="Rectángulo_402440" data-name="Rectángulo 402440" width="295" height="146" rx="14" transform="translate(180 8814)" fill="#ffe2b7"/>
    <g id="Grupo_1100871" data-name="Grupo 1100871">
      <g id="Grupo_1100860" data-name="Grupo 1100860" transform="translate(317 8609)">
        <g id="Grupo_1100859" data-name="Grupo 1100859" transform="translate(0 0)" clip-path="url(#clip-path)">
          <path id="Trazado_888636" data-name="Trazado 888636" d="M60.823,66.688V11.539A55.149,55.149,0,1,1,5.691,67.963Z" transform="translate(4.573 9.271)" fill="#feebcf"/>
          <path id="Trazado_888637" data-name="Trazado 888637" d="M55.149,55.127,0,56.373C0,42.012,5.611,26.959,15.626,16.667A56.692,56.692,0,0,1,54.292,0Z" transform="translate(0 -0.001)" fill="#ffe2b7"/>
        </g>
      </g>
      <g id="Grupo_1100870" data-name="Grupo 1100870" transform="matrix(0.777, 0.629, -0.629, 0.777, 412.557, 8635.641)">
        <g id="Grupo_1100869" data-name="Grupo 1100869" clip-path="url(#clip-path-2)">
          <g id="Grupo_1100868" data-name="Grupo 1100868" transform="translate(0 -0.001)">
            <g id="Grupo_1100867" data-name="Grupo 1100867" clip-path="url(#clip-path-3)">
              <path id="Trazado_888638" data-name="Trazado 888638" d="M68.81,21.544A35.9,35.9,0,1,0,34.888,71.8c1.7,3.9,3.624,8.3,3.624,8.3L67.348,67.508s-1.859-4.735-3.611-8.921A35.892,35.892,0,0,0,68.81,21.544" transform="translate(0 0.001)" fill="#ffce73"/>
              <path id="Trazado_888639" data-name="Trazado 888639" d="M46.1,55.63s-.057-.141-.144-.42c-.093-.3-.22-.712-.384-1.246-.329-1.1-.815-2.716-1.385-4.817s-1.235-4.682-1.814-7.723a53.12,53.12,0,0,1-1.012-10.46,34.106,34.106,0,0,1,.557-6.1,6.611,6.611,0,0,1,1.366-3,3.7,3.7,0,0,1,3.17-1.261,2.443,2.443,0,0,1,1.609.847,2.507,2.507,0,0,1,.6,1.747,5.1,5.1,0,0,1-1.586,3.3,9.816,9.816,0,0,1-7.05,2.5,9.949,9.949,0,0,1-7.043-3.461,7.539,7.539,0,0,1-1.852-3.711,3.226,3.226,0,0,1,1.992-3.592,2.32,2.32,0,0,1,2.18.429,3.254,3.254,0,0,1,1.151,1.913,7.024,7.024,0,0,1-.887,4.281,10.71,10.71,0,0,1-6.7,5.573,9.331,9.331,0,0,1-8.433-1.966,5.429,5.429,0,0,1-1.962-3.888,2.754,2.754,0,0,1,.807-2.085,2.691,2.691,0,0,1,2.108-.7,3.582,3.582,0,0,1,2.019.838A5.606,5.606,0,0,1,24.742,24.3a10.329,10.329,0,0,1,1.143,3.979,10.689,10.689,0,0,1-2.23,7.542,10.879,10.879,0,0,1-6.4,3.909,5.705,5.705,0,0,1-3.647-.277,2.78,2.78,0,0,1-1.567-3.09A2.337,2.337,0,0,1,13.205,35a3.4,3.4,0,0,1,1.7-.382,5.207,5.207,0,0,1,3,1.379c1.607,1.423,3.028,2.868,4.422,4.23,5.527,5.483,9.78,10.131,12.682,13.371,1.451,1.622,2.558,2.9,3.3,3.764l.843,1c.188.226.275.349.275.349s-.11-.1-.31-.319c-.209-.232-.5-.553-.876-.967-.783-.86-1.913-2.108-3.366-3.707-2.94-3.2-7.225-7.818-12.773-13.265-1.394-1.347-2.843-2.8-4.42-4.19a4.868,4.868,0,0,0-2.8-1.286,2.434,2.434,0,0,0-2.5,1.5,2.416,2.416,0,0,0,1.385,2.65,5.316,5.316,0,0,0,3.4.234,10.5,10.5,0,0,0,6.156-3.78,10.282,10.282,0,0,0,2.127-7.253,9.956,9.956,0,0,0-1.1-3.812,3.9,3.9,0,0,0-3.007-2.285,2.255,2.255,0,0,0-1.774.581,2.3,2.3,0,0,0-.67,1.764,4.994,4.994,0,0,0,1.818,3.567A8.9,8.9,0,0,0,28.764,30a10.27,10.27,0,0,0,6.416-5.345,6.608,6.608,0,0,0,.851-3.994A2.817,2.817,0,0,0,35.04,19a1.88,1.88,0,0,0-1.782-.359,2.509,2.509,0,0,0-1.4,1.242,3.1,3.1,0,0,0-.3,1.882,7.123,7.123,0,0,0,1.747,3.491,9.54,9.54,0,0,0,6.743,3.33,9.437,9.437,0,0,0,6.758-2.37,4.736,4.736,0,0,0,1.481-3.033,2.118,2.118,0,0,0-1.878-2.224,3.35,3.35,0,0,0-2.857,1.132,6.279,6.279,0,0,0-1.3,2.843,33.866,33.866,0,0,0-.577,6.034,53.569,53.569,0,0,0,.942,10.412c.555,3.033,1.195,5.618,1.738,7.723.562,2.085,1,3.711,1.3,4.836.146.539.258.957.34,1.257.076.285.1.433.1.433" transform="translate(10.757 16.295)" fill="#263238"/>
              <path id="Trazado_888640" data-name="Trazado 888640" d="M48.585,40.7,23.825,51.513A2.027,2.027,0,1,1,22.2,47.8l24.76-10.811A2.028,2.028,0,0,1,48.585,40.7" transform="translate(18.874 33.112)" fill="#263238"/>
              <path id="Trazado_888641" data-name="Trazado 888641" d="M48.19,39.8,23.43,50.608a2.028,2.028,0,1,0,1.624,3.717l2.716-1.187,6.6,5.29a2.609,2.609,0,0,0,2.672.353l8.847-3.863a2.6,2.6,0,0,0,1.556-2.226l.519-8.37,1.846-.807A2.027,2.027,0,1,0,48.19,39.8" transform="translate(19.977 35.64)" fill="#263238"/>
              <g id="Grupo_1100863" data-name="Grupo 1100863" transform="translate(3.285 12.508)" opacity="0.2">
                <g id="Grupo_1100862" data-name="Grupo 1100862">
                  <g id="Grupo_1100861" data-name="Grupo 1100861" clip-path="url(#clip-path-4)">
                    <path id="Trazado_888642" data-name="Trazado 888642" d="M4.065,18.252A26.369,26.369,0,0,1,8.741,11a19.044,19.044,0,0,1,4.427-3.688c1.189-.672,1.951-.862,2.125-.627.4.536-1.7,2.509-4.085,6.222A31.162,31.162,0,0,0,6.144,28.771a31.152,31.152,0,0,0,4.332,16.087c2.207,3.816,4.222,5.884,3.795,6.4-.186.228-.938,0-2.093-.722a19.1,19.1,0,0,1-4.254-3.886,26.384,26.384,0,0,1-4.34-7.464A27.968,27.968,0,0,1,1.734,28.67" transform="translate(-1.73 -6.585)" fill="#fff"/>
                  </g>
                </g>
              </g>
              <g id="Grupo_1100866" data-name="Grupo 1100866" transform="translate(20.322 5.91)" opacity="0.2">
                <g id="Grupo_1100865" data-name="Grupo 1100865">
                  <g id="Grupo_1100864" data-name="Grupo 1100864" clip-path="url(#clip-path-5)">
                    <path id="Trazado_888643" data-name="Trazado 888643" d="M15.758,7.77c-2.095.891-4.182,1.124-4.879.114a1.86,1.86,0,0,1,.355-2.044,6.673,6.673,0,0,1,2.781-2.122,6.673,6.673,0,0,1,3.451-.562c.95.137,1.586.558,1.728,1.147" transform="translate(-10.699 -3.111)" fill="#fff"/>
                  </g>
                </g>
              </g>
              <path id="Trazado_888644" data-name="Trazado 888644" d="M40.878,46.977c0,.074-.75.061-1.93.218a15.042,15.042,0,0,0-8.258,3.894,19.406,19.406,0,0,1-1.4,1.349,5.6,5.6,0,0,1,1.178-1.571,13.149,13.149,0,0,1,8.444-3.981,5.49,5.49,0,0,1,1.962.091" transform="translate(26.343 42.142)" fill="#455a64"/>
              <path id="Trazado_888645" data-name="Trazado 888645" d="M45.286,42.133c.049.112-4.387,2.156-9.909,4.566s-10.036,4.275-10.085,4.163S29.68,48.707,35.2,46.3s10.036-4.275,10.085-4.163" transform="translate(22.745 37.888)" fill="#455a64"/>
              <path id="Trazado_888646" data-name="Trazado 888646" d="M43.535,44.036a15.313,15.313,0,0,1-2.33,1.312c-1.466.754-3.518,1.751-5.81,2.792s-4.4,1.926-5.93,2.532a15.327,15.327,0,0,1-2.522.889,17.142,17.142,0,0,1,2.4-1.176l5.869-2.646,5.858-2.672a17.181,17.181,0,0,1,2.465-1.031" transform="translate(24.229 39.599)" fill="#455a64"/>
            </g>
          </g>
        </g>
      </g>
      <g id="Enmascarar_grupo_1098712" data-name="Enmascarar grupo 1098712" clip-path="url(#clip-path-6)">
        <g id="Grupo_1100858" data-name="Grupo 1100858" transform="translate(202.969 8617.94)">
          <g id="Grupo_1100857" data-name="Grupo 1100857" clip-path="url(#clip-path-7)">
            <g id="Grupo_1100856" data-name="Grupo 1100856">
              <g id="Grupo_1100855" data-name="Grupo 1100855" clip-path="url(#clip-path-7)">
                <path id="Trazado_888561" data-name="Trazado 888561" d="M55.685,131.415l-6.891,8.614V125.205H27.087s-2.412,33.947-1.9,41.183a58.711,58.711,0,0,0,2.657,11.072,12.743,12.743,0,0,0,21.042,5.269,73.322,73.322,0,0,0,6.8-7.554c9.648-12.405,25.676-42.62,25.676-42.62l-16.718-10.1Z" transform="translate(119.579 112.152)" fill="#ffbe9d"/>
                <path id="Trazado_888562" data-name="Trazado 888562" d="M59.362,126.3c.105.1-1.013,1.514-2.835,3.788s-4.366,5.4-7.267,8.78-5.64,6.361-7.767,8.38c-2.113,2.035-3.608,3.09-3.688,2.989a36.443,36.443,0,0,1,3.175-3.495c1.975-2.13,4.61-5.167,7.506-8.539,5.74-6.786,10.631-12.131,10.876-11.9" transform="translate(117.273 115.67)" fill="#eb996e"/>
                <path id="Trazado_888563" data-name="Trazado 888563" d="M64.609,44.157l-.979,78.855c-.167,13.409,2.328,33.14,23.542,32.437,18.358-2,23.228-19.379,23.371-31.891.067-5.937.136-10.886.184-11.5,0,0,20.1-1.638,21.793-21.488.82-9.593.9-29.487.763-47.488A37.106,37.106,0,0,0,98.867,6.379l-1.918-.14c-20.758-.3-32.612,17.158-32.34,37.919" transform="translate(-6.166 5.71)" fill="#ffbe9d"/>
                <path id="Trazado_888564" data-name="Trazado 888564" d="M100.735,66.031s-12.578-.18-25.31-9.537c0,0,5.251,14.972,25.207,14.631Z" transform="translate(3.824 51.74)" fill="#eb996e"/>
                <path id="Trazado_888565" data-name="Trazado 888565" d="M93.546,31.393c-.395.4-2.686-1.445-6.012-1.533-3.322-.14-5.809,1.542-6.159,1.115-.171-.192.239-.925,1.324-1.686a8.332,8.332,0,0,1,4.943-1.4,8.016,8.016,0,0,1,4.772,1.738c1,.833,1.326,1.588,1.132,1.768" transform="translate(-0.367 25.536)" fill="#263238"/>
                <path id="Trazado_888566" data-name="Trazado 888566" d="M85.791,35.159A2.691,2.691,0,0,1,83,37.678a2.576,2.576,0,0,1-2.59-2.623A2.692,2.692,0,0,1,83.2,32.536a2.573,2.573,0,0,1,2.592,2.623" transform="translate(9.211 29.798)" fill="#263238"/>
                <path id="Trazado_888567" data-name="Trazado 888567" d="M72.869,54c0-.174,1.92-.364,5.023-.533.785-.023,1.535-.125,1.705-.648a3.97,3.97,0,0,0-.351-2.347q-.894-2.911-1.874-6.106c-2.584-8.686-4.393-15.806-4.044-15.907S76.061,35.319,78.645,44c.619,2.142,1.211,4.182,1.772,6.135a4.527,4.527,0,0,1,.18,3.088,1.956,1.956,0,0,1-1.364,1.046,5.237,5.237,0,0,1-1.337.088c-3.107-.059-5.029-.186-5.027-.36" transform="translate(28.641 26.065)" fill="#263238"/>
                <path id="Trazado_888568" data-name="Trazado 888568" d="M94.473,23.522c-.322.738-2.983.182-6.171.347-3.192.1-5.809.866-6.179.157-.163-.339.333-1.019,1.416-1.676a10.069,10.069,0,0,1,4.667-1.314,9.959,9.959,0,0,1,4.742.931c1.125.567,1.665,1.205,1.525,1.556" transform="translate(-2.709 19.257)" fill="#263238"/>
                <path id="Trazado_888569" data-name="Trazado 888569" d="M77.8,26.163c-.349.6-2.945-.067-6.089-.163-3.146-.153-5.755.3-6.087-.324-.146-.3.372-.837,1.468-1.316a11.008,11.008,0,0,1,4.652-.768,11.311,11.311,0,0,1,4.625,1.14c1.082.563,1.584,1.144,1.431,1.431" transform="translate(45.548 21.598)" fill="#263238"/>
                <path id="Trazado_888570" data-name="Trazado 888570" d="M113.141,34.24c-.328-.172-13.357-5.035-13.915,8.579S112.452,54.186,112.492,53.8s.649-19.557.649-19.557" transform="translate(-54.15 30.458)" fill="#ffbe9d"/>
                <path id="Trazado_888571" data-name="Trazado 888571" d="M107.479,46.4c-.057-.046-.243.157-.651.324a2.377,2.377,0,0,1-1.776-.036c-1.416-.586-2.533-2.92-2.5-5.376a7.848,7.848,0,0,1,.8-3.368,2.74,2.74,0,0,1,1.858-1.749,1.211,1.211,0,0,1,1.374.709c.167.387.069.655.14.682.036.036.3-.216.215-.784a1.518,1.518,0,0,0-.5-.874,1.787,1.787,0,0,0-1.3-.4,3.333,3.333,0,0,0-2.565,2.01,8.044,8.044,0,0,0-.977,3.759c-.025,2.749,1.274,5.374,3.219,6.023a2.548,2.548,0,0,0,2.184-.272c.435-.32.519-.621.473-.648" transform="translate(-53.085 32.53)" fill="#eb996e"/>
                <path id="Trazado_888572" data-name="Trazado 888572" d="M85.9,50.9c.148-.343-2.519-1.142-4.393-3.644A15.244,15.244,0,0,1,79.617,43.7c-.4-.989-.7-1.609-.845-1.563s-.1.713.115,1.787a10.046,10.046,0,0,0,1.751,3.983,8.143,8.143,0,0,0,3.479,2.661c1.038.421,1.742.448,1.778.331" transform="translate(12.403 38.59)" fill="#263238"/>
                <path id="Trazado_888573" data-name="Trazado 888573" d="M163.39,30.977a3.221,3.221,0,0,0-1.51-1.878c-1.554-.918-3.345-.8-5.075-.824a28.669,28.669,0,0,1-14.928-4.537,66.882,66.882,0,0,0-6.947-8.42c-6.018-6.2-10.968-10.426-16.089-12.488C112.218.165,101.139-.916,94.234.9s-13.11,7.416-14.07,14.492c-3.874-3.274-9.69-3.247-14.407-1.351l-.117-.052c-5.255,1.874-8.24,7.424-9.79,12.781S53.639,37.853,50.8,42.657c-.594,1-1.3,2.207-.78,3.251a2.217,2.217,0,0,0,2.32,1.012,6.5,6.5,0,0,0,2.445-1.107q-.879,2.1-1.757,4.209a12.42,12.42,0,0,0,5.715-.381,121.791,121.791,0,0,0,3.736,14.127c2.2-.006,4.207.151,5.562,1.368,1.839,1.655,2.663,4.769,5.721,3.586,1.556-.6,2.975-3.866,3.5-5.453a77.466,77.466,0,0,0,3.355-32.794,24.946,24.946,0,0,1,7.69-5.55l-.236.213c5.548-1.927,11.823-3.822,17.087-1.218,4.083,2.021,6.481,6.257,9.535,9.639A31.167,31.167,0,0,0,136.9,43.818c.293,5.59-.176,13.49.117,19.08l4.7-8.955,0,.046c.385-.655.7-1.316,1.01-1.979l.105-.2v-.025a35.457,35.457,0,0,1,1.573-3.18c.017.017.036.033.054.048,3.029,2.673,7.491-1.412,5.1-4.669a7.879,7.879,0,0,0-1.688-1.7,5.519,5.519,0,0,0,5.263,1.364,4.334,4.334,0,0,0,3.065-4.286,3.687,3.687,0,0,0-2.2-2.958,12.432,12.432,0,0,0,7.081-1.56c1.4-.8,2.77-2.109,2.3-3.868" transform="translate(-9.914 0)" fill="#263238"/>
                <path id="Trazado_888574" data-name="Trazado 888574" d="M119.211,9.222a17.291,17.291,0,0,0-1.992,1.822,14.257,14.257,0,0,0-3.048,6.592,24.992,24.992,0,0,0-.506,5.046c-.01,1.83.138,3.788.278,5.851a52.224,52.224,0,0,1,.149,6.512,23,23,0,0,1-.448,3.435,7.148,7.148,0,0,1-1.4,3.332,3,3,0,0,1-2.8.943,4.467,4.467,0,0,1-2.521-1.425,10.3,10.3,0,0,1-1.914-5.048l.418.05a16.66,16.66,0,0,1-2.416,4.159,5.914,5.914,0,0,1-3.862,2.1,3.81,3.81,0,0,1-2.048-.358,3.309,3.309,0,0,1-1.391-1.37,3.409,3.409,0,0,1-.421-1.761,2.457,2.457,0,0,1,.638-1.544l.211.188a12.8,12.8,0,0,1-4.267,3.2,11.84,11.84,0,0,1-1.322.513,2.356,2.356,0,0,1-.473.117,2.362,2.362,0,0,1,.448-.192c.3-.121.734-.3,1.282-.575a13.211,13.211,0,0,0,4.117-3.249l.211.19A2.545,2.545,0,0,0,96,40.705a2.962,2.962,0,0,0,1.257,1.211,3.436,3.436,0,0,0,1.856.3,5.535,5.535,0,0,0,3.585-2,16.4,16.4,0,0,0,2.328-4.071l.285-.636.13.688a9.969,9.969,0,0,0,1.822,4.824,4.017,4.017,0,0,0,2.257,1.274,2.527,2.527,0,0,0,2.381-.8,6.772,6.772,0,0,0,1.3-3.117,22.91,22.91,0,0,0,.444-3.364,53.16,53.16,0,0,0-.123-6.458c-.128-2.061-.261-4.029-.236-5.882a24.752,24.752,0,0,1,.571-5.111,14.058,14.058,0,0,1,3.234-6.644,8.093,8.093,0,0,1,2.127-1.7" transform="translate(-42.713 8.446)" fill="#455a64"/>
                <path id="Trazado_888575" data-name="Trazado 888575" d="M118.758,33.871c.006.006-.05.052-.159.136l-.5.362a6.777,6.777,0,0,1-.841.538,10.36,10.36,0,0,1-1.209.636,17.586,17.586,0,0,1-8.5,1.529,22.493,22.493,0,0,1-11.984-4.426,38.961,38.961,0,0,1-10.3-11.867c-1.445-2.4-2.621-4.868-3.92-7.146a26.279,26.279,0,0,0-4.437-6.045A13.555,13.555,0,0,0,71.2,4.117a9.693,9.693,0,0,0-3.017-.349,10.721,10.721,0,0,0-2.763.531,11.487,11.487,0,0,0-6.38,5.4,13.664,13.664,0,0,0-1.025,2.977.653.653,0,0,1,.015-.207c.025-.165.056-.364.094-.607a9.981,9.981,0,0,1,.753-2.243A11.307,11.307,0,0,1,61.1,6.6a11.622,11.622,0,0,1,4.213-2.615,10.944,10.944,0,0,1,2.849-.577,9.991,9.991,0,0,1,3.14.333,13.882,13.882,0,0,1,5.916,3.537,26.553,26.553,0,0,1,4.535,6.127c1.312,2.293,2.491,4.751,3.922,7.133A39.012,39.012,0,0,0,95.822,32.3a22.367,22.367,0,0,0,11.754,4.443,17.864,17.864,0,0,0,8.4-1.366,28.644,28.644,0,0,0,2.778-1.508" transform="translate(19.168 3.117)" fill="#455a64"/>
                <path id="Trazado_888576" data-name="Trazado 888576" d="M78.11,14.755a3.157,3.157,0,0,1-.713.5,15.315,15.315,0,0,1-2.107,1.071,20.564,20.564,0,0,1-3.339,1.1,23.376,23.376,0,0,1-4.269.567,23.489,23.489,0,0,1-4.3-.293,20.47,20.47,0,0,1-3.4-.879,15.4,15.4,0,0,1-2.173-.935,3.089,3.089,0,0,1-.741-.448c.038-.079,1.134.485,3.017,1.071a23.264,23.264,0,0,0,3.366.77,25.388,25.388,0,0,0,4.217.249A25.318,25.318,0,0,0,71.857,17a23.442,23.442,0,0,0,3.311-.983c1.841-.705,2.9-1.339,2.943-1.263" transform="translate(61.623 13.508)" fill="#455a64"/>
                <path id="Trazado_888577" data-name="Trazado 888577" d="M77.722,31.393c-.395.4-2.686-1.445-6.014-1.533-3.32-.136-5.807,1.542-6.158,1.113-.172-.19.239-.923,1.324-1.684a8.332,8.332,0,0,1,4.943-1.4,8.021,8.021,0,0,1,4.772,1.738c1,.833,1.326,1.588,1.132,1.768" transform="translate(45.776 25.536)" fill="#263238"/>
                <path id="Trazado_888578" data-name="Trazado 888578" d="M71.281,35.159A2.693,2.693,0,0,1,68.5,37.678a2.574,2.574,0,0,1-2.588-2.623,2.689,2.689,0,0,1,2.782-2.519,2.573,2.573,0,0,1,2.592,2.623" transform="translate(51.516 29.798)" fill="#263238"/>
                <path id="Trazado_888579" data-name="Trazado 888579" d="M120.261,339.225,116.142,388.8l-14.564,38.273a5.1,5.1,0,0,0,7.87,5.855c8.319-6.439,38.3-30.106,38.639-33.19.433-3.993,8.075-52.742,8.075-52.742Z" transform="translate(-101.067 310.68)" fill="#455a64"/>
                <path id="Trazado_888580" data-name="Trazado 888580" d="M105.028,407.537l44.053-39.673-.431,3.673c-.3,2.01-.33,3.1-1.651,4.357-3.533,3.357-13.857,13.639-36.911,31.65-1.341,1.048-3.447.535-5.06-.006" transform="translate(-101.237 336.909)" fill="#263238"/>
                <path id="Trazado_888581" data-name="Trazado 888581" d="M108.87,359.958a3.086,3.086,0,0,0-1.264,3.916,2.963,2.963,0,0,0,3.87,1.287c1.343-.7,2.136-2.878,1.318-4.154s-3.039-1.9-4.175-.893" transform="translate(-69.693 329.356)" fill="#fff"/>
                <path id="Trazado_888582" data-name="Trazado 888582" d="M130.4,381.019c-.3.107-1.134-2.6-3.929-4.309-2.743-1.789-5.55-1.381-5.581-1.694-.029-.126.638-.444,1.812-.485a8.129,8.129,0,0,1,7.357,4.642c.467,1.079.467,1.818.341,1.845" transform="translate(-113.002 343.012)" fill="#263238"/>
                <path id="Trazado_888583" data-name="Trazado 888583" d="M132.032,383.2c-.259.188-1.674-1.588-4.155-2.592-2.46-1.061-4.719-.82-4.765-1.136-.117-.268,2.376-1.065,5.186.128,2.82,1.161,4.006,3.494,3.734,3.6" transform="translate(-118.865 347.078)" fill="#263238"/>
                <path id="Trazado_888584" data-name="Trazado 888584" d="M130.317,377.249c-.257.209-2.422-2.535-6.144-4.433-3.692-1.96-7.181-2.159-7.156-2.491-.054-.272,3.7-.569,7.66,1.521,3.985,2.048,5.893,5.29,5.64,5.4" transform="translate(-105.462 338.988)" fill="#263238"/>
                <path id="Trazado_888585" data-name="Trazado 888585" d="M128.559,367.423c-.163.283-2.776-1.15-6.318-1.655-3.537-.556-6.451.05-6.525-.268-.111-.257,2.885-1.4,6.688-.812,3.8.554,6.336,2.523,6.156,2.736" transform="translate(-101.193 333.848)" fill="#263238"/>
                <path id="Trazado_888586" data-name="Trazado 888586" d="M128.16,359.9c-.184.27-2.757-1.671-6.531-1.9-3.768-.31-6.59,1.245-6.734.952-.071-.113.536-.676,1.747-1.215a11.106,11.106,0,0,1,9.962.711c1.121.705,1.642,1.349,1.556,1.45" transform="translate(-99.217 326.85)" fill="#263238"/>
                <path id="Trazado_888587" data-name="Trazado 888587" d="M121.272,360.43a4.27,4.27,0,0,1,.13-1.878,13.08,13.08,0,0,1,2.008-4.744,5.8,5.8,0,0,1,2.765-2.491,2.05,2.05,0,0,1,2.247.7,3.327,3.327,0,0,1,.546,2.316,7.207,7.207,0,0,1-6.983,5.964,8.362,8.362,0,0,1-7.7-5.215,2.894,2.894,0,0,1,.119-2.412,2.01,2.01,0,0,1,2.2-.837,7.128,7.128,0,0,1,3.079,2.04,14.588,14.588,0,0,1,2.97,4.2,4.464,4.464,0,0,1,.579,1.791c-.188.111-.992-2.563-4.079-5.431a6.653,6.653,0,0,0-2.726-1.713,1.073,1.073,0,0,0-1.205.448,1.987,1.987,0,0,0,.015,1.59,7.459,7.459,0,0,0,6.73,4.443,6.256,6.256,0,0,0,6-4.975,2.422,2.422,0,0,0-.314-1.634,1.109,1.109,0,0,0-1.234-.4,5.241,5.241,0,0,0-2.38,2.065c-2.47,3.412-2.554,6.248-2.768,6.175" transform="translate(-98.479 321.665)" fill="#263238"/>
                <path id="Trazado_888588" data-name="Trazado 888588" d="M78.381,340.764l-1.835,41.984s42.059,15.967,42.474,23.758l-81.533-.636.176-65.534Z" transform="translate(58.223 311.698)" fill="#455a64"/>
                <path id="Trazado_888589" data-name="Trazado 888589" d="M73.133,360.591a3.327,3.327,0,0,0-2.332,3.782,3.2,3.2,0,0,0,3.728,2.345c1.588-.391,2.979-2.471,2.448-4.02s-2.7-2.768-4.15-2.008" transform="translate(36.452 330.127)" fill="#e0e0e0"/>
                <path id="Trazado_888590" data-name="Trazado 888590" d="M37.468,377.7l.276-6.606,78.069,3.079s3.619,1.609,3.188,4.161Z" transform="translate(58.242 339.869)" fill="#263238"/>
                <path id="Trazado_888591" data-name="Trazado 888591" d="M66.431,362.445c-.015.4-2.008.563-3.977,1.828-2,1.215-3.025,2.931-3.391,2.77-.366-.08.247-2.456,2.657-3.947,2.4-1.51,4.8-1.015,4.711-.651" transform="translate(69.662 331.599)" fill="#263238"/>
                <path id="Trazado_888592" data-name="Trazado 888592" d="M59.961,364.224c.088.385-1.642,1.05-3.006,2.722-1.416,1.634-1.77,3.452-2.167,3.431-.375.059-.632-2.274,1.105-4.322,1.719-2.063,4.062-2.211,4.067-1.832" transform="translate(84.657 333.424)" fill="#263238"/>
                <path id="Trazado_888593" data-name="Trazado 888593" d="M50.8,372.779c-.362.082-.9-1.912.138-4.085s2.908-3.025,3.075-2.692c.222.329-1,1.491-1.822,3.286-.868,1.776-.994,3.454-1.391,3.491" transform="translate(98.596 335.14)" fill="#263238"/>
                <path id="Trazado_888594" data-name="Trazado 888594" d="M67.773,357.944c-.171.362-1.992-.2-4.244-.067-2.253.09-4.012.832-4.215.489-.23-.289,1.492-1.749,4.146-1.872,2.652-.142,4.51,1.14,4.313,1.45" transform="translate(67.678 326.485)" fill="#263238"/>
                <path id="Trazado_888595" data-name="Trazado 888595" d="M190.535,188.345c-.046,2.431-9.47,337.96-9.47,337.96h-50.4l-10.21-287.021s-11.92,150.071-11.92,153.312S98.017,527.92,98.017,527.92l-46.726-3.813,3.063-302.191,5.709-44.3Z" transform="translate(-39.738 162.666)" fill="#263238"/>
                <path id="Trazado_888596" data-name="Trazado 888596" d="M85.445,221.5a9.228,9.228,0,0,0,2.046.86c1.337.49,3.284,1.165,5.69,1.977l.458.155.034-.473c.28-4.037.6-9.436.893-15.35.32-6.414.556-12.221.674-16.428.061-2.1.092-3.8.09-4.983a6.525,6.525,0,0,0-.1-1.833,6.561,6.561,0,0,0-.285,1.816c-.119,1.172-.257,2.87-.408,4.97-.3,4.2-.646,10-.966,16.413-.3,5.916-.519,11.317-.642,15.361l.49-.318c-2.435-.73-4.418-1.3-5.8-1.682a9.372,9.372,0,0,0-2.178-.485" transform="translate(-9.969 169.826)" fill="#455a64"/>
                <path id="Trazado_888597" data-name="Trazado 888597" d="M92.026,186.483c.033-.044-.163-.268-.669-.439a3.087,3.087,0,0,0-2.226.193A2.778,2.778,0,0,0,87.445,189a3.379,3.379,0,0,0,2.68,2.97,3.684,3.684,0,0,0,3.717-1.682A3,3,0,0,0,93.8,187.1a3.353,3.353,0,0,0-1.665-1.395c-.5-.174-.793-.146-.8-.092-.077.142,1.136.385,1.843,1.8a2.381,2.381,0,0,1-.121,2.424,2.825,2.825,0,0,1-2.732,1.205,2.565,2.565,0,0,1-1.964-2.123,2.09,2.09,0,0,1,1.113-2.088,3.953,3.953,0,0,1,2.554-.341" transform="translate(-12.723 169.953)" fill="#455a64"/>
                <path id="Trazado_888598" data-name="Trazado 888598" d="M100.431,191c.276.027.657-1.427.854-3.247s.136-3.32-.142-3.347-.653,1.427-.853,3.249-.132,3.318.14,3.345" transform="translate(-44.264 168.884)" fill="#455a64"/>
                <path id="Trazado_888599" data-name="Trazado 888599" d="M102.72,190.978c.276,0,.506-1.548.515-3.46s-.205-3.464-.481-3.466-.506,1.548-.515,3.46.205,3.464.481,3.466" transform="translate(-50.047 168.564)" fill="#455a64"/>
                <path id="Trazado_888600" data-name="Trazado 888600" d="M70.427,192.648c.274.029.7-1.715.952-3.895s.234-3.97-.04-4-.7,1.715-.952,3.895-.234,3.97.04,4" transform="translate(42.995 169.208)" fill="#455a64"/>
                <path id="Trazado_888601" data-name="Trazado 888601" d="M72.452,192.986c.245.092,1.136-1.69,1.232-4.081.111-2.391-.626-4.238-.877-4.165-.28.065-.013,1.891-.119,4.125-.086,2.236-.51,4.035-.236,4.121" transform="translate(36.734 169.193)" fill="#455a64"/>
                <path id="Trazado_888602" data-name="Trazado 888602" d="M53.092,186.7a4.737,4.737,0,0,0,.169,1.479,28.525,28.525,0,0,0,1.013,3.933,41.617,41.617,0,0,0,6.24,11.957,43.7,43.7,0,0,0,9.844,9.526,31.777,31.777,0,0,0,3.579,2.2,5.492,5.492,0,0,0,1.416.636c.08-.13-1.83-1.205-4.608-3.312a49.531,49.531,0,0,1-9.5-9.541,47.466,47.466,0,0,1-6.368-11.652c-1.186-3.186-1.628-5.253-1.784-5.223" transform="translate(72.036 170.992)" fill="#455a64"/>
                <path id="Trazado_888603" data-name="Trazado 888603" d="M106.531,208.162a4.893,4.893,0,0,0,1.529.239,23.894,23.894,0,0,0,4.219-.079,27.665,27.665,0,0,0,12.909-4.774,25.711,25.711,0,0,0,8.6-10.321,20.756,20.756,0,0,0,1.32-3.809,4.256,4.256,0,0,0,.209-1.458c-.159-.04-.588,2.017-2.106,5.016a27.254,27.254,0,0,1-8.558,9.886,29.2,29.2,0,0,1-12.459,4.862c-3.462.5-5.658.28-5.665.437" transform="translate(-90.372 172.144)" fill="#455a64"/>
                <path id="Trazado_888604" data-name="Trazado 888604" d="M59.358,291.7c.063.228,8.416-1.694,18.655-4.29s18.488-4.885,18.425-5.113-8.414,1.694-18.657,4.29-18.486,4.885-18.423,5.113" transform="translate(38.904 258.523)" fill="#455a64"/>
                <path id="Trazado_888605" data-name="Trazado 888605" d="M103.922,280.823c-.121.2,7.15,4.246,16.235,9.02s16.549,8.482,16.67,8.276-7.148-4.245-16.237-9.022-16.547-8.48-16.668-8.275" transform="translate(-86.861 257.185)" fill="#455a64"/>
                <path id="Trazado_888606" data-name="Trazado 888606" d="M149.252,78.119l-22.892-8.978L84.19,66.754,64.368,74.291,91.529,89.372l23.419-.858Z" transform="translate(-23.509 61.137)" fill="#ffbe9d"/>
                <path id="Trazado_888607" data-name="Trazado 888607" d="M178.139,293.545C176.068,293.9,37.9,299.77,37.9,299.77L42.75,175.534l.4-24.393L51,77.245s20.653-7.1,31.19-10.491c0,0,11.091,11.558,32.177,11.246,20.616-.3,24.923-4.952,24.923-4.952L168.11,84.1s20.494,7.349,24.021,16.417c3.433,8.828,9.723,59.24,9.723,59.24H171.978l.565,89.055Z" transform="translate(-25.396 61.137)" fill="#ffb937"/>
                <g id="Grupo_1100848" data-name="Grupo 1100848" transform="translate(25.538 187.315)" opacity="0.2">
                  <g id="Grupo_1100847" data-name="Grupo 1100847">
                    <g id="Grupo_1100846" data-name="Grupo 1100846" clip-path="url(#clip-path-9)">
                      <path id="Trazado_888608" data-name="Trazado 888608" d="M135.95,99.327l-4.284,31.32L110.941,139.9,95.619,126.847V97.772Z" transform="translate(-95.619 -97.77)"/>
                    </g>
                  </g>
                </g>
                <path id="Trazado_888609" data-name="Trazado 888609" d="M96.3,103.446c0,.261,8.614.471,19.237.471s19.239-.211,19.239-.471-8.612-.471-19.239-.471-19.237.211-19.237.471" transform="translate(-70.222 94.31)" fill="#263238"/>
                <path id="Trazado_888610" data-name="Trazado 888610" d="M61.066,91.131a3.881,3.881,0,0,0-.22.824c-.142.619-.326,1.412-.552,2.4a79.036,79.036,0,0,1-2.751,8.815c-1.376,3.709-3.32,8.062-5.7,12.953-2.249,4.983-4.284,10.717-6.412,16.93l-.021.063v.073c.05,7.441.105,15.587.161,24.1.2,19,.383,36.192.515,48.745.109,6.167.2,11.189.259,14.767.05,1.678.088,3.014.117,4.014a8.153,8.153,0,0,0,.1,1.4,8.236,8.236,0,0,0,.079-1.4c.013-1,.031-2.339.052-4.019.008-3.579.015-8.6.027-14.773-.065-12.553-.153-29.744-.251-48.739-.079-8.508-.151-16.653-.218-24.092l-.021.134c2.086-6.2,4.085-11.955,6.257-16.9a139.19,139.19,0,0,0,5.541-13.074,67.833,67.833,0,0,0,2.533-8.932c.205-1.059.353-1.878.421-2.433a4.043,4.043,0,0,0,.082-.851" transform="translate(100.986 83.462)" fill="#263238"/>
                <path id="Trazado_888611" data-name="Trazado 888611" d="M120.307,83.544a15.719,15.719,0,0,0,.027,2.652c.069,1.866.159,4.292.268,7.213.247,6.248.577,14.582.941,23.795.416,9.215.793,17.549,1.077,23.8.169,2.92.307,5.345.414,7.209a14.747,14.747,0,0,0,.274,2.638,14.973,14.973,0,0,0,.075-2.652c-.033-1.868-.077-4.3-.128-7.219-.153-6.1-.429-14.514-.816-23.81s-.809-17.706-1.2-23.791c-.2-3.044-.389-5.506-.554-7.2a14.349,14.349,0,0,0-.374-2.629" transform="translate(-104.738 76.514)" fill="#263238"/>
                <g id="Grupo_1100851" data-name="Grupo 1100851" transform="translate(148.41 179.107)" opacity="0.3">
                  <g id="Grupo_1100850" data-name="Grupo 1100850" transform="translate(0)">
                    <g id="Grupo_1100849" data-name="Grupo 1100849" clip-path="url(#clip-path-10)">
                      <path id="Trazado_888612" data-name="Trazado 888612" d="M58.991,93.487A51.927,51.927,0,0,1,45.425,130.5c2.811-12.817,9.83-24.747,13.566-37.012" transform="translate(-45.423 -93.487)"/>
                    </g>
                  </g>
                </g>
                <g id="Grupo_1100854" data-name="Grupo 1100854" transform="translate(67.039 251.396)" opacity="0.3">
                  <g id="Grupo_1100853" data-name="Grupo 1100853" transform="translate(0)">
                    <g id="Grupo_1100852" data-name="Grupo 1100852" clip-path="url(#clip-path-11)">
                      <path id="Trazado_888613" data-name="Trazado 888613" d="M111.382,181.924c-6.458-.548-12.283-4.378-16.582-9.227a78.4,78.4,0,0,1-11.137-16.126,63.585,63.585,0,0,1-6.531-25.352c8.05,21.573,19.852,38.648,34.25,50.7" transform="translate(-77.132 -131.219)"/>
                    </g>
                  </g>
                </g>
                <path id="Trazado_888614" data-name="Trazado 888614" d="M73.972,126.307a2.665,2.665,0,0,0,.115.8c.136.617.3,1.356.5,2.243.213.977.513,2.159.931,3.516s.831,2.918,1.452,4.594a106.851,106.851,0,0,0,4.769,11.6,122.378,122.378,0,0,0,7.6,13.353,120.27,120.27,0,0,0,9.372,12.183,100.676,100.676,0,0,0,8.907,8.838c1.314,1.211,2.6,2.192,3.711,3.075,1.1.9,2.084,1.619,2.916,2.174.751.513,1.376.939,1.9,1.3a2.731,2.731,0,0,0,.7.4c.017-.025-.188-.215-.592-.548l-1.793-1.427c-.8-.6-1.747-1.353-2.809-2.284-1.075-.916-2.324-1.925-3.6-3.157a111.5,111.5,0,0,1-8.709-8.913,128.975,128.975,0,0,1-9.246-12.131A132.058,132.058,0,0,1,82.477,148.7a119.258,119.258,0,0,1-4.912-11.453c-.655-1.653-1.123-3.19-1.569-4.529-.464-1.335-.812-2.5-1.075-3.458-.261-.87-.477-1.594-.659-2.2a2.764,2.764,0,0,0-.289-.753" transform="translate(-9.475 115.678)" fill="#263238"/>
                <path id="Trazado_888615" data-name="Trazado 888615" d="M60.821,106.012a6.7,6.7,0,0,0,.161,1.268c.161.91.372,2.109.636,3.608.266,1.569.636,3.481,1.2,5.671.544,2.194,1.071,4.719,1.929,7.435q.606,2.049,1.266,4.286c.448,1.489,1.025,3,1.563,4.585,1.038,3.186,2.431,6.483,3.839,9.976a181.33,181.33,0,0,0,11.206,21.772A180.861,180.861,0,0,0,96.912,184.5c2.468,2.845,4.77,5.585,7.137,7.96,1.167,1.2,2.249,2.4,3.372,3.479l3.24,3.077c2.029,2,4.037,3.619,5.744,5.1,1.694,1.5,3.228,2.7,4.5,3.648l2.924,2.207a6.79,6.79,0,0,0,1.056.72,7,7,0,0,0-.946-.864l-2.814-2.335c-1.24-.992-2.738-2.226-4.4-3.755-1.669-1.513-3.64-3.159-5.633-5.18l-3.188-3.106c-1.1-1.086-2.171-2.3-3.32-3.5-2.332-2.387-4.6-5.134-7.043-7.978a188.4,188.4,0,0,1-14.16-19.831,188.057,188.057,0,0,1-11.212-21.628c-1.423-3.466-2.835-6.738-3.9-9.9-.552-1.573-1.144-3.073-1.607-4.548s-.895-2.9-1.314-4.253c-.895-2.694-1.462-5.2-2.052-7.374-.605-2.173-1.023-4.067-1.343-5.623-.331-1.483-.6-2.669-.8-3.569a6.973,6.973,0,0,0-.339-1.236" transform="translate(7.667 97.091)" fill="#263238"/>
                <path id="Trazado_888616" data-name="Trazado 888616" d="M53.811,89.581c-8.516,12.944-43,65.378-53.2,80.885a2.4,2.4,0,0,0,2.307,3.69l61.261-7.707a2.4,2.4,0,0,0,1.636-.964l58.514-79.916a2.4,2.4,0,0,0-2.113-3.807L59.188,86.424a7.051,7.051,0,0,0-5.378,3.157" transform="translate(123.848 74.876)" fill="#e0e0e0"/>
                <path id="Trazado_888617" data-name="Trazado 888617" d="M54.059,89.775a4.206,4.206,0,0,1,.489-.734,6.832,6.832,0,0,1,1.981-1.671,8.623,8.623,0,0,1,4.083-.99q2.489-.207,5.7-.469l36.336-2.851q5.756-.443,12.041-.923,3.141-.241,6.407-.489c.565-.033,1.04-.105,1.69-.105a2.734,2.734,0,0,1,1.763.732,2.814,2.814,0,0,1,.466,3.6l-17.034,23.362-39.07,53.429c-.891,1.2-1.682,2.33-2.646,3.577a2.914,2.914,0,0,1-1.088.738,4.755,4.755,0,0,1-1.188.234l-2.161.272-8.572,1.077-16.758,2.1L4.816,174.617c-.657.071-1.2.174-1.945.216a2.816,2.816,0,0,1-2.031-.845A2.9,2.9,0,0,1,0,171.975a3.366,3.366,0,0,1,.738-1.964q2.049-3.1,4.039-6.121,3.983-6.032,7.727-11.7c4.989-7.545,9.637-14.574,13.884-21,8.491-12.788,15.373-23.151,20.162-30.36,2.376-3.54,4.232-6.3,5.523-8.227l1.458-2.125a5.535,5.535,0,0,1,.527-.705,5.487,5.487,0,0,1-.439.763l-1.374,2.18c-1.255,1.948-3.056,4.747-5.364,8.332C42.158,108.3,35.37,118.726,26.99,131.589c-4.213,6.443-8.826,13.5-13.777,21.065q-3.722,5.676-7.684,11.731-1.983,3.023-4.021,6.133a2.423,2.423,0,0,0-.581,1.456,1.985,1.985,0,0,0,.575,1.36,1.887,1.887,0,0,0,1.364.565c.519-.029,1.226-.146,1.833-.215l31.673-4.016,16.756-2.115,8.57-1.081,2.161-.272a3.983,3.983,0,0,0,.95-.174,1.876,1.876,0,0,0,.707-.479q1.279-1.739,2.569-3.487l39.135-53.381c6.014-8.192,11.731-15.978,17.082-23.266a1.97,1.97,0,0,0-.32-2.527,1.9,1.9,0,0,0-1.234-.517c-.454-.006-1.071.065-1.594.094l-6.407.46q-6.282.445-12.047.858c-15.315,1.063-27.726,1.925-36.361,2.527l-5.707.376a8.53,8.53,0,0,0-4,.868,8.08,8.08,0,0,0-2.569,2.224" transform="translate(123.6 74.681)" fill="#263238"/>
                <path id="Trazado_888618" data-name="Trazado 888618" d="M120.126,83.756a7.067,7.067,0,0,1-1.284.192l-3.719.375c-3.339.3-8.029.713-13.844,1.228L54.2,89.394l.376-.217C51.63,93.555,48.59,98.1,45.538,102.8c-12.422,19.1-23.274,36.648-31.47,49.138-4.075,6.259-7.462,11.267-9.821,14.714l-2.765,3.935a10.389,10.389,0,0,1-1.021,1.333,10.456,10.456,0,0,1,.851-1.448l2.6-4.042,9.545-14.882c8.037-12.581,18.789-30.19,31.223-49.306,3.054-4.7,6.106-9.246,9.066-13.624l.136-.2.239-.017,47.105-3.5,13.867-.929,3.73-.207a7.046,7.046,0,0,1,1.3-.01" transform="translate(128.055 76.689)" fill="#263238"/>
                <path id="Trazado_888619" data-name="Trazado 888619" d="M20.271,89.715h0l.025-.008Z" transform="translate(189.928 82.158)" fill="#fff"/>
                <path id="Trazado_888620" data-name="Trazado 888620" d="M23.2,90.636a1.238,1.238,0,0,0-1.515-.914,3.3,3.3,0,0,0-1.644.923,1.64,1.64,0,0,0-.3,2.1c.613.757,1.87.477,2.607-.157a2.141,2.141,0,0,0,.851-1.952" transform="translate(188.517 82.149)" fill="#fff"/>
                <path id="Trazado_888621" data-name="Trazado 888621" d="M25.976,117.118s-2.418-5.763,3.719-6.508,22.243,0,22.243,0,8.807.931,6.947,7.251c0,0,5.207,4.648,2.418,9.669s-3.9,3.533-3.9,3.533.743,6.135-3.9,7.064c0,0-5.039,5.951-9.679,5.579s-24.347-9.855-25.647-11.714-3.161-2.918-2.046-4.991c0,0-2.416-5.441,2.789-6.269,0,0,.372-4.544,7.066-3.615" transform="translate(157.126 101)" fill="#ffbe9d"/>
                <path id="Trazado_888622" data-name="Trazado 888622" d="M47.588,116.137c0,.142-1.586.245-4.146.3s-6.092.057-9.995,0c-3.895-.13-7.435.021-10.039-.6-2.648-.613-3.684-2.167-3.56-2.2a10.539,10.539,0,0,0,3.709,1.492c2.433.41,6.008.159,9.907.284,3.9.059,7.434.171,9.989.3s4.136.282,4.134.423" transform="translate(163.468 104.064)" fill="#eb996e"/>
                <path id="Trazado_888623" data-name="Trazado 888623" d="M53.062,124.3a3.1,3.1,0,0,1-1.333.46,14.235,14.235,0,0,1-3.834.238,27.06,27.06,0,0,1-5.59-1.013c-2.06-.567-4.247-1.36-6.558-2.069a29.383,29.383,0,0,0-6.6-1.36c-2.008-.09-4.18-.036-5.621-1.136a3.22,3.22,0,0,1-1.341-1.916,2.647,2.647,0,0,1,.234-1.742c.485-.885,1.144-.937,1.127-.887.052.08-.475.266-.764,1.05a2.4,2.4,0,0,0,1.151,2.9c1.251.854,3.111.757,5.267.8a27.342,27.342,0,0,1,6.845,1.324c2.293.751,4.477,1.469,6.522,2.14a31.236,31.236,0,0,0,5.393,1.2,35.172,35.172,0,0,0,5.1.021" transform="translate(153.601 105.195)" fill="#eb996e"/>
                <path id="Trazado_888624" data-name="Trazado 888624" d="M52.806,128.165c-.036.134-1.621-.165-4.14-.8s-5.972-1.623-9.74-2.855-7.137-2.483-9.545-3.46-3.86-1.671-3.811-1.8c.105-.27,6.159,1.837,13.673,4.29s13.639,4.347,13.562,4.627" transform="translate(147.271 109.192)" fill="#eb996e"/>
                <path id="Trazado_888625" data-name="Trazado 888625" d="M46.373,131.845c-.019.125-1.345.071-3.435-.4a40.946,40.946,0,0,1-7.849-2.763c-2.954-1.343-5.533-2.717-7.4-3.707s-3-1.648-2.941-1.78c.13-.3,4.952,1.818,10.763,4.558,5.8,2.782,10.9,3.822,10.863,4.088" transform="translate(155.282 112.805)" fill="#eb996e"/>
                <path id="Trazado_888626" data-name="Trazado 888626" d="M75.733,115.393s12.526,50.184,28.176,68.706c15.156,17.938,38.911,9.692,47.136-13.516s22.881-76.222,22.881-76.222l-18-13.762-31.1,60.267L110.816,99.782Z" transform="translate(-69.957 73.817)" fill="#ffbe9d"/>
                <path id="Trazado_888627" data-name="Trazado 888627" d="M81.056,117.234l13.2-19.13a34.387,34.387,0,0,0,5.623-1.743c1.5-.876,2.968-8.474,2.937-9.957s2.56-4.951,1.51-5.926S99.738,79.429,99.929,78c.04-.3,2.623-3.473.575-5.8-.74-.841-3.722-1.581-3.722-1.581l.215-7.3s-3.943-8.619-7.972-5.5c0,0-15.191,11.669-16.722,13.534s-7.374,26.165-8.411,30.725" transform="translate(22.08 52.334)" fill="#ffbe9d"/>
                <path id="Trazado_888628" data-name="Trazado 888628" d="M63.667,102.291a6.8,6.8,0,0,1,.2-1.289c.2-.922.458-2.136.782-3.654.711-3.167,1.774-7.748,3.213-13.392.728-2.82,1.531-5.908,2.542-9.2.268-.822.527-1.655.877-2.5a5.637,5.637,0,0,1,1.791-2.2c1.383-1.218,2.839-2.412,4.341-3.631,3.006-2.433,6.2-4.943,9.526-7.531a11.168,11.168,0,0,1,2.78-1.833,3.8,3.8,0,0,1,3.426.814A15.644,15.644,0,0,1,97.2,63.338l.046.09,0,.117c-.021.707-.042,1.469-.065,2.234-.05,1.707-.1,3.4-.149,5.066l-.354-.466a17.507,17.507,0,0,1,2.676.9,3.927,3.927,0,0,1,1.3.845,3.7,3.7,0,0,1,.736,1.351,4.531,4.531,0,0,1-.232,2.9,8.681,8.681,0,0,1-.6,1.255l-.335.573-.069.121c.017-.021.006-.077.013-.027a.21.21,0,0,0,.021.125c.038.165.395.389.751.531s.772.274,1.178.4.826.245,1.247.412a2.458,2.458,0,0,1,1.266.891,2.089,2.089,0,0,1,.034,1.554,9.717,9.717,0,0,1-.446,1.226c-.33.774-.7,1.5-.967,2.228a3.035,3.035,0,0,0-.23,1.025,10.776,10.776,0,0,1-.119,1.245c-.115.8-.262,1.573-.421,2.337a30.866,30.866,0,0,1-1.24,4.412,5.555,5.555,0,0,1-1.159,2.033,6.754,6.754,0,0,1-2.058.9c-1.339.416-2.64.741-3.908,1.036l.211-.144c-4.073,5.792-7.4,10.52-9.775,13.894q-1.7,2.356-2.711,3.761a9.6,9.6,0,0,1-1,1.274,9.759,9.759,0,0,1,.835-1.391l2.554-3.87c2.311-3.414,5.55-8.206,9.518-14.068L93.813,98l.136-.034c1.245-.3,2.54-.646,3.839-1.065a6.514,6.514,0,0,0,1.778-.77,5.167,5.167,0,0,0,.927-1.732,30.922,30.922,0,0,0,1.169-4.3c.149-.751.287-1.514.393-2.284a10.034,10.034,0,0,0,.1-1.13,3.978,3.978,0,0,1,.274-1.32c.3-.8.661-1.529.973-2.276a8.928,8.928,0,0,0,.4-1.111,1.345,1.345,0,0,0,.038-.9,1.961,1.961,0,0,0-.81-.485c-.37-.144-.774-.259-1.184-.383s-.833-.247-1.266-.425a2.118,2.118,0,0,1-1.245-1.025,1.092,1.092,0,0,1-.088-.512.721.721,0,0,1,.084-.341l.092-.165.328-.563a7.985,7.985,0,0,0,.535-1.13,3.63,3.63,0,0,0,.2-2.322,2.715,2.715,0,0,0-.548-1,3.18,3.18,0,0,0-.977-.605,16.9,16.9,0,0,0-2.519-.843l-.366-.1.011-.372c.048-1.665.1-3.358.146-5.066.023-.764.046-1.527.067-2.234l.042.209a14.91,14.91,0,0,0-3.755-5.115,2.884,2.884,0,0,0-2.6-.674A10.92,10.92,0,0,0,87.5,59.611c-3.334,2.573-6.535,5.066-9.547,7.474-1.506,1.205-2.97,2.387-4.339,3.575a4.866,4.866,0,0,0-1.6,1.9c-.335.789-.6,1.619-.876,2.424-1.035,3.251-1.874,6.33-2.64,9.135C67.035,89.677,65.849,94.2,65,97.432c-.393,1.5-.709,2.7-.948,3.611a7.016,7.016,0,0,1-.383,1.247" transform="translate(22.305 52.125)" fill="#eb996e"/>
                <path id="Trazado_888629" data-name="Trazado 888629" d="M91.961,64.369c-.006.161-1.542.038-3.937.27a28.17,28.17,0,0,0-4.154.948,19.058,19.058,0,0,1-5.372.046,10.139,10.139,0,0,0-8.462,2.745,10.915,10.915,0,0,0-2.042,3.249c-.08.04-.157-1.728,1.558-3.7a9.848,9.848,0,0,1,3.632-2.55,11.051,11.051,0,0,1,5.378-.676,20.582,20.582,0,0,0,5.138.042,22.919,22.919,0,0,1,4.272-.764,10.479,10.479,0,0,1,3.989.391" transform="translate(26.9 58.587)" fill="#eb996e"/>
                <path id="Trazado_888630" data-name="Trazado 888630" d="M71.356,65.873c-.224.115-.837-.774-.759-2.035s.787-2.071,1-1.929c.23.132-.012.967-.061,1.985-.071,1.015.069,1.876-.176,1.979" transform="translate(42.132 56.684)" fill="#eb996e"/>
                <path id="Trazado_888631" data-name="Trazado 888631" d="M85.984,69.316c.013.239-5.2.464-11.441-.9a11.362,11.362,0,0,0-4.205-.533,4.57,4.57,0,0,0-2.724,1.8,26.8,26.8,0,0,0-1.5,2.9c-.075,0-.161-1.381.958-3.28a5.038,5.038,0,0,1,3.1-2.265,11.037,11.037,0,0,1,4.575.462c6.131,1.339,11.252,1.535,11.244,1.812" transform="translate(36.494 61.297)" fill="#eb996e"/>
                <path id="Trazado_888632" data-name="Trazado 888632" d="M81.9,72.987A6.147,6.147,0,0,1,79.09,73c-1.728-.192-4.046-.787-6.577-1.284a14.865,14.865,0,0,0-3.54-.354,4.258,4.258,0,0,0-2.55.922,4.069,4.069,0,0,0-1.243,2.232c-.054.01-.184-.255-.157-.774A3.2,3.2,0,0,1,65.97,71.8,4.656,4.656,0,0,1,68.9,70.5a13.436,13.436,0,0,1,3.788.293c2.6.512,4.857,1.2,6.518,1.552a13.457,13.457,0,0,1,2.7.638" transform="translate(42.596 64.531)" fill="#eb996e"/>
                <path id="Trazado_888633" data-name="Trazado 888633" d="M71.782,74.652c.159.119-1.128,1.469-3.5,1.464l.467-.4c-.048.416-.092.814-.14,1.222-.343,2.7-.828,4.861-1.084,4.822s-.186-2.245.155-4.929c.056-.406.111-.8.169-1.213l.059-.429.408.025c1.983.123,3.345-.763,3.464-.558" transform="translate(48.191 68.342)" fill="#eb996e"/>
                <path id="Trazado_888634" data-name="Trazado 888634" d="M126.874,72.23s-25.655,6.217-25.6,40.237c.054,33.89,7.748,50.828,7.748,50.828l47.293-25.739L145.76,111.061Z" transform="translate(-101.272 66.152)" fill="#ffb937"/>
                <path id="Trazado_888635" data-name="Trazado 888635" d="M100.949,159.884a4.656,4.656,0,0,0,.983-.429c.717-.362,1.625-.824,2.743-1.393,2.477-1.307,5.887-3.1,10.081-5.313,8.61-4.64,20.419-11,33.723-18.168l.381-.207-.155-.4c-.81-2.119-1.667-4.36-2.537-6.631-3.021-7.851-5.9-15.325-8.524-22.143-1.318-3.393-2.571-6.623-3.747-9.652a58.318,58.318,0,0,0-3.744-8.257c-2.659-4.87-5.807-8.309-8.533-9.876a10.369,10.369,0,0,0-3.326-1.332,6.239,6.239,0,0,0-.923-.121c-.211-.01-.318-.008-.32.01a12.694,12.694,0,0,1,4.362,1.772c2.586,1.623,5.571,5.035,8.121,9.886a59.8,59.8,0,0,1,3.588,8.208c1.148,3.039,2.372,6.278,3.659,9.685,2.6,6.826,5.454,14.31,8.451,22.168.872,2.272,1.73,4.512,2.544,6.631l.226-.609-33.566,18.455c-4.134,2.32-7.495,4.207-9.936,5.579l-2.659,1.546a4.557,4.557,0,0,0-.895.594" transform="translate(-93.199 69.563)" fill="#263238"/>
              </g>
            </g>
          </g>
        </g>
      </g>
    </g>
  </g>
</svg>
