<svg xmlns="http://www.w3.org/2000/svg" xmlns:xlink="http://www.w3.org/1999/xlink" width="400" height="385" viewBox="0 0 400 385">
  <defs>
    <clipPath id="clip-path">
      <rect id="Rectángulo_402306" data-name="Rectángulo 402306" width="381.465" height="383.027" fill="none"/>
    </clipPath>
    <clipPath id="clip-path-3">
      <rect id="Rectángulo_402302" data-name="Rectángulo 402302" width="79.991" height="77.711" fill="none"/>
    </clipPath>
  </defs>
  <g id="img11" transform="translate(-915 -6828)">
    <rect id="Rectángulo_402248" data-name="Rectángulo 402248" width="400" height="385" transform="translate(915 6828)" fill="none"/>
    <g id="Grupo_1100844" data-name="Grupo 1100844" transform="translate(924 6829)">
      <g id="Grupo_1100843" data-name="Grupo 1100843" clip-path="url(#clip-path)">
        <g id="Grupo_1100842" data-name="Grupo 1100842">
          <g id="Grupo_1100841" data-name="Grupo 1100841" clip-path="url(#clip-path)">
            <path id="Trazado_888372" data-name="Trazado 888372" d="M331.3,258.252s75.938-118.311,40.944-193.971S253.732-11.811,224.858,19.81c-17.647,19.326-12.5,51.61-54.284,64.1C145.017,91.547,126.41,79.3,88.31,66.014S5.974,81.608.539,127.719c-6.1,51.755,41.008,78.809,66.869,97.44s12.763,49.53,23.483,78.467S274.527,363.28,331.3,258.252" transform="translate(0 0)" fill="#ffe7ba"/>
            <path id="Trazado_888373" data-name="Trazado 888373" d="M378.287,128.141s5.777-66.871-37.572-100.112C303.434-.561,266.165,13.3,254.436,25.862s1.1,27.723,33.505,25.557,81.539,20.215,90.346,76.722" transform="translate(-9.411 -0.422)" fill="#fff"/>
            <path id="Trazado_888374" data-name="Trazado 888374" d="M208.453,388.375c0,4.93-18.489,8.927-41.3,8.927s-41.3-4-41.3-8.927,18.489-8.927,41.3-8.927,41.3,4,41.3,8.927" transform="translate(-4.735 -14.275)" fill="#fecab2"/>
            <path id="Trazado_888375" data-name="Trazado 888375" d="M360.691,379.1c0,4.93-18.489,8.927-41.3,8.927s-41.3-4-41.3-8.927,18.489-8.927,41.3-8.927,41.3,4,41.3,8.927" transform="translate(-10.462 -13.926)" fill="#fecab2"/>
            <path id="Trazado_888376" data-name="Trazado 888376" d="M355.712,369.823c0,4.93-47.978,8.927-107.162,8.927s-107.163-4-107.163-8.927S189.365,360.9,248.55,360.9s107.162,4,107.162,8.927" transform="translate(-5.319 -13.577)" fill="#fecab2"/>
            <path id="Trazado_888377" data-name="Trazado 888377" d="M220.533,363.509c0,4.93-47.978,8.927-107.162,8.927s-107.163-4-107.163-8.927,47.978-8.927,107.163-8.927,107.162,4,107.162,8.927" transform="translate(-0.234 -13.34)" fill="#fecab2"/>
            <path id="Trazado_888378" data-name="Trazado 888378" d="M20.656,178.413a68.063,68.063,0,1,0,68.6-67.525,68.062,68.062,0,0,0-68.6,67.525" transform="translate(-0.777 -4.172)" fill="#efb499"/>
            <path id="Trazado_888379" data-name="Trazado 888379" d="M30.122,178.841a58.954,58.954,0,1,0,59.414-58.49,58.953,58.953,0,0,0-59.414,58.49" transform="translate(-1.133 -4.528)" fill="#e6ffff"/>
            <g id="Grupo_1100840" data-name="Grupo 1100840" transform="translate(36.415 123.251)" opacity="0.57">
              <g id="Grupo_1100839" data-name="Grupo 1100839">
                <g id="Grupo_1100838" data-name="Grupo 1100838" clip-path="url(#clip-path-3)">
                  <path id="Trazado_888380" data-name="Trazado 888380" d="M110.452,181.89c8.223-12.425,9.094-34.817,4.962-46.744A51.522,51.522,0,0,0,43.03,202.135a4.826,4.826,0,0,1,1.2.176c18.819,7.845,50.764,2.942,66.223-20.421" transform="translate(-37.838 -128.069)" fill="#fffaff"/>
                </g>
              </g>
            </g>
            <path id="Trazado_888381" data-name="Trazado 888381" d="M91.633,139.745h0a1.807,1.807,0,0,0,1.816-1.788l.087-11.035a1.8,1.8,0,1,0-3.6-.028l-.087,11.035a1.807,1.807,0,0,0,1.788,1.816" transform="translate(-3.38 -4.707)" fill="#acdaff"/>
            <path id="Trazado_888382" data-name="Trazado 888382" d="M90.865,237.539h0a1.807,1.807,0,0,0,1.816-1.788l.087-11.035a1.8,1.8,0,0,0-3.6-.028l-.087,11.035a1.807,1.807,0,0,0,1.788,1.816" transform="translate(-3.351 -8.386)" fill="#acdaff"/>
            <path id="Trazado_888383" data-name="Trazado 888383" d="M132.67,181.863h0a1.807,1.807,0,0,0,1.788,1.816l11.035.087a1.8,1.8,0,0,0,.028-3.6l-11.035-.087a1.807,1.807,0,0,0-1.816,1.788" transform="translate(-4.991 -6.775)" fill="#acdaff"/>
            <path id="Trazado_888384" data-name="Trazado 888384" d="M34.876,181.1h0a1.807,1.807,0,0,0,1.788,1.816L47.7,183a1.8,1.8,0,1,0,.028-3.6l-11.035-.087a1.807,1.807,0,0,0-1.816,1.788" transform="translate(-1.312 -6.746)" fill="#acdaff"/>
            <path id="Trazado_888385" data-name="Trazado 888385" d="M115.226,137.3a1.8,1.8,0,1,0,2.467-.64,1.8,1.8,0,0,0-2.467.64" transform="translate(-4.326 -5.132)" fill="#acdaff"/>
            <path id="Trazado_888386" data-name="Trazado 888386" d="M64.283,223.954a1.8,1.8,0,1,0,2.467-.64,1.8,1.8,0,0,0-2.467.64" transform="translate(-2.409 -8.392)" fill="#acdaff"/>
            <path id="Trazado_888387" data-name="Trazado 888387" d="M134.142,155.183a1.8,1.8,0,1,0,2.456.678,1.8,1.8,0,0,0-2.456-.678" transform="translate(-5.012 -5.829)" fill="#acdaff"/>
            <path id="Trazado_888388" data-name="Trazado 888388" d="M46.7,204.759a1.8,1.8,0,1,0,2.456.678,1.8,1.8,0,0,0-2.456-.678" transform="translate(-1.722 -7.694)" fill="#acdaff"/>
            <path id="Trazado_888389" data-name="Trazado 888389" d="M135.55,205.456a1.8,1.8,0,1,0,.64,2.467,1.8,1.8,0,0,0-.64-2.467" transform="translate(-4.997 -7.72)" fill="#acdaff"/>
            <path id="Trazado_888390" data-name="Trazado 888390" d="M48.893,154.513a1.8,1.8,0,1,0,.64,2.467,1.8,1.8,0,0,0-.64-2.467" transform="translate(-1.737 -5.804)" fill="#acdaff"/>
            <path id="Trazado_888391" data-name="Trazado 888391" d="M117.663,224.373a1.8,1.8,0,1,0-.678,2.456,1.8,1.8,0,0,0,.678-2.456" transform="translate(-4.3 -8.407)" fill="#acdaff"/>
            <path id="Trazado_888392" data-name="Trazado 888392" d="M68.087,136.926a1.8,1.8,0,1,0-.678,2.456,1.8,1.8,0,0,0,.678-2.456" transform="translate(-2.435 -5.117)" fill="#acdaff"/>
            <path id="Trazado_888393" data-name="Trazado 888393" d="M109.645,167.025c5.389-2.1,30.539-12.921,30.539-12.921l.092.171.183.341.092.172s-22.889,15.021-27.614,18.358S91.461,181.7,91.461,181.7l-.305-.568-.184-.341-.305-.568s13.589-11.1,18.978-13.2" transform="translate(-3.411 -5.798)" fill="#fecab2"/>
            <path id="Trazado_888394" data-name="Trazado 888394" d="M72.682,185.134c-4.125-.639-23.7-2.731-23.7-2.731l0-.2-.006-.387,0-.2s19.5-2.678,23.608-3.441,16.494,2.391,16.494,2.391l.01.644.006.387.01.645s-12.291,3.523-16.415,2.884" transform="translate(-1.842 -6.699)" fill="#fecab2"/>
            <path id="Trazado_888395" data-name="Trazado 888395" d="M87.634,181.439a3.6,3.6,0,1,0,3.632-3.574,3.6,3.6,0,0,0-3.632,3.574" transform="translate(-3.297 -6.691)" fill="#acdaff"/>
            <path id="Trazado_888396" data-name="Trazado 888396" d="M53.573,258.088l-16.031,96.03a1.814,1.814,0,0,0,3.562.683l20.989-96.713Z" transform="translate(-1.411 -9.71)" fill="#acdaff"/>
            <path id="Trazado_888397" data-name="Trazado 888397" d="M69.864,252.08l-11.3,96.7a1.814,1.814,0,0,0,3.592.507l16.214-97.628Z" transform="translate(-2.203 -9.468)" fill="#acdaff"/>
            <path id="Trazado_888398" data-name="Trazado 888398" d="M138.838,258.088l16.031,96.03a1.814,1.814,0,0,1-3.562.683l-20.99-96.713Z" transform="translate(-4.903 -9.71)" fill="#acdaff"/>
            <path id="Trazado_888399" data-name="Trazado 888399" d="M122.733,252.08l11.3,96.7a1.814,1.814,0,0,1-3.592.507l-16.214-97.628Z" transform="translate(-4.297 -9.468)" fill="#acdaff"/>
            <path id="Trazado_888400" data-name="Trazado 888400" d="M148.9,260.064H41.611a4.435,4.435,0,1,1,0-8.869H148.9a4.435,4.435,0,1,1,0,8.869" transform="translate(-1.399 -9.45)" fill="#2099ff"/>
            <path id="Trazado_888401" data-name="Trazado 888401" d="M42.068,335.4l-.273-.1a44.182,44.182,0,0,0,1.377-19.954c-1.683-9.927-8.085-23.35-29.022-30.923l.1-.273c9.3,3.364,16.554,8.151,21.554,14.229a35.647,35.647,0,0,1,7.658,16.931A44.465,44.465,0,0,1,42.068,335.4" transform="translate(-0.532 -10.69)" fill="#6cb7d8"/>
            <path id="Trazado_888402" data-name="Trazado 888402" d="M16.846,285.305s-5.506.832-8.344-1.7,2-3.756,8.344,1.7" transform="translate(-0.289 -10.589)" fill="#6cb7d8"/>
            <path id="Trazado_888403" data-name="Trazado 888403" d="M22.891,287.917s-1.724-7.283-4.4-8.717-3.053,3.756,4.4,8.717" transform="translate(-0.63 -10.495)" fill="#6cb7d8"/>
            <path id="Trazado_888404" data-name="Trazado 888404" d="M21.822,287.737s-7.409-1.056-9.722.911,2.382,4.213,9.722-.911" transform="translate(-0.433 -10.814)" fill="#6cb7d8"/>
            <path id="Trazado_888405" data-name="Trazado 888405" d="M26.553,290.637s-7.409-1.056-9.722.911,2.382,4.213,9.722-.911" transform="translate(-0.611 -10.923)" fill="#6cb7d8"/>
            <path id="Trazado_888406" data-name="Trazado 888406" d="M31.316,294s-7.409-1.056-9.722.911,2.382,4.213,9.722-.911" transform="translate(-0.79 -11.05)" fill="#6cb7d8"/>
            <path id="Trazado_888407" data-name="Trazado 888407" d="M35.921,298.633s-7.3-1.646-9.763.13,2.036,4.39,9.763-.13" transform="translate(-0.959 -11.209)" fill="#6cb7d8"/>
            <path id="Trazado_888408" data-name="Trazado 888408" d="M40.138,304.745s-6.787-3.156-9.569-1.942,1.06,4.722,9.569,1.942" transform="translate(-1.116 -11.381)" fill="#6cb7d8"/>
            <path id="Trazado_888409" data-name="Trazado 888409" d="M43.236,312.2s-5.42-5.162-8.445-4.9-.506,4.813,8.445,4.9" transform="translate(-1.263 -11.561)" fill="#6cb7d8"/>
            <path id="Trazado_888410" data-name="Trazado 888410" d="M44.646,320.937s-3.385-6.675-6.323-7.441-2.085,4.367,6.323,7.441" transform="translate(-1.384 -11.791)" fill="#6cb7d8"/>
            <path id="Trazado_888411" data-name="Trazado 888411" d="M44.37,329.563s-1.759-7.275-4.441-8.7-3.034,3.771,4.441,8.7" transform="translate(-1.436 -12.062)" fill="#6cb7d8"/>
            <path id="Trazado_888412" data-name="Trazado 888412" d="M28.258,291.124s.728-6.4-1.735-9.825-3.294.5-2.348,2.711a76.963,76.963,0,0,0,4.083,7.114" transform="translate(-0.895 -10.532)" fill="#6cb7d8"/>
            <path id="Trazado_888413" data-name="Trazado 888413" d="M32.2,294.189s1.731-6.205-.16-9.976-3.332-.024-2.747,2.306a76.773,76.773,0,0,0,2.906,7.67" transform="translate(-1.097 -10.632)" fill="#6cb7d8"/>
            <path id="Trazado_888414" data-name="Trazado 888414" d="M35.888,297.816s3.122-5.635,2.157-9.741-3.236-.8-3.207,1.606a76.919,76.919,0,0,0,1.05,8.135" transform="translate(-1.311 -10.765)" fill="#6cb7d8"/>
            <path id="Trazado_888415" data-name="Trazado 888415" d="M39.409,302.489s3.122-5.635,2.157-9.741-3.236-.8-3.207,1.606a76.919,76.919,0,0,0,1.05,8.135" transform="translate(-1.443 -10.94)" fill="#6cb7d8"/>
            <path id="Trazado_888416" data-name="Trazado 888416" d="M42.513,308.889s3.823-5.185,3.394-9.382-3.106-1.207-3.387,1.18a76.939,76.939,0,0,0-.008,8.2" transform="translate(-1.595 -11.189)" fill="#6cb7d8"/>
            <path id="Trazado_888417" data-name="Trazado 888417" d="M44.589,317.4s4.738-4.365,5.113-8.567-2.82-1.775-3.548.515a76.789,76.789,0,0,0-1.565,8.052" transform="translate(-1.677 -11.532)" fill="#6cb7d8"/>
            <path id="Trazado_888418" data-name="Trazado 888418" d="M44.936,325.155s5.518-3.325,6.731-7.365-2.407-2.3-3.58-.208a76.652,76.652,0,0,0-3.151,7.573" transform="translate(-1.691 -11.864)" fill="#6cb7d8"/>
            <path id="Trazado_888419" data-name="Trazado 888419" d="M80.017,320.52l.273-.1a44.182,44.182,0,0,1-1.377-19.954c1.683-9.927,8.085-23.35,29.022-30.923l-.1-.273c-9.3,3.365-16.554,8.151-21.554,14.229a35.647,35.647,0,0,0-7.658,16.931,44.465,44.465,0,0,0,1.392,20.088" transform="translate(-2.937 -10.13)" fill="#6cb7d8"/>
            <path id="Trazado_888420" data-name="Trazado 888420" d="M106.048,270.425s5.5.832,8.343-1.7-2-3.756-8.343,1.7" transform="translate(-3.99 -10.029)" fill="#6cb7d8"/>
            <path id="Trazado_888421" data-name="Trazado 888421" d="M100.12,273.037s1.724-7.283,4.4-8.717,3.053,3.756-4.4,8.717" transform="translate(-3.767 -9.935)" fill="#6cb7d8"/>
            <path id="Trazado_888422" data-name="Trazado 888422" d="M101.027,272.857s7.409-1.056,9.722.911-2.382,4.213-9.722-.911" transform="translate(-3.801 -10.254)" fill="#6cb7d8"/>
            <path id="Trazado_888423" data-name="Trazado 888423" d="M96.3,275.757s7.409-1.056,9.722.911-2.382,4.213-9.722-.911" transform="translate(-3.623 -10.364)" fill="#6cb7d8"/>
            <path id="Trazado_888424" data-name="Trazado 888424" d="M91.533,279.121s7.409-1.056,9.722.911-2.382,4.213-9.722-.911" transform="translate(-3.444 -10.49)" fill="#6cb7d8"/>
            <path id="Trazado_888425" data-name="Trazado 888425" d="M86.924,283.753s7.3-1.646,9.763.13-2.036,4.39-9.763-.13" transform="translate(-3.27 -10.649)" fill="#6cb7d8"/>
            <path id="Trazado_888426" data-name="Trazado 888426" d="M82.706,289.865s6.787-3.155,9.569-1.941-1.06,4.721-9.569,1.941" transform="translate(-3.111 -10.822)" fill="#6cb7d8"/>
            <path id="Trazado_888427" data-name="Trazado 888427" d="M79.639,297.321s5.42-5.162,8.445-4.9.506,4.813-8.445,4.9" transform="translate(-2.996 -11.001)" fill="#6cb7d8"/>
            <path id="Trazado_888428" data-name="Trazado 888428" d="M78.3,306.058s3.385-6.675,6.323-7.441,2.085,4.367-6.323,7.441" transform="translate(-2.946 -11.231)" fill="#6cb7d8"/>
            <path id="Trazado_888429" data-name="Trazado 888429" d="M78.64,314.683s1.759-7.275,4.441-8.7,3.034,3.771-4.441,8.7" transform="translate(-2.959 -11.503)" fill="#6cb7d8"/>
            <path id="Trazado_888430" data-name="Trazado 888430" d="M94.816,276.245s-.729-6.4,1.734-9.825,3.3.5,2.349,2.711a77.193,77.193,0,0,1-4.083,7.114" transform="translate(-3.563 -9.972)" fill="#6cb7d8"/>
            <path id="Trazado_888431" data-name="Trazado 888431" d="M90.908,279.309s-1.731-6.205.16-9.976,3.332-.024,2.747,2.306a76.773,76.773,0,0,1-2.906,7.67" transform="translate(-3.393 -10.072)" fill="#6cb7d8"/>
            <path id="Trazado_888432" data-name="Trazado 888432" d="M87.232,282.936S84.11,277.3,85.076,273.2s3.236-.8,3.207,1.606a76.918,76.918,0,0,1-1.05,8.135" transform="translate(-3.194 -10.205)" fill="#6cb7d8"/>
            <path id="Trazado_888433" data-name="Trazado 888433" d="M83.71,287.609s-3.122-5.635-2.157-9.741,3.236-.8,3.207,1.606a76.919,76.919,0,0,1-1.05,8.135" transform="translate(-3.061 -10.381)" fill="#6cb7d8"/>
            <path id="Trazado_888434" data-name="Trazado 888434" d="M80.6,294.01s-3.823-5.185-3.394-9.382,3.106-1.207,3.387,1.18a76.94,76.94,0,0,1,.008,8.2" transform="translate(-2.903 -10.629)" fill="#6cb7d8"/>
            <path id="Trazado_888435" data-name="Trazado 888435" d="M78.462,302.522s-4.738-4.365-5.113-8.567,2.82-1.775,3.548.515a76.792,76.792,0,0,1,1.565,8.052" transform="translate(-2.758 -10.973)" fill="#6cb7d8"/>
            <path id="Trazado_888436" data-name="Trazado 888436" d="M78.043,310.276s-5.518-3.325-6.731-7.365,2.407-2.3,3.58-.208a76.656,76.656,0,0,1,3.151,7.573" transform="translate(-2.674 -11.304)" fill="#6cb7d8"/>
            <path id="Trazado_888437" data-name="Trazado 888437" d="M46.675,307.707s-6.434-19.043-.643-24.512-1.4-13.231.307-18.286,7.936-8.06,10.654,1.215,3.49,9.562,10.322,9.989,6.306,14.184,5.1,20.513,5.5-3.669,7.532,3.124-7.8,20.8-18.144,28.1S38.812,314.39,39.681,309.2s4.664,1.759,6.994-1.489" transform="translate(-1.491 -9.786)" fill="#82c4e8"/>
            <path id="Trazado_888438" data-name="Trazado 888438" d="M47.585,281.966a7.418,7.418,0,0,1-1.553,2.052c-5.791,5.468.643,24.511.643,24.511-2.33,3.248-6.126-3.7-6.994,1.489S51.46,335.977,61.8,328.675c.555-.392,1.108-.806,1.659-1.236a93.684,93.684,0,0,0-15.875-45.473" transform="translate(-1.491 -10.608)" fill="#6cb7d8"/>
            <path id="Trazado_888439" data-name="Trazado 888439" d="M58.7,329.833a.458.458,0,0,1-.789-.394c.049-.259,4.818-26.31-7.23-64.074a.458.458,0,1,1,.872-.279c12.125,38,7.308,64.265,7.258,64.526a.456.456,0,0,1-.111.221" transform="translate(-1.906 -9.961)" fill="#98cff4"/>
            <path id="Trazado_888440" data-name="Trazado 888440" d="M54.191,276.783l-6.094-4.91a.458.458,0,0,1,.576-.713l5.272,4.248,2.778-4.656a.458.458,0,0,1,.787.469Z" transform="translate(-1.803 -10.178)" fill="#98cff4"/>
            <path id="Trazado_888441" data-name="Trazado 888441" d="M69.079,280.877c-.01.011-.019.021-.03.031L57.193,291.753l-9.419-6.4a.458.458,0,0,1,.515-.758l8.82,5.992,11.321-10.356a.458.458,0,0,1,.649.646" transform="translate(-1.79 -10.538)" fill="#98cff4"/>
            <path id="Trazado_888442" data-name="Trazado 888442" d="M71.6,296.589l-.014.015L59.027,309.271l-12.4-9.888a.458.458,0,1,1,.571-.716l11.762,9.375L70.94,295.959a.458.458,0,0,1,.665.63" transform="translate(-1.748 -11.129)" fill="#98cff4"/>
            <path id="Trazado_888443" data-name="Trazado 888443" d="M76.894,305.867l-.013.013L58.942,324.105,43.565,313.353a.459.459,0,0,1,.525-.752l14.742,10.309,17.395-17.672a.458.458,0,0,1,.666.628" transform="translate(-1.632 -11.478)" fill="#98cff4"/>
            <path id="Trazado_888444" data-name="Trazado 888444" d="M42.985,333.829s-14.057-7.034-13.852-13.26-8.059-6.58-9.9-10.324-.03-8.845,6.587-5.19,7.2,3.389,11.231-.135,11.311,4.4,14.125,8.585,1.036-5.066,5.9-2.411,7.119,15.848,5.4,25.6-20.18,5.179-22.556,1.816,3.558-1.591,3.064-4.677" transform="translate(-0.698 -11.429)" fill="#98cff4"/>
            <path id="Trazado_888445" data-name="Trazado 888445" d="M29.27,319.153a5.756,5.756,0,0,1,.266,1.994c-.2,6.226,13.852,13.26,13.852,13.26.494,3.086-5.441,1.315-3.063,4.677s20.832,7.932,22.555-1.816c.092-.524.171-1.059.242-1.6A73.262,73.262,0,0,0,29.27,319.153" transform="translate(-1.101 -12.007)" fill="#82c4e8"/>
            <path id="Trazado_888446" data-name="Trazado 888446" d="M61.627,339.778a.358.358,0,0,1-.655.216c-.115-.17-11.808-17.264-39.29-31.6a.358.358,0,1,1,.331-.635c27.656,14.431,39.438,31.668,39.554,31.84a.354.354,0,0,1,.061.184" transform="translate(-0.808 -11.576)" fill="#acdaff"/>
            <path id="Trazado_888447" data-name="Trazado 888447" d="M29.93,312.607l-6.087.627a.358.358,0,1,1-.074-.712l5.267-.544-1.02-4.115a.359.359,0,1,1,.7-.173Z" transform="translate(-0.882 -11.565)" fill="#acdaff"/>
            <path id="Trazado_888448" data-name="Trazado 888448" d="M40.535,306.427a.209.209,0,0,1,0,.035l-.614,12.55-8.754,1.631a.359.359,0,0,1-.131-.705l8.2-1.526.586-11.986a.358.358,0,0,1,.716,0" transform="translate(-1.157 -11.515)" fill="#acdaff"/>
            <path id="Trazado_888449" data-name="Trazado 888449" d="M50.552,313.685v.016l0,13.952-12.333,1.337a.358.358,0,1,1-.078-.712l11.694-1.268,0-13.308a.358.358,0,0,1,.716-.016" transform="translate(-1.423 -11.788)" fill="#acdaff"/>
            <path id="Trazado_888450" data-name="Trazado 888450" d="M58.7,315.746v.014l.071,20-14.46,2.494a.358.358,0,1,1-.121-.705l13.862-2.392-.068-19.391a.358.358,0,0,1,.716-.017" transform="translate(-1.651 -11.866)" fill="#acdaff"/>
            <path id="Trazado_888451" data-name="Trazado 888451" d="M75.782,331.468s18.528-7.793,18.789-15.754,10.836-7.719,13.5-12.342.781-11.284-7.968-7.177-9.475,3.721-14.32-1.115-14.8,4.67-18.744,9.767-.9-6.551-7.329-3.572S49.289,320.9,50.669,333.481s25.314,8.3,28.63,4.213-4.408-2.329-3.517-6.226" transform="translate(-1.896 -11.051)" fill="#acdaff"/>
            <path id="Trazado_888452" data-name="Trazado 888452" d="M95.082,313.952a7.409,7.409,0,0,0-.508,2.522c-.262,7.961-18.789,15.754-18.789,15.754-.889,3.9,6.833,2.135,3.517,6.226s-27.249,8.371-28.63-4.212c-.074-.677-.129-1.366-.173-2.061a93.678,93.678,0,0,1,44.583-18.228" transform="translate(-1.9 -11.811)" fill="#98cff4"/>
            <path id="Trazado_888453" data-name="Trazado 888453" d="M51.7,337.547a.458.458,0,0,0,.818.33c.161-.208,16.519-21.037,52.792-37.025a.458.458,0,0,0-.37-.838c-36.5,16.089-52.986,37.093-53.148,37.3a.453.453,0,0,0-.092.229" transform="translate(-1.945 -11.285)" fill="#d2edff"/>
            <path id="Trazado_888454" data-name="Trazado 888454" d="M96.193,305.527l7.714,1.313a.458.458,0,0,0,.154-.9L97.386,304.8l1.648-5.166a.458.458,0,1,0-.873-.278Z" transform="translate(-3.619 -11.25)" fill="#d2edff"/>
            <path id="Trazado_888455" data-name="Trazado 888455" d="M83.019,296.735a.326.326,0,0,0,0,.043l-.272,16.066,11.034,2.817a.458.458,0,1,0,.226-.887l-10.33-2.639.259-15.341a.458.458,0,0,0-.913-.059" transform="translate(-3.113 -11.148)" fill="#d2edff"/>
            <path id="Trazado_888456" data-name="Trazado 888456" d="M69.446,305.144l0,.02-1.168,17.8L83.9,325.71a.458.458,0,0,0,.159-.9l-14.815-2.6,1.114-16.982a.458.458,0,0,0-.912-.081" transform="translate(-2.569 -11.464)" fill="#d2edff"/>
            <path id="Trazado_888457" data-name="Trazado 888457" d="M58.752,307.082l0,.018-1.772,25.511,18.241,4.4a.458.458,0,1,0,.216-.891L57.946,331.9l1.718-24.737a.458.458,0,0,0-.912-.083" transform="translate(-2.144 -11.537)" fill="#d2edff"/>
            <path id="Trazado_888458" data-name="Trazado 888458" d="M131.8,306.762s5.357-15.855.535-20.409,1.162-11.016-.255-15.226-6.608-6.711-8.871,1.012-2.9,7.962-8.593,8.317-5.252,11.809-4.245,17.079-4.582-3.055-6.271,2.6,6.5,17.321,15.105,23.4S138.351,312.326,137.628,308s-3.883,1.465-5.823-1.24" transform="translate(-3.908 -10.05)" fill="#82c4e8"/>
            <path id="Trazado_888459" data-name="Trazado 888459" d="M131.591,285.33a6.151,6.151,0,0,0,1.293,1.708c4.821,4.554-.535,20.409-.535,20.409,1.939,2.7,5.1-3.085,5.822,1.24s-9.807,21.613-18.417,15.535c-.463-.327-.923-.673-1.382-1.029a78,78,0,0,1,13.218-37.863" transform="translate(-4.453 -10.734)" fill="#6cb7d8"/>
            <path id="Trazado_888460" data-name="Trazado 888460" d="M122.817,325.186a.382.382,0,0,0,.657-.328c-.041-.216-4.011-21.907,6.021-53.349a.382.382,0,0,0-.728-.232c-10.1,31.643-6.084,53.508-6.042,53.725a.377.377,0,0,0,.091.185" transform="translate(-4.586 -10.196)" fill="#98cff4"/>
            <path id="Trazado_888461" data-name="Trazado 888461" d="M126.553,281.014l5.074-4.087a.382.382,0,1,0-.479-.594l-4.389,3.537-2.314-3.876a.382.382,0,1,0-.655.391Z" transform="translate(-4.655 -10.376)" fill="#98cff4"/>
            <path id="Trazado_888462" data-name="Trazado 888462" d="M113.767,284.424l.025.025,9.872,9.031,7.842-5.329a.382.382,0,1,0-.429-.631l-7.344,4.989-9.426-8.623a.381.381,0,0,0-.54.538" transform="translate(-4.276 -10.676)" fill="#98cff4"/>
            <path id="Trazado_888463" data-name="Trazado 888463" d="M111.545,297.506l.012.013,10.46,10.548,10.328-8.234a.381.381,0,1,0-.475-.6l-9.792,7.807L112.1,296.982a.381.381,0,0,0-.553.525" transform="translate(-4.193 -11.168)" fill="#98cff4"/>
            <path id="Trazado_888464" data-name="Trazado 888464" d="M106.87,305.231l.011.012,14.936,15.174,12.8-8.952a.382.382,0,1,0-.437-.626l-12.274,8.583-14.484-14.715a.381.381,0,0,0-.554.524" transform="translate(-4.017 -11.459)" fill="#98cff4"/>
            <path id="Trazado_888465" data-name="Trazado 888465" d="M109.494,330.108s-14.057-7.034-13.852-13.26-8.059-6.58-9.9-10.324-.03-8.845,6.587-5.19,7.2,3.389,11.231-.135,11.311,4.4,14.125,8.585,1.036-5.066,5.9-2.411,7.119,15.848,5.4,25.6-20.18,5.179-22.556,1.816,3.558-1.591,3.064-4.677" transform="translate(-3.2 -11.289)" fill="#98cff4"/>
            <path id="Trazado_888466" data-name="Trazado 888466" d="M95.779,315.432a5.779,5.779,0,0,1,.267,1.994c-.2,6.226,13.852,13.26,13.852,13.26.494,3.086-5.441,1.315-3.064,4.677s20.832,7.932,22.556-1.816c.092-.524.171-1.059.242-1.6a73.261,73.261,0,0,0-33.852-16.515" transform="translate(-3.603 -11.867)" fill="#82c4e8"/>
            <path id="Trazado_888467" data-name="Trazado 888467" d="M128.136,336.057a.358.358,0,0,1-.655.216c-.115-.17-11.808-17.264-39.29-31.6a.358.358,0,1,1,.331-.635c27.656,14.431,39.438,31.668,39.554,31.84a.354.354,0,0,1,.061.184" transform="translate(-3.311 -11.436)" fill="#acdaff"/>
            <path id="Trazado_888468" data-name="Trazado 888468" d="M96.44,308.886l-6.087.628a.358.358,0,1,1-.074-.712l5.267-.544-1.02-4.115a.359.359,0,1,1,.7-.173Z" transform="translate(-3.384 -11.425)" fill="#acdaff"/>
            <path id="Trazado_888469" data-name="Trazado 888469" d="M107.044,302.706a.2.2,0,0,1,0,.034l-.614,12.55-8.754,1.631a.358.358,0,0,1-.131-.7l8.2-1.527.586-11.985a.358.358,0,0,1,.716,0" transform="translate(-3.659 -11.375)" fill="#acdaff"/>
            <path id="Trazado_888470" data-name="Trazado 888470" d="M117.062,309.963a.093.093,0,0,1,0,.016l0,13.952-12.332,1.337a.358.358,0,1,1-.079-.712l11.695-1.268,0-13.308a.359.359,0,0,1,.717-.016" transform="translate(-3.925 -11.648)" fill="#acdaff"/>
            <path id="Trazado_888471" data-name="Trazado 888471" d="M125.207,312.025v.014l.071,20-14.46,2.494a.358.358,0,1,1-.121-.705l13.862-2.392-.068-19.391a.358.358,0,0,1,.716-.017" transform="translate(-4.153 -11.726)" fill="#acdaff"/>
            <path id="Trazado_888472" data-name="Trazado 888472" d="M89.393,334.536S76.628,332.875,75.112,328s-8-2.923-10.431-5.325-2.4-6.835,3.7-5.787,6.482.686,8.652-3.124,9.935.366,13.235,2.843-.561-4.2,3.918-3.452,9.769,10.345,11.056,18.349-14.217,9.431-16.96,7.47,2.325-2.187,1.113-4.442" transform="translate(-2.377 -11.747)" fill="#82c4e8"/>
            <path id="Trazado_888473" data-name="Trazado 888473" d="M74.808,327.069a4.7,4.7,0,0,1,.742,1.47c1.515,4.871,14.28,6.532,14.28,6.532,1.213,2.255-3.855,2.481-1.113,4.442s18.249.534,16.96-7.47c-.068-.43-.151-.865-.243-1.3a59.98,59.98,0,0,0-30.626-3.672" transform="translate(-2.814 -12.283)" fill="#6cb7d8"/>
            <path id="Trazado_888474" data-name="Trazado 888474" d="M105.386,334.34a.294.294,0,0,1-.448.344c-.136-.1-13.777-10.179-38.892-13.882a.293.293,0,0,1,.086-.58c25.273,3.726,39.023,13.891,39.158,13.993a.3.3,0,0,1,.1.126" transform="translate(-2.475 -12.047)" fill="#98cff4"/>
            <path id="Trazado_888475" data-name="Trazado 888475" d="M73.615,321.8l-4.541,2.122a.292.292,0,0,1-.39-.141.3.3,0,0,1,.141-.39l3.928-1.836-1.9-2.909a.293.293,0,1,1,.492-.32Z" transform="translate(-2.583 -11.971)" fill="#98cff4"/>
            <path id="Trazado_888476" data-name="Trazado 888476" d="M80.249,314.119a.138.138,0,0,1,.009.026l2.9,9.873-6.333,3.617a.294.294,0,0,1-.291-.51l5.93-3.386-2.77-9.428a.294.294,0,0,1,.554-.192" transform="translate(-2.874 -11.81)" fill="#98cff4"/>
            <path id="Trazado_888477" data-name="Trazado 888477" d="M89.96,317.008l0,.013,3.749,10.793-9.181,4.351a.293.293,0,0,1-.251-.53l8.7-4.126-3.576-10.3a.293.293,0,0,1,.55-.2" transform="translate(-3.164 -11.919)" fill="#98cff4"/>
            <path id="Trazado_888478" data-name="Trazado 888478" d="M96.89,316.39l0,.013,5.433,15.449-10.514,5.817a.294.294,0,1,1-.285-.514l10.081-5.576L96.341,316.6a.294.294,0,0,1,.55-.207" transform="translate(-3.438 -11.896)" fill="#98cff4"/>
            <path id="Trazado_888479" data-name="Trazado 888479" d="M142.291,331.468s18.528-7.793,18.789-15.754,10.836-7.719,13.5-12.342.781-11.284-7.968-7.177-9.475,3.721-14.32-1.115-14.8,4.67-18.744,9.767-.9-6.551-7.33-3.572S115.8,320.9,117.178,333.481s25.314,8.3,28.63,4.213-4.408-2.329-3.517-6.226" transform="translate(-4.398 -11.051)" fill="#acdaff"/>
            <path id="Trazado_888480" data-name="Trazado 888480" d="M161.592,313.952a7.409,7.409,0,0,0-.508,2.522c-.262,7.961-18.789,15.754-18.789,15.754-.889,3.9,6.833,2.135,3.517,6.226s-27.249,8.371-28.63-4.212c-.074-.677-.129-1.366-.173-2.061a93.678,93.678,0,0,1,44.583-18.228" transform="translate(-4.402 -11.811)" fill="#98cff4"/>
            <path id="Trazado_888481" data-name="Trazado 888481" d="M118.2,337.547a.458.458,0,0,0,.818.33c.161-.208,16.519-21.037,52.792-37.025a.458.458,0,0,0-.37-.838c-36.5,16.089-52.986,37.093-53.148,37.3a.453.453,0,0,0-.092.229" transform="translate(-4.447 -11.285)" fill="#d2edff"/>
            <path id="Trazado_888482" data-name="Trazado 888482" d="M162.7,305.527l7.714,1.313a.458.458,0,0,0,.154-.9L163.9,304.8l1.648-5.166a.458.458,0,1,0-.873-.278Z" transform="translate(-6.121 -11.25)" fill="#d2edff"/>
            <path id="Trazado_888483" data-name="Trazado 888483" d="M149.529,296.735a.328.328,0,0,0,0,.043l-.272,16.066,11.034,2.817a.458.458,0,1,0,.226-.887l-10.33-2.639.259-15.341a.458.458,0,0,0-.913-.059" transform="translate(-5.615 -11.148)" fill="#d2edff"/>
            <path id="Trazado_888484" data-name="Trazado 888484" d="M135.955,305.144l0,.02-1.168,17.8,15.624,2.743a.458.458,0,0,0,.159-.9l-14.815-2.6,1.114-16.982a.458.458,0,0,0-.912-.081" transform="translate(-5.071 -11.464)" fill="#d2edff"/>
            <path id="Trazado_888485" data-name="Trazado 888485" d="M125.262,307.082l0,.018-1.772,25.511,18.241,4.4a.458.458,0,1,0,.216-.891L124.456,331.9l1.718-24.737a.458.458,0,0,0-.912-.083" transform="translate(-4.646 -11.537)" fill="#d2edff"/>
            <path id="Trazado_888486" data-name="Trazado 888486" d="M167.088,362.627h-138l-3.466-31.513H170.553Z" transform="translate(-0.964 -12.457)" fill="#f90"/>
            <path id="Trazado_888487" data-name="Trazado 888487" d="M168.191,354.34H28.173l.262,2.383H167.929Z" transform="translate(-1.06 -13.331)" fill="#ffbc00"/>
            <path id="Trazado_888488" data-name="Trazado 888488" d="M169.084,345.563H27.207l.508,4.62H168.575Z" transform="translate(-1.024 -13)" fill="#ffbc00"/>
            <rect id="Rectángulo_402303" data-name="Rectángulo 402303" width="149.01" height="7.423" transform="translate(22.488 316.476)" fill="#ffbc00"/>
            <path id="Trazado_888489" data-name="Trazado 888489" d="M300.352,360.226h-117.2c-8.3,0-21.186-6.236-20.223-14.531l35.8-249.169a17.328,17.328,0,0,1,16.763-15.02l110.03-4.288c13.381,0,21.412,11.013,20.45,19.308l-28.85,248.68a17.328,17.328,0,0,1-16.763,15.02" transform="translate(-6.128 -2.905)" fill="#144182"/>
            <path id="Trazado_888490" data-name="Trazado 888490" d="M291.648,355.862h-117.2a13.108,13.108,0,0,1-13.278-15.02l28.851-248.68a17.328,17.328,0,0,1,16.763-15.02h117.2a13.108,13.108,0,0,1,13.277,15.02l-28.85,248.68a17.328,17.328,0,0,1-16.763,15.02" transform="translate(-6.059 -2.902)" fill="#2099ff"/>
            <path id="Trazado_888491" data-name="Trazado 888491" d="M291.793,350.819H175.858a9.975,9.975,0,0,1-10.1-11.43L194.327,93.1a13.186,13.186,0,0,1,12.756-11.43H323.018a9.975,9.975,0,0,1,10.1,11.43L304.549,339.389a13.186,13.186,0,0,1-12.756,11.43" transform="translate(-6.233 -3.073)" fill="#acdaff"/>
            <path id="Trazado_888492" data-name="Trazado 888492" d="M246.309,354.5H222.144a4.451,4.451,0,0,1-4.5-5.087,5.886,5.886,0,0,1,5.677-5.087H247.49a4.452,4.452,0,0,1,4.5,5.087,5.889,5.889,0,0,1-5.678,5.087" transform="translate(-8.187 -12.954)" fill="#2099ff"/>
            <path id="Trazado_888493" data-name="Trazado 888493" d="M215.239,91.008a4.407,4.407,0,0,1-4.263,3.82,3.333,3.333,0,0,1-3.376-3.82,4.406,4.406,0,0,1,4.262-3.82,3.334,3.334,0,0,1,3.377,3.82" transform="translate(-7.809 -3.28)" fill="#2099ff"/>
            <path id="Trazado_888494" data-name="Trazado 888494" d="M224.416,91.067a2.654,2.654,0,0,1-2.569,2.3,2.008,2.008,0,0,1-2.034-2.3,2.654,2.654,0,0,1,2.569-2.3,2.008,2.008,0,0,1,2.034,2.3" transform="translate(-8.269 -3.339)" fill="#2099ff"/>
            <path id="Trazado_888495" data-name="Trazado 888495" d="M299.882,329.388H172.457L198.869,101.73H326.295Z" transform="translate(-6.488 -3.827)" fill="#fff"/>
            <path id="Trazado_888496" data-name="Trazado 888496" d="M309.867,137.112H209.685a4.862,4.862,0,0,1-4.925-5.571l2.024-17.442A6.427,6.427,0,0,1,213,108.527H313.183a4.862,4.862,0,0,1,4.925,5.571l-2.024,17.442a6.426,6.426,0,0,1-6.218,5.571" transform="translate(-7.702 -4.083)" fill="#fecab2"/>
            <path id="Trazado_888497" data-name="Trazado 888497" d="M223.115,169.9h-22.8l2.646-22.8h22.8Z" transform="translate(-7.536 -5.534)" fill="#e6f2ff"/>
            <path id="Trazado_888498" data-name="Trazado 888498" d="M253.776,169.9h-22.8l2.646-22.8h22.8Z" transform="translate(-8.689 -5.534)" fill="#ffe9df"/>
            <path id="Trazado_888499" data-name="Trazado 888499" d="M284.437,169.9h-22.8l2.646-22.8h22.8Z" transform="translate(-9.843 -5.534)" fill="#e6f2ff"/>
            <path id="Trazado_888500" data-name="Trazado 888500" d="M315.1,169.9h-22.8l2.646-22.8h22.8Z" transform="translate(-10.996 -5.534)" fill="#e6f2ff"/>
            <path id="Trazado_888501" data-name="Trazado 888501" d="M219.6,200.2H196.8l2.646-22.8h22.8Z" transform="translate(-7.404 -6.674)" fill="#e6f2ff"/>
            <path id="Trazado_888502" data-name="Trazado 888502" d="M250.261,200.2h-22.8l2.646-22.8h22.8Z" transform="translate(-8.557 -6.674)" fill="#e6f2ff"/>
            <path id="Trazado_888503" data-name="Trazado 888503" d="M280.922,200.2h-22.8l2.646-22.8h22.8Z" transform="translate(-9.711 -6.674)" fill="#e6f2ff"/>
            <path id="Trazado_888504" data-name="Trazado 888504" d="M311.582,200.2h-22.8l2.646-22.8h22.8Z" transform="translate(-10.864 -6.674)" fill="#e6f2ff"/>
            <path id="Trazado_888505" data-name="Trazado 888505" d="M216.084,230.5h-22.8l2.646-22.8h22.8Z" transform="translate(-7.271 -7.814)" fill="#e6f2ff"/>
            <path id="Trazado_888506" data-name="Trazado 888506" d="M246.745,230.5h-22.8l2.646-22.8h22.8Z" transform="translate(-8.425 -7.814)" fill="#e6f2ff"/>
            <path id="Trazado_888507" data-name="Trazado 888507" d="M277.406,230.5H254.6l2.646-22.8h22.8Z" transform="translate(-9.578 -7.814)" fill="#e6f2ff"/>
            <path id="Trazado_888508" data-name="Trazado 888508" d="M308.067,230.5h-22.8l2.646-22.8h22.8Z" transform="translate(-10.732 -7.814)" fill="#e6f2ff"/>
            <path id="Trazado_888509" data-name="Trazado 888509" d="M212.569,260.8h-22.8l2.646-22.8h22.8Z" transform="translate(-7.139 -8.954)" fill="#e6f2ff"/>
            <path id="Trazado_888510" data-name="Trazado 888510" d="M243.23,260.8h-22.8l2.646-22.8h22.8Z" transform="translate(-8.293 -8.954)" fill="#e6f2ff"/>
            <path id="Trazado_888511" data-name="Trazado 888511" d="M273.891,260.8h-22.8l2.646-22.8h22.8Z" transform="translate(-9.446 -8.954)" fill="#e6f2ff"/>
            <path id="Trazado_888512" data-name="Trazado 888512" d="M304.552,260.8h-22.8l2.646-22.8h22.8Z" transform="translate(-10.6 -8.954)" fill="#e6f2ff"/>
            <path id="Trazado_888513" data-name="Trazado 888513" d="M206.784,309.359a3.746,3.746,0,0,1,3.62-3.242h20.6a5.329,5.329,0,0,0,4.676-2.9,4.429,4.429,0,0,0-.424-5.118l-8-9.049a4.142,4.142,0,0,0-3.161-1.375h-25.06a2.811,2.811,0,0,1-2.81-2.175l-1.062-4.559a3.411,3.411,0,0,1,.759-2.946,3.649,3.649,0,0,1,2.8-1.366H233.3a2.868,2.868,0,0,1,2.17.935L248.41,292c.112-.635.24-1.268.37-1.895L236.61,276.53a4.152,4.152,0,0,0-3.143-1.354H198.9a5.284,5.284,0,0,0-4.058,1.977,4.935,4.935,0,0,0-1.1,4.266l1.061,4.559a4.071,4.071,0,0,0,4.069,3.15H223.93a2.862,2.862,0,0,1,2.183.95l8,9.049a3.08,3.08,0,0,1,.293,3.534,3.69,3.69,0,0,1-3.228,2h-20.6a5.424,5.424,0,0,0-5.241,4.7l-.555,4.779a4.1,4.1,0,0,0,4.153,4.7h22.766a2.845,2.845,0,0,1,2.86,3.3,3.747,3.747,0,0,1-3.62,3.243H185.394l-.168,1.453h45.541a5.437,5.437,0,0,0,5.248-4.751,4.1,4.1,0,0,0-4.152-4.7H209.1a2.833,2.833,0,0,1-2.867-3.243Z" transform="translate(-6.968 -10.352)" fill="#e6f2ff"/>
            <path id="Trazado_888514" data-name="Trazado 888514" d="M259.148,280.237c-.43,3.707-8.283,13.547-8.283,13.547s-5.569-9.84-5.14-13.547a7.743,7.743,0,0,1,7.49-6.712,5.857,5.857,0,0,1,5.933,6.712" transform="translate(-9.243 -10.29)" fill="#efb499"/>
            <path id="Trazado_888515" data-name="Trazado 888515" d="M256.2,280.035a4.158,4.158,0,0,1-4.023,3.6,3.145,3.145,0,0,1-3.185-3.6,4.158,4.158,0,0,1,4.022-3.6,3.145,3.145,0,0,1,3.186,3.6" transform="translate(-9.366 -10.4)" fill="#fff"/>
            <path id="Trazado_888516" data-name="Trazado 888516" d="M193.776,327.873a6.5,6.5,0,0,1-6.286,5.633,4.916,4.916,0,0,1-4.978-5.633,6.5,6.5,0,0,1,6.285-5.633,4.916,4.916,0,0,1,4.979,5.633" transform="translate(-6.865 -12.123)" fill="#efb499"/>
            <path id="Trazado_888517" data-name="Trazado 888517" d="M191.158,327.979a3.355,3.355,0,0,1-3.244,2.907,2.537,2.537,0,0,1-2.57-2.907,3.353,3.353,0,0,1,3.244-2.907,2.537,2.537,0,0,1,2.57,2.907" transform="translate(-6.972 -12.23)" fill="#fff"/>
            <path id="Trazado_888518" data-name="Trazado 888518" d="M132.794,218.359s11.98-17.437,13.878-21.587,2.106-7.679-.871-9.835-8.463-3.848-13.313,2.986-13.811,27.821-14.179,34.388,29.327,26.447,31.965,27.732c2.908-.76,4.142-5.1,4.142-5.1s-19.172-24.341-21.624-28.581" transform="translate(-4.451 -6.961)" fill="#f90"/>
            <path id="Trazado_888519" data-name="Trazado 888519" d="M143.461,369.468s.6,3.445-1.369,8.64-2.078,6.836,0,7.985,3.555,1.476,9.351,0a72.828,72.828,0,0,0,12.25-4.7s-6.289-3.992-7.82-5.688-4.758-7.765-4.7-8.64-7.71,2.406-7.71,2.406" transform="translate(-5.289 -13.804)" fill="#f79e77"/>
            <path id="Trazado_888520" data-name="Trazado 888520" d="M159.224,378.728c-2.333,1.555-4.561,3.255-7.548,2.828-2.4-.6-3.3-3-4.8-4.8a4.573,4.573,0,0,0-4.025-.671,24.683,24.683,0,0,1-.761,2.357c-1.969,5.195-2.079,6.836,0,7.984s3.554,1.476,9.35,0a72.736,72.736,0,0,0,12.25-4.7s-2.31-1.466-4.47-3" transform="translate(-5.289 -14.142)" fill="#0c2c51"/>
            <path id="Trazado_888521" data-name="Trazado 888521" d="M216.637,182.438l7.259,3.126c2.407-2.982,4.215-5.231,5.4-5.475,3.072.412,4.391-.89,5.213-1.939s-.206-1.65-.072-2.052c.849-1.25-.591-1.74-.36-2.036.892-1.041.726-1.605.189-1.89s-1.445-.55-1.278-1.072,2.374-1.92,4.294-2.829,4.031-2.368,2.863-3.135-12.076,4.474-14.117,6.71-1.516,4.615-4.075,7.078a30.789,30.789,0,0,1-5.312,3.516" transform="translate(-8.15 -6.21)" fill="#ffb797"/>
            <path id="Trazado_888522" data-name="Trazado 888522" d="M151.334,368.469s.51,7.073-1.75,12.833-1.6,8.312,2.479,9.478,6.343-1.6,11.666-1.458,12.4-.438,14.218-5.323-6.687-2.7-11.837-4.231S163.25,369.2,163.25,369.2Z" transform="translate(-5.579 -13.862)" fill="#ffae83"/>
            <path id="Trazado_888523" data-name="Trazado 888523" d="M166.255,380.079c-.462,1.548,3.739,3.183,2.5,4.009-4.5,3.3-9.892-2.4-14.989-4.2a5.367,5.367,0,0,0-3.483-.288,21,21,0,0,1-.7,2.111c-2.26,5.761-1.6,8.312,2.479,9.479s6.344-1.6,11.667-1.459,15.391-.861,17.214-5.747c1.8-4.836-9.524-2.468-14.689-3.909" transform="translate(-5.579 -14.275)" fill="#0f3163"/>
            <path id="Trazado_888524" data-name="Trazado 888524" d="M180.32,381.741a3.249,3.249,0,0,1-.108.354c-1.823,4.886-11.891,5.894-17.214,5.747s-7.583,2.625-11.666,1.459a5.532,5.532,0,0,1-3-1.77c.175,1.94,1.384,3.077,3.736,3.748,4.083,1.167,6.344-1.6,11.666-1.458s15.391-.862,17.214-5.747a1.737,1.737,0,0,0-.625-2.334" transform="translate(-5.58 -14.361)" fill="#0c2c51"/>
            <path id="Trazado_888525" data-name="Trazado 888525" d="M159.466,272.9a12.942,12.942,0,0,1-5.876-5.452,16.286,16.286,0,0,1-1.342-12.048c1.313-3.937,6.562-13.853,6.562-13.853L145.9,239.156a147.251,147.251,0,0,0-8.75,17.883c-2.954,7.875-.548,16.187.875,22.422s5.031,24.062,3.5,30.734-4.375,16.844-3.61,24.609,4.593,26.25,4.485,30.405a8.534,8.534,0,0,0,3.724.747,11.33,11.33,0,0,0,6.119-2.168s.875-31.828,4.156-45.828,6.562-40.03,3.062-45.061" transform="translate(-5.107 -8.997)" fill="#144182"/>
            <path id="Trazado_888526" data-name="Trazado 888526" d="M159.888,273.269a12.942,12.942,0,0,1-5.876-5.452c-5.462-2.581-1.653-12.6-2.1-18.791-2.162,5.973-10.436,16.739.87,30.152,4.024,3.737.1,33.055-3.354,46.277-3.092,11.211-1.741,29.216-1.194,40.672a11.64,11.64,0,0,0,4.431-1.969s.875-31.828,4.157-45.828,6.562-40.03,3.062-45.061" transform="translate(-5.529 -9.369)" fill="#0f3163"/>
            <path id="Trazado_888527" data-name="Trazado 888527" d="M180.593,241.415a102.588,102.588,0,0,1,2.625,29.9c-1.167,15.458-11.521,41.416-12.688,47.1s-2.771,22.042-4.229,29.4-2.187,14.207-1.386,16.1c-3.427,3.646-12.541,3.209-14.583,0,.729-15.02.365-27.926,3.209-38.061s1.093-12.76,2.261-19.1,2.333-25.958,2.916-28.291-5.25-3.5-7.364-7.292-6.489-12.906,5.615-31.5a112.719,112.719,0,0,1,23.624,1.75" transform="translate(-5.599 -9.014)" fill="#144182"/>
            <path id="Trazado_888528" data-name="Trazado 888528" d="M180.884,241.415a112.719,112.719,0,0,0-23.624-1.75c-.243.372-.468.734-.7,1.1a111.4,111.4,0,0,1,18.8,1.8,102.587,102.587,0,0,1,2.625,29.9c-1.167,15.459-9.435,40.985-10.6,46.672s-1.627,21.3-3.086,28.655c-1.257,6.341-1.488,14.23-1.013,17.5a6.759,6.759,0,0,0,1.925-1.374c-.8-1.9-.072-8.75,1.386-16.1s3.062-23.709,4.229-29.4,11.521-31.646,12.688-47.1a102.588,102.588,0,0,0-2.625-29.9" transform="translate(-5.89 -9.014)" fill="#164e91"/>
            <path id="Trazado_888529" data-name="Trazado 888529" d="M174.123,150.87s1.093,12.979-.365,16.989-2.916,6.927-3.719,7.73-4.662-.656-5.43,0-.695,8.166-.695,8.166l-10.719-.437s1.24-13.563,2.187-17.281,17.646-15.458,18.739-15.166" transform="translate(-5.763 -5.676)" fill="#ffae83"/>
            <path id="Trazado_888530" data-name="Trazado 888530" d="M148.415,184.237s8.312-4.157,15.094-.875,17.39,17.062,19.03,19.687,2.735,8.531,0,13.89-1.75,21.109-.328,23.843c-11.484,3.39-29.311,1.2-37.514-2.406,4.593-6.672,7-9.187,3.719-16.515s-7.219-28.109,0-37.624" transform="translate(-5.43 -6.851)" fill="#fa0"/>
            <path id="Trazado_888531" data-name="Trazado 888531" d="M177.377,217.99c2.734-5.359,1.641-11.266,0-13.89s-12.25-16.407-19.031-19.687a14.053,14.053,0,0,0-7.164-1.206,21.544,21.544,0,0,0-2.767,1.07c-7.219,9.515-3.282,30.3,0,37.624s.875,9.843-3.719,16.515c6.9,3.037,20.62,5.067,31.638,3.614.239-.064.48-.128.714-.2-1.421-2.734-2.406-18.483.328-23.843" transform="translate(-5.43 -6.891)" fill="#f90"/>
            <path id="Trazado_888532" data-name="Trazado 888532" d="M190.8,199.967s-17.308-12.166-21.438-14.109-7.657-2.187-9.843.766-3.937,8.422,2.843,13.343,27.671,14.109,34.234,14.546,26.762-29.041,28.073-31.666c-.729-2.916-5.058-4.2-5.058-4.2s-24.545,18.91-28.81,21.316" transform="translate(-5.928 -6.721)" fill="#ffbc00"/>
            <path id="Trazado_888533" data-name="Trazado 888533" d="M162.528,200.781c-.23-.167-.428-.325-.64-.487.2.163.418.325.64.487" transform="translate(-6.09 -7.535)" fill="#ff69a6"/>
            <path id="Trazado_888534" data-name="Trazado 888534" d="M159.1,189.48c2.188-2.954,5.715-2.708,9.843-.766s20.779,12.823,20.779,12.823c4.265-2.406,29.892-22.886,29.892-22.886s-24.545,18.91-28.811,21.316c0,0-17.307-12.166-21.437-14.108s-7.657-2.187-9.844.765a9.426,9.426,0,0,0-1.954,5.484,10.169,10.169,0,0,1,1.531-2.626" transform="translate(-5.928 -6.721)" fill="#ffd815"/>
            <path id="Trazado_888535" data-name="Trazado 888535" d="M172.478,144.216c-4.958-4.958-14.146-6.854-14.146-6.854-7.8-2.648-13.853,4.667-15.6,11.229s-.89,14.2-3.572,22.821c-1.357,4.2-20.775,34.28,4.682,56.062,6.471,3.2,11.424,4.6,18.419-.791-7.37-17.521-5.041-34.336-3.555-39.378,1.437-4.875,4.389-5.056,7.1-4.05l.371.146c-.251-.494-.578-1.061-.964-1.684-1.365-4.067-.08-12.5,2.713-15.482,3.281-3.5,4.812-9.187,5.359-13.343a12.7,12.7,0,0,1-2.187,9.734c4.7-3.61,6.344-13.453,1.386-18.411" transform="translate(-4.921 -5.147)" fill="#144182"/>
            <path id="Trazado_888536" data-name="Trazado 888536" d="M141.256,209.42c-2.876-20.12,5.173-40.816,12.648-59.787,2.236-5.815,8.649-8.5,15.176-8.046a38.083,38.083,0,0,0-10.748-4.225c-7.8-2.648-13.852,4.667-15.6,11.229s-.89,14.2-3.573,22.821c-1.357,4.2-20.774,34.279,4.683,56.062,5.231,2.585,9.47,4,14.6,1.594a15.5,15.5,0,0,1-5.289-2.258c-5.749-4.025-10.741-10.492-11.89-17.39" transform="translate(-4.921 -5.147)" fill="#0f3163"/>
            <path id="Trazado_888537" data-name="Trazado 888537" d="M301.48,228.031s-11.027-32.641-1.1-42.016-2.391-22.68.525-31.346,13.6-13.815,18.263,2.084,5.98,16.39,17.69,17.123,10.811,24.312,8.74,35.161,9.431-6.288,12.909,5.357-13.373,35.657-31.1,48.171-39.4-23.079-37.916-31.981,7.995,3.015,11.988-2.552" transform="translate(-10.888 -5.51)" fill="#82c4e8"/>
            <path id="Trazado_888538" data-name="Trazado 888538" d="M303.04,183.908a12.674,12.674,0,0,1-2.662,3.517c-9.926,9.375,1.1,42.016,1.1,42.016-3.994,5.567-10.5-6.35-11.988,2.552s20.19,44.5,37.916,31.981c.952-.672,1.9-1.383,2.844-2.118a160.567,160.567,0,0,0-27.211-77.947" transform="translate(-10.888 -6.919)" fill="#6cb7d8"/>
            <path id="Trazado_888539" data-name="Trazado 888539" d="M322.087,265.959a.785.785,0,0,1-1.353-.676c.085-.443,8.258-45.1-12.395-109.831a.785.785,0,0,1,1.5-.477c20.784,65.142,12.526,110.157,12.44,110.6a.774.774,0,0,1-.189.379" transform="translate(-11.599 -5.81)" fill="#98cff4"/>
            <path id="Trazado_888540" data-name="Trazado 888540" d="M314.363,175.025l-10.445-8.417a.785.785,0,0,1,.986-1.222l9.037,7.281,4.763-7.981a.786.786,0,0,1,1.35.8Z" transform="translate(-11.423 -6.181)" fill="#98cff4"/>
            <path id="Trazado_888541" data-name="Trazado 888541" d="M339.882,182.043c-.016.018-.034.036-.052.053l-20.323,18.59-16.145-10.97a.785.785,0,1,1,.883-1.3l15.118,10.271,19.406-17.752a.785.785,0,0,1,1.113,1.107" transform="translate(-11.4 -6.799)" fill="#98cff4"/>
            <path id="Trazado_888542" data-name="Trazado 888542" d="M344.211,208.975l-.024.026-21.534,21.713L301.39,213.764a.786.786,0,0,1,.979-1.229l20.161,16.072,20.542-20.713a.785.785,0,0,1,1.139,1.081" transform="translate(-11.327 -7.812)" fill="#98cff4"/>
            <path id="Trazado_888543" data-name="Trazado 888543" d="M353.277,224.879c-.008.008-.014.016-.022.023l-30.748,31.24-26.358-18.431a.785.785,0,1,1,.9-1.288l25.27,17.67L352.135,223.8a.785.785,0,0,1,1.141,1.078" transform="translate(-11.129 -8.411)" fill="#98cff4"/>
            <path id="Trazado_888544" data-name="Trazado 888544" d="M295.6,304.532S271.5,292.475,271.855,281.8s-13.814-11.278-16.965-17.7-.05-15.161,11.29-8.9,12.345,5.811,19.251-.23,19.389,7.551,24.212,14.716,1.776-8.685,10.118-4.132,12.2,27.166,9.248,43.875-34.59,8.876-38.664,3.112,6.1-2.727,5.253-8.018" transform="translate(-9.546 -9.52)" fill="#98cff4"/>
            <path id="Trazado_888545" data-name="Trazado 888545" d="M272.089,279.376a9.9,9.9,0,0,1,.457,3.418c-.351,10.671,23.743,22.728,23.743,22.728.847,5.291-9.327,2.254-5.253,8.018s35.709,13.6,38.664-3.112c.159-.9.294-1.814.414-2.742a125.561,125.561,0,0,0-58.025-28.309" transform="translate(-10.236 -10.51)" fill="#82c4e8"/>
            <path id="Trazado_888546" data-name="Trazado 888546" d="M327.552,314.727a.614.614,0,0,1-1.123.37c-.2-.293-20.242-29.593-67.348-54.173a.614.614,0,1,1,.568-1.089c47.406,24.737,67.6,54.283,67.8,54.578a.607.607,0,0,1,.1.315" transform="translate(-9.734 -9.773)" fill="#acdaff"/>
            <path id="Trazado_888547" data-name="Trazado 888547" d="M273.221,268.155l-10.434,1.076a.614.614,0,0,1-.126-1.222l9.028-.931-1.749-7.054a.614.614,0,1,1,1.192-.3Z" transform="translate(-9.861 -9.754)" fill="#acdaff"/>
            <path id="Trazado_888548" data-name="Trazado 888548" d="M291.4,257.562a.569.569,0,0,1,0,.058l-1.052,21.513-15.005,2.8a.614.614,0,0,1-.225-1.208l14.051-2.619,1-20.543a.614.614,0,0,1,1.227,0" transform="translate(-10.331 -9.668)" fill="#acdaff"/>
            <path id="Trazado_888549" data-name="Trazado 888549" d="M308.57,270v.028l-.006,23.914-21.141,2.292a.614.614,0,0,1-.133-1.221l20.044-2.173.006-22.812A.614.614,0,0,1,308.57,270" transform="translate(-10.788 -10.136)" fill="#acdaff"/>
            <path id="Trazado_888550" data-name="Trazado 888550" d="M322.533,273.535v.025l.121,34.277-24.785,4.275a.614.614,0,1,1-.209-1.211l23.762-4.1-.117-33.239a.614.614,0,0,1,1.228-.03" transform="translate(-11.179 -10.269)" fill="#acdaff"/>
            <path id="Trazado_888551" data-name="Trazado 888551" d="M360.512,287.217s20.617-27.6,14.093-39.6,9.316-20.816,9.233-29.96-8.641-17.356-18.007-3.69S355.057,227.7,343.7,224.754s-17.824,19.754-19.224,30.71-7.013-8.906-13.934,1.083,1.64,38.048,14.605,55.447,44.623-9.7,45.972-18.628-8.535.383-10.6-6.149" transform="translate(-11.59 -7.777)" fill="#acdaff"/>
            <path id="Trazado_888552" data-name="Trazado 888552" d="M373.754,244.887a12.671,12.671,0,0,0,1.439,4.169c6.524,11.993-14.093,39.6-14.093,39.6,2.068,6.532,11.953-2.776,10.6,6.149S338.7,330.828,325.731,313.43c-.7-.934-1.377-1.906-2.046-2.9a160.571,160.571,0,0,1,50.069-65.646" transform="translate(-12.177 -9.213)" fill="#98cff4"/>
            <path id="Trazado_888553" data-name="Trazado 888553" d="M330.766,317.123a.785.785,0,0,0,1.5-.221c.058-.448,6.152-45.434,45.883-100.554a.785.785,0,0,0-1.274-.918C336.889,270.9,330.762,316.252,330.7,316.7a.78.78,0,0,0,.062.42" transform="translate(-12.441 -8.092)" fill="#d2edff"/>
            <path id="Trazado_888554" data-name="Trazado 888554" d="M367.587,232.9l12.542-4.758a.785.785,0,1,0-.557-1.468l-10.851,4.115-2.05-9.065a.785.785,0,1,0-1.532.345Z" transform="translate(-13.736 -8.318)" fill="#d2edff"/>
            <path id="Trazado_888555" data-name="Trazado 888555" d="M340.386,231.4c.01.022.021.044.033.065l13.546,23.982,18.753-5.414a.785.785,0,0,0-.436-1.509l-17.56,5.069-12.935-22.9a.786.786,0,0,0-1.4.707" transform="translate(-12.803 -8.664)" fill="#d2edff"/>
            <path id="Trazado_888556" data-name="Trazado 888556" d="M327.676,255.579a.327.327,0,0,0,.015.032l13.727,27.327,25.475-9.51a.785.785,0,0,0-.549-1.471l-24.154,9.017-13.1-26.067a.785.785,0,0,0-1.419.673" transform="translate(-12.325 -9.573)" fill="#d2edff"/>
            <path id="Trazado_888557" data-name="Trazado 888557" d="M313.588,267.708l.013.029L333.13,306.98l30.778-9.336a.785.785,0,1,0-.455-1.5l-29.508,8.951-18.937-38.053a.785.785,0,0,0-1.42.67" transform="translate(-11.795 -10.03)" fill="#d2edff"/>
            <path id="Trazado_888558" data-name="Trazado 888558" d="M291.751,318.583h60.7l-12.624,60.091H300.692Z" transform="translate(-10.976 -11.985)" fill="#f90"/>
            <path id="Trazado_888559" data-name="Trazado 888559" d="M347.378,344.38H295.59l.934,6.284h49.534Z" transform="translate(-11.12 -12.956)" fill="#ffbc00"/>
            <path id="Trazado_888560" data-name="Trazado 888560" d="M345.54,353.731H296.98l.468,3.142H344.88Z" transform="translate(-11.173 -13.308)" fill="#ffbc00"/>
            <rect id="Rectángulo_402304" data-name="Rectángulo 402304" width="64.229" height="8.539" transform="translate(278.952 305.603)" fill="#ffbc00"/>
          </g>
        </g>
      </g>
    </g>
  </g>
</svg>
