<svg xmlns="http://www.w3.org/2000/svg" xmlns:xlink="http://www.w3.org/1999/xlink" width="1030" height="423.577" viewBox="0 0 1030 423.577">
  <defs>
    <linearGradient id="linear-gradient" x1="0.5" x2="0.5" y2="1" gradientUnits="objectBoundingBox">
      <stop offset="0" stop-color="#fef2e2"/>
      <stop offset="1" stop-color="#ffe0d1"/>
    </linearGradient>
    <clipPath id="clip-path">
      <path id="Trazado_875284" data-name="Trazado 875284" d="M16,0h998c8.837,0,16,6.568,16,14.669V408.907c0,8.1-7.163,14.669-16,14.669H16c-8.837,0-16-6.568-16-14.669V14.669C0,6.568,7.163,0,16,0Z" transform="translate(284.668 1119)" fill="url(#linear-gradient)"/>
    </clipPath>
    <clipPath id="clip-path-2">
      <rect id="Rectángulo_401980" data-name="Rectángulo 401980" width="673.098" height="344.976" fill="none"/>
    </clipPath>
    <clipPath id="clip-path-3">
      <rect id="Rectángulo_401979" data-name="Rectángulo 401979" width="673.098" height="344.975" fill="none"/>
    </clipPath>
    <clipPath id="clip-path-4">
      <rect id="Rectángulo_401976" data-name="Rectángulo 401976" width="148.694" height="154.562" fill="none"/>
    </clipPath>
    <clipPath id="clip-path-5">
      <circle id="Elipse_11602" data-name="Elipse 11602" cx="63" cy="63" r="63" transform="translate(570 4488)" fill="#fff"/>
    </clipPath>
    <clipPath id="clip-path-6">
      <rect id="Rectángulo_402386" data-name="Rectángulo 402386" width="85.743" height="118.726" fill="none"/>
    </clipPath>
    <clipPath id="clip-path-7">
      <rect id="Rectángulo_402384" data-name="Rectángulo 402384" width="85.744" height="118.726" fill="none"/>
    </clipPath>
    <clipPath id="clip-path-8">
      <rect id="Rectángulo_402379" data-name="Rectángulo 402379" width="31.123" height="49.729" fill="none"/>
    </clipPath>
    <clipPath id="clip-path-9">
      <path id="Trazado_888925" data-name="Trazado 888925" d="M39.541,86.23A142.016,142.016,0,0,0,12.4,87.745l-.066-.445s.523-23.95-.156-30.11v-.013c-.157-.509-.288-1.031-.418-1.567A176.354,176.354,0,0,1,9.207,38.042l.013-.026s4.463,23.492,23.885,32.239c7.256,3.267,8.254,11.86,6.436,15.976" transform="translate(-9.207 -38.016)" fill="none"/>
    </clipPath>
    <linearGradient id="linear-gradient-3" x1="-0.318" y1="1.538" x2="-0.284" y2="1.538" gradientUnits="objectBoundingBox">
      <stop offset="0" stop-color="#fff"/>
      <stop offset="0.163" stop-color="#d2d2d2"/>
      <stop offset="0.466" stop-color="#858584"/>
      <stop offset="0.716" stop-color="#4d4d4b"/>
      <stop offset="0.901" stop-color="#2a2a28"/>
      <stop offset="1" stop-color="#1d1d1b"/>
    </linearGradient>
    <clipPath id="clip-path-10">
      <rect id="Rectángulo_402381" data-name="Rectángulo 402381" width="41.388" height="34.01" fill="none"/>
    </clipPath>
    <clipPath id="clip-path-11">
      <path id="Trazado_888927" data-name="Trazado 888927" d="M67.452,54.356l-.013.013a10.405,10.405,0,0,1-3.08.822c-5.717.509-6.409-3.08-6.07-5.468-3.146,1.762-6.108,1.827-8.275.1-2.6-2.088-2.284-5.939-1.827-7.6-3.3,1.892-6.736,2.179-9.973-1.083a4.777,4.777,0,0,1-.926-1.305l-.327.052c-3.067-6.826-7.674-9.632-10.9-10.781a31.79,31.79,0,0,1,3.041-7.883s-.744,8.875,10.454,9.4h.013s-2.088,8.993,10.69,10.194h.013c0,.235.078,7.583,9.945,7.649a7.443,7.443,0,0,0,7.232,5.886" transform="translate(-26.064 -21.23)" fill="none"/>
    </clipPath>
    <linearGradient id="linear-gradient-4" x1="-0.428" y1="1.949" x2="-0.407" y2="1.949" xlink:href="#linear-gradient-3"/>
    <clipPath id="clip-path-12">
      <rect id="Rectángulo_402383" data-name="Rectángulo 402383" width="25.61" height="29.035" fill="none"/>
    </clipPath>
    <clipPath id="clip-path-13">
      <path id="Trazado_888937" data-name="Trazado 888937" d="M31.951,79.507v26.745a144.268,144.268,0,0,1,25.609,2.291V81.785q-1.92-.354-3.837-.627a144.2,144.2,0,0,0-21.772-1.651" transform="translate(-31.951 -79.507)" fill="none"/>
    </clipPath>
    <linearGradient id="linear-gradient-5" x1="-1.387" y1="1.044" x2="-1.344" y2="1.044" xlink:href="#linear-gradient-3"/>
    <clipPath id="clip-path-14">
      <path id="Trazado_888940" data-name="Trazado 888940" d="M28.553,29.49v-.012a.488.488,0,0,0-.118-.067l.118.079" transform="translate(-28.435 -29.411)" fill="none"/>
    </clipPath>
    <linearGradient id="linear-gradient-6" x1="-228.123" y1="615.949" x2="-220.097" y2="615.949" xlink:href="#linear-gradient-3"/>
  </defs>
  <g id="img13" transform="translate(-285 -4335)">
    <g id="Enmascarar_grupo_1098696" data-name="Enmascarar grupo 1098696" transform="translate(0.332 3216)" clip-path="url(#clip-path)">
      <rect id="Rectángulo_401981" data-name="Rectángulo 401981" width="1079" height="443" transform="translate(264.668 1108)" fill="url(#linear-gradient)"/>
    </g>
    <g id="Grupo_1100186" data-name="Grupo 1100186" transform="translate(463.451 4368.745)">
      <g id="Grupo_1100185" data-name="Grupo 1100185" clip-path="url(#clip-path-2)">
        <g id="Grupo_1100184" data-name="Grupo 1100184" transform="translate(0 0.001)">
          <g id="Grupo_1100183" data-name="Grupo 1100183" clip-path="url(#clip-path-3)">
            <path id="Trazado_875269" data-name="Trazado 875269" d="M383.279,228.612A154.678,154.678,0,0,1,234.584,383.174c-1.982.079-3.98.115-5.982.115A154.677,154.677,0,1,1,383.279,228.612" transform="translate(-56.12 -56.125)" fill="#fecab2"/>
            <path id="Trazado_875270" data-name="Trazado 875270" d="M1755.174,228.612a154.666,154.666,0,0,1-153.835,154.672c-.277.005-.56.005-.837.005a154.677,154.677,0,1,1,154.672-154.677" transform="translate(-1097.519 -56.125)" fill="#ffce73"/>
            <g id="Grupo_1100176" data-name="Grupo 1100176" transform="translate(178.464 172.487)" opacity="0.1">
              <g id="Grupo_1100175" data-name="Grupo 1100175">
                <g id="Grupo_1100174" data-name="Grupo 1100174" clip-path="url(#clip-path-4)">
                  <path id="Trazado_875271" data-name="Trazado 875271" d="M889.5,716A154.678,154.678,0,0,1,740.808,870.564C875.7,843.957,868.434,716,868.434,716Z" transform="translate(-740.808 -716.002)"/>
                </g>
              </g>
            </g>
            <path id="Trazado_875272" data-name="Trazado 875272" d="M1173.03,492.1H1064.291a35.53,35.53,0,0,1,0-71.06H1173.03a35.53,35.53,0,1,1,0,71.06" transform="translate(-780.927 -319.608)" fill="#fecab2"/>
            <path id="Trazado_875273" data-name="Trazado 875273" d="M1173.03,831.7H1064.291a35.53,35.53,0,0,1,0-71.06H1173.03a35.53,35.53,0,1,1,0,71.06" transform="translate(-780.927 -577.4)" fill="#ffce73"/>
            <path id="Trazado_888837" data-name="Trazado 888837" d="M1152.3,848.978a28.932,28.932,0,1,1-28.932-28.932,28.932,28.932,0,0,1,28.932,28.932" transform="translate(-734.494 -712.02)" fill="#f2f2f2"/>
            <path id="Trazado_888962" data-name="Trazado 888962" d="M1152.3,848.978a28.932,28.932,0,1,1-28.932-28.932,28.932,28.932,0,0,1,28.932,28.932" transform="translate(-837.494 -630.207)" fill="#f2f2f2"/>
            <path id="Trazado_875278" data-name="Trazado 875278" d="M172.482,344.979A172.489,172.489,0,0,1,50.518,50.525,172.6,172.6,0,0,1,252.87,19.843a173.964,173.964,0,0,1,60.286,52.811l-4.091,2.908A167.9,167.9,0,0,0,172.482,5.023C80.143,5.023,5.019,80.149,5.019,172.492S80.143,339.96,172.482,339.96c2.318,0,4.435-.04,6.471-.124a167.629,167.629,0,0,0,122.595-60.626l3.866,3.2a172.128,172.128,0,0,1-126.264,62.44c-2.1.086-4.281.127-6.668.127" transform="translate(0 -0.004)" fill="#efb499"/>
            <path id="Trazado_875279" data-name="Trazado 875279" d="M1246.438,1125.562a9.307,9.307,0,1,1,9.307-9.307,9.317,9.317,0,0,1-9.307,9.307m0-13.595a4.288,4.288,0,1,0,4.288,4.288,4.293,4.293,0,0,0-4.288-4.288" transform="translate(-939.1 -840.28)" fill="#efb499"/>
            <path id="Trazado_875280" data-name="Trazado 875280" d="M1281.6,311.048a9.307,9.307,0,1,1,9.307-9.307,9.317,9.317,0,0,1-9.307,9.307m0-13.595a4.288,4.288,0,1,0,4.288,4.288,4.293,4.293,0,0,0-4.288-4.288" transform="translate(-965.794 -221.986)" fill="#efb499"/>
            <path id="Trazado_875281" data-name="Trazado 875281" d="M1634.8,344.979c-2.387,0-4.571-.042-6.675-.127a172.128,172.128,0,0,1-126.256-62.44l3.866-3.2a167.628,167.628,0,0,0,122.589,60.626c2.042.083,4.159.124,6.477.124,92.34,0,167.464-75.126,167.464-167.468S1727.137,5.023,1634.8,5.023a167.9,167.9,0,0,0-136.583,70.539l-4.09-2.908A172.272,172.272,0,0,1,1634.8,0a172.489,172.489,0,0,1,121.965,294.454,171.352,171.352,0,0,1-121.965,50.52" transform="translate(-1134.182 -0.004)" fill="#ffb937"/>
            <path id="Trazado_875282" data-name="Trazado 875282" d="M1488.947,1125.562a9.307,9.307,0,1,1,9.307-9.307,9.317,9.317,0,0,1-9.307,9.307m0-13.595a4.288,4.288,0,1,0,4.288,4.288,4.293,4.293,0,0,0-4.288-4.288" transform="translate(-1123.187 -840.28)" fill="#ffb937"/>
            <path id="Trazado_875283" data-name="Trazado 875283" d="M1453.782,311.048a9.307,9.307,0,1,1,9.307-9.307,9.317,9.317,0,0,1-9.307,9.307m0-13.595a4.288,4.288,0,1,0,4.288,4.288,4.293,4.293,0,0,0-4.288-4.288" transform="translate(-1096.494 -221.986)" fill="#ffb937"/>
          </g>
        </g>
      </g>
    </g>
    <rect id="Rectángulo_401680" data-name="Rectángulo 401680" width="238" height="43" rx="21.5" transform="translate(516 4466.001)" fill="#efb499"/>
    <rect id="Rectángulo_401983" data-name="Rectángulo 401983" width="238" height="43" rx="21.5" transform="translate(848 4590.001)" fill="#ffb937"/>
    <path id="Trazado_897969" data-name="Trazado 897969" d="M5.81,14.214,9.062,4.2H11.5L6.9,17H4.746L.158,4.2H2.593Zm10.731,2.962A4.419,4.419,0,0,1,13.25,15.9a4.639,4.639,0,0,1-1.261-3.406v-.264a5.706,5.706,0,0,1,.549-2.544A4.181,4.181,0,0,1,14.08,7.938a4.078,4.078,0,0,1,2.215-.624,3.733,3.733,0,0,1,3,1.239,5.24,5.24,0,0,1,1.059,3.507v.861H14.142a2.856,2.856,0,0,0,.787,1.863,2.362,2.362,0,0,0,1.736.686,2.892,2.892,0,0,0,2.391-1.187l1.151,1.1a3.845,3.845,0,0,1-1.525,1.323A4.774,4.774,0,0,1,16.541,17.176Zm-.255-8.147a1.8,1.8,0,0,0-1.419.615,3.189,3.189,0,0,0-.69,1.714h4.069V11.2a2.6,2.6,0,0,0-.571-1.622A1.785,1.785,0,0,0,16.286,9.028ZM23.994,7.49l.062,1.1a3.419,3.419,0,0,1,2.769-1.274q2.971,0,3.023,3.4V17H27.712V10.839a1.958,1.958,0,0,0-.391-1.34,1.645,1.645,0,0,0-1.279-.435,2.058,2.058,0,0,0-1.925,1.169V17H21.981V7.49ZM34.7,5.179V7.49h1.679V9.072H34.7v5.309a1.169,1.169,0,0,0,.215.787,1,1,0,0,0,.769.242,3.29,3.29,0,0,0,.747-.088v1.652a5.26,5.26,0,0,1-1.406.2q-2.461,0-2.461-2.716V9.072H31V7.49h1.564V5.179ZM43.69,17a3.3,3.3,0,0,1-.246-.888,3.593,3.593,0,0,1-4.834.246,2.615,2.615,0,0,1-.905-2.021A2.7,2.7,0,0,1,38.834,12a5.473,5.473,0,0,1,3.23-.813h1.31v-.624a1.666,1.666,0,0,0-.413-1.182A1.638,1.638,0,0,0,41.7,8.94a1.881,1.881,0,0,0-1.2.365,1.129,1.129,0,0,0-.466.927H37.907a2.37,2.37,0,0,1,.519-1.463A3.455,3.455,0,0,1,39.836,7.7a4.955,4.955,0,0,1,1.991-.387,3.99,3.99,0,0,1,2.663.839,2.993,2.993,0,0,1,1.02,2.36V14.8a4.861,4.861,0,0,0,.36,2.048V17Zm-2.347-1.538a2.429,2.429,0,0,0,1.191-.308,2.055,2.055,0,0,0,.839-.826V12.535H42.223a3.148,3.148,0,0,0-1.784.413,1.338,1.338,0,0,0-.6,1.169,1.248,1.248,0,0,0,.409.98A1.583,1.583,0,0,0,41.344,15.462ZM49.975,7.49V17.844a3.129,3.129,0,0,1-.725,2.228,2.779,2.779,0,0,1-2.123.769,4.268,4.268,0,0,1-1.134-.149V19a3.291,3.291,0,0,0,.756.079q1.063,0,1.09-1.16V7.49Zm-2.32-2.47a1.133,1.133,0,0,1,.312-.817,1.179,1.179,0,0,1,.892-.325,1.193,1.193,0,0,1,.9.325,1.125,1.125,0,0,1,.316.817,1.1,1.1,0,0,1-.316.8,1.2,1.2,0,0,1-.9.321,1.188,1.188,0,0,1-.892-.321A1.107,1.107,0,0,1,47.654,5.021ZM57.938,17a3.3,3.3,0,0,1-.246-.888,3.593,3.593,0,0,1-4.834.246,2.615,2.615,0,0,1-.905-2.021A2.7,2.7,0,0,1,53.082,12a5.473,5.473,0,0,1,3.23-.813h1.31v-.624a1.666,1.666,0,0,0-.413-1.182,1.638,1.638,0,0,0-1.257-.444,1.881,1.881,0,0,0-1.2.365,1.129,1.129,0,0,0-.466.927H52.154a2.37,2.37,0,0,1,.519-1.463A3.455,3.455,0,0,1,54.083,7.7a4.955,4.955,0,0,1,1.991-.387,3.99,3.99,0,0,1,2.663.839,2.993,2.993,0,0,1,1.02,2.36V14.8a4.861,4.861,0,0,0,.36,2.048V17Zm-2.347-1.538a2.429,2.429,0,0,0,1.191-.308,2.055,2.055,0,0,0,.839-.826V12.535H56.47a3.148,3.148,0,0,0-1.784.413,1.338,1.338,0,0,0-.6,1.169,1.248,1.248,0,0,0,.409.98A1.583,1.583,0,0,0,55.591,15.462Zm11.733-1.046a.968.968,0,0,0-.47-.87,5,5,0,0,0-1.56-.527,8.02,8.02,0,0,1-1.819-.58,2.428,2.428,0,0,1-1.6-2.241,2.531,2.531,0,0,1,1.037-2.057,4.1,4.1,0,0,1,2.637-.826,4.266,4.266,0,0,1,2.755.844,2.677,2.677,0,0,1,1.05,2.188H67.219a1.316,1.316,0,0,0-.457-1.024,1.752,1.752,0,0,0-1.213-.409,1.893,1.893,0,0,0-1.147.325,1.025,1.025,0,0,0-.444.87.866.866,0,0,0,.413.765,5.68,5.68,0,0,0,1.67.549,7.9,7.9,0,0,1,1.973.659A2.794,2.794,0,0,1,69.078,13a2.342,2.342,0,0,1,.347,1.3,2.478,2.478,0,0,1-1.063,2.079,4.535,4.535,0,0,1-2.786.8,4.917,4.917,0,0,1-2.083-.422,3.428,3.428,0,0,1-1.424-1.16A2.746,2.746,0,0,1,61.559,14h2.074a1.5,1.5,0,0,0,.571,1.165,2.22,2.22,0,0,0,1.4.409,2.16,2.16,0,0,0,1.283-.321A.993.993,0,0,0,67.324,14.416Z" transform="translate(598 4477.001)" fill="#12263f"/>
    <path id="Trazado_897970" data-name="Trazado 897970" d="M1.3,17V4.2H5.08a5.928,5.928,0,0,1,3.01.756A5.154,5.154,0,0,1,10.125,7.1a6.807,6.807,0,0,1,.721,3.182v.642a6.779,6.779,0,0,1-.725,3.2,5.092,5.092,0,0,1-2.065,2.127A6.2,6.2,0,0,1,4.983,17ZM3.524,6v9.229h1.45A3.339,3.339,0,0,0,7.66,14.13a4.766,4.766,0,0,0,.954-3.142v-.712a4.891,4.891,0,0,0-.905-3.182A3.209,3.209,0,0,0,5.08,6Zm13.518,11.18A4.419,4.419,0,0,1,13.75,15.9a4.639,4.639,0,0,1-1.261-3.406v-.264a5.706,5.706,0,0,1,.549-2.544,4.181,4.181,0,0,1,1.542-1.745A4.078,4.078,0,0,1,16.8,7.314a3.733,3.733,0,0,1,3,1.239,5.24,5.24,0,0,1,1.059,3.507v.861H14.643a2.856,2.856,0,0,0,.787,1.863,2.362,2.362,0,0,0,1.736.686,2.892,2.892,0,0,0,2.391-1.187l1.151,1.1a3.845,3.845,0,0,1-1.525,1.323A4.774,4.774,0,0,1,17.042,17.176Zm-.255-8.147a1.8,1.8,0,0,0-1.419.615,3.189,3.189,0,0,0-.69,1.714h4.069V11.2a2.6,2.6,0,0,0-.571-1.622A1.785,1.785,0,0,0,16.787,9.028Zm11.057,5.388a.968.968,0,0,0-.47-.87,5,5,0,0,0-1.56-.527,8.02,8.02,0,0,1-1.819-.58,2.428,2.428,0,0,1-1.6-2.241,2.531,2.531,0,0,1,1.037-2.057,4.1,4.1,0,0,1,2.637-.826,4.266,4.266,0,0,1,2.755.844,2.677,2.677,0,0,1,1.05,2.188H27.738a1.316,1.316,0,0,0-.457-1.024,1.752,1.752,0,0,0-1.213-.409,1.893,1.893,0,0,0-1.147.325,1.025,1.025,0,0,0-.444.87.866.866,0,0,0,.413.765,5.68,5.68,0,0,0,1.67.549,7.9,7.9,0,0,1,1.973.659A2.794,2.794,0,0,1,29.6,13a2.342,2.342,0,0,1,.347,1.3,2.478,2.478,0,0,1-1.063,2.079,4.535,4.535,0,0,1-2.786.8,4.917,4.917,0,0,1-2.083-.422,3.428,3.428,0,0,1-1.424-1.16A2.746,2.746,0,0,1,22.078,14h2.074a1.5,1.5,0,0,0,.571,1.165,2.22,2.22,0,0,0,1.4.409,2.16,2.16,0,0,0,1.283-.321A.993.993,0,0,0,27.844,14.416Zm7.313-.123,2.013-6.8h2.206L36.079,17H34.225L30.9,7.49h2.215Zm9.624,2.883A4.419,4.419,0,0,1,41.489,15.9a4.639,4.639,0,0,1-1.261-3.406v-.264a5.706,5.706,0,0,1,.549-2.544,4.181,4.181,0,0,1,1.542-1.745,4.078,4.078,0,0,1,2.215-.624,3.733,3.733,0,0,1,3,1.239,5.24,5.24,0,0,1,1.059,3.507v.861H42.381a2.856,2.856,0,0,0,.787,1.863,2.362,2.362,0,0,0,1.736.686,2.892,2.892,0,0,0,2.391-1.187l1.151,1.1a3.845,3.845,0,0,1-1.525,1.323A4.774,4.774,0,0,1,44.78,17.176Zm-.255-8.147a1.8,1.8,0,0,0-1.419.615,3.189,3.189,0,0,0-.69,1.714h4.069V11.2a2.6,2.6,0,0,0-.571-1.622A1.785,1.785,0,0,0,44.525,9.028ZM52.233,7.49l.062,1.1a3.419,3.419,0,0,1,2.769-1.274q2.971,0,3.023,3.4V17H55.951V10.839A1.958,1.958,0,0,0,55.56,9.5a1.645,1.645,0,0,0-1.279-.435,2.058,2.058,0,0,0-1.925,1.169V17H50.221V7.49ZM62.938,5.179V7.49h1.679V9.072H62.938v5.309a1.169,1.169,0,0,0,.215.787,1,1,0,0,0,.769.242,3.29,3.29,0,0,0,.747-.088v1.652a5.26,5.26,0,0,1-1.406.2q-2.461,0-2.461-2.716V9.072H59.238V7.49H60.8V5.179ZM71.93,17a3.3,3.3,0,0,1-.246-.888,3.593,3.593,0,0,1-4.834.246,2.615,2.615,0,0,1-.905-2.021A2.7,2.7,0,0,1,67.074,12a5.473,5.473,0,0,1,3.23-.813h1.31v-.624A1.666,1.666,0,0,0,71.2,9.384a1.638,1.638,0,0,0-1.257-.444,1.881,1.881,0,0,0-1.2.365,1.129,1.129,0,0,0-.466.927H66.146a2.37,2.37,0,0,1,.519-1.463A3.455,3.455,0,0,1,68.076,7.7a4.955,4.955,0,0,1,1.991-.387,3.99,3.99,0,0,1,2.663.839,2.993,2.993,0,0,1,1.02,2.36V14.8a4.861,4.861,0,0,0,.36,2.048V17Zm-2.347-1.538a2.429,2.429,0,0,0,1.191-.308,2.055,2.055,0,0,0,.839-.826V12.535H70.462a3.148,3.148,0,0,0-1.784.413,1.338,1.338,0,0,0-.6,1.169,1.248,1.248,0,0,0,.409.98A1.583,1.583,0,0,0,69.583,15.462ZM78.214,7.49V17.844a3.129,3.129,0,0,1-.725,2.228,2.779,2.779,0,0,1-2.123.769,4.268,4.268,0,0,1-1.134-.149V19a3.291,3.291,0,0,0,.756.079q1.063,0,1.09-1.16V7.49Zm-2.32-2.47a1.133,1.133,0,0,1,.312-.817,1.179,1.179,0,0,1,.892-.325,1.193,1.193,0,0,1,.9.325,1.125,1.125,0,0,1,.316.817,1.1,1.1,0,0,1-.316.8,1.2,1.2,0,0,1-.9.321,1.188,1.188,0,0,1-.892-.321A1.107,1.107,0,0,1,75.894,5.021ZM86.177,17a3.3,3.3,0,0,1-.246-.888,3.593,3.593,0,0,1-4.834.246,2.615,2.615,0,0,1-.905-2.021A2.7,2.7,0,0,1,81.321,12a5.473,5.473,0,0,1,3.23-.813h1.31v-.624a1.666,1.666,0,0,0-.413-1.182A1.638,1.638,0,0,0,84.19,8.94a1.881,1.881,0,0,0-1.2.365,1.129,1.129,0,0,0-.466.927H80.394a2.37,2.37,0,0,1,.519-1.463A3.455,3.455,0,0,1,82.323,7.7a4.955,4.955,0,0,1,1.991-.387,3.99,3.99,0,0,1,2.663.839A2.993,2.993,0,0,1,88,10.514V14.8a4.861,4.861,0,0,0,.36,2.048V17ZM83.83,15.462a2.429,2.429,0,0,0,1.191-.308,2.055,2.055,0,0,0,.839-.826V12.535H84.709a3.148,3.148,0,0,0-1.784.413,1.338,1.338,0,0,0-.6,1.169,1.248,1.248,0,0,0,.409.98A1.583,1.583,0,0,0,83.83,15.462Z" transform="translate(922 4601.001)" fill="#12263f"/>
    <g id="Enmascarar_grupo_1098717" data-name="Enmascarar grupo 1098717" transform="translate(0 39)" clip-path="url(#clip-path-5)">
      <circle id="Elipse_11600" data-name="Elipse 11600" cx="63" cy="63" r="63" transform="translate(570 4488)" fill="#9ce4ff"/>
      <g id="Grupo_1101044" data-name="Grupo 1101044" transform="matrix(0.259, 0.966, -0.966, 0.259, 669.455, 4505.899)">
        <g id="Grupo_1101043" data-name="Grupo 1101043" clip-path="url(#clip-path-6)">
          <g id="Grupo_1101040" data-name="Grupo 1101040" transform="translate(0 0)">
            <g id="Grupo_1101039" data-name="Grupo 1101039" clip-path="url(#clip-path-7)">
              <path id="Trazado_888921" data-name="Trazado 888921" d="M75.871,43.322A21.361,21.361,0,0,1,72.66,47.3a28.185,28.185,0,0,1-8.444,6.109l-.013.013a10.4,10.4,0,0,1-3.081.822c-5.716.509-6.408-3.08-6.069-5.468a15.635,15.635,0,0,0,1.931-1.253c3.851-2.911,12.57-14.279,14.031-17.856,9.972.862,7.505,8.968,4.856,13.653" transform="translate(6.153 3.32)" fill="#ffc79c"/>
              <path id="Trazado_888922" data-name="Trazado 888922" d="M72.056,30.8c-1.462,3.576-10.181,14.945-14.031,17.855a15.507,15.507,0,0,1-1.931,1.253c-3.146,1.762-6.109,1.828-8.276.1-2.6-2.088-2.284-5.939-1.827-7.6a17.215,17.215,0,0,0,2.076-1.409c4.02-3.107,7.688-8.08,10.336-11.134a29.484,29.484,0,0,0,6.1-10.233c6.866-.862,10.025,5.1,7.558,11.159" transform="translate(5.112 2.189)" fill="#ffc79c"/>
              <path id="Trazado_888923" data-name="Trazado 888923" d="M65.618,20.58a29.474,29.474,0,0,1-6.1,10.233c-2.65,3.054-6.317,8.027-10.337,11.134a17.128,17.128,0,0,1-2.075,1.41c-3.3,1.892-6.735,2.179-9.973-1.084a4.838,4.838,0,0,1-.926-1.3C34.5,37.456,37.582,32.9,37.582,32.9s.326-.43.9-1.149h.012c1.8-2.284,5.991-7.531,9.685-11.694A65.692,65.692,0,0,1,53.388,14.6c3.459-3.107,6.9-4.726,10.311-2.154,2.52,1.906,2.872,4.856,1.919,8.131" transform="translate(3.994 1.25)" fill="#ffc79c"/>
              <path id="Trazado_888924" data-name="Trazado 888924" d="M78.676,50.487S77.893,72.467,60.1,80.768a6.829,6.829,0,0,0-3.968,6.174v4.895a140.534,140.534,0,0,0-15.7-1.488A142.1,142.1,0,0,0,13.3,91.862l-.066-.444s.523-23.95-.157-30.112v-.013c-.157-.508-.287-1.031-.418-1.566A176.8,176.8,0,0,1,10.1,42.16c-.509-4.438-1.057-8.968-1.828-13.209C7.28,23.56,5.923,18.6,3.809,14.8a22.889,22.889,0,0,1-1.776-3.916C.22,5.64,1.616,2.259,4.657,1.5S12.88.954,18,10.129c2.388,4.269,4.763,10.508,6.878,19.487.078.314.143.627.221.94h.013a12.552,12.552,0,0,1,3.733.8,16.433,16.433,0,0,1,2.585,1.188.1.1,0,0,1,.051.027.5.5,0,0,1,.118.066v.012a19.959,19.959,0,0,1,8.145,9.489l.326-.052a4.806,4.806,0,0,0,.927,1.305c3.237,3.263,6.669,2.977,9.972,1.084-.457,1.657-.769,5.507,1.827,7.6,2.167,1.723,5.13,1.658,8.276-.1-.34,2.389.352,5.979,6.069,5.469,3.851-.339,8.432-3.785,11.538-6.944" transform="translate(0.137 0.137)" fill="#ffc79c"/>
              <g id="Grupo_1101028" data-name="Grupo 1101028" transform="translate(10.238 42.27)" opacity="0.2" style="mix-blend-mode: multiply;isolation: isolate">
                <g id="Grupo_1101027" data-name="Grupo 1101027">
                  <g id="Grupo_1101026" data-name="Grupo 1101026" clip-path="url(#clip-path-8)">
                    <g id="Grupo_1101025" data-name="Grupo 1101025" transform="translate(0 0)">
                      <g id="Grupo_1101024" data-name="Grupo 1101024" clip-path="url(#clip-path-9)">
                        <rect id="Rectángulo_402378" data-name="Rectángulo 402378" width="32.152" height="49.729" transform="translate(0 0)" fill="url(#linear-gradient-3)"/>
                      </g>
                    </g>
                  </g>
                </g>
              </g>
              <path id="Trazado_888926" data-name="Trazado 888926" d="M54.465,15.232a65.874,65.874,0,0,0-5.208,5.456c-3.694,4.163-7.883,9.41-9.685,11.694H39.56c-.575.718-.9,1.149-.9,1.149s-3.081,4.555-1.371,8.067l-.326.052c-3.068-6.826-7.675-9.632-10.9-10.781a31.79,31.79,0,0,1,3.041-7.883A43.041,43.041,0,0,1,35.1,14.37C42.6,5.978,47.965,4.1,51.477,6.526c3.916,2.729,2.989,8.706,2.989,8.706" transform="translate(2.917 0.62)" fill="#ffc79c"/>
              <g id="Grupo_1101033" data-name="Grupo 1101033" transform="translate(28.98 23.605)" opacity="0.2" style="mix-blend-mode: multiply;isolation: isolate">
                <g id="Grupo_1101032" data-name="Grupo 1101032">
                  <g id="Grupo_1101031" data-name="Grupo 1101031" clip-path="url(#clip-path-10)">
                    <g id="Grupo_1101030" data-name="Grupo 1101030" transform="translate(0 0)">
                      <g id="Grupo_1101029" data-name="Grupo 1101029" clip-path="url(#clip-path-11)">
                        <rect id="Rectángulo_402380" data-name="Rectángulo 402380" width="53.525" height="53.732" transform="translate(-17.22 17.963) rotate(-46.21)" fill="url(#linear-gradient-4)"/>
                      </g>
                    </g>
                  </g>
                </g>
              </g>
              <path id="Trazado_888928" data-name="Trazado 888928" d="M12.042,85.374s.53-23.976-.151-30.117" transform="translate(1.331 6.184)" fill="none" stroke="#e08f51" stroke-linecap="round" stroke-linejoin="round" stroke-width="2.451"/>
              <path id="Trazado_888929" data-name="Trazado 888929" d="M26.05,75.43s-10.384-2.73-13.382-15.7S9.992,25.9,3.817,14.811C-.337,7.357.915,2.435,4.667,1.5,9.387.323,19.3,1.5,26.05,34.939" transform="translate(0.137 0.137)" fill="none" stroke="#e08f51" stroke-linecap="round" stroke-linejoin="round" stroke-width="2.451"/>
              <path id="Trazado_888930" data-name="Trazado 888930" d="M22.7,27.61s16.184.168,17.776,25.646" transform="translate(2.541 3.09)" fill="none" stroke="#e08f51" stroke-linecap="round" stroke-linejoin="round" stroke-width="2.451"/>
              <path id="Trazado_888931" data-name="Trazado 888931" d="M54.473,15.235s.928-5.973-3-8.7C47.976,4.1,42.606,5.981,35.1,14.38c-7.481,8.37-9.024,16.5-9.024,16.5" transform="translate(2.918 0.621)" fill="none" stroke="#e08f51" stroke-linecap="round" stroke-linejoin="round" stroke-width="2.451"/>
              <path id="Trazado_888932" data-name="Trazado 888932" d="M37.586,32.9s5.747-7.353,10.6-12.836c5.2-5.886,10.407-11.477,15.527-7.615S64.987,24.5,59.527,30.812C54.318,36.836,45.1,50.318,37.149,42.272,33.642,38.724,37.586,32.9,37.586,32.9Z" transform="translate(3.995 1.25)" fill="none" stroke="#e08f51" stroke-linecap="round" stroke-linejoin="round" stroke-width="2.451"/>
              <path id="Trazado_888933" data-name="Trazado 888933" d="M45.993,42.425c-.456,1.653-.768,5.505,1.835,7.587s6.349,1.561,10.2-1.353S70.6,34.376,72.058,30.811c2.474-6.057-.69-12.033-7.553-11.168" transform="translate(5.113 2.189)" fill="none" stroke="#e08f51" stroke-linecap="round" stroke-linejoin="round" stroke-width="2.451"/>
              <path id="Trazado_888934" data-name="Trazado 888934" d="M55.064,48.785c-.34,2.391.342,5.973,6.058,5.462s13-7.794,14.758-10.919c2.644-4.692,5.118-12.8-4.862-13.649" transform="translate(6.154 3.321)" fill="none" stroke="#e08f51" stroke-linecap="round" stroke-linejoin="round" stroke-width="2.451"/>
              <path id="Trazado_888935" data-name="Trazado 888935" d="M73.151,45.534s-.773,21.971-18.567,30.275a6.822,6.822,0,0,0-3.968,6.171V86.9" transform="translate(5.664 5.096)" fill="none" stroke="#e08f51" stroke-linecap="round" stroke-linejoin="round" stroke-width="2.451"/>
              <path id="Trazado_888936" data-name="Trazado 888936" d="M14.09,80.95a143.905,143.905,0,0,1,42.211.209q1.918.274,3.837.627v26.757a144.354,144.354,0,0,0-51.23,0V81.786c1.722-.314,3.446-.588,5.181-.836m6.748,9.2a3.172,3.172,0,1,0-3.172,3.171,3.167,3.167,0,0,0,3.172-3.171" transform="translate(0.997 8.896)" fill="#5871c4"/>
              <g id="Grupo_1101038" data-name="Grupo 1101038" transform="translate(35.526 88.404)" opacity="0.2" style="mix-blend-mode: screen;isolation: isolate">
                <g id="Grupo_1101037" data-name="Grupo 1101037">
                  <g id="Grupo_1101036" data-name="Grupo 1101036" clip-path="url(#clip-path-12)">
                    <g id="Grupo_1101035" data-name="Grupo 1101035" transform="translate(0 0)">
                      <g id="Grupo_1101034" data-name="Grupo 1101034" clip-path="url(#clip-path-13)">
                        <rect id="Rectángulo_402382" data-name="Rectángulo 402382" width="25.609" height="29.035" transform="translate(0 0)" fill="url(#linear-gradient-5)"/>
                      </g>
                    </g>
                  </g>
                </g>
              </g>
              <path id="Trazado_888938" data-name="Trazado 888938" d="M17.1,86.228A3.172,3.172,0,1,1,13.933,89.4,3.167,3.167,0,0,1,17.1,86.228" transform="translate(1.559 9.649)" fill="#ff9c4d"/>
              <path id="Trazado_888939" data-name="Trazado 888939" d="M60.143,81.791v26.757a143.89,143.89,0,0,0-51.23,0V81.791A143.891,143.891,0,0,1,60.143,81.791Z" transform="translate(0.997 8.896)" fill="none" stroke="#3d54a1" stroke-linecap="round" stroke-linejoin="round" stroke-width="2.306"/>
              <circle id="Elipse_11601" data-name="Elipse 11601" cx="3.172" cy="3.172" r="3.172" transform="translate(15.496 95.872)" fill="none" stroke="#3d54a1" stroke-linecap="round" stroke-linejoin="round" stroke-width="1.174"/>
            </g>
          </g>
          <g id="Grupo_1101042" data-name="Grupo 1101042" transform="translate(31.617 32.702)">
            <g id="Grupo_1101041" data-name="Grupo 1101041" clip-path="url(#clip-path-14)">
              <rect id="Rectángulo_402385" data-name="Rectángulo 402385" width="0.139" height="0.14" transform="translate(-0.039 0.041) rotate(-46.209)" fill="url(#linear-gradient-6)"/>
            </g>
          </g>
        </g>
      </g>
    </g>
    <g id="Enmascarar_grupo_1098718" data-name="Enmascarar grupo 1098718" transform="matrix(-0.966, 0.259, -0.259, -0.966, 2767.316, 8738.096)" clip-path="url(#clip-path-5)">
      <path id="Trazado_888941" data-name="Trazado 888941" d="M63,0A63,63,0,1,1,0,63,63,63,0,0,1,63,0Z" transform="translate(570 4488)" fill="#ffb7b7"/>
      <g id="Grupo_1101065" data-name="Grupo 1101065" transform="matrix(0.259, 0.966, -0.966, 0.259, 669.455, 4505.899)">
        <g id="Grupo_1101064" data-name="Grupo 1101064" clip-path="url(#clip-path-6)">
          <g id="Grupo_1101061" data-name="Grupo 1101061" transform="translate(0 0)">
            <g id="Grupo_1101060" data-name="Grupo 1101060" clip-path="url(#clip-path-7)">
              <path id="Trazado_888942" data-name="Trazado 888942" d="M75.871,43.322A21.361,21.361,0,0,1,72.66,47.3a28.185,28.185,0,0,1-8.444,6.109l-.013.013a10.4,10.4,0,0,1-3.081.822c-5.716.509-6.408-3.08-6.069-5.468a15.635,15.635,0,0,0,1.931-1.253c3.851-2.911,12.57-14.279,14.031-17.856,9.972.862,7.505,8.968,4.856,13.653" transform="translate(6.153 3.32)" fill="#ffc79c"/>
              <path id="Trazado_888943" data-name="Trazado 888943" d="M72.056,30.8c-1.462,3.576-10.181,14.945-14.031,17.855a15.507,15.507,0,0,1-1.931,1.253c-3.146,1.762-6.109,1.828-8.276.1-2.6-2.088-2.284-5.939-1.827-7.6a17.215,17.215,0,0,0,2.076-1.409c4.02-3.107,7.688-8.08,10.336-11.134a29.484,29.484,0,0,0,6.1-10.233c6.866-.862,10.025,5.1,7.558,11.159" transform="translate(5.112 2.189)" fill="#ffc79c"/>
              <path id="Trazado_888944" data-name="Trazado 888944" d="M65.618,20.58a29.474,29.474,0,0,1-6.1,10.233c-2.65,3.054-6.317,8.027-10.337,11.134a17.128,17.128,0,0,1-2.075,1.41c-3.3,1.892-6.735,2.179-9.973-1.084a4.838,4.838,0,0,1-.926-1.3C34.5,37.456,37.582,32.9,37.582,32.9s.326-.43.9-1.149h.012c1.8-2.284,5.991-7.531,9.685-11.694A65.692,65.692,0,0,1,53.388,14.6c3.459-3.107,6.9-4.726,10.311-2.154,2.52,1.906,2.872,4.856,1.919,8.131" transform="translate(3.994 1.25)" fill="#ffc79c"/>
              <path id="Trazado_888945" data-name="Trazado 888945" d="M78.676,50.487S77.893,72.467,60.1,80.768a6.829,6.829,0,0,0-3.968,6.174v4.895a140.534,140.534,0,0,0-15.7-1.488A142.1,142.1,0,0,0,13.3,91.862l-.066-.444s.523-23.95-.157-30.112v-.013c-.157-.508-.287-1.031-.418-1.566A176.8,176.8,0,0,1,10.1,42.16c-.509-4.438-1.057-8.968-1.828-13.209C7.28,23.56,5.923,18.6,3.809,14.8a22.889,22.889,0,0,1-1.776-3.916C.22,5.64,1.616,2.259,4.657,1.5S12.88.954,18,10.129c2.388,4.269,4.763,10.508,6.878,19.487.078.314.143.627.221.94h.013a12.552,12.552,0,0,1,3.733.8,16.433,16.433,0,0,1,2.585,1.188.1.1,0,0,1,.051.027.5.5,0,0,1,.118.066v.012a19.959,19.959,0,0,1,8.145,9.489l.326-.052a4.806,4.806,0,0,0,.927,1.305c3.237,3.263,6.669,2.977,9.972,1.084-.457,1.657-.769,5.507,1.827,7.6,2.167,1.723,5.13,1.658,8.276-.1-.34,2.389.352,5.979,6.069,5.469,3.851-.339,8.432-3.785,11.538-6.944" transform="translate(0.137 0.137)" fill="#ffc79c"/>
              <g id="Grupo_1101049" data-name="Grupo 1101049" transform="translate(10.238 42.27)" opacity="0.2" style="mix-blend-mode: multiply;isolation: isolate">
                <g id="Grupo_1101048" data-name="Grupo 1101048">
                  <g id="Grupo_1101047" data-name="Grupo 1101047" clip-path="url(#clip-path-8)">
                    <g id="Grupo_1101046" data-name="Grupo 1101046" transform="translate(0 0)">
                      <g id="Grupo_1101045" data-name="Grupo 1101045" clip-path="url(#clip-path-9)">
                        <rect id="Rectángulo_402387" data-name="Rectángulo 402387" width="32.152" height="49.729" transform="translate(0 0)" fill="url(#linear-gradient-3)"/>
                      </g>
                    </g>
                  </g>
                </g>
              </g>
              <path id="Trazado_888947" data-name="Trazado 888947" d="M54.465,15.232a65.874,65.874,0,0,0-5.208,5.456c-3.694,4.163-7.883,9.41-9.685,11.694H39.56c-.575.718-.9,1.149-.9,1.149s-3.081,4.555-1.371,8.067l-.326.052c-3.068-6.826-7.675-9.632-10.9-10.781a31.79,31.79,0,0,1,3.041-7.883A43.041,43.041,0,0,1,35.1,14.37C42.6,5.978,47.965,4.1,51.477,6.526c3.916,2.729,2.989,8.706,2.989,8.706" transform="translate(2.917 0.62)" fill="#ffc79c"/>
              <g id="Grupo_1101054" data-name="Grupo 1101054" transform="translate(28.98 23.605)" opacity="0.2" style="mix-blend-mode: multiply;isolation: isolate">
                <g id="Grupo_1101053" data-name="Grupo 1101053">
                  <g id="Grupo_1101052" data-name="Grupo 1101052" clip-path="url(#clip-path-10)">
                    <g id="Grupo_1101051" data-name="Grupo 1101051" transform="translate(0 0)">
                      <g id="Grupo_1101050" data-name="Grupo 1101050" clip-path="url(#clip-path-11)">
                        <rect id="Rectángulo_402389" data-name="Rectángulo 402389" width="53.525" height="53.732" transform="translate(-17.22 17.963) rotate(-46.21)" fill="url(#linear-gradient-4)"/>
                      </g>
                    </g>
                  </g>
                </g>
              </g>
              <path id="Trazado_888949" data-name="Trazado 888949" d="M12.042,85.374s.53-23.976-.151-30.117" transform="translate(1.331 6.184)" fill="none" stroke="#e08f51" stroke-linecap="round" stroke-linejoin="round" stroke-width="2.451"/>
              <path id="Trazado_888950" data-name="Trazado 888950" d="M26.05,75.43s-10.384-2.73-13.382-15.7S9.992,25.9,3.817,14.811C-.337,7.357.915,2.435,4.667,1.5,9.387.323,19.3,1.5,26.05,34.939" transform="translate(0.137 0.137)" fill="none" stroke="#e08f51" stroke-linecap="round" stroke-linejoin="round" stroke-width="2.451"/>
              <path id="Trazado_888951" data-name="Trazado 888951" d="M22.7,27.61s16.184.168,17.776,25.646" transform="translate(2.541 3.09)" fill="none" stroke="#e08f51" stroke-linecap="round" stroke-linejoin="round" stroke-width="2.451"/>
              <path id="Trazado_888952" data-name="Trazado 888952" d="M54.473,15.235s.928-5.973-3-8.7C47.976,4.1,42.606,5.981,35.1,14.38c-7.481,8.37-9.024,16.5-9.024,16.5" transform="translate(2.918 0.621)" fill="none" stroke="#e08f51" stroke-linecap="round" stroke-linejoin="round" stroke-width="2.451"/>
              <path id="Trazado_888953" data-name="Trazado 888953" d="M37.586,32.9s5.747-7.353,10.6-12.836c5.2-5.886,10.407-11.477,15.527-7.615S64.987,24.5,59.527,30.812C54.318,36.836,45.1,50.318,37.149,42.272,33.642,38.724,37.586,32.9,37.586,32.9Z" transform="translate(3.995 1.25)" fill="none" stroke="#e08f51" stroke-linecap="round" stroke-linejoin="round" stroke-width="2.451"/>
              <path id="Trazado_888954" data-name="Trazado 888954" d="M45.993,42.425c-.456,1.653-.768,5.505,1.835,7.587s6.349,1.561,10.2-1.353S70.6,34.376,72.058,30.811c2.474-6.057-.69-12.033-7.553-11.168" transform="translate(5.113 2.189)" fill="none" stroke="#e08f51" stroke-linecap="round" stroke-linejoin="round" stroke-width="2.451"/>
              <path id="Trazado_888955" data-name="Trazado 888955" d="M55.064,48.785c-.34,2.391.342,5.973,6.058,5.462s13-7.794,14.758-10.919c2.644-4.692,5.118-12.8-4.862-13.649" transform="translate(6.154 3.321)" fill="none" stroke="#e08f51" stroke-linecap="round" stroke-linejoin="round" stroke-width="2.451"/>
              <path id="Trazado_888956" data-name="Trazado 888956" d="M73.151,45.534s-.773,21.971-18.567,30.275a6.822,6.822,0,0,0-3.968,6.171V86.9" transform="translate(5.664 5.096)" fill="none" stroke="#e08f51" stroke-linecap="round" stroke-linejoin="round" stroke-width="2.451"/>
              <path id="Trazado_888957" data-name="Trazado 888957" d="M14.09,80.95a143.905,143.905,0,0,1,42.211.209q1.918.274,3.837.627v26.757a144.354,144.354,0,0,0-51.23,0V81.786c1.722-.314,3.446-.588,5.181-.836m6.748,9.2a3.172,3.172,0,1,0-3.172,3.171,3.167,3.167,0,0,0,3.172-3.171" transform="translate(0.997 8.896)" fill="#c45858"/>
              <g id="Grupo_1101059" data-name="Grupo 1101059" transform="translate(35.526 88.404)" opacity="0.2" style="mix-blend-mode: screen;isolation: isolate">
                <g id="Grupo_1101058" data-name="Grupo 1101058">
                  <g id="Grupo_1101057" data-name="Grupo 1101057" clip-path="url(#clip-path-12)">
                    <g id="Grupo_1101056" data-name="Grupo 1101056" transform="translate(0 0)">
                      <g id="Grupo_1101055" data-name="Grupo 1101055" clip-path="url(#clip-path-13)">
                        <rect id="Rectángulo_402391" data-name="Rectángulo 402391" width="25.609" height="29.035" transform="translate(0 0)" fill="url(#linear-gradient-5)"/>
                      </g>
                    </g>
                  </g>
                </g>
              </g>
              <path id="Trazado_888959" data-name="Trazado 888959" d="M17.1,86.228A3.172,3.172,0,1,1,13.933,89.4,3.167,3.167,0,0,1,17.1,86.228" transform="translate(1.559 9.649)" fill="#ff9c4d"/>
              <path id="Trazado_888960" data-name="Trazado 888960" d="M60.143,81.791v26.757a143.89,143.89,0,0,0-51.23,0V81.791A143.891,143.891,0,0,1,60.143,81.791Z" transform="translate(0.997 8.896)" fill="none" stroke="#a13d3d" stroke-linecap="round" stroke-linejoin="round" stroke-width="2.306"/>
            </g>
          </g>
          <g id="Grupo_1101063" data-name="Grupo 1101063" transform="translate(31.617 32.702)">
            <g id="Grupo_1101062" data-name="Grupo 1101062" clip-path="url(#clip-path-14)">
              <rect id="Rectángulo_402394" data-name="Rectángulo 402394" width="0.139" height="0.14" transform="translate(-0.039 0.041) rotate(-46.209)" fill="url(#linear-gradient-6)"/>
            </g>
          </g>
        </g>
      </g>
    </g>
  </g>
</svg>
