<svg id="img25" xmlns="http://www.w3.org/2000/svg" xmlns:xlink="http://www.w3.org/1999/xlink" width="295" height="261" viewBox="0 0 295 261">
  <defs>
    <clipPath id="clip-path">
      <rect id="Rectángulo_401913" data-name="Rectángulo 401913" width="279.12" height="256.861" fill="none"/>
    </clipPath>
    <clipPath id="clip-path-4">
      <rect id="Rectángulo_401909" data-name="Rectángulo 401909" width="43.326" height="29.146" fill="none"/>
    </clipPath>
    <clipPath id="clip-path-5">
      <rect id="Rectángulo_401910" data-name="Rectángulo 401910" width="201.099" height="52.86" fill="none"/>
    </clipPath>
    <clipPath id="clip-path-6">
      <rect id="Rectángulo_401911" data-name="Rectángulo 401911" width="43.782" height="38.376" fill="none"/>
    </clipPath>
  </defs>
  <rect id="Rectángulo_401807" data-name="Rectángulo 401807" width="295" height="261" fill="none"/>
  <g id="Grupo_1100138" data-name="Grupo 1100138" transform="translate(7.88 2)">
    <g id="Grupo_1100137" data-name="Grupo 1100137" clip-path="url(#clip-path)">
      <g id="Grupo_1100125" data-name="Grupo 1100125">
        <g id="Grupo_1100124" data-name="Grupo 1100124" clip-path="url(#clip-path)">
          <path id="Trazado_875174" data-name="Trazado 875174" d="M11.018,336.477H281.189a1.08,1.08,0,0,0,0-2.16H11.018a1.08,1.08,0,1,0,0,2.16" transform="translate(-9.938 -105.918)" fill="#233863"/>
        </g>
      </g>
      <g id="Grupo_1100136" data-name="Grupo 1100136">
        <g id="Grupo_1100135" data-name="Grupo 1100135" clip-path="url(#clip-path)">
          <path id="Trazado_875175" data-name="Trazado 875175" d="M266.406,223.9h52.547a3.835,3.835,0,0,0,3.831-3.831V188.194a4.62,4.62,0,0,0-4.615-4.615h-37.7a.683.683,0,0,0,0,1.366h37.7a3.252,3.252,0,0,1,3.249,3.249v31.879a2.468,2.468,0,0,1-2.465,2.465H266.406a2.468,2.468,0,0,1-2.465-2.465V189.027a4.086,4.086,0,0,1,4.081-4.081H275.3a.683.683,0,1,0,0-1.366h-7.283a5.454,5.454,0,0,0-5.447,5.448v31.046a3.836,3.836,0,0,0,3.831,3.831" transform="translate(-223.05 -58.161)" fill="#ffa000"/>
          <path id="Trazado_875176" data-name="Trazado 875176" d="M287.375,231.746a.683.683,0,0,0,.455-1.194l-21.467-19.1a.683.683,0,1,0-.909,1.021l21.467,19.1a.68.68,0,0,0,.454.173" transform="translate(-190.136 -66.938)" fill="#ffa000"/>
          <path id="Trazado_875177" data-name="Trazado 875177" d="M315.041,232.563a.679.679,0,0,0,.453-.172l21.436-19a.683.683,0,0,0-.906-1.023l-21.436,19a.683.683,0,0,0,.453,1.194" transform="translate(-272.804 -67.227)" fill="#ffa000"/>
          <path id="Trazado_875178" data-name="Trazado 875178" d="M292.386,209.1a3.417,3.417,0,0,0,2.026-.667l27.18-19.975a.683.683,0,1,0-.809-1.1L293.6,207.329a2.047,2.047,0,0,1-2.427,0l-26.6-19.393a.683.683,0,0,0-.8,1.1l26.6,19.393a3.413,3.413,0,0,0,2.015.66" transform="translate(-222.763 -59.316)" fill="#ffa000"/>
          <path id="Trazado_875179" data-name="Trazado 875179" d="M336.874,168.88a1.6,1.6,0,0,1-1.9,0L312.368,152.4a4.752,4.752,0,0,1,3.7-1.769h40.545a3.921,3.921,0,0,1,3.083,1.5.633.633,0,0,0-.079.036Z" transform="translate(-293.983 -47.723)" fill="#2f7ded"/>
          <path id="Trazado_875180" data-name="Trazado 875180" d="M334.369,177.784a2.964,2.964,0,0,0,3.513-.007l3.452-2.537,17.442,15.517c.013.012.029.016.043.026a3.144,3.144,0,0,1-1.221.246H314.653a3.125,3.125,0,0,1-.706-.087l17.362-15.389Z" transform="translate(-294.181 -55.52)" fill="#2f7ded"/>
          <path id="Trazado_875181" data-name="Trazado 875181" d="M311.126,167.866l18.085-13.29a3.919,3.919,0,0,1,.2,1.237v25.522a3.131,3.131,0,0,1-.874,2.169.668.668,0,0,0-.187-.314Z" transform="translate(-262.848 -48.973)" fill="#2f7ded"/>
          <path id="Trazado_875182" data-name="Trazado 875182" d="M357.115,183.75a.674.674,0,0,0-.091.12,3.128,3.128,0,0,1-1.154-2.417V156.764a4.744,4.744,0,0,1,.36-1.815L374.543,168.3Z" transform="translate(-338.547 -49.091)" fill="#2f7ded"/>
          <g id="Grupo_1100128" data-name="Grupo 1100128" transform="translate(13.417 169.759)" opacity="0.69">
            <g id="Grupo_1100127" data-name="Grupo 1100127">
              <g id="Grupo_1100126" data-name="Grupo 1100126" clip-path="url(#clip-path-4)">
                <path id="Trazado_875183" data-name="Trazado 875183" d="M329.334,277.63H365a3.835,3.835,0,0,0,3.831-3.831V253.1a4.62,4.62,0,0,0-4.615-4.615H330.951a5.453,5.453,0,0,0-5.448,5.447V273.8a3.835,3.835,0,0,0,3.831,3.831m34.88-27.78a3.252,3.252,0,0,1,3.249,3.249v20.7A2.468,2.468,0,0,1,365,276.264H329.334a2.467,2.467,0,0,1-2.464-2.465V253.931a4.086,4.086,0,0,1,4.081-4.081Z" transform="translate(-325.503 -248.484)" fill="#fff"/>
                <rect id="Rectángulo_401907" data-name="Rectángulo 401907" width="20.488" height="1.367" transform="matrix(-0.747, -0.665, 0.665, -0.747, 40.895, 28.309)" fill="#fff"/>
                <rect id="Rectángulo_401908" data-name="Rectángulo 401908" width="1.366" height="20.426" transform="matrix(-0.663, -0.748, 0.748, -0.663, 2.583, 28.685)" fill="#fff"/>
                <path id="Trazado_875184" data-name="Trazado 875184" d="M348.2,266.952a2.627,2.627,0,0,0,1.56-.514l19.382-14.244-.808-1.1-19.383,14.244a1.27,1.27,0,0,1-1.5,0l-20.08-14.64-.8,1.1,20.08,14.64a2.627,2.627,0,0,0,1.553.508" transform="translate(-326.539 -249.186)" fill="#fff"/>
              </g>
            </g>
          </g>
          <path id="Trazado_875185" data-name="Trazado 875185" d="M370.257,146.859a8.582,8.582,0,1,0,8.582-8.582,8.582,8.582,0,0,0-8.582,8.582" transform="translate(-361.253 -43.809)" fill="#ffa000"/>
          <path id="Trazado_875186" data-name="Trazado 875186" d="M377.265,152.584h.941v-5.679l.954.585v-.973l-.954-.637h-.941Z" transform="translate(-357.78 -46.218)" fill="#fff"/>
          <path id="Trazado_875187" data-name="Trazado 875187" d="M385.606,152.113a1.934,1.934,0,0,0,.486-1.4v-3.047a1.927,1.927,0,0,0-.488-1.4,2.286,2.286,0,0,0-2.852,0,1.927,1.927,0,0,0-.486,1.406v3.047a1.921,1.921,0,0,0,.489,1.4,2.278,2.278,0,0,0,2.851,0m-2.162-.652a1.074,1.074,0,0,1-.238-.749v-3.047a1.084,1.084,0,0,1,.236-.749,1.175,1.175,0,0,1,1.475,0,1.084,1.084,0,0,1,.235.749v3.047a1.08,1.08,0,0,1-.236.749,1.17,1.17,0,0,1-1.472,0" transform="translate(-368.128 -46.18)" fill="#fff"/>
          <path id="Trazado_875188" data-name="Trazado 875188" d="M1.765,128.678a1.752,1.752,0,0,0,1.265-.541l5.784-6a2.059,2.059,0,0,1,1.475-.627l56.825-.066a5.728,5.728,0,0,0,5.721-5.722V94.172a5.728,5.728,0,0,0-5.722-5.722H6.515A6.522,6.522,0,0,0,0,94.964v31.95a1.765,1.765,0,0,0,1.765,1.763M67.114,89.816a4.359,4.359,0,0,1,4.355,4.355v21.546a4.359,4.359,0,0,1-4.355,4.355l-56.825.066a3.433,3.433,0,0,0-2.458,1.045l-5.783,6a.384.384,0,0,1-.434.092.381.381,0,0,1-.247-.367V94.964a5.154,5.154,0,0,1,5.148-5.148Z" transform="translate(206.285 -28.023)" fill="#2f7ded"/>
          <path id="Trazado_875189" data-name="Trazado 875189" d="M61.645,106.463H76.2a.683.683,0,0,0,0-1.366H61.645a.683.683,0,1,0,0,1.366" transform="translate(160.584 -33.297)" fill="#ffa000"/>
          <path id="Trazado_875190" data-name="Trazado 875190" d="M16.046,106.463H38.334a.683.683,0,1,0,0-1.366H16.046a.683.683,0,1,0,0,1.366" transform="translate(229.608 -33.297)" fill="#ffa000"/>
          <path id="Trazado_875191" data-name="Trazado 875191" d="M29.281,114.057h36.67a.683.683,0,1,0,0-1.366H29.281a.683.683,0,1,0,0,1.366" transform="translate(192.948 -35.703)" fill="#ffa000"/>
          <path id="Trazado_875192" data-name="Trazado 875192" d="M47.392,121.65h24.3a.683.683,0,1,0,0-1.366h-24.3a.683.683,0,1,0,0,1.366" transform="translate(174.837 -38.108)" fill="#ffa000"/>
          <path id="Trazado_875193" data-name="Trazado 875193" d="M56.575,81.064H76.316a2.319,2.319,0,0,1,1.671.711l4.911,5.1a.916.916,0,0,0,1.576-.635V59.108a4.952,4.952,0,0,0-4.952-4.952H55.789a4.03,4.03,0,0,0-4.029,4.03V76.25a4.815,4.815,0,0,0,4.815,4.814" transform="translate(159.285 -17.158)" fill="#ffb937"/>
          <path id="Trazado_875194" data-name="Trazado 875194" d="M62.057,73.941a1.69,1.69,0,1,0,1.69-1.69,1.69,1.69,0,0,0-1.69,1.69" transform="translate(171.287 -22.891)" fill="#fff"/>
          <path id="Trazado_875195" data-name="Trazado 875195" d="M73.653,73.941a1.69,1.69,0,1,0,1.69-1.69,1.69,1.69,0,0,0-1.69,1.69" transform="translate(151.768 -22.891)" fill="#fff"/>
          <path id="Trazado_875196" data-name="Trazado 875196" d="M85.521,73.941a1.69,1.69,0,1,0,1.69-1.69,1.69,1.69,0,0,0-1.69,1.69" transform="translate(131.792 -22.891)" fill="#fff"/>
          <path id="Trazado_875197" data-name="Trazado 875197" d="M76.176,168.806a21.769,21.769,0,1,1-21.769-21.769,21.769,21.769,0,0,1,21.769,21.769" transform="translate(180.646 -46.584)" fill="#efb499"/>
          <path id="Trazado_875198" data-name="Trazado 875198" d="M62.282,194.1a4.728,4.728,0,0,0,4.7-4.184l.089-.762H57.494l.089.762a4.729,4.729,0,0,0,4.7,4.184m3.163-3.579a3.367,3.367,0,0,1-6.326,0Z" transform="translate(172.771 -59.926)" fill="#fff"/>
          <path id="Trazado_875199" data-name="Trazado 875199" d="M52.2,177.208H69.011v-7.722a8.081,8.081,0,0,0-8.071-8.072h-.671a8.081,8.081,0,0,0-8.072,8.072Zm15.447-1.366H53.563v-6.356a6.713,6.713,0,0,1,6.705-6.705h.671a6.712,6.712,0,0,1,6.7,6.705Z" transform="translate(174.449 -51.139)" fill="#fff"/>
          <path id="Trazado_875200" data-name="Trazado 875200" d="M51.871,188.42H67.326a2.849,2.849,0,0,0,2.846-2.845v-.2a2.849,2.849,0,0,0-2.846-2.845H51.871a2.849,2.849,0,0,0-2.846,2.845v.2a2.849,2.849,0,0,0,2.846,2.845M67.322,183.9a1.482,1.482,0,0,1,1.484,1.479v.2a1.482,1.482,0,0,1-1.48,1.479H51.871a1.481,1.481,0,0,1-1.48-1.479v-.2a1.481,1.481,0,0,1,1.48-1.479Z" transform="translate(175.455 -57.83)" fill="#fff"/>
          <path id="Trazado_875201" data-name="Trazado 875201" d="M119.2,13.668A13.668,13.668,0,1,1,105.533,0,13.668,13.668,0,0,1,119.2,13.668" transform="translate(97.158 0)" fill="#2f7ded"/>
          <path id="Trazado_875202" data-name="Trazado 875202" d="M112.279,12.09h-1.517v8.042h1.517Zm0,9.3h-1.517v1.517h1.517Z" transform="translate(91.17 -3.83)" fill="#fff"/>
          <path id="Trazado_875203" data-name="Trazado 875203" d="M272.8,64.65H344.46a6.9,6.9,0,0,1,6.9,6.9v37.785a1.276,1.276,0,0,1-2.194.885l-6.839-7.1a3.232,3.232,0,0,0-2.327-.989l-67.2-.078a5.958,5.958,0,0,1-5.958-5.959V70.608A5.958,5.958,0,0,1,272.8,64.65" transform="translate(-254.534 -20.482)" fill="#ffb937"/>
          <path id="Trazado_875204" data-name="Trazado 875204" d="M292.937,84.7h17.217a.683.683,0,0,0,0-1.366H292.937a.683.683,0,1,0,0,1.366" transform="translate(-231.38 -26.403)" fill="#fff"/>
          <path id="Trazado_875205" data-name="Trazado 875205" d="M333.485,84.7h26.358a.683.683,0,0,0,0-1.366H333.485a.683.683,0,0,0,0,1.366" transform="translate(-308.77 -26.403)" fill="#fff"/>
          <path id="Trazado_875206" data-name="Trazado 875206" d="M292.936,93.684H336.3a.683.683,0,0,0,0-1.366H292.936a.683.683,0,1,0,0,1.366" transform="translate(-257.527 -29.248)" fill="#fff"/>
          <path id="Trazado_875207" data-name="Trazado 875207" d="M292.936,102.664h28.735a.683.683,0,0,0,0-1.366H292.936a.683.683,0,1,0,0,1.366" transform="translate(-242.895 -32.093)" fill="#fff"/>
          <path id="Trazado_875208" data-name="Trazado 875208" d="M269.549,54.124H249.583a2.346,2.346,0,0,0-1.689.719L242.926,60a.926.926,0,0,1-1.594-.642V31.916a5.008,5.008,0,0,1,5.008-5.008h24a4.076,4.076,0,0,1,4.075,4.076v18.27a4.869,4.869,0,0,1-4.87,4.87" transform="translate(-160.172 -8.525)" fill="#ffe2b7"/>
          <path id="Trazado_875209" data-name="Trazado 875209" d="M277.763,46.918a1.71,1.71,0,1,1-1.71-1.709,1.71,1.71,0,0,1,1.71,1.709" transform="translate(-186.07 -14.323)" fill="#fff"/>
          <path id="Trazado_875210" data-name="Trazado 875210" d="M266.035,46.918a1.71,1.71,0,1,1-1.709-1.709,1.71,1.71,0,0,1,1.709,1.709" transform="translate(-166.329 -14.323)" fill="#fff"/>
          <path id="Trazado_875211" data-name="Trazado 875211" d="M254.031,46.918a1.71,1.71,0,1,1-1.709-1.709,1.71,1.71,0,0,1,1.709,1.709" transform="translate(-146.124 -14.323)" fill="#fff"/>
          <path id="Trazado_875212" data-name="Trazado 875212" d="M370.77,66.882a10.612,10.612,0,1,0,10.612-10.613A10.613,10.613,0,0,0,370.77,66.882" transform="translate(-366.177 -17.827)" fill="#2f7ded"/>
          <path id="Trazado_875213" data-name="Trazado 875213" d="M383.777,74.232h1.46V65.414l1.481.909V64.813l-1.481-.988h-1.46Z" transform="translate(-369.786 -20.221)" fill="#fff"/>
          <g id="Grupo_1100131" data-name="Grupo 1100131" transform="translate(68.209 162.964)" opacity="0.61">
            <g id="Grupo_1100130" data-name="Grupo 1100130">
              <g id="Grupo_1100129" data-name="Grupo 1100129" clip-path="url(#clip-path-5)">
                <path id="Trazado_875214" data-name="Trazado 875214" d="M225.219,296.623H243.1a.683.683,0,1,0,0-1.366H225.219a.683.683,0,0,0,0,1.366" transform="translate(-186.272 -256.507)" fill="#fff"/>
                <path id="Trazado_875215" data-name="Trazado 875215" d="M267.333,296.623h27.375a.683.683,0,1,0,0-1.366H267.333a.683.683,0,1,0,0,1.366" transform="translate(-266.65 -256.507)" fill="#fff"/>
                <path id="Trazado_875216" data-name="Trazado 875216" d="M225.219,305.949H270.26a.683.683,0,1,0,0-1.366H225.219a.683.683,0,1,0,0,1.366" transform="translate(-213.43 -259.462)" fill="#fff"/>
                <path id="Trazado_875217" data-name="Trazado 875217" d="M225.219,315.276h29.843a.683.683,0,1,0,0-1.366H225.219a.683.683,0,1,0,0,1.366" transform="translate(-198.232 -262.417)" fill="#fff"/>
                <path id="Trazado_875218" data-name="Trazado 875218" d="M15.046,281.865H61.261a.683.683,0,1,0,0-1.366H15.046a.683.683,0,1,0,0,1.366" transform="translate(139.155 -251.831)" fill="#fff"/>
                <path id="Trazado_875219" data-name="Trazado 875219" d="M15.046,260.963H61.261a.683.683,0,1,0,0-1.366H15.046a.683.683,0,1,0,0,1.366" transform="translate(139.155 -245.209)" fill="#fff"/>
                <path id="Trazado_875220" data-name="Trazado 875220" d="M46.222,271.414H71.138a.683.683,0,1,0,0-1.366H46.222a.683.683,0,1,0,0,1.366" transform="translate(107.979 -248.52)" fill="#fff"/>
                <path id="Trazado_875221" data-name="Trazado 875221" d="M46.222,249.879H71.138a.683.683,0,1,0,0-1.366H46.222a.683.683,0,1,0,0,1.366" transform="translate(107.979 -241.698)" fill="#fff"/>
                <path id="Trazado_875222" data-name="Trazado 875222" d="M58.1,239.9H74.9a.683.683,0,0,0,0-1.366H58.1a.683.683,0,0,0,0,1.366" transform="translate(96.105 -238.537)" fill="#fff"/>
              </g>
            </g>
          </g>
          <path id="Trazado_875223" data-name="Trazado 875223" d="M129.142,66.139c.02-.009.072-.01.059-.027-8.37-11.162,2.106-25.979,11.233-26.894a28.393,28.393,0,0,1,12.351-8.885,27.9,27.9,0,0,1,8.188-1.688,12.584,12.584,0,1,1,21.936,8.492,28.014,28.014,0,0,1,5.114,7.124c.318.635.6,1.277.869,1.922A19.2,19.2,0,0,1,199.967,81.5c3.474,1.832,5.672,4.355,5.9,7.276.266,3.4-2.188,6.68-6.351,9.219a12.714,12.714,0,0,1,1.343,5.672c0,7.824-7.189,14.166-16.057,14.166a16.511,16.511,0,0,1-13.976-7.193,43.334,43.334,0,0,1-6.319,3.388c-11.816,5.142-23.564,4.326-26.24-1.823a7.653,7.653,0,0,1-.064-5.514,15.175,15.175,0,0,1-2.09-.5c-23.875-7.625-27.1-30.938-6.973-40.049" transform="translate(-8.809 -5.117)" fill="#233863"/>
          <path id="Trazado_875224" data-name="Trazado 875224" d="M85.036,214.039l1.6-4.5L74.654,202.7l-.377-.215v-1.17c0-22.013,14.145-39.857,31.6-39.857H124.4l-.238.442,32.668.264c8.145.066,15.049,5.916,17.737,14.1l23.011,51.362-3.311.405-18.873,2.309-.426,52.21-80.912.021-2.671-42.606L88.338,235,86.872,232.6a21.937,21.937,0,0,1-1.836-18.563" transform="translate(30.803 -51.154)" fill="#feebcf"/>
          <path id="Trazado_875225" data-name="Trazado 875225" d="M116.882,255.673l19.163-2.235a.342.342,0,0,0,.3-.378.348.348,0,0,0-.378-.3l-18.557,2.164-5.268-22.738a.342.342,0,0,0-.666.155Z" transform="translate(66.622 -73.477)" fill="#374081"/>
          <path id="Trazado_875226" data-name="Trazado 875226" d="M159.833,184.4A20.287,20.287,0,0,0,180.1,164.138v-2.286a.5.5,0,1,0-.991,0v2.286a19.274,19.274,0,1,1-38.547,0v-2.286a.495.495,0,1,0-.99,0v2.286A20.287,20.287,0,0,0,159.833,184.4" transform="translate(3.671 -51.121)" fill="#233863"/>
          <path id="Trazado_875227" data-name="Trazado 875227" d="M145.108,173.375a.5.5,0,0,0,.41-.217,16.732,16.732,0,0,0,2.882-9.418v-1.888a.495.495,0,0,0-.99,0v1.888A15.745,15.745,0,0,1,144.7,172.6a.495.495,0,0,0,.41.773" transform="translate(31.923 -51.121)" fill="#233863"/>
          <path id="Trazado_875228" data-name="Trazado 875228" d="M164.276,187.356a16.634,16.634,0,0,0,10.48-3.663.495.495,0,0,0-.617-.773,15.835,15.835,0,0,1-19.717.008.494.494,0,0,0-.616.773,16.636,16.636,0,0,0,10.47,3.656" transform="translate(-0.772 -57.918)" fill="#233863"/>
          <path id="Trazado_875229" data-name="Trazado 875229" d="M191.913,172.285a.488.488,0,0,0,.245-.065.5.5,0,0,0,.186-.675,15.835,15.835,0,0,1-2.054-7.805v-1.888a.5.5,0,0,0-.991,0v1.888a16.827,16.827,0,0,0,2.184,8.294.494.494,0,0,0,.43.251" transform="translate(-42.613 -51.121)" fill="#233863"/>
          <path id="Trazado_875230" data-name="Trazado 875230" d="M63.617,327.25l12.762-19.192c2.91-3.732,4.585-8.256,7.977-9.179l2.286-.582-.014-.037,57.24-14.223-4.722-20.949,34.21-4.186,10.565,34.846a19.73,19.73,0,0,1,.015,8.821,19.519,19.519,0,0,1-18.84,15.921l-60.353-.151c-6.268,6.563-25.867,20-25.867,20A2.218,2.218,0,0,1,75.3,336l-.161-.031c-.063.018-.115.025-.176.042l-.837.812a2.469,2.469,0,0,1-3.481-.051l-.06-.062a2.438,2.438,0,0,1-.676-1.558l-.018.018a2.47,2.47,0,0,1-3.482.039l-.062-.06a2.47,2.47,0,0,1-.039-3.482l.236-.241c.033-.088.066-.174.1-.259a2.463,2.463,0,0,1-2.929-.371l-.062-.06a2.47,2.47,0,0,1-.039-3.482" transform="translate(51.707 -82.025)" fill="#ffba94"/>
          <path id="Trazado_875231" data-name="Trazado 875231" d="M224.329,361.292a.339.339,0,0,0,.244-.1l7.592-7.764a.342.342,0,1,0-.488-.478l-7.591,7.764a.342.342,0,0,0,.244.581" transform="translate(-106.166 -111.788)" fill="#fb8e77"/>
          <path id="Trazado_875232" data-name="Trazado 875232" d="M218.427,365.748a.339.339,0,0,0,.244-.1l7.592-7.764a.342.342,0,0,0-.488-.478l-7.591,7.764a.342.342,0,0,0,.244.581" transform="translate(-96.232 -113.2)" fill="#fb8e77"/>
          <path id="Trazado_875233" data-name="Trazado 875233" d="M211.073,368.18a.342.342,0,0,0,.237-.1l7.822-7.531a.342.342,0,0,0-.473-.493l-7.822,7.532a.342.342,0,0,0,.237.588" transform="translate(-84.085 -114.044)" fill="#fb8e77"/>
          <path id="Trazado_875234" data-name="Trazado 875234" d="M104.73,295.336a.344.344,0,0,0,.1-.016l17.617-5.662a.341.341,0,1,0-.209-.65l-17.617,5.662a.342.342,0,0,0,.1.667" transform="translate(85.114 -91.558)" fill="#fb8e77"/>
          <path id="Trazado_875235" data-name="Trazado 875235" d="M168.122,75.388c3.363.5,6.553,3.614,9.109,7.031a11.3,11.3,0,0,0,1.293,1.45,10.476,10.476,0,0,0,12.257,1.43l.941-.167a7.713,7.713,0,0,1,8.946,6.24l.025.143a7.713,7.713,0,0,1-6.241,8.947l-1.9.337.5,2.8a20.418,20.418,0,0,1,.267,5l4.406,24.73a13.166,13.166,0,1,1-25.925,4.618l-1.759-9.876a20.37,20.37,0,0,1-20.116-16.792l-.337-1.9L145.41,85.912c4.707-.583,21.368-3.154,22.712-10.524" transform="translate(-21.036 -23.884)" fill="#ffba94"/>
          <g id="Grupo_1100134" data-name="Grupo 1100134" transform="translate(128.557 76.914)" opacity="0.46">
            <g id="Grupo_1100133" data-name="Grupo 1100133">
              <g id="Grupo_1100132" data-name="Grupo 1100132" clip-path="url(#clip-path-6)">
                <path id="Trazado_875236" data-name="Trazado 875236" d="M179.923,137.653l.378-.067a20.372,20.372,0,0,0,16.775-20.993,4.319,4.319,0,0,1,2.188-4.01l.5,2.8a20.323,20.323,0,0,1-4.464,16.678L178.7,150.959l-1.946-10.921.409-.176a20.373,20.373,0,0,1-20.531-16.791l-.337-1.9a20.367,20.367,0,0,0,23.624,16.479" transform="translate(-156.3 -112.583)" fill="#fb8e77"/>
              </g>
            </g>
          </g>
          <path id="Trazado_875237" data-name="Trazado 875237" d="M194.125,140.72a.342.342,0,0,0,.236-.589,3.835,3.835,0,0,0-4.238-.624.341.341,0,0,0,.318.6,3.085,3.085,0,0,1,3.45.516.344.344,0,0,0,.235.093" transform="translate(-45.109 -44.068)" fill="#fb8e77"/>
          <path id="Trazado_875238" data-name="Trazado 875238" d="M194.837,107.867a1.273,1.273,0,1,0,1.03-1.476,1.272,1.272,0,0,0-1.03,1.476" transform="translate(-51.338 -33.7)" fill="#233863"/>
          <path id="Trazado_875239" data-name="Trazado 875239" d="M216.884,111.8a1.273,1.273,0,1,0,1.03-1.476,1.272,1.272,0,0,0-1.03,1.476" transform="translate(-88.447 -34.945)" fill="#233863"/>
          <path id="Trazado_875240" data-name="Trazado 875240" d="M202.357,117a7.073,7.073,0,0,0,2.2-.391.342.342,0,0,0-.214-.649c-2.872.945-4.1-.234-4.494-.786a.469.469,0,0,1-.082-.348l1.466-9.627a.341.341,0,1,0-.675-.1l-1.466,9.627a1.154,1.154,0,0,0,.2.849,3.593,3.593,0,0,0,3.06,1.429" transform="translate(-61.687 -33.204)" fill="#fb8e77"/>
          <path id="Trazado_875241" data-name="Trazado 875241" d="M184.7,128.278l2.638-1.523a6.831,6.831,0,0,0,2.5-9.332l-.195-.337-10.024,5.788,2.761,4.783a1.7,1.7,0,0,0,2.319.622" transform="translate(-34.349 -37.095)" fill="#fff"/>
          <path id="Trazado_875242" data-name="Trazado 875242" d="M187.093,110.06A7.978,7.978,0,0,0,187.1,94.1h-.009a7.978,7.978,0,0,0-.008,15.956Zm6.612-7.971a6.619,6.619,0,0,1-6.612,6.6h-.007a6.611,6.611,0,0,1,.006-13.223h.008a6.62,6.62,0,0,1,6.6,6.619" transform="translate(-38.318 -29.814)" fill="#fff"/>
          <path id="Trazado_875243" data-name="Trazado 875243" d="M213.646,115.229a7.978,7.978,0,0,0,.009-15.956h-.009a7.978,7.978,0,0,0-.008,15.956Zm6.612-7.971a6.62,6.62,0,0,1-6.612,6.6h-.007a6.611,6.611,0,0,1,.007-13.223h.008a6.62,6.62,0,0,1,6.6,6.619" transform="translate(-83.013 -31.452)" fill="#fff"/>
          <path id="Trazado_875244" data-name="Trazado 875244" d="M201.887,108.889a.564.564,0,0,0,.067,0l2.841-.277a.683.683,0,0,0-.133-1.36l-2.841.277a.683.683,0,0,0,.066,1.363" transform="translate(-63.75 -33.977)" fill="#fff"/>
          <path id="Trazado_875245" data-name="Trazado 875245" d="M195.1,88.985a3.657,3.657,0,0,1-1.517.029c-.536-.061-1.077-.109-1.547-.134s-1.015-.036-1.555-.033a3.635,3.635,0,0,1-1.5-.191c-.4-.193-.534-.693-.022-1.27a4.182,4.182,0,0,1,3.255-1.057,4.053,4.053,0,0,1,3.084,1.4c.428.628.222,1.109-.2,1.258" transform="translate(-45.273 -27.348)" fill="#233863"/>
          <path id="Trazado_875246" data-name="Trazado 875246" d="M215.936,94.242a3.649,3.649,0,0,0,1.426-.518c.479-.25.965-.489,1.4-.682s.935-.4,1.439-.589a3.63,3.63,0,0,0,1.332-.719c.3-.322.25-.838-.435-1.193a4.185,4.185,0,0,0-3.418.183,4.061,4.061,0,0,0-2.376,2.414c-.173.74.191,1.115.636,1.1" transform="translate(-89.643 -28.597)" fill="#233863"/>
          <path id="Trazado_875247" data-name="Trazado 875247" d="M155.306,101.4a.341.341,0,0,0,.085-.672l-2.434-.626,1.105-4.081a.341.341,0,1,0-.659-.178l-1.287,4.749,3.106.8a.327.327,0,0,0,.085.01" transform="translate(19.549 -30.284)" fill="#fb8e77"/>
          <path id="Trazado_875248" data-name="Trazado 875248" d="M250.663,183.731h18.825a3.336,3.336,0,0,0,3.337-3.336V144.215a3.336,3.336,0,0,0-3.337-3.336H250.663a3.336,3.336,0,0,0-3.336,3.336V180.4a3.336,3.336,0,0,0,3.336,3.336" transform="translate(-162.673 -44.633)" fill="#233863"/>
          <path id="Trazado_875249" data-name="Trazado 875249" d="M234.189,217.1l2.094-37.977-.5-4.608a24.642,24.642,0,0,1,5.239-17.968c.384-.483.763-.963,1.14-1.418v-6.2a2.45,2.45,0,0,1,2.449-2.45,2.362,2.362,0,0,1,2.362,2.362v2.352a8.105,8.105,0,0,0,8.1,8.106l7.07.01,10.58-.9a2.5,2.5,0,0,1,1.123,4.829c.093.028.187.059.281.092l.294-.025a2.511,2.511,0,0,1,.427,5h-.005a2.491,2.491,0,0,1,.8,1.558,2.518,2.518,0,0,1-2.217,2.774l-1.111.124c-.051.037-.1.074-.152.111,0,0-.028.055-.078.144a2.223,2.223,0,0,1-.463,4.26s-7.781,2.563-11.14,3.509l2.845,14.731.607,3.141,3.846-.7,11.978,6.83-1.6,4.5A21.939,21.939,0,0,0,280,227.855l1.466,2.395-5.851,2.4c-7.387,3.034-18.075,6.19-25.992,4.311a23.555,23.555,0,0,1-6.106-2.218c-5.7-2.975-9.663-9.769-9.326-17.65" transform="translate(-162.324 -46.407)" fill="#ffba94"/>
          <path id="Trazado_875250" data-name="Trazado 875250" d="M244.933,171.929h.03L255.806,171a.341.341,0,0,0,.311-.369.348.348,0,0,0-.37-.312l-10.843.926a.342.342,0,0,0,.029.682" transform="translate(-144.099 -53.961)" fill="#fb8e77"/>
          <path id="Trazado_875251" data-name="Trazado 875251" d="M245.245,179.333h.03l10.843-.926a.341.341,0,0,0,.311-.369.344.344,0,0,0-.37-.312l-10.843.926a.342.342,0,0,0,.029.682" transform="translate(-144.624 -56.306)" fill="#fb8e77"/>
          <path id="Trazado_875252" data-name="Trazado 875252" d="M247.918,186.569h.04l10.811-1.253a.342.342,0,0,0-.079-.679l-10.811,1.253a.341.341,0,0,0,.039.68" transform="translate(-149.09 -58.496)" fill="#fb8e77"/>
          <path id="Trazado_875253" data-name="Trazado 875253" d="M258.6,238.518a.317.317,0,0,0,.079-.01.34.34,0,0,0,.253-.411l-5.421-22.99a.338.338,0,0,0-.411-.253.342.342,0,0,0-.253.411l5.422,22.989a.341.341,0,0,0,.332.263" transform="translate(-152.562 -68.067)" fill="#fb8e77"/>
          <path id="Trazado_875254" data-name="Trazado 875254" d="M239.138,224.905l6.906-15.982a.342.342,0,1,0-.627-.271l-6.6,15.281-12.023-6.856a.342.342,0,1,0-.339.594Z" transform="translate(-121.541 -66.04)" fill="#374081"/>
        </g>
      </g>
    </g>
  </g>
</svg>
