<svg xmlns="http://www.w3.org/2000/svg" xmlns:xlink="http://www.w3.org/1999/xlink" width="400" height="450" viewBox="0 0 400 450">
  <defs>
    <clipPath id="clip-path">
      <rect id="Rectángulo_401860" data-name="Rectángulo 401860" width="321.955" height="447.846" fill="none"/>
    </clipPath>
    <clipPath id="clip-path-3">
      <rect id="Rectángulo_401855" data-name="Rectángulo 401855" width="8.534" height="11.057" transform="translate(224.333 79.545)" fill="none"/>
    </clipPath>
    <clipPath id="clip-path-4">
      <rect id="Rectángulo_401856" data-name="Rectángulo 401856" width="7.906" height="7.905" transform="translate(239.261 81.121)" fill="none"/>
    </clipPath>
    <clipPath id="clip-path-5">
      <rect id="Rectángulo_401857" data-name="Rectángulo 401857" width="8.534" height="11.057" transform="translate(94.609 75.529)" fill="none"/>
    </clipPath>
    <clipPath id="clip-path-6">
      <rect id="Rectángulo_401858" data-name="Rectángulo 401858" width="7.905" height="7.905" transform="translate(80.31 77.105)" fill="none"/>
    </clipPath>
  </defs>
  <g id="img2" transform="translate(-915 -901)">
    <circle id="Elipse_11589" data-name="Elipse 11589" cx="183.5" cy="183.5" r="183.5" transform="translate(936 950)" fill="#ffe9df"/>
    <g id="Grupo_1100044" data-name="Grupo 1100044">
      <rect id="Rectángulo_401659" data-name="Rectángulo 401659" width="400" height="450" transform="translate(915 901)" fill="none"/>
      <g id="Grupo_1100043" data-name="Grupo 1100043" transform="translate(954 902)">
        <g id="Grupo_1100042" data-name="Grupo 1100042" clip-path="url(#clip-path)">
          <g id="Grupo_1100041" data-name="Grupo 1100041">
            <g id="Grupo_1100040" data-name="Grupo 1100040" clip-path="url(#clip-path)">
              <path id="Trazado_873613" data-name="Trazado 873613" d="M321.955,426.372c0,11.86-72.072,21.474-160.977,21.474S0,438.232,0,426.372Z" fill="#f4d3b0"/>
              <path id="Trazado_873614" data-name="Trazado 873614" d="M214.343,40.74c0,22.5-25.641,40.749-57.272,40.749a78.746,78.746,0,0,1-10.887-.742l-30.7,9.855,17.2-12.982C113.247,71.107,99.8,57.045,99.8,40.74,99.8,18.244,125.44,0,157.071,0s57.272,18.244,57.272,40.74" fill="#f4d3b0"/>
              <path id="Trazado_873615" data-name="Trazado 873615" d="M161.65,66.617c0,14.477,12.81,26.212,28.62,26.212a30.588,30.588,0,0,0,13.166-2.934q7.041,3.446,14.367,6.236-4.436-4.83-8.942-9.59a25.287,25.287,0,0,0,10.028-19.924c0-14.482-12.817-26.218-28.619-26.218s-28.62,11.736-28.62,26.218" fill="#de9270"/>
              <path id="Trazado_873616" data-name="Trazado 873616" d="M302.835,383.824H268.868Q254.382,325.83,244.078,266.9v-.009q-1.938-11.033-3.71-22.1l-1.176.191q-15.828-9.057-31.507-18.4,2.521-11.79,5.1-23.588c6.261,2.592,13.053,3.834,19.779,4.8a136.751,136.751,0,0,0,20.466,1.649,90.837,90.837,0,0,0,29.784-5.285c3.255,7.728,4.68,16.276,5.93,24.641,2.444,16.391,4.481,32.832,6.262,49.306q5.678,52.7,7.827,105.711" fill="#242456"/>
              <path id="Trazado_873617" data-name="Trazado 873617" d="M244.078,266.89v.008c-9.409,37.81-21.005,78.464-32.9,115.587H175.8c9.723-51.038,20.979-105.1,31.879-155.9,10.445,6.228,22.131,12.167,32.683,18.205q1.777,11.058,3.711,22.1" fill="#1a1a42"/>
              <path id="Trazado_873618" data-name="Trazado 873618" d="M197.663,416.814v-.033c-4.448.364-6.966.522-11.347-.3-3.148-.58-6.386-1.566-8.7-3.752,1.864-11.091,2.518-19.08,3.877-30.245h26.926c-4.439,12.316-7.4,21.68-10.759,34.328" fill="#c9804f"/>
              <path id="Trazado_873619" data-name="Trazado 873619" d="M197.977,432.285h-58.21c0-10.627,37.512-19.887,37.512-19.887.108.116.223.224.339.332,2.311,2.186,5.55,3.172,8.7,3.752,4.382.82,6.9.662,11.347.3v.033Z" fill="#1a1a42"/>
              <path id="Trazado_873620" data-name="Trazado 873620" d="M301,412.159l-20.624-.6-6.265-27.739h25.514c.315,9.177,1.143,19.3,1.375,28.335" fill="#c9804f"/>
              <path id="Trazado_873621" data-name="Trazado 873621" d="M302.512,432.285H270.177c0-19.953,9.69-20.74,9.69-20.74l.514.017,20.623.6Z" fill="#1a1a42"/>
              <path id="Trazado_873622" data-name="Trazado 873622" d="M196.627,422a12.077,12.077,0,0,0-6.057,7.571H156.194a.377.377,0,0,0,.021-.258,19.715,19.715,0,0,0-3.884-7.52c-.341-.411-.924.178-.586.586a18.754,18.754,0,0,1,3.672,7.154.223.223,0,0,0,.019.038H143.088a.415.415,0,0,0,0,.829h53.3a.415.415,0,0,0,0-.829h-4.953a11.258,11.258,0,0,1,5.607-6.856c.474-.245.055-.96-.418-.715" fill="#ffa631"/>
              <path id="Trazado_873623" data-name="Trazado 873623" d="M297.432,430.378H272.8a.414.414,0,0,0,0,.828h24.637a.414.414,0,0,0,0-.828" fill="#ffa631"/>
              <path id="Trazado_873624" data-name="Trazado 873624" d="M299.929,429.208a23.758,23.758,0,0,0-4.171-7.173,12.478,12.478,0,0,0-6.293-3.576,15.486,15.486,0,0,0-13.8,3.823,20.843,20.843,0,0,0-5.023,6.953c-.218.482.495.9.715.418,1.975-4.367,5.452-8.254,10.039-9.914,4.418-1.6,9.83-.931,13.3,2.395,2.138,2.05,3.388,4.806,4.522,7.492.206.489.92.068.715-.418" fill="#ffa631"/>
              <path id="Trazado_873625" data-name="Trazado 873625" d="M291.676,346.834q-1.822-17.462-3.646-34.922l-3.645-34.921c-1.168-11.183-2.2-22.392-3.7-33.537a175.868,175.868,0,0,0-6.916-31.995q-.641-1.926-1.346-3.828c-.183-.5-.984-.281-.8.22a158.53,158.53,0,0,1,7.666,31.633c1.664,11.126,2.685,22.344,3.853,33.53q1.814,17.374,3.628,34.749l3.627,34.749q1.824,17.462,3.646,34.922.227,2.16.451,4.322c.055.524.884.53.829,0q-1.824-17.462-3.646-34.922" fill="#ffe7ca"/>
              <path id="Trazado_873626" data-name="Trazado 873626" d="M238.425,263.854q-4.383,17.356-8.765,34.713-4.356,17.256-8.714,34.512l-4.914,19.463a.414.414,0,0,0,.8.22q4.383-17.356,8.765-34.712,4.357-17.256,8.714-34.513,2.457-9.73,4.915-19.463a.415.415,0,0,0-.8-.22" fill="#ffe7ca"/>
              <path id="Trazado_873627" data-name="Trazado 873627" d="M213.392,359.475l-5.784,20.747a.415.415,0,0,0,.8.22l5.784-20.747a.415.415,0,0,0-.8-.22" fill="#ffe7ca"/>
              <path id="Trazado_873628" data-name="Trazado 873628" d="M278.011,232.85a48.694,48.694,0,0,1-19.346-21.287c-.226-.482-.94-.062-.715.419a49.59,49.59,0,0,0,19.643,21.583.414.414,0,0,0,.418-.715" fill="#ffe7ca"/>
              <path id="Trazado_873629" data-name="Trazado 873629" d="M259.525,109.182C258.349,123.8,244.3,131.694,244.3,131.694c-14.627-9.724-11.828-21.99-11.828-21.99l1.922-5.773a13.977,13.977,0,0,1-12.573-13.865v-19.4a.055.055,0,0,1,.041-.033,28.346,28.346,0,0,1,15.248-8.548,36.33,36.33,0,0,0,9.741,9.807,12.466,12.466,0,0,0,4.24,2.029L251.2,74a1.646,1.646,0,0,1,.265-.315,3.433,3.433,0,0,1,2.054-.9,4.847,4.847,0,0,1,4.373,2.054,5.57,5.57,0,0,1,.887,2.377,8.829,8.829,0,0,1,.049,1.93,9.973,9.973,0,0,1-1.772,4.961,8.883,8.883,0,0,1-2.866,2.576l3.172,13.368Z" fill="#c9804f"/>
              <path id="Trazado_873630" data-name="Trazado 873630" d="M249.76,96.725c-.166,2.783-1.831,12.979-17.286,12.979l1.458-4.382.464-1.391c.455.041.9.066,1.366.066h1.773a13.967,13.967,0,0,0,12.225-7.272" fill="#232333"/>
              <path id="Trazado_873631" data-name="Trazado 873631" d="M260.275,71.384a17.847,17.847,0,0,1-1.491,5.823,5.556,5.556,0,0,0-.886-2.377,4.85,4.85,0,0,0-4.373-2.055,3.43,3.43,0,0,0-2.054.9,1.577,1.577,0,0,0-.265.315l-.108-.075a12.453,12.453,0,0,1-4.241-2.029A36.335,36.335,0,0,1,238,63.342a26.435,26.435,0,0,1-3.71,3.619,26.792,26.792,0,0,1-7.364,4.175,25.176,25.176,0,0,1-4.174,1.167,9.327,9.327,0,0,1-4.8-.14,4.955,4.955,0,0,1-2.965-2.684,5.929,5.929,0,0,1-.157-3.876c.77-2.75,3.147-4.547,5.5-5.964-1.491-1.441-2.749-3.3-2.551-5.458a4.2,4.2,0,0,1,3.413-3.793,20.49,20.49,0,0,1,3.255-.365c1.25-.1,2.5-.19,3.752-.29,2.683-.207,5.375-.439,8.067-.613a22.123,22.123,0,0,1,7.156-.4,20.121,20.121,0,0,1,11.1,4.679,12.923,12.923,0,0,1,1.226,1.193,13.061,13.061,0,0,1,.878,1.027c3.379,4.373,4.232,10.271,3.644,15.762" fill="#232333"/>
              <path id="Trazado_873632" data-name="Trazado 873632" d="M302.689,88.672a14.677,14.677,0,0,1-14.826,4.555,22.141,22.141,0,0,1-4.878-2.211c-4.415-2.551-8.548-5.939-10.759-10.535a34.469,34.469,0,0,1-2.51-9.534,34.01,34.01,0,0,0-2.543-9.516c-1.441-2.966-3.934-5.591-7.131-6.4a16.752,16.752,0,0,0-3.272-.389l-1.018-.05a12.792,12.792,0,0,0-1.226-1.192c2.3-3.479,6.965-4.73,11.132-4.349a11.886,11.886,0,0,1,5.665,1.831c3.843,2.642,5.036,8.084,8.978,10.585,3.611,2.294,8.308,1.391,12.532,2.071a16.208,16.208,0,0,1,12.291,9.723,15.417,15.417,0,0,1-2.435,15.406" fill="#232333"/>
              <g id="Grupo_1100030" data-name="Grupo 1100030" opacity="0.8" style="mix-blend-mode: overlay;isolation: isolate">
                <g id="Grupo_1100029" data-name="Grupo 1100029">
                  <g id="Grupo_1100028" data-name="Grupo 1100028" clip-path="url(#clip-path-3)">
                    <path id="Trazado_873633" data-name="Trazado 873633" d="M232.767,85.253c-.386,2.648-2.266,5.281-5.158,5.347-1.149.029-2.664-.413-3.153-1.569-.562-1.34.945-2.126,1.673-2.961a5.764,5.764,0,0,0,1.058-1.79,6.948,6.948,0,0,0,.2-.687c.253-1.443.554-3.042,1.971-3.794a2.169,2.169,0,0,1,2.964,1.025,5.316,5.316,0,0,1,.505,2.081,10.252,10.252,0,0,1-.061,2.348" fill="#2e333f"/>
                  </g>
                </g>
              </g>
              <g id="Grupo_1100033" data-name="Grupo 1100033" opacity="0.8" style="mix-blend-mode: overlay;isolation: isolate">
                <g id="Grupo_1100032" data-name="Grupo 1100032">
                  <g id="Grupo_1100031" data-name="Grupo 1100031" clip-path="url(#clip-path-4)">
                    <path id="Trazado_873634" data-name="Trazado 873634" d="M247.142,85.508a3.952,3.952,0,1,1-3.494-4.363,3.952,3.952,0,0,1,3.494,4.363" fill="#2e333f"/>
                  </g>
                </g>
              </g>
              <path id="Trazado_873635" data-name="Trazado 873635" d="M225.977,75.19a1.249,1.249,0,0,0-1.5-.851,19.021,19.021,0,0,0-3.349,1.025,1.333,1.333,0,0,0-.728.56,1.242,1.242,0,0,0-.123.939,1.23,1.23,0,0,0,.56.728,1.177,1.177,0,0,0,.939.123,19.021,19.021,0,0,1,3.349-1.025,1.219,1.219,0,0,0,.852-1.5" fill="#232333"/>
              <path id="Trazado_873636" data-name="Trazado 873636" d="M240.079,75.1a30.1,30.1,0,0,0-4.036-.9,1.337,1.337,0,0,0-.939.123,1.219,1.219,0,0,0-.437,1.668,1.179,1.179,0,0,0,.728.56,29.939,29.939,0,0,1,4.036.9,1.231,1.231,0,0,0,1.5-.851,1.243,1.243,0,0,0-.851-1.5" fill="#232333"/>
              <path id="Trazado_873637" data-name="Trazado 873637" d="M233.229,96.805a3.883,3.883,0,0,0,2.671-.385,4.125,4.125,0,0,0,1.643-1.894,6.821,6.821,0,0,0,.533-2.819,3.21,3.21,0,0,0-.814-2.487,1.834,1.834,0,0,0-2.213-.125,5.246,5.246,0,0,0-1.406,2.308,4.6,4.6,0,0,0-2.39.215,2.576,2.576,0,0,0-1.62,1.931c-.252,1.9,2.072,2.975,3.6,3.256" fill="#232333"/>
              <path id="Trazado_873638" data-name="Trazado 873638" d="M234.582,79.977a2.342,2.342,0,1,0,2.34-2.43,2.387,2.387,0,0,0-2.34,2.43" fill="#232333"/>
              <path id="Trazado_873639" data-name="Trazado 873639" d="M221.635,79.977a2.342,2.342,0,1,0,2.34-2.43,2.387,2.387,0,0,0-2.34,2.43" fill="#232333"/>
              <path id="Trazado_873640" data-name="Trazado 873640" d="M253.263,77.444a2.62,2.62,0,0,1,1.986-2.333,1.689,1.689,0,0,1,2.019,1.754c-.057.494-.84.5-.782,0a.88.88,0,0,0-.713-.985,1.38,1.38,0,0,0-1.274.536,2.49,2.49,0,0,0-.5,1.446,1.251,1.251,0,0,0,.694,1.253,3.07,3.07,0,0,1,.5,4.774.391.391,0,0,1-.553-.553,2.271,2.271,0,0,0,.065-3.217c-.383-.39-.934-.564-1.225-1.051a2.448,2.448,0,0,1-.221-1.624" fill="#232333"/>
              <path id="Trazado_873641" data-name="Trazado 873641" d="M303.685,168.969q-1.963-9.442-3.967-18.876c-1.69-8-3.421-16.027-6.279-23.688a26.047,26.047,0,0,0-4.24-7.943c-4.423-5.218-11.513-6.833-18-9.268-1.417-3.172-4.473-5.293-7.529-6.966a15.163,15.163,0,0,0-6.312-2.178l2.162,9.135C258.346,123.8,244.3,131.7,244.3,131.7c-14.627-9.724-11.828-21.991-11.828-21.991l1.458-4.381a13.348,13.348,0,0,0-6.9,5.052c-4.067,1.69-8.457,2.493-12.631,3.926-4.332,1.491-8.639,3.86-10.975,7.811a21.452,21.452,0,0,0-2.269,6.493c-2.319,10.585-2.427,21.51-2.452,32.36a106.654,106.654,0,0,0-7.032-11.3,17.9,17.9,0,0,0-4.083-4.456,7.72,7.72,0,0,0-3.8-1.433c-.5.348-.986.712-1.474,1.077q-3.789,2.795-7.5,5.69c-.365.281-.721.563-1.077.853-1.764,3.611-1.425,8.191.149,12,1.888,4.564,5.251,8.333,8.266,12.242,4.315,5.6,8.059,11.662,12.929,16.78,1.591,1.665,3.4,3.28,5.632,3.794a9.733,9.733,0,0,0,7.413-1.8,42.229,42.229,0,0,0,4.771-4.009c-.787,3.893-1.458,7.819-2,11.753.621.3,1.251.571,1.888.836,6.262,2.593,13.054,3.835,19.779,4.8a136.638,136.638,0,0,0,20.466,1.648,90.811,90.811,0,0,0,29.785-5.284c.969-.339,1.938-.7,2.9-1.085-.622-2.766-1.226-5.524-1.839-8.291a96.532,96.532,0,0,0,15.985-12.018,14.352,14.352,0,0,0,3.951-5.094c1.06-2.749.472-5.83-.124-8.713m-29.892-2.319-1.11-10.892.008-.008c.688,1.1,1.4,2.2,2.112,3.288,1.061,1.632,2.146,3.264,3.231,4.887a24.46,24.46,0,0,0-4.241,2.725" fill="#ffa631"/>
              <path id="Trazado_873642" data-name="Trazado 873642" d="M215.022,141.55c1-2.814,2.092-5.6,3.22-8.366q1.942-4.767,4.1-9.444c.221-.481-.493-.9-.715-.418q-3.91,8.49-7.139,17.275a33.748,33.748,0,0,0-2.223,8.737,17.378,17.378,0,0,0,1.113,7.684,17.727,17.727,0,0,0,4.6,6.741q-1.268,10.019-3.511,19.879-.64,2.81-1.359,5.6a.414.414,0,0,0,.8.22q2.568-9.987,4.136-20.2c.268-1.754.508-3.513.732-5.274a.362.362,0,0,0,.052-.564.317.317,0,0,0-.274-.26,16.93,16.93,0,0,1-5.511-13.057,29.142,29.142,0,0,1,1.977-8.557" fill="#242456"/>
              <path id="Trazado_873643" data-name="Trazado 873643" d="M208.1,177.791q-3.521-7.143-7.038-14.287c-.235-.479-.95-.059-.715.418q3.519,7.143,7.037,14.287c.235.478.95.059.716-.418" fill="#242456"/>
              <path id="Trazado_873644" data-name="Trazado 873644" d="M206.973,166.733a24.16,24.16,0,0,0-4.545-4.663.427.427,0,0,0-.585,0,.417.417,0,0,0,0,.586,23.468,23.468,0,0,1,4.415,4.495.427.427,0,0,0,.566.149.418.418,0,0,0,.149-.567" fill="#242456"/>
              <path id="Trazado_873645" data-name="Trazado 873645" d="M284.444,195.44c-1.532,1.11-3.114,2.162-4.729,3.139a58.681,58.681,0,0,1-8.8,4.481,13.935,13.935,0,0,1-8.241.986c.273.372.555.728.845,1.085.331.414-.249,1-.588.588a36.41,36.41,0,0,1-8.109-25.436c.033-.53.862-.53.828,0-.074,1.085-.091,2.17-.066,3.255a17.044,17.044,0,0,1,7.363-8.208,16.626,16.626,0,0,1,2.75-1.218,12.966,12.966,0,0,0,1.657-.571,3.533,3.533,0,0,0,1.317-1.176,30.442,30.442,0,0,1,4.315-5.028c.265-.232.538-.464.812-.679v-.008a24.453,24.453,0,0,1,4.24-2.725c-1.085-1.624-2.17-3.255-3.23-4.887-.712-1.093-1.425-2.187-2.112-3.288q-4.958-7.716-9.583-15.629a.414.414,0,0,1,.712-.423q1.6,2.747,3.247,5.45,5.666,9.393,11.778,18.5a.408.408,0,0,1,.174.663.457.457,0,0,1-.323.191,23.648,23.648,0,0,0-5.864,4.1,23.061,23.061,0,0,0-2.145,2.361,26.089,26.089,0,0,1-1.955,2.6,6.665,6.665,0,0,1-2.824,1.341,16.163,16.163,0,0,0-10.1,10.379.4.4,0,0,1-.132.19c.016.215.024.431.049.646a35.892,35.892,0,0,0,6.146,16.822,10.146,10.146,0,0,0,5.168.381A30.462,30.462,0,0,0,276,199.739a68.186,68.186,0,0,0,8.034-5.02c.431-.306.845.406.414.721" fill="#242456"/>
              <path id="Trazado_873646" data-name="Trazado 873646" d="M298.851,171.993a28.123,28.123,0,0,0-16.743-7.513c-.531-.047-.528.782,0,.828a27.205,27.205,0,0,1,16.157,7.271c.388.365.975-.219.586-.586" fill="#242456"/>
              <path id="Trazado_873647" data-name="Trazado 873647" d="M292.384,172.512a15.009,15.009,0,0,0-4.516-3.94.414.414,0,0,0-.418.715,14.013,14.013,0,0,1,4.219,3.643.427.427,0,0,0,.566.149.417.417,0,0,0,.149-.567" fill="#242456"/>
              <path id="Trazado_873648" data-name="Trazado 873648" d="M242.663,132.295a44.269,44.269,0,0,1-12.312-14.736,43.678,43.678,0,0,1-2.218-5.05c-.182-.5-.982-.282-.8.22a44.764,44.764,0,0,0,14.91,20.281c.423.324.836-.395.418-.715" fill="#242456"/>
              <path id="Trazado_873649" data-name="Trazado 873649" d="M270.317,110.126c-1.515,3.942-4.649,6.953-7.69,9.758a131.142,131.142,0,0,1-10.513,8.731q-3.108,2.316-6.347,4.446c-.443.292-.028,1.01.418.715a133.816,133.816,0,0,0,11.328-8.344q2.7-2.217,5.277-4.574a57.555,57.555,0,0,0,4.591-4.557,20.092,20.092,0,0,0,3.735-5.955c.191-.5-.61-.713-.8-.22" fill="#242456"/>
              <path id="Trazado_873650" data-name="Trazado 873650" d="M228.311,180.023a44.439,44.439,0,0,1-8.672,20.91c-.322.425.4.838.715.418a45.01,45.01,0,0,0,8.756-21.108c.072-.521-.726-.747-.8-.22" fill="#242456"/>
              <path id="Trazado_873651" data-name="Trazado 873651" d="M259.083,204.68a57.833,57.833,0,0,1-36.493-2.511c-.492-.2-.707.6-.22.8a58.668,58.668,0,0,0,36.933,2.511.415.415,0,0,0-.22-.8" fill="#242456"/>
              <path id="Trazado_873652" data-name="Trazado 873652" d="M249.149,180.206l-15.506-1.029c-.533-.036-.53.793,0,.828l15.506,1.029c.532.036.53-.793,0-.828" fill="#242456"/>
              <path id="Trazado_873653" data-name="Trazado 873653" d="M182.315,144.855q-3.789,2.8-7.5,5.69c-.182-.041-.356-.083-.538-.132q-9.567-2.361-19.141-4.721a11.961,11.961,0,0,1-4.4-1.731,8.907,8.907,0,0,1-3.007-5.169,38.81,38.81,0,0,1-7.206-6.717,6.357,6.357,0,0,1-.977-1.582,1,1,0,0,1-.025-.828.929.929,0,0,1,.745-.373,2.365,2.365,0,0,1,.87.108,4.324,4.324,0,0,1-.4-1.756.686.686,0,0,1,.125-.489.725.725,0,0,1,.6-.149,6.356,6.356,0,0,1,1.615.356,2.747,2.747,0,0,1-.273-.754,1.223,1.223,0,0,1,.348-1.143c.505-.422,1.251-.19,1.863.05q8.424,3.455,17.071,6.328a19.179,19.179,0,0,1-4.1-4.63,1.452,1.452,0,0,1-.315-1.135c.191-.613,1.011-.712,1.657-.654,3.619.348,6.982,1.946,10.254,3.512,3.23,1.549,6.618,3.238,8.547,6.245,1.9,2.965,2.121,6.833,4.183,9.674" fill="#c9804f"/>
              <path id="Trazado_873654" data-name="Trazado 873654" d="M156.883,135.694l-12.532-8.39c-.444-.3-.859.419-.418.715l12.532,8.39c.444.3.859-.42.418-.715" fill="#242456"/>
              <path id="Trazado_873655" data-name="Trazado 873655" d="M159,140.28l-3.014-.661-1.407-.309a1.714,1.714,0,0,1-1.754-1.467c-.152-.41-.315-.814-.507-1.207a11.02,11.02,0,0,0-1.27-2.005c-.747-.943-2.432-2.722-3.577-1.237a2.135,2.135,0,0,0-.323.664l-5.027-4.27c-.4-.343-.993.24-.586.586l5.232,4.443a.413.413,0,0,0,.2.092c-.022.187-.037.373-.05.55a8.553,8.553,0,0,0,.273,2.795.415.415,0,0,0,.8-.22,7.817,7.817,0,0,1-.244-2.575c.043-.568.09-1.819.9-1.781.7.034,1.363.975,1.759,1.471a10.245,10.245,0,0,1,1.195,1.9c.288.592.451,1.244.761,1.824a2.218,2.218,0,0,0,1.468,1.111c1.624.441,3.3.729,4.948,1.09.519.114.741-.685.22-.8" fill="#242456"/>
              <path id="Trazado_873656" data-name="Trazado 873656" d="M113.085,414.426H82.63L94.408,264.1c-3.156,21.585-6.941,47.534-7.4,50.631-.8,5.409-30.165,96.244-30.165,96.244a28.452,28.452,0,0,1-4.025-.124,47.391,47.391,0,0,1-15.754-4.994,56.775,56.775,0,0,1-6.278-3.628l21.783-92.335s-11.157-42.249-9.541-69.764c.381-6.493,3.429-23.837,5.135-29.643a5.476,5.476,0,0,0,.977,1.482,5.8,5.8,0,0,0-.977-1.482s49.546,9.4,76.622-6.2l1.275,3.14,6.361,22.147c.083.986,7.057,84.59-19.331,184.851" fill="#ffa631"/>
              <path id="Trazado_873657" data-name="Trazado 873657" d="M52.809,431.113H30.777c-11.96,0,6.279-25.262,6.279-25.262a47.37,47.37,0,0,0,15.753,4.995v.149c3.28,18.619,0,20.118,0,20.118" fill="#1a1a42"/>
              <path id="Trazado_873658" data-name="Trazado 873658" d="M134.773,431.113H87.115V414.424h23.829c20.317,2.468,23.829,16.689,23.829,16.689" fill="#1a1a42"/>
              <path id="Trazado_873659" data-name="Trazado 873659" d="M119.576,228.617l-21.97,8.869a.454.454,0,0,0-.606.371q-1.062,10.37-2.126,20.74-.306,2.978-.611,5.956c-.054.529.775.525.828,0l2.127-20.741q.282-2.755.565-5.51l22.013-8.886c.488-.2.275-1-.22-.8" fill="#242456"/>
              <path id="Trazado_873660" data-name="Trazado 873660" d="M97.395,319.061l-3.933,34.772q-1.956,17.281-3.911,34.566L87.34,407.946c-.06.529.769.523.828,0q1.968-17.388,3.934-34.772l3.91-34.567,2.211-19.546c.06-.529-.769-.524-.828,0" fill="#242456"/>
              <path id="Trazado_873661" data-name="Trazado 873661" d="M99.877,213.944c-.1-.523-.9-.3-.8.22a171.426,171.426,0,0,1,2.595,18.506l-2.131.361q-1.323-9.183-2.647-18.366c-.076-.526-.874-.3-.8.22q1.349,9.366,2.7,18.733c.034.236.313.323.51.289l2.924-.495a.415.415,0,0,0,.305-.4,173.716,173.716,0,0,0-2.658-19.068" fill="#242456"/>
              <path id="Trazado_873662" data-name="Trazado 873662" d="M130.508,429.3h-42.6a.414.414,0,0,0,0,.828h42.6a.414.414,0,0,0,0-.828" fill="#ffa631"/>
              <path id="Trazado_873663" data-name="Trazado 873663" d="M130.115,405.72c-1.6-1.989-4.619-.5-6.409.385a23.3,23.3,0,0,0-10.247,10.03,4.646,4.646,0,0,1-1.44.155c-1.344-.08-2.665-.425-4.013-.516a22.891,22.891,0,0,0-8.185.935,4.224,4.224,0,0,0-2.475,1.5,1.92,1.92,0,0,0,.637,2.581c1.082.773,2.706.7,3.975.678a21.42,21.42,0,0,0,11.881-3.807.429.429,0,0,0,.08-.632c.036-.073.077-.143.114-.215a10.05,10.05,0,0,0,1.193-.453c1.345-.617,2.68-1.257,4.02-1.885q4.065-1.908,8.13-3.815a5.925,5.925,0,0,0,2.783-2.081,2.52,2.52,0,0,0-.044-2.862m-27.632,14.908c-.583.023-1.168.021-1.751-.007a4.6,4.6,0,0,1-2.139-.419,1.149,1.149,0,0,1-.6-1.46,2.384,2.384,0,0,1,1.281-.975,16.918,16.918,0,0,1,3.912-.974,22.03,22.03,0,0,1,4.248-.222c1.419.06,2.788.361,4.194.514a5.5,5.5,0,0,0,1.386-.041.409.409,0,0,0,.013.149,20.7,20.7,0,0,1-6.67,2.9,20.344,20.344,0,0,1-3.877.53m25.336-11.1c-1.24.66-2.545,1.213-3.817,1.809l-7.946,3.728c-.485.228-.966.469-1.455.678a22.578,22.578,0,0,1,8.539-8.4,20,20,0,0,1,3.139-1.431c1.062-.368,2.944-.681,3.415.74.434,1.308-.879,2.351-1.875,2.881" fill="#ffa631"/>
              <path id="Trazado_873664" data-name="Trazado 873664" d="M128.386,418.674c-1.111-.742-2.8-.383-4-.1a11.833,11.833,0,0,0-1.847.613,2.685,2.685,0,0,0,.846-1.315,1.716,1.716,0,0,0-1.948-2.214,9.658,9.658,0,0,0-3.91,1.743,13.928,13.928,0,0,0-3.25,3.081c-.325.422.394.835.715.418a12.655,12.655,0,0,1,5.788-4.228c.5-.173,1.274-.42,1.668.074a1.266,1.266,0,0,1-.136,1.471c-.73,1.012-2,1.44-2.565,2.609-.16.33.2.839.566.566a11.565,11.565,0,0,1,3.535-1.814,6.986,6.986,0,0,1,3.648-.4c.592.166.925.6.548,1.184a5.764,5.764,0,0,1-1.546,1.34,19.637,19.637,0,0,1-3.651,2.046c-.488.21-.067.924.418.715a19.816,19.816,0,0,0,4.464-2.658,3,3,0,0,0,1.3-1.7,1.437,1.437,0,0,0-.646-1.437" fill="#ffa631"/>
              <path id="Trazado_873665" data-name="Trazado 873665" d="M52.341,426.933a36.41,36.41,0,0,1-23.809-.534c-.5-.185-.716.615-.219.8a37.479,37.479,0,0,0,18.934,1.812,36.741,36.741,0,0,0,5.314-1.278c.506-.162.29-.962-.22-.8" fill="#ffa631"/>
              <path id="Trazado_873666" data-name="Trazado 873666" d="M58.767,409.81a7.147,7.147,0,0,0-3.292-.43A22.609,22.609,0,0,0,42.061,414.2a20.7,20.7,0,0,0-4.148-4.315,20.3,20.3,0,0,0-2.571-1.694,11.217,11.217,0,0,0-2.846-1.235,2.672,2.672,0,0,0-2.374.377,2.188,2.188,0,0,0-.443,2.521,5.588,5.588,0,0,0,2.125,2.176A19.833,19.833,0,0,0,34.7,413.7a20.654,20.654,0,0,0,7.326,1.916.361.361,0,0,0,.391-.429c.17.01.345.012.517.026q2,.163,4.014.164a50.706,50.706,0,0,0,7.715-.59c1.8-.275,5.122-.466,5.4-2.846a2.175,2.175,0,0,0-1.291-2.131m-26.544,1.5c-.856-.6-2.044-1.422-1.92-2.617.249-2.423,4.328.015,5.265.581a19.767,19.767,0,0,1,4.972,4.277c.314.377.607.769.892,1.168a19.314,19.314,0,0,1-9.209-3.409m26.148,1.729a10.213,10.213,0,0,1-3.633.9q-1.98.315-3.98.464a50.386,50.386,0,0,1-7.593-.016,21.718,21.718,0,0,1,11.621-4.157,7.938,7.938,0,0,1,3.527.278,1.46,1.46,0,0,1,.932,1.132,1.63,1.63,0,0,1-.874,1.4" fill="#ffa631"/>
              <path id="Trazado_873667" data-name="Trazado 873667" d="M44.26,423.064a26.515,26.515,0,0,1-3.672,1.733q-.939.354-1.9.637c-.481.142-1.49.55-1.859-.011-.33-.5.366-1.154.682-1.473a8.716,8.716,0,0,1,1.45-1.183,9.2,9.2,0,0,1,3.3-1.317c.469-.09.344-.805-.11-.813l-3.416-.061c-.441-.007-2.323.191-2.21-.663.058-.433.586-.759.928-.951a9.467,9.467,0,0,1,1.391-.642,10.477,10.477,0,0,1,3.1-.631c.53-.027.534-.855,0-.828a11.3,11.3,0,0,0-3.8.852c-.919.386-2.4,1.021-2.444,2.209-.043,1.093,1.082,1.426,1.966,1.463.673.028,1.348.039,2.023.048a9.658,9.658,0,0,0-1.714,1.026c-.869.659-2.565,2-1.911,3.275.748,1.457,2.888.516,4,.134a27.581,27.581,0,0,0,4.625-2.089.414.414,0,0,0-.418-.715" fill="#ffa631"/>
              <path id="Trazado_873668" data-name="Trazado 873668" d="M115.434,181.294c-9.326,4.34-19.862,5.955-30.132,7.413a93.48,93.48,0,0,1-23.2.257c-1.68-.2-3.329-.447-4.943-.743q-.519,1.421-1.059,2.833c-1.066,2.8-2.066,5.609-2.99,8.451q.511,1.365,1.041,2.744c1.267,3.313,2.609,6.659,3.9,9.848,0,0,39.649,7.786,66.725-7.811Z" fill="#ffb27d"/>
              <path id="Trazado_873669" data-name="Trazado 873669" d="M128.722,147.561a56.886,56.886,0,0,1-12.548,5.11,31.039,31.039,0,0,1-.075,5.409,32.579,32.579,0,0,1-1.424,6.527.174.174,0,0,0-.017.066q1.715,3.739,3.164,7.6.211.522.4,1.044c.671,1.822,1.3,3.669,1.88,5.524a47.429,47.429,0,0,1-4.663,2.46c-9.326,4.34-19.862,5.955-30.132,7.413a93.481,93.481,0,0,1-23.2.257,72.233,72.233,0,0,1-8.821-1.566l-.149-.016c.058-.729.116-1.458.182-2.2.017-.282.042-.572.067-.862.621-7.553,1.259-15.289,1.83-22.247.025-.3.05-.588.075-.878.024-.314.049-.621.074-.927-.48.058-.961.1-1.449.141-.439.041-.887.074-1.326.091-2.716.174-5.458.14-8.183.049-4.6-.165-9.409-.588-13.591-2.368a17.65,17.65,0,0,1-2.129-1.069q.235-3.368.53-6.759c.041-.422.075-.844.116-1.275.994-10.544,2.766-21.038,7.628-30.289q.273-.535.572-1.069c.116-.207.232-.406.348-.613a23.167,23.167,0,0,1,3.023-4.282c3.346-3.619,8.216-5.45,13.07-6.3,4.837-.845,9.773-.828,14.66-1.4l-.058.249S72.79,117.3,82.679,117.4s12.954-11.513,12.954-11.513l-.265-.795c5.467,1.3,11.331,1.632,16.184,4.473,4.108,2.4,6.974,6.3,9.177,10.6.133.249.257.506.381.762.787,1.591,1.483,3.222,2.129,4.846,1.714,4.356,3.189,8.8,4.663,13.252q.882,2.658,1.773,5.334c.107.331.215.654.323.986.124.381.256.762.381,1.142-.539.373-1.094.729-1.657,1.069" fill="#242456"/>
              <path id="Trazado_873670" data-name="Trazado 873670" d="M75.719,228.728c-1.209,1.723-7.6,1.035-7.6,1.035-1.839,5.7-8.553,13.705-8.553,13.705l-6.339-11.229c-3.09-3-17.816-23.356-18.744-25.41a26.74,26.74,0,0,1-1.839-8.051c-1.507-13.467-1.085-27.067-1.83-40.593,4.183,1.781,8.986,2.2,13.592,2.369a74.306,74.306,0,0,0,10.957-.282c-.687,8.341-1.482,17.957-2.228,27.109-.29,3.413-.563,6.759-.828,9.948.588,1.615,1.209,3.263,1.847,4.92,1.267,3.313,2.609,6.659,3.9,9.848,1.6,3.925,3.139,7.62,4.431,10.7,0,0,14.437,4.2,13.236,5.93" fill="#ffb27d"/>
              <path id="Trazado_873671" data-name="Trazado 873671" d="M142.153,213.091c-.9,6.411-5.582,11.372-9.74,16.474v.008c-.588.713-1.16,1.433-1.706,2.154l-4.912-14.047s-7.6,5.35-8.639,3.453,2.477-5.988,5.756-10.5a15.028,15.028,0,0,1,3.14-3.205,11.532,11.532,0,0,1,4.24-2.079A247.218,247.218,0,0,0,114.671,164.6a32.512,32.512,0,0,0,1.425-6.527,31.127,31.127,0,0,0,.075-5.408,56.888,56.888,0,0,0,12.548-5.111c5.243,18.1,8.754,36.642,12.515,55.1.7,3.437,1.408,6.949.919,10.428" fill="#ffb27d"/>
              <path id="Trazado_873672" data-name="Trazado 873672" d="M67.987,229.416A54.455,54.455,0,0,1,57.022,246.33c-1.226,1.287-2.522,2.5-3.868,3.665q-.588-4.867-1.177-9.734l-.489-4.049c-.063-.523-.892-.529-.828,0L54.6,268.768c1.31,10.834,2.756,21.662,3.909,32.514a59.34,59.34,0,0,1-.1,16.194,129.366,129.366,0,0,1-4.087,15.492l-9.447,31.519q-4.725,15.759-9.448,31.519l-1.175,3.92a.414.414,0,0,0,.8.22l9.5-31.676L54.041,336.8c1.531-5.109,3.2-10.2,4.417-15.4a53.489,53.489,0,0,0,1.257-15.769c-.356-5.448-1.149-10.872-1.8-16.289l-1.978-16.359-2.664-22.035a.435.435,0,0,0,.163-.088,55.317,55.317,0,0,0,12.908-16,56.025,56.025,0,0,0,2.446-5.218c.2-.493-.6-.708-.8-.22" fill="#242456"/>
              <path id="Trazado_873673" data-name="Trazado 873673" d="M63.262,222.634l-8.6-20.487q-1.219-2.907-2.441-5.813c-.2-.484-1-.271-.8.22q4.3,10.243,8.6,20.488,1.221,2.905,2.441,5.812c.2.484,1,.272.8-.22" fill="#242456"/>
              <path id="Trazado_873674" data-name="Trazado 873674" d="M46.654,195.47l-4.815-2.457c-.474-.242-.893.472-.418.715l4.815,2.457c.474.242.893-.472.418-.715" fill="#242456"/>
              <path id="Trazado_873675" data-name="Trazado 873675" d="M132.165,233.407q-3.126-7.837-6.25-15.674c-.2-.49-1-.276-.8.22q3.125,7.837,6.248,15.674c.2.489,1,.276.8-.22" fill="#242456"/>
              <path id="Trazado_873676" data-name="Trazado 873676" d="M61.927,137.612c.044-.531-.784-.528-.828,0q-.894,10.727-1.787,21.452a56.533,56.533,0,0,1-20.419.866c-.522-.073-.747.725-.22.8a57.685,57.685,0,0,0,21.128-.922.366.366,0,0,0,.283-.454.424.424,0,0,0,.045-.156q.9-10.793,1.8-21.585" fill="#ffe7ca"/>
              <path id="Trazado_873677" data-name="Trazado 873677" d="M110.451,129.569c-.213-.487-.927-.066-.715.418a81.657,81.657,0,0,1,6.191,22.438c.066.522.895.529.828,0a82.987,82.987,0,0,0-6.3-22.856" fill="#ffe7ca"/>
              <path id="Trazado_873678" data-name="Trazado 873678" d="M103.215,159.628l-24.122,9.9L72.2,172.353c-.486.2-.274,1,.221.8l24.12-9.9,6.892-2.827c.487-.2.274-1-.219-.8" fill="#ffe7ca"/>
              <path id="Trazado_873679" data-name="Trazado 873679" d="M102.228,168.12,81.659,171.8c-.525.094-.3.892.219.8l20.569-3.684c.524-.094.3-.892-.219-.8" fill="#ffe7ca"/>
              <path id="Trazado_873680" data-name="Trazado 873680" d="M48.485,112.734a1.262,1.262,0,0,0-1.757,0L43.184,116.4a1.242,1.242,0,0,0,1.757,1.757l3.544-3.671a1.259,1.259,0,0,0,0-1.757" fill="#3c3c7c"/>
              <path id="Trazado_873681" data-name="Trazado 873681" d="M57.812,118.2q-1-1.842-2-3.683a1.255,1.255,0,0,0-1.7-.446,1.268,1.268,0,0,0-.446,1.7q1,1.842,2,3.683a1.255,1.255,0,0,0,1.7.446,1.268,1.268,0,0,0,.446-1.7" fill="#3c3c7c"/>
              <path id="Trazado_873682" data-name="Trazado 873682" d="M52.8,125.83l-1.4-3.371a1.362,1.362,0,0,0-.571-.742,1.242,1.242,0,0,0-1.7.445,1.2,1.2,0,0,0-.126.958q.7,1.684,1.4,3.371a1.367,1.367,0,0,0,.571.742,1.243,1.243,0,0,0,1.7-.446,1.2,1.2,0,0,0,.125-.957" fill="#3c3c7c"/>
              <path id="Trazado_873683" data-name="Trazado 873683" d="M43.145,131.825l-2.17-3.055a1.345,1.345,0,0,0-.743-.571,1.269,1.269,0,0,0-.957.125,1.255,1.255,0,0,0-.571.743,1.226,1.226,0,0,0,.125.957L41,133.079a1.336,1.336,0,0,0,.743.571,1.269,1.269,0,0,0,.957-.125,1.251,1.251,0,0,0,.571-.743,1.221,1.221,0,0,0-.125-.957" fill="#3c3c7c"/>
              <path id="Trazado_873684" data-name="Trazado 873684" d="M54.923,134.554a1.256,1.256,0,0,0-.742-.571,1.423,1.423,0,0,0-.958.125l-3.81,1.747a1.246,1.246,0,0,0-.571.743,1.269,1.269,0,0,0,.125.957,1.252,1.252,0,0,0,.742.571,1.418,1.418,0,0,0,.958-.125l3.81-1.747a1.247,1.247,0,0,0,.571-.743,1.269,1.269,0,0,0-.125-.957" fill="#3c3c7c"/>
              <path id="Trazado_873685" data-name="Trazado 873685" d="M64.427,129.536c-.042-.1-.084-.2-.125-.3a1.251,1.251,0,0,0-.446-.445l-2.891-2.183a1.246,1.246,0,0,0-.957-.125,1.266,1.266,0,0,0-.743.571,1.252,1.252,0,0,0-.125.957l.125.3a1.251,1.251,0,0,0,.446.445l2.891,2.183a1.246,1.246,0,0,0,.957.125,1.242,1.242,0,0,0,.868-1.528" fill="#3c3c7c"/>
              <path id="Trazado_873686" data-name="Trazado 873686" d="M70.191,114.109l-5.075-1.029a1.243,1.243,0,1,0-.66,2.4L69.53,116.5a1.243,1.243,0,1,0,.661-2.4" fill="#3c3c7c"/>
              <path id="Trazado_873687" data-name="Trazado 873687" d="M75.946,128.145a1.243,1.243,0,0,0-.32-.548l-2.3-2.917a1.241,1.241,0,0,0-.879-.364,1.267,1.267,0,0,0-.878.364,1.252,1.252,0,0,0-.364.879c.015.11.03.22.044.33a1.247,1.247,0,0,0,.32.548l2.3,2.917a1.247,1.247,0,0,0,.879.364,1.264,1.264,0,0,0,.878-.364,1.248,1.248,0,0,0,.364-.879c-.014-.11-.029-.22-.044-.33" fill="#3c3c7c"/>
              <path id="Trazado_873688" data-name="Trazado 873688" d="M71.948,137.971q-.384-1.611-.769-3.223a1.254,1.254,0,0,0-1.529-.868,1.269,1.269,0,0,0-.867,1.529q.384,1.611.769,3.223a1.253,1.253,0,0,0,1.528.867,1.268,1.268,0,0,0,.868-1.528" fill="#3c3c7c"/>
              <path id="Trazado_873689" data-name="Trazado 873689" d="M68.453,145.961,66.918,143.2a1.243,1.243,0,1,0-2.146,1.254q.768,1.382,1.535,2.763a1.243,1.243,0,0,0,2.146-1.254" fill="#3c3c7c"/>
              <path id="Trazado_873690" data-name="Trazado 873690" d="M53.542,144.809l-3.378-1.994a1.243,1.243,0,1,0-1.254,2.146l3.378,1.994a1.243,1.243,0,1,0,1.254-2.146" fill="#3c3c7c"/>
              <path id="Trazado_873691" data-name="Trazado 873691" d="M39.559,138.192a1.252,1.252,0,0,0-.878-.364,1.218,1.218,0,0,0-.879.364l-2.427,2.94a1.333,1.333,0,0,0-.364.879,1.243,1.243,0,0,0,1.242,1.242,1.215,1.215,0,0,0,.879-.364l2.427-2.94a1.338,1.338,0,0,0,.364-.878,1.263,1.263,0,0,0-.364-.879" fill="#3c3c7c"/>
              <path id="Trazado_873692" data-name="Trazado 873692" d="M44.765,148.143l-1.668-2.47a1.319,1.319,0,0,0-.742-.571,1.268,1.268,0,0,0-.957.125,1.251,1.251,0,0,0-.571.743,1.235,1.235,0,0,0,.125.957l1.667,2.47a1.324,1.324,0,0,0,.743.571,1.269,1.269,0,0,0,.957-.125,1.243,1.243,0,0,0,.446-1.7" fill="#3c3c7c"/>
              <path id="Trazado_873693" data-name="Trazado 873693" d="M38.541,154.4l-2.465-2.293a1.3,1.3,0,0,0-.879-.364,1.259,1.259,0,0,0-.878.364,1.244,1.244,0,0,0-.364.878,1.262,1.262,0,0,0,.364.879l2.465,2.293a1.3,1.3,0,0,0,.877.364,1.243,1.243,0,0,0,.88-2.121" fill="#3c3c7c"/>
              <path id="Trazado_873694" data-name="Trazado 873694" d="M52.813,153.046a1.256,1.256,0,0,0-.742-.571,1.21,1.21,0,0,0-.958.125l-3.084,2.283a1.35,1.35,0,0,0-.571.742,1.271,1.271,0,0,0,.125.958,1.256,1.256,0,0,0,.742.571,1.215,1.215,0,0,0,.958-.126l3.084-2.282a1.353,1.353,0,0,0,.571-.743,1.269,1.269,0,0,0-.125-.957" fill="#3c3c7c"/>
              <path id="Trazado_873695" data-name="Trazado 873695" d="M69.046,159.478q-.688-1.612-1.376-3.226a1.238,1.238,0,0,0-.742-.571,1.243,1.243,0,0,0-1.529.868c-.014.11-.029.22-.044.33a1.235,1.235,0,0,0,.17.627l1.375,3.226a1.243,1.243,0,0,0,.743.571,1.269,1.269,0,0,0,.957-.125,1.251,1.251,0,0,0,.571-.743l.045-.33a1.245,1.245,0,0,0-.17-.627" fill="#3c3c7c"/>
              <path id="Trazado_873696" data-name="Trazado 873696" d="M77.816,150.258a1.256,1.256,0,0,0-.742-.571,1.21,1.21,0,0,0-.958.125l-3.529,2.612a1.351,1.351,0,0,0-.571.742,1.268,1.268,0,0,0,.125.957,1.251,1.251,0,0,0,.743.571,1.208,1.208,0,0,0,.957-.125l3.529-2.611a1.353,1.353,0,0,0,.571-.743,1.269,1.269,0,0,0-.125-.957" fill="#3c3c7c"/>
              <path id="Trazado_873697" data-name="Trazado 873697" d="M81.446,143.99l-.125-.3a1.262,1.262,0,0,0-.446-.446l-2.446-1.855a1.241,1.241,0,0,0-.957-.125,1.244,1.244,0,0,0-.868,1.528l.126.3a1.248,1.248,0,0,0,.445.445l2.446,1.856a1.246,1.246,0,0,0,.957.125,1.242,1.242,0,0,0,.868-1.528" fill="#3c3c7c"/>
              <path id="Trazado_873698" data-name="Trazado 873698" d="M85.616,133.975a1.273,1.273,0,0,0-1.528-.868l-4.769,1.027a1.252,1.252,0,0,0-.868,1.528,1.271,1.271,0,0,0,1.528.868l4.769-1.027a1.252,1.252,0,0,0,.868-1.528" fill="#3c3c7c"/>
              <path id="Trazado_873699" data-name="Trazado 873699" d="M85.172,127.266l-3.07-3.684a1.251,1.251,0,0,0-.879-.364,1.267,1.267,0,0,0-.878.364,1.248,1.248,0,0,0-.364.879,1.4,1.4,0,0,0,.364.878l3.07,3.684a1.243,1.243,0,0,0,2.121-.878,1.413,1.413,0,0,0-.364-.879" fill="#3c3c7c"/>
              <path id="Trazado_873700" data-name="Trazado 873700" d="M94.411,120.045a1.259,1.259,0,0,0-1.7-.446L88.87,122.2a1.323,1.323,0,0,0-.571.742,1.243,1.243,0,0,0,1.825,1.4l3.841-2.6a1.321,1.321,0,0,0,.571-.743,1.269,1.269,0,0,0-.125-.957" fill="#3c3c7c"/>
              <path id="Trazado_873701" data-name="Trazado 873701" d="M100.317,116.99a1.39,1.39,0,0,0-.571-.742l-2.9-2.012a1.242,1.242,0,0,0-1.7.446,1.247,1.247,0,0,0-.125.957,1.394,1.394,0,0,0,.57.743l2.906,2.011a1.243,1.243,0,0,0,1.825-1.4" fill="#3c3c7c"/>
              <path id="Trazado_873702" data-name="Trazado 873702" d="M100.047,126.663l-2.3-2.609a1.243,1.243,0,0,0-2.121.879,1.363,1.363,0,0,0,.364.878l2.3,2.609a1.243,1.243,0,0,0,2.121-.878,1.364,1.364,0,0,0-.364-.879" fill="#3c3c7c"/>
              <path id="Trazado_873703" data-name="Trazado 873703" d="M94.511,134.039l-2.82-2.231a1.383,1.383,0,0,0-.878-.364,1.268,1.268,0,0,0-.879.364,1.252,1.252,0,0,0-.364.879,1.2,1.2,0,0,0,.364.878l2.82,2.231a1.383,1.383,0,0,0,.878.364,1.243,1.243,0,0,0,1.243-1.242,1.206,1.206,0,0,0-.364-.879" fill="#3c3c7c"/>
              <path id="Trazado_873704" data-name="Trazado 873704" d="M91.317,140.893a1.243,1.243,0,0,0-1.7-.446l-.251.195a1.238,1.238,0,0,0-.32.548q-.535,1.3-1.072,2.61a1.246,1.246,0,0,0,.125.958,1.273,1.273,0,0,0,.743.571,1.259,1.259,0,0,0,.957-.126l.252-.194a1.242,1.242,0,0,0,.319-.548q.537-1.3,1.072-2.611a1.244,1.244,0,0,0-.125-.957" fill="#3c3c7c"/>
              <path id="Trazado_873705" data-name="Trazado 873705" d="M99.189,146.141l-1.2-2.929a1.358,1.358,0,0,0-.571-.743,1.242,1.242,0,0,0-1.7.446,1.2,1.2,0,0,0-.126.957l1.2,2.93a1.364,1.364,0,0,0,.571.742,1.243,1.243,0,0,0,1.7-.446,1.2,1.2,0,0,0,.125-.957" fill="#3c3c7c"/>
              <path id="Trazado_873706" data-name="Trazado 873706" d="M105.315,142.378l-2.262-2.948a1.4,1.4,0,0,0-.742-.571,1.276,1.276,0,0,0-.958.126,1.253,1.253,0,0,0-.571.742,1.2,1.2,0,0,0,.126.957l2.261,2.948a.952.952,0,0,0,.32.349.929.929,0,0,0,.423.222,1.269,1.269,0,0,0,.957-.125,1.251,1.251,0,0,0,.571-.743,1.2,1.2,0,0,0-.125-.957" fill="#3c3c7c"/>
              <path id="Trazado_873707" data-name="Trazado 873707" d="M105.448,132.6l-3.07,0a1.276,1.276,0,0,0-.878.364,1.242,1.242,0,0,0,.878,2.121l3.07,0a1.289,1.289,0,0,0,.879-.364,1.243,1.243,0,0,0-.879-2.121" fill="#3c3c7c"/>
              <path id="Trazado_873708" data-name="Trazado 873708" d="M108.055,125.685l-.458-3.224a1.24,1.24,0,0,0-.571-.742,1.241,1.241,0,0,0-1.7.445l-.125.3a1.236,1.236,0,0,0,0,.661q.228,1.611.458,3.224a1.242,1.242,0,0,0,.571.742,1.243,1.243,0,0,0,1.7-.446c.041-.1.083-.2.125-.3a1.256,1.256,0,0,0,0-.661" fill="#3c3c7c"/>
              <path id="Trazado_873709" data-name="Trazado 873709" d="M105.923,114.475q-.3-1.461-.593-2.921a1.243,1.243,0,0,0-2.271-.3,1.373,1.373,0,0,0-.126.957l.594,2.921a1.243,1.243,0,0,0,2.271.3,1.373,1.373,0,0,0,.125-.957" fill="#3c3c7c"/>
              <path id="Trazado_873710" data-name="Trazado 873710" d="M115.692,118.95l-.125-.3a1.251,1.251,0,0,0-.446-.445l-2.323-1.66a1.25,1.25,0,0,0-.957-.125,1.241,1.241,0,0,0-.868,1.528l.125.3a1.251,1.251,0,0,0,.446.445l2.323,1.66a1.243,1.243,0,0,0,1.825-1.4" fill="#3c3c7c"/>
              <path id="Trazado_873711" data-name="Trazado 873711" d="M114.2,124.93a1.266,1.266,0,0,0-1.242,1.242l-.057,3.069a1.243,1.243,0,1,0,2.485,0q.028-1.534.056-3.069a1.254,1.254,0,0,0-1.242-1.242" fill="#3c3c7c"/>
              <path id="Trazado_873712" data-name="Trazado 873712" d="M122.792,130.783l-2.928-3.213a1.252,1.252,0,0,0-1.757,0,1.269,1.269,0,0,0,0,1.757l2.928,3.213a1.251,1.251,0,0,0,1.757,0,1.27,1.27,0,0,0,0-1.757" fill="#3c3c7c"/>
              <path id="Trazado_873713" data-name="Trazado 873713" d="M119.256,136.044a1.242,1.242,0,0,0-1.757,0l-.194.251a1.236,1.236,0,0,0-.17.628l-.318,2.608a1.237,1.237,0,0,0,.364.878,1.242,1.242,0,0,0,1.757,0l.194-.251a1.235,1.235,0,0,0,.17-.627l.318-2.608a1.238,1.238,0,0,0-.364-.879" fill="#3c3c7c"/>
              <path id="Trazado_873714" data-name="Trazado 873714" d="M124.862,139.675a1.336,1.336,0,0,0-.364-.878,1.242,1.242,0,0,0-1.757,0,1.211,1.211,0,0,0-.364.878l.3,3.224a1.338,1.338,0,0,0,.364.879,1.242,1.242,0,0,0,1.757,0,1.215,1.215,0,0,0,.364-.879Z" fill="#3c3c7c"/>
              <path id="Trazado_873715" data-name="Trazado 873715" d="M106.795,152.246l-1.23-3.223a1.347,1.347,0,0,0-.571-.742,1.243,1.243,0,0,0-1.7.446,1.215,1.215,0,0,0-.125.957l1.23,3.223a1.347,1.347,0,0,0,.571.742,1.243,1.243,0,0,0,1.7-.446,1.219,1.219,0,0,0,.125-.957" fill="#3c3c7c"/>
              <path id="Trazado_873716" data-name="Trazado 873716" d="M90.72,151.372a1.268,1.268,0,0,0-1.528.868l-1.071,3.531a1.243,1.243,0,1,0,2.4.661l1.071-3.532a1.254,1.254,0,0,0-.868-1.528" fill="#3c3c7c"/>
              <path id="Trazado_873717" data-name="Trazado 873717" d="M83.732,155.684,81.7,152.949a1.355,1.355,0,0,0-.742-.571A1.265,1.265,0,0,0,80,152.5a1.249,1.249,0,0,0-.571.742,1.207,1.207,0,0,0,.125.957l2.033,2.735a1.353,1.353,0,0,0,.743.571,1.269,1.269,0,0,0,.957-.125,1.251,1.251,0,0,0,.571-.743,1.208,1.208,0,0,0-.125-.957" fill="#3c3c7c"/>
              <path id="Trazado_873718" data-name="Trazado 873718" d="M78.706,164.093l-2.125-3.545a1.242,1.242,0,1,0-2.145,1.254l2.124,3.545a1.243,1.243,0,0,0,2.146-1.254" fill="#3c3c7c"/>
              <path id="Trazado_873719" data-name="Trazado 873719" d="M88.835,162.358a1.264,1.264,0,0,0-1.528-.868l-3.686,1.07a1.243,1.243,0,0,0,.661,2.4l3.685-1.07a1.258,1.258,0,0,0,.868-1.528" fill="#3c3c7c"/>
              <path id="Trazado_873720" data-name="Trazado 873720" d="M60.015,170.5q-.462-1.919-.925-3.836a1.254,1.254,0,0,0-1.529-.868,1.268,1.268,0,0,0-.867,1.528q.462,1.919.925,3.837a1.253,1.253,0,0,0,1.528.867,1.268,1.268,0,0,0,.868-1.528" fill="#3c3c7c"/>
              <path id="Trazado_873721" data-name="Trazado 873721" d="M67.173,169.787l-1.863-2.9a1.313,1.313,0,0,0-.743-.571,1.243,1.243,0,0,0-1.4,1.825l1.863,2.9a1.309,1.309,0,0,0,.743.571,1.269,1.269,0,0,0,.957-.125,1.243,1.243,0,0,0,.446-1.7" fill="#3c3c7c"/>
              <path id="Trazado_873722" data-name="Trazado 873722" d="M64.447,177.272a1.244,1.244,0,0,0-1.528-.868,1.248,1.248,0,0,0-.743.571l-1.5,2.933a1.313,1.313,0,0,0-.125.957,1.242,1.242,0,0,0,1.528.868,1.246,1.246,0,0,0,.742-.571l1.5-2.933a1.318,1.318,0,0,0,.125-.957" fill="#3c3c7c"/>
              <path id="Trazado_873723" data-name="Trazado 873723" d="M58.66,184.16l-2.137-2.925a1.353,1.353,0,0,0-.743-.571,1.269,1.269,0,0,0-.957.125,1.251,1.251,0,0,0-.571.743,1.212,1.212,0,0,0,.125.957l2.137,2.925a1.353,1.353,0,0,0,.743.571,1.269,1.269,0,0,0,.957-.125,1.251,1.251,0,0,0,.571-.743,1.213,1.213,0,0,0-.125-.957" fill="#3c3c7c"/>
              <path id="Trazado_873724" data-name="Trazado 873724" d="M72.354,181.874a1.252,1.252,0,0,0-.879-.364l-.33.044a1.253,1.253,0,0,0-.548.32l-2.737,2.182a1.246,1.246,0,0,0-.363.879,1.266,1.266,0,0,0,.363.878,1.248,1.248,0,0,0,.879.364l.33-.044a1.238,1.238,0,0,0,.548-.32l2.737-2.182a1.245,1.245,0,0,0,.364-.879,1.263,1.263,0,0,0-.364-.878" fill="#3c3c7c"/>
              <path id="Trazado_873725" data-name="Trazado 873725" d="M80.55,177.514l-2.92-1.836a1.254,1.254,0,0,0-1.7.445,1.269,1.269,0,0,0,.446,1.7l2.92,1.837a1.255,1.255,0,0,0,1.7-.446,1.269,1.269,0,0,0-.446-1.7" fill="#3c3c7c"/>
              <path id="Trazado_873726" data-name="Trazado 873726" d="M84.1,184.224a1.265,1.265,0,0,0-1.528-.868l-3.523.949a1.243,1.243,0,0,0,.66,2.4l3.523-.949a1.256,1.256,0,0,0,.868-1.528" fill="#3c3c7c"/>
              <path id="Trazado_873727" data-name="Trazado 873727" d="M91.615,178.015l-.125-.3a1.251,1.251,0,0,0-.446-.445l-1.985-1.4a.931.931,0,0,0-.462-.148.951.951,0,0,0-.5.022,1.272,1.272,0,0,0-.742.571,1.255,1.255,0,0,0-.125.958l.125.3a1.238,1.238,0,0,0,.446.446l1.985,1.4a.92.92,0,0,0,.462.147.937.937,0,0,0,.5-.022,1.242,1.242,0,0,0,.868-1.528" fill="#3c3c7c"/>
              <path id="Trazado_873728" data-name="Trazado 873728" d="M97.906,181.127a1.253,1.253,0,0,0-.571-.742,1.212,1.212,0,0,0-.957-.126l-4.116,1.61a1.351,1.351,0,0,0-.742.571,1.243,1.243,0,0,0,.446,1.7,1.207,1.207,0,0,0,.957.125l4.115-1.61a1.349,1.349,0,0,0,.743-.571,1.265,1.265,0,0,0,.125-.957" fill="#3c3c7c"/>
              <path id="Trazado_873729" data-name="Trazado 873729" d="M103.423,174.5a1.273,1.273,0,0,0-.572-.743l-2.536-1.365a1.3,1.3,0,0,0-.957-.125,1.242,1.242,0,0,0-.3,2.271L101.6,175.9a1.3,1.3,0,0,0,.957.125,1.242,1.242,0,0,0,.869-1.528" fill="#3c3c7c"/>
              <path id="Trazado_873730" data-name="Trazado 873730" d="M109.228,175.471a1.252,1.252,0,0,0-.878-.364,1.379,1.379,0,0,0-.879.364l-3.205,2.784a1.251,1.251,0,0,0-.364.878,1.263,1.263,0,0,0,.364.879,1.25,1.25,0,0,0,.878.364,1.379,1.379,0,0,0,.879-.364l3.2-2.784a1.242,1.242,0,0,0,0-1.757" fill="#3c3c7c"/>
              <path id="Trazado_873731" data-name="Trazado 873731" d="M108.2,169.126q-.381-1.766-.761-3.532a1.252,1.252,0,0,0-1.528-.868,1.273,1.273,0,0,0-.868,1.529l.761,3.532a1.251,1.251,0,0,0,1.528.867,1.27,1.27,0,0,0,.868-1.528" fill="#3c3c7c"/>
              <path id="Trazado_873732" data-name="Trazado 873732" d="M112.476,160.228,111,156.367a1.342,1.342,0,0,0-.571-.743,1.243,1.243,0,0,0-1.825,1.4l1.473,3.862a1.343,1.343,0,0,0,.571.742,1.243,1.243,0,0,0,1.825-1.4" fill="#3c3c7c"/>
              <path id="Trazado_873733" data-name="Trazado 873733" d="M115.368,175.738q-.54-1.764-1.077-3.53a1.242,1.242,0,1,0-2.395.662q.537,1.764,1.075,3.53a1.243,1.243,0,0,0,2.4-.662" fill="#3c3c7c"/>
              <path id="Trazado_873734" data-name="Trazado 873734" d="M102.056,154.739a1.257,1.257,0,0,0-1.528-.868l-4.266,1.62a1.345,1.345,0,0,0-.743.571,1.275,1.275,0,0,0-.125.957,1.257,1.257,0,0,0,1.528.868l4.266-1.62a1.342,1.342,0,0,0,.743-.571,1.265,1.265,0,0,0,.125-.957" fill="#3c3c7c"/>
              <path id="Trazado_873735" data-name="Trazado 873735" d="M112.218,142.591a1.243,1.243,0,0,0-1.7-.446,1.435,1.435,0,0,0-.571.743q-.831,2.124-1.663,4.248a1.248,1.248,0,0,0,.126.957,1.242,1.242,0,0,0,1.7.446,1.433,1.433,0,0,0,.57-.743q.833-2.124,1.663-4.248a1.244,1.244,0,0,0-.125-.957" fill="#3c3c7c"/>
              <path id="Trazado_873736" data-name="Trazado 873736" d="M106.276,66.309V86.253a13.7,13.7,0,0,1-.24,2.552v.008A13.986,13.986,0,0,1,93.7,100.127l1.93,5.765s-3.065,11.62-12.954,11.512-14.105-12.026-14.105-12.026l.058-.249,2.609-10.99V94.13l2.675-11.264v-.008a8.4,8.4,0,0,1-1.574-1.119c-.116-.116-.24-.223-.348-.339a8.073,8.073,0,0,1-.944-1.11,10.026,10.026,0,0,1-1.781-4.97,6.716,6.716,0,0,1,.936-4.307,4.255,4.255,0,0,1,.555-.654,4.863,4.863,0,0,1,3.819-1.391,3.42,3.42,0,0,1,2.054.894,1.983,1.983,0,0,1,.372.472,13.391,13.391,0,0,0,1.176-.886,6.329,6.329,0,0,0,.564-.489,6.415,6.415,0,0,0,.538-.53,17.024,17.024,0,0,0,1.9-2.3c.29-.406.555-.828.8-1.259V64.86a20.048,20.048,0,0,0,1.044-2.005c.315-.687.6-1.391.853-2.1a21.121,21.121,0,0,1,9.45-2.1c.207.016.414.024.63.041a15.7,15.7,0,0,1,6.253,1.872c.273.149.547.306.812.472a16.34,16.34,0,0,1,2.94,2.336,15.535,15.535,0,0,1,2.311,2.94" fill="#ffb27d"/>
              <path id="Trazado_873737" data-name="Trazado 873737" d="M73.916,82.857v.008a8.385,8.385,0,0,1-1.574-1.126,8.344,8.344,0,0,0,1.574,1.118" fill="#ffb27d"/>
              <path id="Trazado_873738" data-name="Trazado 873738" d="M95.63,105.889c-15.447,0-17.12-10.171-17.294-12.971a13.968,13.968,0,0,0,12.225,7.273h1.781c.455,0,.911-.025,1.358-.067l1.665,4.97Z" fill="#232333"/>
              <path id="Trazado_873739" data-name="Trazado 873739" d="M120.953,59.7a16.859,16.859,0,0,0-1.632,5.533c-.364,2.625-.381,5.292-.778,7.91a26.634,26.634,0,0,1-1.7,6.178,18.108,18.108,0,0,1-2.261,4.142,14.113,14.113,0,0,1-8.548,5.342,13.686,13.686,0,0,0,.24-2.551V66.308a15.5,15.5,0,0,0-2.311-2.94,16.384,16.384,0,0,0-2.94-2.336c-.265-.165-.538-.323-.812-.472a15.59,15.59,0,0,0-6.253-1.88c-.215-.016-.422-.033-.63-.033a21.021,21.021,0,0,0-9.45,2.1v.008c-.257.712-.538,1.416-.853,2.1s-.663,1.35-1.044,2v.008c-.256.431-.521.853-.8,1.259a16.972,16.972,0,0,1-1.9,2.3c-.174.182-.356.356-.538.53s-.373.331-.563.489a13.906,13.906,0,0,1-1.176.886,2.014,2.014,0,0,0-.373-.472v-.009a3.431,3.431,0,0,0-2.054-.894,4.846,4.846,0,0,0-3.819,1.4,4.148,4.148,0,0,0-.554.654,6.714,6.714,0,0,0-.936,4.307,10.031,10.031,0,0,0,1.78,4.97A8.072,8.072,0,0,0,72,81.4c.107.116.231.224.347.34a8.344,8.344,0,0,0,1.574,1.118v.008L71.241,94.13a4.268,4.268,0,0,1-1.383-.431,11.025,11.025,0,0,1-2.5-1.93c-1.366-1.284-2.741-2.567-4.108-3.843a21.71,21.71,0,0,0-5.334-4.058c.191-.332.365-.671.53-1.019,2.949-6.287,2.6-13.534,3.057-20.458a19.391,19.391,0,0,1,.67-4.481A15.464,15.464,0,0,1,65.1,52.667a16.2,16.2,0,0,1,2.4-2.418,12.017,12.017,0,0,1,9.285-2.4A17.4,17.4,0,0,1,90.5,40.409a20.207,20.207,0,0,1,15.248,6.626c2.046,2.22,3.611,4.845,5.69,7.04a20.548,20.548,0,0,0,9.517,5.624" fill="#232333"/>
              <g id="Grupo_1100036" data-name="Grupo 1100036" opacity="0.8" style="mix-blend-mode: overlay;isolation: isolate">
                <g id="Grupo_1100035" data-name="Grupo 1100035">
                  <g id="Grupo_1100034" data-name="Grupo 1100034" clip-path="url(#clip-path-5)">
                    <path id="Trazado_873740" data-name="Trazado 873740" d="M94.71,81.237c.385,2.648,2.266,5.281,5.158,5.348,1.149.028,2.664-.414,3.153-1.57.561-1.34-.945-2.126-1.674-2.961a5.8,5.8,0,0,1-1.058-1.79c-.079-.221-.143-.457-.2-.687-.253-1.443-.554-3.042-1.971-3.794a2.17,2.17,0,0,0-2.965,1.025,5.333,5.333,0,0,0-.5,2.081,10.252,10.252,0,0,0,.062,2.348" fill="#2e333f"/>
                  </g>
                </g>
              </g>
              <g id="Grupo_1100039" data-name="Grupo 1100039" opacity="0.8" style="mix-blend-mode: overlay;isolation: isolate">
                <g id="Grupo_1100038" data-name="Grupo 1100038">
                  <g id="Grupo_1100037" data-name="Grupo 1100037" clip-path="url(#clip-path-6)">
                    <path id="Trazado_873741" data-name="Trazado 873741" d="M80.334,81.492a3.952,3.952,0,1,0,3.494-4.363,3.952,3.952,0,0,0-3.494,4.363" fill="#2e333f"/>
                  </g>
                </g>
              </g>
              <path id="Trazado_873742" data-name="Trazado 873742" d="M101.5,71.174a1.248,1.248,0,0,1,1.5-.85,19.021,19.021,0,0,1,3.349,1.025,1.333,1.333,0,0,1,.728.56,1.242,1.242,0,0,1,.123.939,1.23,1.23,0,0,1-.56.728,1.177,1.177,0,0,1-.939.123,19.021,19.021,0,0,0-3.349-1.025,1.22,1.22,0,0,1-.851-1.5" fill="#232333"/>
              <path id="Trazado_873743" data-name="Trazado 873743" d="M87.4,71.088a30.1,30.1,0,0,1,4.036-.9,1.337,1.337,0,0,1,.939.123,1.219,1.219,0,0,1,.437,1.668,1.179,1.179,0,0,1-.728.56,29.939,29.939,0,0,0-4.036.9,1.231,1.231,0,0,1-1.5-.851,1.243,1.243,0,0,1,.851-1.5" fill="#232333"/>
              <path id="Trazado_873744" data-name="Trazado 873744" d="M94.247,92.79a3.883,3.883,0,0,1-2.671-.385,4.125,4.125,0,0,1-1.643-1.894,6.821,6.821,0,0,1-.533-2.819,3.21,3.21,0,0,1,.814-2.487,1.834,1.834,0,0,1,2.213-.125,5.246,5.246,0,0,1,1.406,2.308,4.6,4.6,0,0,1,2.39.215,2.576,2.576,0,0,1,1.62,1.931c.252,1.9-2.072,2.975-3.6,3.256" fill="#232333"/>
              <path id="Trazado_873745" data-name="Trazado 873745" d="M92.895,75.961a2.342,2.342,0,1,1-2.34-2.43,2.387,2.387,0,0,1,2.34,2.43" fill="#232333"/>
              <path id="Trazado_873746" data-name="Trazado 873746" d="M105.841,75.961a2.342,2.342,0,1,1-2.34-2.43,2.387,2.387,0,0,1,2.34,2.43" fill="#232333"/>
              <path id="Trazado_873747" data-name="Trazado 873747" d="M75.106,73.036A2.62,2.62,0,0,0,73.12,70.7,1.689,1.689,0,0,0,71.1,72.458c.057.494.84.5.782,0a.88.88,0,0,1,.713-.985,1.38,1.38,0,0,1,1.274.536,2.49,2.49,0,0,1,.5,1.446,1.251,1.251,0,0,1-.694,1.253,3.07,3.07,0,0,0-.5,4.774.391.391,0,0,0,.553-.553,2.271,2.271,0,0,1-.065-3.217c.383-.39.934-.564,1.225-1.051a2.45,2.45,0,0,0,.221-1.625" fill="#232333"/>
            </g>
          </g>
        </g>
      </g>
    </g>
  </g>
</svg>
